<?xml version="1.0" encoding="UTF-8"?>
<svg width="116px" height="48px" viewBox="0 0 116 48" version="1.1" xmlns="http://www.w3.org/2000/svg" xmlns:xlink="http://www.w3.org/1999/xlink">
    <title>875410B0-504F-4790-82BC-09CCFEE1CB81@3x</title>
    <g id="MVP-new-Plugin" stroke="none" stroke-width="1" fill="none" fill-rule="evenodd">
        <g id="03-MVP-Authentication-Tooltip" transform="translate(-968.000000, -336.000000)" fill="#000000">
            <g id="Trusted-Shops-Logo" transform="translate(968.500000, 336.000000)">
                <path d="M71.0471748,34.8795144 C74.7734423,34.8795144 76.8076809,37.6697748 76.8076809,41.0180314 C76.8076809,44.9964461 74.3954314,47.4086957 70.8491491,47.4086957 C67.2487453,47.4086957 65.1424846,44.6904573 65.1424846,41.2340976 C65.1424846,37.5977528 67.4646716,34.8795144 71.0471748,34.8795144 Z M48.4863694,34.8795144 C49.8546487,34.8795144 50.8626779,35.1674628 51.5827586,35.4914921 L50.970641,37.7057159 C50.4845271,37.4717491 49.6205421,37.1296793 48.4323878,37.1296793 C47.2442336,37.1296793 46.668197,37.6697748 46.668197,38.299793 C46.668197,39.0738554 47.3523366,39.4159252 48.9185018,40.0100023 C51.0607036,40.8019653 52.0687327,41.9180974 52.0687327,43.6283067 C52.0687327,45.6625453 50.5025676,47.3906552 47.1722116,47.3906552 C45.7861715,47.3906552 44.4180321,47.0306847 43.7338924,46.6526738 L44.2920284,44.3844684 C45.0300098,44.7624793 46.1641824,45.1404902 47.3342962,45.1404902 C48.5944724,45.1404902 49.2604318,44.6184352 49.2604318,43.8263324 C49.2604318,43.0703105 48.6843951,42.6381782 47.226333,42.1161231 C45.2101349,41.4140829 43.895977,40.2979507 43.895977,38.5338997 C43.895977,36.4635801 45.6242268,34.8795144 48.4863694,34.8795144 Z M92.7005021,34.8795144 C94.0686416,34.8795144 95.0768106,35.1674628 95.7967515,35.4914921 L95.1847737,37.7057159 C94.6986598,37.4717491 93.8345349,37.1296793 92.6465206,37.1296793 C91.4583663,37.1296793 90.8823297,37.6697748 90.8823297,38.299793 C90.8823297,39.0738554 91.5664694,39.4159252 93.1324947,40.0100023 C95.2746964,40.8019653 96.2828654,41.9180974 96.2828654,43.6283067 C96.2828654,45.6625453 94.7167003,47.3906552 91.3863443,47.3906552 C90.0001644,47.3906552 88.6321648,47.0306847 87.9480251,46.6526738 L88.5060213,44.3844684 C89.2441425,44.7624793 90.3783151,45.1404902 91.5484289,45.1404902 C92.8084653,45.1404902 93.4745645,44.6184352 93.4745645,43.8263324 C93.4745645,43.0703105 92.8985278,42.6381782 91.4403259,42.1161231 C89.4241277,41.4140829 88.1101097,40.2979507 88.1101097,38.5338997 C88.1101097,36.4635801 89.8382196,34.8795144 92.7005021,34.8795144 Z M56.3167756,35.0775401 L56.3167756,39.7399545 L60.8352858,39.7399545 L60.8352858,35.0775401 L63.5714248,35.0775401 L63.5714248,47.2106699 L60.8352858,47.2106699 L60.8352858,42.1341636 L56.3167756,42.1341636 L56.3167756,47.2106699 L53.5624562,47.2106699 L53.5624562,35.0775401 L56.3167756,35.0775401 Z M82.0708852,34.9874775 C83.763054,34.9874775 84.9692487,35.3115069 85.7792521,35.9595656 C86.5533145,36.5716832 87.0753695,37.5797123 87.0753695,38.7678665 C87.0753695,39.9560207 86.6793181,40.9640499 85.9592373,41.6481895 C85.0232303,42.530215 83.6370504,42.9262664 82.0169036,42.9262664 C81.6569332,42.9262664 81.332764,42.9082259 81.0808965,42.8722848 L81.0808965,47.2106699 L78.3625183,47.2106699 L78.3625183,35.2394848 C79.2086027,35.0954407 80.3967569,34.9874775 82.0708852,34.9874775 Z M70.9750129,37.0576573 C69.1208993,37.0576573 68.0407083,38.8218481 68.0407083,41.180116 C68.0407083,43.5562846 69.1568404,45.2304129 70.9930533,45.2304129 C72.8473067,45.2304129 73.9093174,43.4663619 73.9093174,41.108094 C73.9093174,38.9299511 72.8653472,37.0576573 70.9750129,37.0576573 Z M82.2149293,37.0576573 C81.6569332,37.0576573 81.2789223,37.1116388 81.0808965,37.1656204 L81.0808965,40.7481235 C81.3148634,40.8019653 81.6029516,40.8200057 81.9988632,40.8200057 C83.4570651,40.8200057 84.3571311,40.0820244 84.3571311,38.8398886 C84.3571311,37.7237564 83.5830688,37.0576573 82.2149293,37.0576573 Z M19.8211701,0.00447515711 C30.7681036,0.00447515711 39.6422003,8.87843201 39.6422003,19.8255054 C39.6422003,30.7724389 30.7681036,39.6466755 19.8211701,39.6466755 C8.87423655,39.6466755 7.2475359e-13,30.7724389 7.2475359e-13,19.8255054 C7.2475359e-13,8.87843201 8.87423655,0.00447515711 19.8211701,0.00447515711 Z M66.7603938,20.0433896 L66.7603938,27.0653307 C66.7603938,29.1645989 67.5566921,30.2323434 68.9683244,30.2323434 C70.4161776,30.2323434 71.2124759,29.219 71.2124759,27.0653307 L71.2124759,20.0433896 L73.963299,20.0433896 L73.963299,26.8843665 C73.963299,30.6486729 72.0630354,32.4404139 68.8778423,32.4404139 C65.8011718,32.4404139 63.9913903,30.739155 63.9913903,26.8481457 L63.9913903,20.0433896 L66.7603938,20.0433896 Z M80.1486654,19.8442451 C81.5242168,19.8442451 82.5377,20.1338717 83.2615567,20.4595792 L82.6462226,22.6856902 C82.1575914,22.4504647 81.2888515,22.106437 80.0944041,22.106437 C78.8999567,22.106437 78.3208434,22.6494694 78.3208434,23.282844 C78.3208434,24.0611018 79.0084793,24.4049896 80.5830353,25.0021434 C82.7367047,25.7984417 83.7501879,26.9205873 83.7501879,28.6398867 C83.7501879,30.6848937 82.1756319,32.4222336 78.8275151,32.4222336 C77.434063,32.4222336 76.0586515,32.0603052 75.3708758,31.6801966 L75.9319486,29.3999642 C76.6738457,29.779933 77.8141717,30.1600417 78.9904388,30.1600417 C80.2573278,30.1600417 80.9269232,29.6351896 80.9269232,28.8388914 C80.9269232,28.0788139 80.3478099,27.644444 78.8819162,27.1195919 C76.8549497,26.4137758 75.5337995,25.29177 75.5337995,23.5182093 C75.5337995,21.4369815 77.2711394,19.8442451 80.1486654,19.8442451 Z M107.937153,19.9529075 C110.253607,19.9529075 111.755721,20.3690971 112.932128,21.2558775 C114.198877,22.197059 114.995175,23.6990336 114.995175,25.8527029 C114.995175,28.1873365 114.144616,29.7981133 112.968209,30.7934162 C111.68328,31.8613006 109.728755,32.3679723 107.33986,32.3679723 C105.910187,32.3679723 104.896704,32.2774902 104.208928,32.1870081 L104.208928,20.2061735 C105.222411,20.0433896 106.543562,19.9529075 107.937153,19.9529075 Z M19.6571276,7.27143106 C12.7590925,7.27143106 7.16682427,12.8635594 7.16682427,19.7615946 C7.16682427,26.6597696 12.7590925,32.2516182 19.6571276,32.2516182 C26.5551628,32.2516182 32.1470114,26.6597696 32.1470114,19.7615946 C32.1470114,12.8635594 26.5551628,7.27143106 19.6571276,7.27143106 Z M52.6086884,20.0433896 L52.6086884,22.3598428 L49.2786121,22.3598428 L49.2786121,32.2412694 L46.5097485,32.2412694 L46.5097485,22.3598428 L43.2340733,22.3598428 L43.2340733,20.0433896 L52.6086884,20.0433896 Z M57.3299791,19.9529075 C59.1397606,19.9529075 60.4066496,20.2243538 61.2752497,20.9121295 C61.9992462,21.4912428 62.3973953,22.3418023 62.3973953,23.4638081 C62.3973953,25.0201839 61.2932901,26.0880682 60.2437259,26.468037 L60.2437259,26.5224382 C61.0942855,26.8661862 61.5648762,27.6806648 61.8725433,28.8026706 C62.2525121,30.178222 62.6326208,31.7706787 62.8678462,32.2412694 L60.0447213,32.2412694 C59.8455768,31.8973816 59.5559502,30.9020786 59.1940219,29.3999642 C58.8683144,27.8796694 58.3434624,27.4634798 57.2213167,27.4454393 L56.3889375,27.4454393 L56.3889375,32.2412694 L53.6561548,32.2412694 L53.6561548,20.2061735 C54.5429352,20.0614301 55.8640855,19.9529075 57.3299791,19.9529075 Z M93.6675556,20.0433896 L93.6675556,22.3598428 L90.3374793,22.3598428 L90.3374793,32.2412694 L87.5686157,32.2412694 L87.5686157,22.3598428 L84.2928007,22.3598428 L84.2928007,20.0433896 L93.6675556,20.0433896 Z M102.243775,20.0433896 L102.243775,22.3055815 L97.4840255,22.3055815 L97.4840255,24.8392197 L101.972189,24.8392197 L101.972189,27.083511 L97.4840255,27.083511 L97.4840255,29.9790775 L102.497041,29.9790775 L102.497041,32.2412694 L94.7150221,32.2412694 L94.7150221,20.0433896 L102.243775,20.0433896 Z M108.22664,22.0703561 C107.611306,22.0703561 107.213157,22.1246174 106.977792,22.1788786 L106.977792,30.1600417 C107.213157,30.2143029 107.593126,30.2143029 107.937153,30.2143029 C110.434571,30.2323434 112.063388,28.8570717 112.063388,25.9433249 C112.081429,23.4095469 110.597495,22.0703561 108.22664,22.0703561 Z M22.1233587,11.2850876 C24.1766168,11.2850876 26.9405857,12.1146698 26.9405857,14.602158 C26.9405857,19.0638896 19.9516489,20.5644657 16.5164064,21.4330657 C16.3979546,22.1834937 16.2796426,22.9333622 16.2796426,23.6836502 C16.2796426,25.2236637 17.1085256,26.6450854 18.8067079,26.6450854 C21.0177152,26.6450854 22.7946323,24.5128129 24.0976023,22.9333622 L25.0846541,23.6836502 C23.2682997,26.3686046 20.7413743,28.8169351 17.345709,28.8169351 C13.7522977,28.8169351 11.6596023,26.5663506 11.6596023,22.9333622 C11.6596023,17.0502087 16.003022,11.2850876 22.1233587,11.2850876 Z M57.6376462,21.9979145 C56.9680508,21.9979145 56.5879421,22.0523156 56.3889375,22.0883966 L56.3889375,25.4545538 L57.4747225,25.4545538 C58.8501341,25.4545538 59.6646126,24.7669179 59.6646126,23.6990336 C59.6646126,22.5770278 58.9045352,22.0160948 57.6376462,21.9979145 Z M21.728566,12.4698854 C18.8857224,12.4698854 17.4247235,17.9978233 16.8717619,20.169673 C19.517279,19.3799476 23.1894251,17.2082377 23.1894251,14.0887735 C23.1894251,13.1805963 22.6761805,12.4698854 21.728566,12.4698854 Z"></path>
            </g>
        </g>
    </g>
</svg>