<?xml version="1.0" encoding="UTF-8"?>
<svg width="81px" height="62px" viewBox="0 0 81 62" version="1.1" xmlns="http://www.w3.org/2000/svg" xmlns:xlink="http://www.w3.org/1999/xlink">
    <title>93200918-CFDD-4D18-BF57-F4AE365629B3@3x</title>
    <defs>
        <path d="M48.8097473,26.851196 L45.0131195,27.9359207 C44.6697992,28.0364478 44.411673,28.3207435 44.3446662,28.6721436 C44.1760356,29.5102341 43.9530968,30.3364751 43.6772601,31.1456396 C43.5588351,31.4837987 43.6403219,31.859811 43.8881151,32.1186076 L46.6370363,34.9595487 C46.9328226,35.2653042 46.9901558,35.7300626 46.7775428,36.0985335 L45.5923758,38.1512762 C45.3797069,38.519792 44.9484391,38.702593 44.5357209,38.5991594 L40.6803583,37.633902 C40.3331486,37.5489334 39.9675924,37.665491 39.7336526,37.9357591 C39.1735443,38.5731556 38.5738056,39.1746042 37.9380055,39.7365259 C37.6678247,39.970322 37.5511731,40.3356352 37.6358593,40.6827447 L38.5997952,44.5349214 C38.7032488,44.9475191 38.5206702,45.3787104 38.1523827,45.5915642 L36.0991404,46.7767175 C35.7307263,46.9895517 35.2658368,46.9322425 34.9601425,46.6363078 L32.1050799,43.8739961 C31.8465237,43.6259252 31.4705133,43.5441672 31.132291,43.6624772 C30.3285145,43.9378417 29.5078268,44.1611196 28.6753303,44.3309227 C28.3245152,44.3984008 28.0407963,44.6562172 27.940146,44.9989875 L26.8517914,48.8088985 C26.7348156,49.2179523 26.3609079,49.5 25.9354526,49.5 L23.5651186,49.5 C23.1396526,49.5 22.7657277,49.2179714 22.6487798,48.8088985 L21.5609964,44.9999394 C21.4604745,44.6565468 21.1761388,44.3983501 20.8246697,44.3313035 C19.9903344,44.1636057 19.1677,43.9422019 18.3619022,43.6684744 C18.0239411,43.5503834 17.6482964,43.6320524 17.3898748,43.8798029 L14.5408095,46.6363078 C14.2350845,46.9322584 13.7701599,46.9895671 13.4017164,46.7767175 L11.34895,45.5916594 C10.9807132,45.3787608 10.7981513,44.9476091 10.9015376,44.5350166 L11.8674725,40.6774139 C11.9524885,40.3297129 11.835494,39.9636957 11.5645647,39.7297672 C10.9262419,39.170633 10.3239205,38.5716887 9.761207,37.9365207 C9.52735748,37.6670032 9.16248085,37.5507922 8.81583401,37.6354251 L4.96580228,38.5992546 C4.55309192,38.7025871 4.12188347,38.5198112 3.90914735,38.1513714 L2.72321878,36.0985335 C2.51051477,35.7300966 2.56781408,35.2652978 2.86363013,34.9595487 L5.61816771,32.1132768 C5.86632175,31.854367 5.94790288,31.4779647 5.82921312,31.1395472 C5.55191437,30.3323342 5.32716696,29.5080155 5.15638095,28.6717629 C5.08912046,28.320875 4.83126089,28.0370748 4.48840368,27.936587 L0.691014315,26.8513864 C0.281878744,26.734544 0,26.3605463 0,25.9350582 L0,23.5647515 C0,23.1392633 0.281878744,22.7652656 0.691014315,22.6484233 L4.48764213,21.5632226 C4.83092695,21.4626386 5.08898305,21.1783023 5.15590498,20.8269044 C5.32474606,19.9888445 5.54774595,19.1626129 5.82350147,18.3534085 C5.94199779,18.0152518 5.86042036,17.6391978 5.61245607,17.3805356 L2.86363013,14.5401657 C2.56781408,14.2344166 2.51051477,13.7696178 2.72321878,13.401181 L3.9082906,11.3483431 C4.12116922,10.9800851 4.55234567,10.797517 4.96494554,10.9009358 L8.82097449,11.8662884 C9.16821881,11.9511664 9.53375835,11.8345406 9.7676802,11.5642409 C10.3276982,10.9268232 10.9273749,10.3253729 11.5631368,9.76347414 C11.8333992,9.52977428 11.9500395,9.16441829 11.8651878,8.81735052 L10.9006808,4.96517377 C10.7971935,4.55257343 10.9797804,4.12136243 11.3480933,3.90853103 L13.4008597,2.72337768 C13.7693095,2.5106359 14.2341466,2.56789497 14.5399527,2.86369222 L17.3951105,5.62619424 C17.6538097,5.87415105 18.0298386,5.95582353 18.3680898,5.83752279 C19.1717788,5.56229436 19.992331,5.33901872 20.8246697,5.16907726 C21.1755759,5.10178115 21.4593762,4.84389073 21.5598541,4.50101251 L22.648399,0.69110147 C22.7653748,0.282047688 23.1392825,-1.42108547e-14 23.5647378,-1.42108547e-14 L25.9350719,-1.42108547e-14 C26.3605164,-1.42108547e-14 26.734407,0.282066806 26.8514106,0.69110147 L27.93967,4.50015577 C28.0401726,4.84356045 28.3245175,5.10176537 28.6759967,5.16879168 C29.5103445,5.33647678 30.3329817,5.55791312 31.1387642,5.83171601 C31.476754,5.94960022 31.8523043,5.86791503 32.1107916,5.62029227 L34.9597617,2.86388261 C35.2654479,2.56794715 35.7303182,2.5106015 36.0987596,2.72337768 L38.151526,3.90853103 C38.5198642,4.12134004 38.7024595,4.55257082 38.5989384,4.96517377 L37.6331939,8.82277652 C37.5481483,9.17044991 37.6651507,9.53645493 37.9361017,9.77032804 C38.5743705,10.3294881 39.1766586,10.9284309 39.7393642,11.5635745 C39.9731213,11.8331702 40.3380204,11.9494001 40.684642,11.8646701 L44.5348641,10.9009358 C44.9474718,10.7974159 45.3787076,10.9800091 45.5915191,11.3483431 L46.7764957,13.401181 C46.9892908,13.7695837 46.9320253,14.234423 46.6361795,14.5401657 L43.8817371,17.3869136 C43.6336199,17.6458043 43.5520412,18.0221584 43.6706917,18.360548 C43.9479592,19.1677952 44.1726748,19.9921456 44.3434287,20.8284275 C44.4107053,21.1792546 44.6685169,21.4630058 45.0113108,21.5635082 L48.8088905,22.6487088 C49.2180256,22.7655718 49.5,23.1395437 49.5,23.565037 L49.5,25.9353437 C49.5,26.3604211 49.218373,26.734065 48.8097473,26.851196 Z M15.8325939,13.1117941 C15.7627317,12.990197 15.6433533,12.9050754 15.5056261,12.878653 C15.3678989,12.8522306 15.2254944,12.8871302 15.1155917,12.9742402 C11.5743924,15.8581997 9.51909808,20.18267 9.51909808,24.7496192 C9.51909808,29.3165685 11.5743924,33.6410387 15.1155917,36.5249983 C15.2254934,36.6120843 15.3678784,36.646979 15.5055936,36.6205771 C15.6433088,36.5941753 15.7626926,36.5090961 15.8325939,36.3875395 L21.3157763,26.8912722 C22.0809921,25.5658949 22.0809921,23.9329628 21.3157763,22.6075854 L15.8325939,13.1117941 Z M24.75,9.51815283 C22.9071962,9.51617324 21.079406,9.84947724 19.3559194,10.5017914 C19.2261765,10.5532018 19.1253124,10.6586469 19.0797125,10.7905429 C19.0341127,10.922439 19.0483136,11.0676641 19.1186004,11.1882284 L24.6124445,20.7038198 C25.3776578,22.0291929 26.7918286,22.8456633 28.3222553,22.8456633 L39.2941412,22.8456633 C39.4342548,22.8456633 39.567467,22.7848455 39.659068,22.6788229 C39.750669,22.5728002 39.7915865,22.4321585 39.7711591,22.2935436 C38.5708829,14.9297694 32.2110374,9.52076895 24.75,9.51815283 L24.75,9.51815283 Z M39.2936653,26.6529089 L28.3227312,26.6529089 C26.7923045,26.6529089 25.3781338,27.4693792 24.6129205,28.7947523 L19.1190764,38.3102485 C19.0487895,38.4308128 19.0345886,38.576038 19.0801885,38.707934 C19.1257883,38.83983 19.2266525,38.9452751 19.3563953,38.9966856 C23.6296443,40.6119638 28.4023177,40.2235868 32.3581799,37.9386634 C36.314042,35.6537401 39.0351861,31.7136553 39.7711591,27.2050285 C39.7913097,27.0665395 39.7502688,26.9261304 39.6587031,26.8202949 C39.5671375,26.7144593 39.4340901,26.6536495 39.2941412,26.6536704 L39.2936653,26.6529089 Z" id="path-1"></path>
    </defs>
    <g id="MVP-new-Plugin" stroke="none" stroke-width="1" fill="none" fill-rule="evenodd">
        <g id="04-MVP-first-login" transform="translate(-752.000000, -457.000000)">
            <g id="Settings" transform="translate(721.000000, 421.000000)">
                <g id="Feature-related/Settings" transform="translate(32.000000, 32.000000)">
                    <g id="Background-with-Horizon" transform="translate(0.568182, 4.000000)">
                        <path d="M39.4318182,0 C59.3140692,0 75.4318182,16.117749 75.4318182,36 C75.4318182,41.3534225 74.2632977,46.4339225 72.1674022,51.0003544 L6.6962342,51.0003544 C4.60033866,46.4339225 3.43181818,41.3534225 3.43181818,36 C3.43181818,16.117749 19.5495672,0 39.4318182,0 Z" id="Combined-Shape" fill="#E1F0F6"></path>
                        <line x1="4.09090909" y1="51.1914894" x2="75" y2="51.1914894" id="Stroke-5" stroke="#45413C" stroke-width="1.70212766" stroke-linecap="round" stroke-linejoin="round"></line>
                        <line x1="0" y1="51.1914894" x2="2.27272727" y2="51.1914894" id="Stroke-7" stroke="#45413C" stroke-width="1.70212766" stroke-linecap="round" stroke-linejoin="round"></line>
                        <line x1="76.3181818" y1="51.1914894" x2="78.5909091" y2="51.1914894" id="Stroke-9" stroke="#45413C" stroke-width="1.70212766" stroke-linecap="round" stroke-linejoin="round"></line>
                    </g>
                    <path d="M49.5,63.9995681 C49.5,64.8279585 45.0237946,65.5 39.5,65.5 C33.9762054,65.5 29.5,64.8270947 29.5,63.9995681 C29.5,63.1720415 33.9762054,62.5 39.5,62.5 C45.0237946,62.5 49.5,63.1711777 49.5,63.9995681 Z" id="Path" fill="#45413C" fill-rule="nonzero" opacity="0.15"></path>
                    <line x1="12.25" y1="48.5" x2="12.25" y2="45" id="Stroke-43" stroke="#4DB85F" stroke-width="1.91570881" stroke-linecap="round" stroke-linejoin="round"></line>
                    <line x1="10.5" y1="46.75" x2="14" y2="46.75" id="Stroke-44" stroke="#4DB85F" stroke-width="1.91570881" stroke-linecap="round" stroke-linejoin="round"></line>
                    <g id="Group-4" transform="translate(62.500000, 42.000000)" stroke="#4DB85F" stroke-linecap="round" stroke-linejoin="round" stroke-width="1.91570881">
                        <line x1="3.18604598" y1="0.795874384" x2="3.18604598" y2="-1.10855769e-13" id="Stroke-33"></line>
                        <line x1="4.87537931" y1="1.49495758" x2="5.4385977" y2="0.932218117" id="Stroke-34"></line>
                        <line x1="5.57545977" y1="3.18325636" x2="6.37201149" y2="3.18325636" id="Stroke-35"></line>
                        <line x1="4.87537931" y1="4.87155515" x2="5.4385977" y2="5.43429461" id="Stroke-36"></line>
                        <line x1="3.18604598" y1="5.5710403" x2="3.18604598" y2="6.36691468" id="Stroke-37"></line>
                        <line x1="1.49590805" y1="4.87155515" x2="0.932689655" y2="5.43429461" id="Stroke-38"></line>
                        <line x1="0.796551724" y1="3.18325636" x2="1.42108547e-14" y2="3.18325636" id="Stroke-39"></line>
                        <line x1="1.49590805" y1="1.49495758" x2="0.932689655" y2="0.932218117" id="Stroke-40"></line>
                    </g>
                    <g id="Group-2" transform="translate(53.000000, 11.000000)" stroke="#4DB85F" stroke-linecap="round" stroke-linejoin="round" stroke-width="1.91570881">
                        <line x1="2.12389655" y1="4.24466338" x2="2.12389655" y2="-4.70734562e-14" id="Stroke-41"></line>
                        <line x1="2.84217094e-14" y1="2.1222513" x2="4.24827586" y2="2.1222513" id="Stroke-42"></line>
                    </g>
                    <g id="Group-3" transform="translate(32.500000, 12.500000)" stroke="#4DB85F" stroke-linecap="round" stroke-linejoin="round" stroke-width="1.91570881">
                        <line x1="1.06198851" y1="2.12233169" x2="1.06198851" y2="8.94839758e-14" id="Stroke-45"></line>
                        <line x1="6.96109836e-14" y1="1.06132663" x2="2.12413793" y2="1.06132663" id="Stroke-46"></line>
                    </g>
                    <g id="Group" transform="translate(61.500000, 21.500000)" stroke="#0DBEDC" stroke-linecap="round" stroke-linejoin="round" stroke-width="1.91570881">
                        <line x1="1.06231034" y1="2.12233169" x2="1.06231034" y2="0" id="Stroke-47"></line>
                        <line x1="0" y1="1.06092467" x2="2.12494253" y2="1.06092467" id="Stroke-48"></line>
                    </g>
                    <g id="Group-5" transform="translate(13.500000, 31.500000)" stroke="#0DBEDC" stroke-linecap="round" stroke-linejoin="round" stroke-width="1.91570881">
                        <line x1="1.06190805" y1="2.12233169" x2="1.06190805" y2="-2.26485497e-14" id="Stroke-49"></line>
                        <line x1="-4.34097203e-14" y1="1.06092467" x2="2.12413793" y2="1.06092467" id="Stroke-50"></line>
                    </g>
                    <path d="M17.9136744,20.5197975 C18.0770064,20.3953393 17.9931332,20.1248449 17.7911754,20.1248449 L15.9625187,20.1240743 C15.8720239,20.1240743 15.7921972,20.0628085 15.7642394,19.973029 L15.1980953,18.1508526 C15.1355582,17.9497158 14.8640739,17.9497158 14.8015369,18.1508526 L14.2361284,19.973029 C14.2081707,20.0628085 14.1279761,20.1240743 14.0378492,20.1240743 L12.2088246,20.1248449 C12.0068668,20.1248449 11.9229936,20.3957246 12.0863256,20.5197975 L13.5662463,21.6460867 C13.6390836,21.7015727 13.6696164,21.8002145 13.6420265,21.8903793 L13.0773538,23.712941 C13.0148168,23.9140779 13.2348,24.0813066 13.398132,23.9568483 L14.8769492,22.8309445 C14.9501543,22.7754584 15.04911,22.7754584 15.1223151,22.8309445 L16.6026037,23.9572337 C16.7655679,24.0816919 16.985919,23.9144632 16.9233819,23.712941 L16.3583414,21.8903793 C16.3307515,21.8002145 16.3612843,21.7015727 16.4344894,21.6460867 L17.9136744,20.5197975 Z" id="Fill-25" fill="#FFDC0F"></path>
                    <path d="M68.4496434,32.9698819 C68.5449204,32.8972812 68.4959944,32.7394929 68.3781856,32.7394929 L67.3114692,32.7390433 C67.2586806,32.7390433 67.212115,32.7033049 67.1958063,32.6509336 L66.8655556,31.5879974 C66.8290756,31.4706675 66.6707098,31.4706675 66.6342298,31.5879974 L66.3044082,32.6509336 C66.2880996,32.7033049 66.2413194,32.7390433 66.1887454,32.7390433 L65.1218144,32.7394929 C65.0040056,32.7394929 64.9550796,32.897506 65.0503566,32.9698819 L65.9136437,33.6268839 C65.9561321,33.6592508 65.9739429,33.7167918 65.9578488,33.7693879 L65.6284564,34.8325489 C65.5919764,34.9498788 65.7203,35.0474288 65.815577,34.9748282 L66.6782204,34.3180509 C66.7209233,34.2856841 66.7786475,34.2856841 66.8213505,34.3180509 L67.6848521,34.975053 C67.7799146,35.0476536 67.9084527,34.9501035 67.8719728,34.8325489 L67.5423658,33.7693879 C67.5262717,33.7167918 67.5440825,33.6592508 67.5867855,33.6268839 L68.4496434,32.9698819 Z" id="Fill-25-Copy" fill="#FFDC0F"></path>
                    <g id="Icon-Settings-Middle" transform="translate(15.000000, 14.000000)">
                        <g id="Wheel" transform="translate(0.100000, 0.100000)">
                            <mask id="mask-2" fill="white">
                                <use xlink:href="#path-1"></use>
                            </mask>
                            <path stroke="#45413C" stroke-width="1.75" d="M25.9350719,-0.875 C26.34309,-0.875 26.7263952,-0.739765905 27.0357521,-0.506449308 C27.3008917,-0.306481395 27.5117053,-0.0344631335 27.6372331,0.286358744 L27.6927465,0.450729027 L28.7794443,4.25438305 C29.5316616,4.43972395 30.2319176,4.62478991 30.9161713,4.83897158 L31.426923,5.00552625 L34.351151,2.23521896 C34.6443846,1.95133888 35.0139677,1.78189353 35.3986009,1.73444581 C35.7282857,1.69377643 36.0690273,1.7427376 36.3821661,1.88605812 L36.5362563,1.96560355 L38.5892556,3.15089142 C38.9425912,3.35503259 39.2068374,3.66393681 39.3579241,4.02075455 C39.4874279,4.32660044 39.5337932,4.66764872 39.4819304,5.00782328 L39.4477435,5.17767073 L38.4831349,9.0306835 C39.0395782,9.56263605 39.5530799,10.0690055 40.04,10.5931967 L40.4004617,10.9903598 L44.3219333,10.0522395 C44.7177317,9.9529369 45.1224648,9.990863 45.4792836,10.1419467 C45.7851305,10.2714479 46.0557744,10.4840864 46.2555255,10.7648924 L46.349328,10.9109067 L47.5341809,12.9635304 C47.7383002,13.3169131 47.8128942,13.7165482 47.7655127,14.1011569 C47.7249001,14.4308207 47.5946732,14.749445 47.3795961,15.0184288 L47.2650088,15.1486053 L44.5134602,17.9923481 C44.7329106,18.7338876 44.9269819,19.4331228 45.0871266,20.1302763 L45.2007403,20.6533797 L49.0492092,21.8073576 C49.4416346,21.9194477 49.7730831,22.1548308 50.0064315,22.4642229 C50.2064262,22.7293917 50.3343579,23.048931 50.3668282,23.3918013 L50.375,23.565037 L50.375,25.9353437 C50.375,26.343082 50.2399371,26.726155 50.0068808,27.0353825 C49.8071255,27.3004251 49.5353794,27.511216 49.2145323,27.6369151 L49.0501229,27.692531 L45.2590031,28.7756624 C45.0728911,29.5311413 44.8866583,30.2344895 44.6708988,30.9218037 L44.5030834,31.434847 L47.2659222,34.3511677 C47.5495942,34.6444006 47.7189222,35.013879 47.7663565,35.3983938 C47.8070144,35.7279787 47.7581175,36.0686111 47.6148392,36.3818683 L47.5353126,36.5360377 L46.3502316,38.5886315 C46.1462253,38.9421366 45.837372,39.2065673 45.480543,39.357816 C45.1746917,39.4874569 44.8335935,39.5339447 44.4931875,39.48213 L44.3232086,39.4479607 L40.4723672,38.4838224 C39.9397139,39.039458 39.4327136,39.5521966 38.9080509,40.0383272 L38.5105653,40.3981907 L39.4485224,44.3221139 C39.5477535,44.7178709 39.5098059,45.1225453 39.3587366,45.4793219 C39.2292495,45.7851283 39.0166536,46.0557451 38.7358312,46.2555473 L38.5898034,46.3493822 L36.5368411,47.5343738 C36.1834188,47.7385472 35.7837217,47.8131456 35.3990664,47.7657273 C35.0693612,47.7250829 34.7507073,47.5947933 34.4818327,47.37973 L34.3517229,47.2651564 L31.4992964,44.5053845 C30.7610869,44.7233142 30.0649647,44.9161208 29.366032,45.076286 L28.8406039,45.1901722 L27.6930687,49.0494758 C27.5808885,49.4417602 27.3455025,49.7731412 27.0361594,50.0064474 C26.7709952,50.2064339 26.4514936,50.3343597 26.1086664,50.3668286 L25.9354526,50.375 L23.5651186,50.375 C23.1570747,50.375 22.7737447,50.239764 22.4643852,50.0064454 C22.1992224,49.80646 21.9884053,49.5344149 21.8629112,49.2135642 L21.8074177,49.0491793 L20.7212372,45.2457634 C19.9690304,45.0603733 19.2687975,44.8753244 18.5842795,44.6610996 L18.0732711,44.4944993 L15.1493963,47.2649946 C14.8561255,47.5488892 14.4864976,47.718324 14.1018286,47.7657401 C13.7721131,47.8063823 13.4313472,47.7573784 13.1182876,47.6140519 L12.9642461,47.5345069 L10.9109921,46.349167 C10.5578213,46.144979 10.2936902,45.8361289 10.1426404,45.4793983 C10.0131683,45.1736272 9.96677722,44.832678 10.0185852,44.4923983 L10.0527424,44.3224802 L11.017511,40.4695906 C10.4610603,39.9375352 9.94752517,39.4311345 9.46068366,38.9070326 L9.1003041,38.5099597 L5.17832069,39.4480543 C4.78248055,39.5471629 4.37776945,39.5090647 4.02100834,39.3578448 C3.71521099,39.2282268 3.44464283,39.0154978 3.24514878,38.7349348 L3.15149054,38.5890712 L1.96543489,36.5360133 C1.7614225,36.1826317 1.68689553,35.7830379 1.73430345,35.3984757 C1.77493871,35.0688517 1.90515844,34.7502711 2.12025981,34.4812488 L2.23486219,34.3510457 L4.98646712,31.5078189 C4.76698288,30.7662806 4.57288317,30.0670654 4.41271109,29.3699344 L4.29907695,28.8468481 L0.450735135,27.6927489 C0.0582775582,27.5806695 -0.273158786,27.3452758 -0.506492512,27.0358606 C-0.706455644,26.770697 -0.834365031,26.4511581 -0.866829689,26.1082916 L-0.875,25.9350582 L-0.875,23.5647515 C-0.875,23.1566749 -0.739782833,22.7733065 -0.506492512,22.463949 C-0.306492176,22.198736 -0.034416446,21.9879061 0.286260986,21.8625358 L0.450541169,21.8071161 L4.24160699,20.7235252 C4.42788165,19.967871 4.61417048,19.2645582 4.82992874,18.5771692 L4.99773319,18.0640441 L2.23478113,15.1485849 C1.95105347,14.8553301 1.78171126,14.4858 1.73430345,14.1012387 C1.69366809,13.771614 1.74261754,13.4309456 1.88590046,13.1178119 L1.96542502,12.9637183 L3.15075436,10.9104346 C3.35493254,10.5572275 3.66379827,10.2930702 4.02055416,10.1420131 C4.32634281,10.0125366 4.66731547,9.96615304 5.00755219,10.0179694 L5.17744293,10.0521308 L9.02873685,11.016312 C9.56146757,10.4605855 10.0684543,9.94781534 10.5932214,9.46157235 L10.9908107,9.10160725 L10.0519696,5.17804528 C9.9527015,4.78226679 9.99063874,4.37756232 10.1417173,4.02076393 C10.2712123,3.71493884 10.4838305,3.44430944 10.7646012,3.24455984 L10.9105966,3.1507569 L12.9633332,1.96562073 C13.3167053,1.76158479 13.7162988,1.68702451 14.1008724,1.73439663 C14.4305076,1.77500141 14.7491075,1.90518954 15.0181628,2.12026465 L15.1483835,2.23485439 L18.0005745,4.99449937 C18.7391317,4.77677179 19.4351796,4.58402167 20.1290267,4.42477962 L20.6496292,4.31176414 L21.8071217,0.450524157 C21.919302,0.0582397576 22.1546879,-0.273141233 22.464031,-0.506447367 C22.7291952,-0.706433854 23.0486969,-0.834359726 23.391524,-0.866828619 L23.5647378,-0.875 L25.9350719,-0.875 Z M38.3426392,27.5279089 L28.3227312,27.5279089 L28.1100185,27.5345314 C26.9815222,27.6049102 25.9558191,28.2320462 25.3806107,29.2151878 L25.3806107,29.2151878 L20.599246,38.4949235 L20.9781801,38.6034981 C24.6508324,39.6014363 28.592384,39.1033295 31.9205355,37.1809746 C35.383336,35.1808458 37.8378757,31.8276172 38.3426392,27.5279089 L38.3426392,27.5279089 Z M14.9277538,14.2991417 C12.0462227,16.994773 10.3940981,20.7747389 10.3940981,24.7496192 C10.3940981,28.7472059 12.0739597,32.5474706 15.5495114,35.1279293 L15.5495114,35.1279293 L20.5580217,26.4537417 L20.6650514,26.2532554 C20.898139,25.7793171 21.0146881,25.264373 21.0146881,24.7494288 C21.0146881,24.1673424 20.8657645,23.5852561 20.5679175,23.0623718 L20.5679175,23.0623718 Z M24.7496932,10.3931528 C23.2859625,10.3915806 21.831629,10.6176138 20.2989795,11.4827029 L20.2989795,11.4827029 L25.3702162,20.266319 L25.4823029,20.4472127 C26.1074725,21.389281 27.1633808,21.9639885 28.3023671,21.9706056 L28.3023671,21.9706056 L38.7162513,21.4683993 L38.6174774,21.0712989 C37.8535945,18.1766223 36.2245273,15.6686135 34.0414831,13.8119496 C31.5224575,11.669536 28.2658133,10.3943857 24.7496932,10.3931528 Z"></path>
                            <path d="M25.9350719,0 C26.3605164,0 26.734407,0.282066806 26.8514106,0.69110147 L27.93967,4.50015577 C28.0401726,4.84356045 28.3245175,5.10176537 28.6759967,5.16879168 C29.5103445,5.33647678 30.3329817,5.55791312 31.1387642,5.83171601 C31.476754,5.94960022 31.8523043,5.86791503 32.1107916,5.62029227 L34.9597617,2.86388261 C35.2654479,2.56794715 35.7303182,2.5106015 36.0987596,2.72337768 L38.151526,3.90853103 C38.5198642,4.12134004 38.7024595,4.55257082 38.5989384,4.96517377 L37.6331939,8.82277652 C37.5481483,9.17044991 37.6651507,9.53645493 37.9361017,9.77032804 C38.5743705,10.3294881 39.1766586,10.9284309 39.7393642,11.5635745 C39.9731213,11.8331702 40.3380204,11.9494001 40.684642,11.8646701 L44.5348641,10.9009358 C44.9474718,10.7974159 45.3787076,10.9800091 45.5915191,11.3483431 L46.7764957,13.401181 C46.9892908,13.7695837 46.9320253,14.234423 46.6361795,14.5401657 L43.8817371,17.3869136 C43.6336199,17.6458043 43.5520412,18.0221584 43.6706917,18.360548 C43.9479592,19.1677952 44.1726748,19.9921456 44.3434287,20.8284275 C44.4107053,21.1792546 44.6685169,21.4630058 45.0113108,21.5635082 L48.8088905,22.6487088 C49.2180256,22.7655718 49.5,23.1395437 49.5,23.565037 L49.5,25.9353437 C49.5,26.3604211 49.218373,26.734065 48.8097473,26.851196 L45.0131195,27.9359207 C44.6697992,28.0364478 44.411673,28.3207435 44.3446662,28.6721436 C44.1760356,29.5102341 43.9530968,30.3364751 43.6772601,31.1456396 C43.5588351,31.4837987 43.6403219,31.859811 43.8881151,32.1186076 L46.6370363,34.9595487 C46.9328226,35.2653042 46.9901558,35.7300626 46.7775428,36.0985335 L45.5923758,38.1512762 C45.3797069,38.519792 44.9484391,38.702593 44.5357209,38.5991594 L40.6803583,37.633902 C40.3331486,37.5489334 39.9675924,37.665491 39.7336526,37.9357591 C39.1735443,38.5731556 38.5738056,39.1746042 37.9380055,39.7365259 C37.6678247,39.970322 37.5511731,40.3356352 37.6358593,40.6827447 L38.5997952,44.5349214 C38.7032488,44.9475191 38.5206702,45.3787104 38.1523827,45.5915642 L36.0991404,46.7767175 C35.7307263,46.9895517 35.2658368,46.9322425 34.9601425,46.6363078 L32.1050799,43.8739961 C31.8465237,43.6259252 31.4705133,43.5441672 31.132291,43.6624772 C30.3285145,43.9378417 29.5078268,44.1611196 28.6753303,44.3309227 C28.3245152,44.3984008 28.0407963,44.6562172 27.940146,44.9989875 L26.8517914,48.8088985 C26.7348156,49.2179523 26.3609079,49.5 25.9354526,49.5 L23.5651186,49.5 C23.1396526,49.5 22.7657277,49.2179714 22.6487798,48.8088985 L21.5609964,44.9999394 C21.4604745,44.6565468 21.1761388,44.3983501 20.8246697,44.3313035 C19.9903344,44.1636057 19.1677,43.9422019 18.3619022,43.6684744 C18.0239411,43.5503834 17.6482964,43.6320524 17.3898748,43.8798029 L14.5408095,46.6363078 C14.2350845,46.9322584 13.7701599,46.9895671 13.4017164,46.7767175 L11.34895,45.5916594 C10.9807132,45.3787608 10.7981513,44.9476091 10.9015376,44.5350166 L11.8674725,40.6774139 C11.9524885,40.3297129 11.835494,39.9636957 11.5645647,39.7297672 C10.9262419,39.170633 10.3239205,38.5716887 9.761207,37.9365207 C9.52735748,37.6670032 9.16248085,37.5507922 8.81583401,37.6354251 L4.96580228,38.5992546 C4.55309192,38.7025871 4.12188347,38.5198112 3.90914735,38.1513714 L2.72321878,36.0985335 C2.51051477,35.7300966 2.56781408,35.2652978 2.86363013,34.9595487 L5.61816771,32.1132768 C5.86632175,31.854367 5.94790288,31.4779647 5.82921312,31.1395472 C5.55191437,30.3323342 5.32716696,29.5080155 5.15638095,28.6717629 C5.08912046,28.320875 4.83126089,28.0370748 4.48840368,27.936587 L0.691014315,26.8513864 C0.281878744,26.734544 0,26.3605463 0,25.9350582 L0,23.5647515 C0,23.1392633 0.281878744,22.7652656 0.691014315,22.6484233 L4.48764213,21.5632226 C4.83092695,21.4626386 5.08898305,21.1783023 5.15590498,20.8269044 C5.32474606,19.9888445 5.54774595,19.1626129 5.82350147,18.3534085 C5.94199779,18.0152518 5.86042036,17.6391978 5.61245607,17.3805356 L2.86363013,14.5401657 C2.56781408,14.2344166 2.51051477,13.7696178 2.72321878,13.401181 L3.9082906,11.3483431 C4.12116922,10.9800851 4.55234567,10.797517 4.96494554,10.9009358 L8.82097449,11.8662884 C9.16821881,11.9511664 9.53375835,11.8345406 9.7676802,11.5642409 C10.3276982,10.9268232 10.9273749,10.3253729 11.5631368,9.76347414 C11.8333992,9.52977428 11.9500395,9.16441829 11.8651878,8.81735052 L10.9006808,4.96517377 C10.7971935,4.55257343 10.9797804,4.12136243 11.3480933,3.90853103 L13.4008597,2.72337768 C13.7693095,2.5106359 14.2341466,2.56789497 14.5399527,2.86369222 L17.3951105,5.62619424 C17.6538097,5.87415105 18.0298386,5.95582353 18.3680898,5.83752279 C19.1717788,5.56229436 19.992331,5.33901872 20.8246697,5.16907726 C21.1755759,5.10178115 21.4593762,4.84389073 21.5598541,4.50101251 L22.648399,0.69110147 C22.7653748,0.282047688 23.1392825,0 23.5647378,0 L25.9350719,0 Z M39.2936653,26.6529089 L28.3227312,26.6529089 C26.7923045,26.6529089 25.3781338,27.4693792 24.6129205,28.7947523 L19.1190764,38.3102485 C19.0487895,38.4308128 19.0345886,38.576038 19.0801885,38.707934 C19.1257883,38.83983 19.2266525,38.9452751 19.3563953,38.9966856 C23.6296443,40.6119638 28.4023177,40.2235868 32.3581799,37.9386634 C36.314042,35.6537401 39.0351861,31.7136553 39.7711591,27.2050285 C39.7913097,27.0665395 39.7502688,26.9261304 39.6587031,26.8202949 C39.5671375,26.7144593 39.4340901,26.6536495 39.2941412,26.6536704 L39.2936653,26.6529089 Z M15.1155917,12.9742402 C11.5743924,15.8581997 9.51909808,20.18267 9.51909808,24.7496192 C9.51909808,29.3165685 11.5743924,33.6410387 15.1155917,36.5249983 C15.2254934,36.6120843 15.3678784,36.646979 15.5055936,36.6205771 C15.6433088,36.5941753 15.7626926,36.5090961 15.8325939,36.3875395 L21.3157763,26.8912722 C22.0809921,25.5658949 22.0809921,23.9329628 21.3157763,22.6075854 L15.8325939,13.1117941 C15.7627317,12.990197 15.6433533,12.9050754 15.5056261,12.878653 C15.3678989,12.8522306 15.2254944,12.8871302 15.1155917,12.9742402 Z M24.75,9.51815283 C22.9071962,9.51617324 21.079406,9.84947724 19.3559194,10.5017914 C19.2261765,10.5532018 19.1253124,10.6586469 19.0797125,10.7905429 C19.0341127,10.922439 19.0483136,11.0676641 19.1186004,11.1882284 L24.6124445,20.7038198 C25.3776578,22.0291929 26.7918286,22.8456633 28.3222553,22.8456633 L39.2941412,22.8456633 C39.4342548,22.8456633 39.567467,22.7848455 39.659068,22.6788229 C39.750669,22.5728002 39.7915865,22.4321585 39.7711591,22.2935436 C38.5708829,14.9297694 32.2110374,9.52076895 24.75,9.51815283 Z" id="Wheel-Dark-Grey" fill="#CCCCCC" fill-rule="nonzero" mask="url(#mask-2)"></path>
                            <path d="M48.8097473,25.851196 L45.0131195,26.9359207 C44.6697992,27.0364478 44.411673,27.3207435 44.3446662,27.6721436 C44.1760356,28.5102341 43.9530968,29.3364751 43.6772601,30.1456396 C43.5588351,30.4837987 43.6403219,30.859811 43.8881151,31.1186076 L46.6370363,33.9595487 C46.9328226,34.2653042 46.9901558,34.7300626 46.7775428,35.0985335 L45.5923758,37.1512762 C45.3797069,37.519792 44.9484391,37.702593 44.5357209,37.5991594 L40.6803583,36.633902 C40.3331486,36.5489334 39.9675924,36.665491 39.7336526,36.9357591 C39.1735443,37.5731556 38.5738056,38.1746042 37.9380055,38.7365259 C37.6678247,38.970322 37.5511731,39.3356352 37.6358593,39.6827447 L38.5997952,43.5349214 C38.7032488,43.9475191 38.5206702,44.3787104 38.1523827,44.5915642 L36.0991404,45.7767175 C35.7307263,45.9895517 35.2658368,45.9322425 34.9601425,45.6363078 L32.1050799,42.8739961 C31.8465237,42.6259252 31.4705133,42.5441672 31.132291,42.6624772 C30.3285145,42.9378417 29.5078268,43.1611196 28.6753303,43.3309227 C28.3245152,43.3984008 28.0407963,43.6562172 27.940146,43.9989875 L26.8517914,47.8088985 C26.7348156,48.2179523 26.3609079,48.5 25.9354526,48.5 L23.5651186,48.5 C23.1396526,48.5 22.7657277,48.2179714 22.6487798,47.8088985 L21.5609964,43.9999394 C21.4604745,43.6565468 21.1761388,43.3983501 20.8246697,43.3313035 C19.9903344,43.1636057 19.1677,42.9422019 18.3619022,42.6684744 C18.0239411,42.5503834 17.6482964,42.6320524 17.3898748,42.8798029 L14.5408095,45.6363078 C14.2350845,45.9322584 13.7701599,45.9895671 13.4017164,45.7767175 L11.34895,44.5916594 C10.9807132,44.3787608 10.7981513,43.9476091 10.9015376,43.5350166 L11.8674725,39.6774139 C11.9524885,39.3297129 11.835494,38.9636957 11.5645647,38.7297672 C10.9262419,38.170633 10.3239205,37.5716887 9.761207,36.9365207 C9.52735748,36.6670032 9.16248085,36.5507922 8.81583401,36.6354251 L4.96580228,37.5992546 C4.55309192,37.7025871 4.12188347,37.5198112 3.90914735,37.1513714 L2.72321878,35.0985335 C2.51051477,34.7300966 2.56781408,34.2652978 2.86363013,33.9595487 L5.61816771,31.1132768 C5.86632175,30.854367 5.94790288,30.4779647 5.82921312,30.1395472 C5.55191437,29.3323342 5.32716696,28.5080155 5.15638095,27.6717629 C5.08912046,27.320875 4.83126089,27.0370748 4.48840368,26.936587 L0.691014315,25.8513864 C0.281878744,25.734544 0,25.3605463 0,24.9350582 L0,22.5647515 C0,22.1392633 0.281878744,21.7652656 0.691014315,21.6484233 L4.48764213,20.5632226 C4.83092695,20.4626386 5.08898305,20.1783023 5.15590498,19.8269044 C5.32474606,18.9888445 5.54774595,18.1626129 5.82350147,17.3534085 C5.94199779,17.0152518 5.86042036,16.6391978 5.61245607,16.3805356 L2.86363013,13.5401657 C2.56781408,13.2344166 2.51051477,12.7696178 2.72321878,12.401181 L3.9082906,10.3483431 C4.12116922,9.98008514 4.55234567,9.79751704 4.96494554,9.90093578 L8.82097449,10.8662884 C9.16821881,10.9511664 9.53375835,10.8345406 9.7676802,10.5642409 C10.3276982,9.9268232 10.9273749,9.32537292 11.5631368,8.76347414 C11.8333992,8.52977428 11.9500395,8.16441829 11.8651878,7.81735052 L10.9006808,3.96517377 C10.7971935,3.55257343 10.9797804,3.12136243 11.3480933,2.90853103 L13.4008597,1.72337768 C13.7693095,1.5106359 14.2341466,1.56789497 14.5399527,1.86369222 L17.3951105,4.62619424 C17.6538097,4.87415105 18.0298386,4.95582353 18.3680898,4.83752279 C19.1717788,4.56229436 19.992331,4.33901872 20.8246697,4.16907726 C21.1755759,4.10178115 21.4593762,3.84389073 21.5598541,3.50101251 L22.648399,-0.30889853 C22.7653748,-0.717952312 23.1392825,-1 23.5647378,-1 L25.9350719,-1 C26.3605164,-1 26.734407,-0.717933194 26.8514106,-0.30889853 L27.93967,3.50015577 C28.0401726,3.84356045 28.3245175,4.10176537 28.6759967,4.16879168 C29.5103445,4.33647678 30.3329817,4.55791312 31.1387642,4.83171601 C31.476754,4.94960022 31.8523043,4.86791503 32.1107916,4.62029227 L34.9597617,1.86388261 C35.2654479,1.56794715 35.7303182,1.5106015 36.0987596,1.72337768 L38.151526,2.90853103 C38.5198642,3.12134004 38.7024595,3.55257082 38.5989384,3.96517377 L37.6331939,7.82277652 C37.5481483,8.17044991 37.6651507,8.53645493 37.9361017,8.77032804 C38.5743705,9.32948811 39.1766586,9.92843093 39.7393642,10.5635745 C39.9731213,10.8331702 40.3380204,10.9494001 40.684642,10.8646701 L44.5348641,9.90093578 C44.9474718,9.79741592 45.3787076,9.98000914 45.5915191,10.3483431 L46.7764957,12.401181 C46.9892908,12.7695837 46.9320253,13.234423 46.6361795,13.5401657 L43.8817371,16.3869136 C43.6336199,16.6458043 43.5520412,17.0221584 43.6706917,17.360548 C43.9479592,18.1677952 44.1726748,18.9921456 44.3434287,19.8284275 C44.4107053,20.1792546 44.6685169,20.4630058 45.0113108,20.5635082 L48.8088905,21.6487088 C49.2180256,21.7655718 49.5,22.1395437 49.5,22.565037 L49.5,24.9353437 C49.5,25.3604211 49.218373,25.734065 48.8097473,25.851196 Z M15.8325939,12.1117941 C15.7627317,11.990197 15.6433533,11.9050754 15.5056261,11.878653 C15.3678989,11.8522306 15.2254944,11.8871302 15.1155917,11.9742402 C11.5743924,14.8581997 9.51909808,19.18267 9.51909808,23.7496192 C9.51909808,28.3165685 11.5743924,32.6410387 15.1155917,35.5249983 C15.2254934,35.6120843 15.3678784,35.646979 15.5055936,35.6205771 C15.6433088,35.5941753 15.7626926,35.5090961 15.8325939,35.3875395 L21.3157763,25.8912722 C22.0809921,24.5658949 22.0809921,22.9329628 21.3157763,21.6075854 L15.8325939,12.1117941 Z M24.75,8.51815283 C22.9071962,8.51617324 21.079406,8.84947724 19.3559194,9.50179136 C19.2261765,9.55320177 19.1253124,9.6586469 19.0797125,9.79054293 C19.0341127,9.92243896 19.0483136,10.0676641 19.1186004,10.1882284 L24.6124445,19.7038198 C25.3776578,21.0291929 26.7918286,21.8456633 28.3222553,21.8456633 L39.2941412,21.8456633 C39.4342548,21.8456633 39.567467,21.7848455 39.659068,21.6788229 C39.750669,21.5728002 39.7915865,21.4321585 39.7711591,21.2935436 C38.5708829,13.9297694 32.2110374,8.52076895 24.75,8.51815283 L24.75,8.51815283 Z M39.2936653,25.6529089 L28.3227312,25.6529089 C26.7923045,25.6529089 25.3781338,26.4693792 24.6129205,27.7947523 L19.1190764,37.3102485 C19.0487895,37.4308128 19.0345886,37.576038 19.0801885,37.707934 C19.1257883,37.83983 19.2266525,37.9452751 19.3563953,37.9966856 C23.6296443,39.6119638 28.4023177,39.2235868 32.3581799,36.9386634 C36.314042,34.6537401 39.0351861,30.7136553 39.7711591,26.2050285 C39.7913097,26.0665395 39.7502688,25.9261304 39.6587031,25.8202949 C39.5671375,25.7144593 39.4340901,25.6536495 39.2941412,25.6536704 L39.2936653,25.6529089 Z" id="Wheel-light-grey" fill="#E5E5E5" fill-rule="nonzero" mask="url(#mask-2)"></path>
                            <path d="M11.695037,41.3672927 C11.8533312,41.5715144 11.9228991,41.833135 11.8843523,42.0914971 L11.8674725,42.1774139 L11.0728042,45.3506624 C10.8975447,45.124512 10.8288306,44.8251749 10.9015376,44.5350166 L11.695037,41.3672927 Z M37.8080203,41.3737671 L38.5997952,44.5349214 C38.6724953,44.8248667 38.6039438,45.123994 38.428956,45.3500811 L37.6358593,42.1827447 C37.5732763,41.9262314 37.6206477,41.6597767 37.7586787,41.443805 L37.8080203,41.3737671 Z M39.5655417,28.2372951 C39.5997331,28.2605821 39.6311026,28.288393 39.6587031,28.3202949 C39.7502688,28.4261304 39.7913097,28.5665395 39.7711591,28.7050285 C39.0351861,33.2136553 36.314042,37.1537401 32.3581799,39.4386634 C28.4023177,41.7235868 23.6296443,42.1119638 19.3563953,40.4966856 C19.2266525,40.4452751 19.1257883,40.33983 19.0801885,40.207934 C19.0411029,40.0948802 19.0459526,39.9720337 19.0923981,39.863318 L19.1190764,39.8102485 L19.548,39.067 L19.589969,39.0828052 C23.802926,40.597214 28.4742425,40.1820427 32.3581799,37.9386634 C35.9670366,35.854172 38.5482916,32.3921623 39.5321628,28.3776516 L39.5655417,28.2372951 Z M21.8235986,25.4995137 C21.9872659,26.4206353 21.8469481,27.3832175 21.4026454,28.2332481 L21.3157763,28.3912722 L15.8325939,37.8875395 C15.7626926,38.0090961 15.6433088,38.0941753 15.5055936,38.1205771 C15.3678784,38.146979 15.2254934,38.1120843 15.1155917,38.0249983 C11.5743924,35.1410387 9.51909808,30.8165685 9.51909808,26.2496192 C9.51909808,25.9989078 9.52529206,25.7489272 9.53758582,25.4998755 C9.7493801,29.7873161 11.7689138,33.7994573 15.1155917,36.5249983 C15.2254934,36.6120843 15.3678784,36.646979 15.5055936,36.6205771 C15.6433088,36.5941753 15.7626926,36.5090961 15.8325939,36.3875395 L21.3157763,26.8912722 C21.5532571,26.4799482 21.7170369,26.0390024 21.8071158,25.5868208 L21.8235986,25.4995137 Z M5.6464015,32.0804577 C5.70455267,32.2676822 5.76549557,32.4540663 5.82921312,32.6395472 C5.9387729,32.9519326 5.87768766,33.2966837 5.67246178,33.5515135 L5.61816771,33.6132768 L2.906,36.4155 L2.72321878,36.0985335 C2.51051477,35.7300966 2.56781408,35.2652978 2.86363013,34.9595487 L5.61816771,32.1132768 L5.6464015,32.0804577 Z M43.8592,32.0845898 L43.8726827,32.1018127 L46.6370363,34.9595487 C46.9328226,35.2653042 46.9901558,35.7300626 46.7775428,36.0985335 L46.5945,36.4155 L43.8881151,33.6186076 C43.6593829,33.3797184 43.5723556,33.0409532 43.6534647,32.7242777 L43.6772601,32.6456396 C43.7407116,32.4595054 43.8013639,32.2724676 43.8592,32.0845898 Z M5.64362432,18.9146643 C5.86708826,19.1715822 5.93688444,19.5298439 5.82350147,19.8534085 C5.54774595,20.6626129 5.32474606,21.4888445 5.15590498,22.3269044 C5.09413089,22.6512717 4.86949692,22.9184977 4.56530056,23.0368021 L4.48764213,23.0632226 L0.691014315,24.1484233 C0.307449717,24.2579629 0.03573194,24.5935181 0.00326551704,24.985626 L0,25.0647515 L0,23.5647515 C0,23.1392633 0.281878744,22.7652656 0.691014315,22.6484233 L4.48764213,21.5632226 C4.83092695,21.4626386 5.08898305,21.1783023 5.15590498,20.8269044 C5.2684657,20.2681978 5.405097,19.7147482 5.56538313,19.1680961 L5.64362432,18.9146643 Z M43.8535405,18.91985 C44.048413,19.5473908 44.2119237,20.1843708 44.3434287,20.8284275 C44.4107053,21.1792546 44.6685169,21.4630058 45.0113108,21.5635082 L48.8088905,22.6487088 C49.2180256,22.7655718 49.5,23.1395437 49.5,23.565037 L49.5,25.0645353 C49.4997922,24.6658301 49.2520036,24.3124427 48.8840465,24.1735725 L48.8088905,24.1487088 L45.0113108,23.0635082 C44.6685169,22.9630058 44.4107053,22.6792546 44.3434287,22.3284275 C44.1726748,21.4921456 43.9479592,20.6677952 43.6706917,19.860548 C43.5652246,19.5597572 43.6179633,19.2289698 43.8052457,18.9773477 L43.8535405,18.91985 Z M19.5474908,11.9307534 L24.6124445,20.7038198 C25.3776578,22.0291929 26.7918286,22.8456633 28.3222553,22.8456633 L39.2941412,22.8456633 C39.3922207,22.8456633 39.4869186,22.8158626 39.5663293,22.7616164 C39.6459284,23.1005937 39.7143274,23.4448775 39.7711591,23.7935436 C39.7915865,23.9321585 39.750669,24.0728002 39.659068,24.1788229 C39.5805529,24.2696994 39.4714662,24.3273643 39.3536662,24.3419853 L39.2941412,24.3456633 L28.3222553,24.3456633 C26.8411972,24.3456633 25.4690156,23.5810188 24.6885054,22.3304828 L24.6124445,22.2038198 L19.1186004,12.6882284 C19.0483136,12.5676641 19.0341127,12.422439 19.0797125,12.2905429 C19.1253124,12.1586469 19.2261765,12.0532018 19.3559194,12.0017914 L19.5474908,11.9307534 Z M11.692774,9.62676611 L11.8651878,10.3173505 C11.9500395,10.6644183 11.8333992,11.0297743 11.5631368,11.2634741 C10.9273749,11.8253729 10.3276982,12.4268232 9.7676802,13.0642409 C9.55175233,13.3137483 9.22367686,13.4323147 8.90136433,13.3823204 L8.82097449,13.3662884 L4.96494554,12.4009358 C4.57813316,12.3039807 4.17499371,12.4583813 3.95070569,12.7814952 L3.9082906,12.8483431 L2.906,14.584 L2.86363013,14.5401657 C2.56781408,14.2344166 2.51051477,13.7696178 2.72321878,13.401181 L3.9082906,11.3483431 C4.12116922,10.9800851 4.55234567,10.797517 4.96494554,10.9009358 L8.82097449,11.8662884 C9.16821881,11.9511664 9.53375835,11.8345406 9.7676802,11.5642409 C10.2343618,11.0330595 10.7285843,10.5268554 11.2482795,10.0477029 L11.5631368,9.76347414 C11.6113231,9.72180672 11.654626,9.6759541 11.692774,9.62676611 Z M37.8053618,9.63249625 C37.8437968,9.68211688 37.8874694,9.72835082 37.9361017,9.77032804 C38.5743705,10.3294881 39.1766586,10.9284309 39.7393642,11.5635745 C39.9731213,11.8331702 40.3380204,11.9494001 40.684642,11.8646701 L44.5348641,10.9009358 C44.9474718,10.7974159 45.3787076,10.9800091 45.5915191,11.3483431 L46.7764957,13.401181 C46.9892908,13.7695837 46.9320253,14.234423 46.6361795,14.5401657 L46.593,14.584 L45.5915191,12.8483431 C45.3920083,12.50303 45.0005231,12.3209656 44.6123885,12.3848542 L44.5348641,12.4009358 L40.684642,13.3646701 C40.3380204,13.4494001 39.9731213,13.3331702 39.7393642,13.0635745 C39.1766586,12.4284309 38.5743705,11.8294881 37.9361017,11.270328 C37.6859931,11.0544452 37.5670596,10.7259765 37.6171328,10.4032658 L37.6331939,10.3227765 L37.8053618,9.63249625 Z M25.9350719,-1.77635684e-14 C26.3605164,-1.77635684e-14 26.734407,0.282066806 26.8514106,0.69110147 L27.93967,4.50015577 C28.0401726,4.84356045 28.3245175,5.10176537 28.6759967,5.16879168 C29.5103445,5.33647678 30.3329817,5.55791312 31.1387642,5.83171601 C31.476754,5.94960022 31.8523043,5.86791503 32.1107916,5.62029227 L34.9597617,2.86388261 C35.2654479,2.56794715 35.7303182,2.5106015 36.0987596,2.72337768 L38.151526,3.90853103 C38.5198642,4.12134004 38.7024595,4.55257082 38.5989384,4.96517377 L38.4281341,5.64999342 C38.3726108,5.57826513 38.3063716,5.51389127 38.2305288,5.45949892 L38.151526,5.40853103 L36.0987596,4.22337768 C35.7548809,4.02478658 35.327002,4.0615016 35.0229457,4.30788606 L34.9597617,4.36388261 L32.1107916,7.12029227 C31.8523043,7.36791503 31.476754,7.44960022 31.1387642,7.33171601 C30.3329817,7.05791312 29.5103445,6.83647678 28.6759967,6.66879168 C28.3515543,6.60692124 28.0843152,6.38215305 27.9660733,6.07784234 L27.93967,6.00015577 L26.8514106,2.19110147 C26.7417197,1.80763147 26.4062493,1.53575432 26.0141884,1.5032676 L25.9350719,1.5 L23.5647378,1.5 C23.1658735,1.5 22.8123146,1.74789348 22.6732928,2.11593009 L22.648399,2.19110147 L21.5598541,6.00101251 C21.4593762,6.34389073 21.1755759,6.60178115 20.8246697,6.66907726 C19.992331,6.83901872 19.1717788,7.06229436 18.3680898,7.33752279 C18.0558579,7.44672347 17.7114368,7.38553277 17.4568225,7.18044792 L17.3951105,7.12619424 L14.5399527,4.36369222 C14.2545337,4.08761478 13.830581,4.01933061 13.4757591,4.18442001 L13.4008597,4.22337768 L11.3480933,5.40853103 C11.2387988,5.4716874 11.1458587,5.55407359 11.0718952,5.64949697 L10.9006808,4.96517377 C10.7971935,4.55257343 10.9797804,4.12136243 11.3480933,3.90853103 L13.4008597,2.72337768 C13.7693095,2.5106359 14.2341466,2.56789497 14.5399527,2.86369222 L17.3951105,5.62619424 C17.6538097,5.87415105 18.0298386,5.95582353 18.3680898,5.83752279 C19.1717788,5.56229436 19.992331,5.33901872 20.8246697,5.16907726 C21.1755759,5.10178115 21.4593762,4.84389073 21.5598541,4.50101251 L22.648399,0.69110147 C22.7653748,0.282047688 23.1392825,-1.77635684e-14 23.5647378,-1.77635684e-14 L25.9350719,-1.77635684e-14 Z" id="Shape-white" fill="#FFFFFF" fill-rule="nonzero" mask="url(#mask-2)"></path>
                        </g>
                    </g>
                </g>
            </g>
        </g>
    </g>
</svg>