<svg width="22" height="22" viewBox="0 0 22 22" fill="none" xmlns="http://www.w3.org/2000/svg">
<path fill-rule="evenodd" clip-rule="evenodd" d="M11 22C4.92487 22 0 17.0751 0 11C0 4.92487 4.92487 0 11 0C17.0751 0 22 4.92487 22 11C22 13.9174 20.8411 16.7153 18.7782 18.7782C16.7153 20.8411 13.9174 22 11 22ZM11 1.83333C5.93739 1.83333 1.83333 5.93739 1.83333 11C1.83333 16.0626 5.93739 20.1667 11 20.1667C16.0626 20.1667 20.1667 16.0626 20.1667 11C20.1666 5.93741 16.0626 1.83338 11 1.83338V1.83333ZM11.6875 7.33333C10.8665 7.39159 10.1513 6.77861 10.0833 5.95833C10.1513 5.13806 10.8665 4.52507 11.6875 4.58333C12.5085 4.52502 13.2237 5.13803 13.2917 5.95833C13.2237 6.7786 12.5086 7.39159 11.6875 7.33333H11.6875ZM12.3383 10.4333L11.062 15.25C10.938 15.7178 11.1823 16.2047 11.6315 16.3847C11.8055 16.4544 11.9195 16.6229 11.9195 16.8103V16.9583C11.9195 17.2113 11.7145 17.4165 11.4615 17.4167H10.0917C9.66395 17.4187 9.25955 17.2219 8.99724 16.884C8.73494 16.5462 8.64451 16.1056 8.75252 15.6917L10.0291 10.8749C10.1531 10.4072 9.90882 9.92031 9.45963 9.74022C9.28569 9.67056 9.17167 9.50203 9.17171 9.31466V9.16667C9.17171 8.91366 9.37672 8.70851 9.62972 8.70833H10.9996C11.4273 8.70632 11.8317 8.90315 12.094 9.24102C12.3562 9.57889 12.4466 10.0194 12.3386 10.4333H12.3383Z" fill="black"/>
</svg>
