<?xml version="1.0" encoding="UTF-8"?>
<svg width="22px" height="15px" viewBox="0 0 22 15" version="1.1" xmlns="http://www.w3.org/2000/svg" xmlns:xlink="http://www.w3.org/1999/xlink">
    <title>7EFD4568-A7AB-4FE3-9B74-04550B47BB5E@3x</title>
    <g id="MVP-new-Plugin" stroke="none" stroke-width="1" fill="none" fill-rule="evenodd">
        <g id="07.4-MVP-simplified-help" transform="translate(-628.000000, -1638.000000)" fill="#000000">
            <g id="Group-11-Copy" transform="translate(609.000000, 1617.000000)">
                <g id="🎨-Icon-Color" transform="translate(16.000000, 14.000000)">
                    <path d="M24.6555007,16.6199131 C24.1692615,17.0114584 24.0783544,18.10728 23.7232116,19.2373583 C23.1681439,21.0037125 22.2067834,22 19.5,22 C16.3520349,22 15.8978136,21.0549003 15.2522316,19.2373583 C14.811171,17.9957087 15.030346,16.4747166 13.9999605,16.4747166 C12.9695751,16.4747166 13.1888286,17.9957087 12.747768,19.2373583 C12.1021467,21.0549003 11.6479647,22 8.5,22 C5.79321617,22 4.8318557,21.0037125 4.27678799,19.2373583 C3.9216845,18.10728 3.83077738,17.0116557 3.34445965,16.6199131 C3.13715028,16.4688109 3.01021138,16.2305935 3,15.9734944 L3,15.1794323 C2.9991701,14.8962849 3.19867542,14.6524651 3.47535962,14.5984882 C5.13153003,14.2790431 6.81359815,14.114423 8.5,14.106738 C12.1167217,14.106738 12.5252145,14.8960642 14,14.8960642 C15.4747851,14.8960642 15.8833957,14.106738 19.5,14.106738 C21.1864007,14.1144016 22.8684695,14.2790086 24.52464,14.5984487 C24.8013581,14.6523684 25.0008919,14.896223 25,15.1793928 L25,15.9734944 C24.9897905,16.2306035 24.8628339,16.468827 24.6555007,16.6199131 Z M8.5000012,15.6853904 C5.01700923,15.6853904 5.06619493,16.253942 5.67846263,18.4480321 C6.05745182,19.8056732 6.35394103,20.4213476 8.5000012,20.4213476 C10.9785363,20.4213476 10.8889256,19.9516985 11.3488433,18.4480321 C12.0211003,16.2505874 11.6853254,15.6853904 8.5000012,15.6853904 Z M19.4999984,15.6853904 C16.3147135,15.6853904 15.9788993,16.2505874 16.6511563,18.4480321 C17.1111526,19.9516985 17.021424,20.4213476 19.4999984,20.4213476 C21.6460979,20.4213476 21.9425871,19.8056732 22.3214977,18.4480321 C22.9338832,16.253942 22.9829511,15.6853904 19.4999984,15.6853904 Z M23.8882116,13.7164161 C23.6777973,13.6866585 23.0160689,13.6486525 22.8014511,13.6183029 C22.584097,13.5853725 22.403489,13.4327662 22.3339513,13.2232846 C21.0192944,9.36643943 20.620191,6.8528696 19.526477,10.2766509 C19.48633,10.405315 19.381598,10.5031602 19.2509498,10.5340604 C19.1203016,10.5649606 18.9831176,10.524332 18.8900486,10.4271754 C18.6891807,10.2194248 18.6988057,10.2293308 18.5029665,10.0266319 C18.3063986,9.82172399 18.276898,9.50753111 18.4318594,9.26931284 C18.9416307,8.49182653 20.0872411,7 20.8703623,7 C21.8725014,7 22.7671154,8.675187 24.2032829,13.3277125 C24.2349145,13.4240923 24.2154589,13.530022 24.1516725,13.6087153 C24.0878861,13.6874087 23.9885691,13.7280087 23.8882116,13.7164161 L23.8882116,13.7164161 Z M9.11038318,10.4271754 C9.01729663,10.5244235 8.88003882,10.5651103 8.74931158,10.5342067 C8.61858434,10.5033031 8.51379069,10.4053958 8.47364049,10.2766509 C7.37992648,6.8528696 6.98078373,9.36643943 5.66632335,13.2232846 C5.59675447,13.432745 5.41616214,13.5853381 5.19882347,13.6183029 C4.98400923,13.6486525 4.32239869,13.6866585 4.11194517,13.7164161 C4.01168119,13.7278423 3.91252619,13.6871932 3.84884648,13.6085573 C3.78516677,13.5299215 3.7657277,13.4241231 3.79726668,13.3278309 C5.23343417,8.6753054 6.12808751,7.0001184 7.13026583,7.0001184 C7.91338706,7.0001184 9.05891891,8.49174759 9.5687295,9.26943124 C9.72369556,9.5076547 9.69417764,9.82185857 9.49758309,10.0267503 C9.30142956,10.2293308 9.31117242,10.2193064 9.11038318,10.4271754 Z"></path>
                </g>
            </g>
        </g>
    </g>
</svg>