<svg width="80" height="80" viewBox="0 0 80 80" fill="none" xmlns="http://www.w3.org/2000/svg">
<path d="M72.7357 55C74.8315 50.4337 76 45.3533 76 40C76 20.1177 59.8823 4 40 4C20.1177 4 4 20.1177 4 40C4 45.3533 5.16846 50.4337 7.26425 55H72.7357Z" fill="#E6F8FB"/>
<path d="M4.65894 55.1914H75.568" stroke="#333333" stroke-linecap="round" stroke-linejoin="round"/>
<path d="M0.568115 55.1914H2.84084" stroke="#333333" stroke-linecap="round" stroke-linejoin="round"/>
<path d="M76.8862 55.1914H79.159" stroke="#333333" stroke-linecap="round" stroke-linejoin="round"/>
<path d="M73.2769 1.44287H43.0203C40.0362 1.44287 37.6172 3.86193 37.6172 6.846V26.2964C37.6172 29.2804 40.0362 31.6995 43.0203 31.6995H45.4327L44.1202 38.92C44.0424 39.3467 44.2273 39.7785 44.5897 40.0167C44.9521 40.2549 45.4218 40.2534 45.7827 40.0129L58.2532 31.7004H73.2769C76.2607 31.6999 78.6792 29.281 78.6792 26.2972V6.846C78.6792 3.86227 76.2607 1.44335 73.2769 1.44287Z" fill="white"/>
<path d="M59.2387 7.75794L61.4769 12.2931C61.6568 12.6588 62.0055 12.9121 62.4089 12.97L67.4151 13.6979C67.8812 13.7654 68.2685 14.0917 68.4141 14.5397C68.5597 14.9876 68.4382 15.4793 68.1008 15.8079L64.478 19.3394C64.1866 19.6237 64.0535 20.0331 64.1221 20.4345L64.9769 25.4211C65.0572 25.8854 64.8666 26.3551 64.4855 26.6322C64.1043 26.9093 63.5988 26.9457 63.1818 26.7262L58.7042 24.3723C58.3437 24.183 57.9133 24.183 57.5528 24.3723L53.0763 26.725C52.6594 26.9445 52.1539 26.9081 51.7727 26.631C51.3916 26.3539 51.201 25.8842 51.2812 25.4199L52.1361 20.4333C52.2053 20.0319 52.0721 19.6222 51.7801 19.3382L48.1574 15.8068C47.8204 15.4779 47.6993 14.9864 47.8448 14.5387C47.9903 14.091 48.3773 13.7646 48.8431 13.6967L53.8475 12.97C54.2509 12.9122 54.5997 12.6588 54.7795 12.2931L57.0189 7.75794C57.2269 7.33489 57.6574 7.06689 58.1288 7.06689C58.6002 7.06689 59.0307 7.33489 59.2387 7.75794Z" fill="#FFDC0F"/>
<path d="M51.4331 24.5303L52.1349 20.4371C52.204 20.0357 52.0709 19.626 51.7789 19.342L48.1561 15.8106C47.8192 15.4817 47.6981 14.9902 47.8436 14.5425C47.9891 14.0948 48.376 13.7684 48.8419 13.7005L53.8475 12.9702C54.2509 12.9124 54.5997 12.6591 54.7794 12.2934L57.0188 7.7582C57.2271 7.33581 57.6572 7.06836 58.1282 7.06836C58.5991 7.06836 59.0292 7.33581 59.2375 7.7582L61.4757 12.2934C61.6555 12.659 62.0043 12.9123 62.4077 12.9702L51.4331 24.5303Z" fill="#FFEE58"/>
<path fill-rule="evenodd" clip-rule="evenodd" d="M59.2387 7.75794L61.4769 12.2931C61.6568 12.6588 62.0055 12.9121 62.4089 12.97L67.4151 13.6979C67.8812 13.7654 68.2685 14.0917 68.4141 14.5397C68.5597 14.9876 68.4382 15.4793 68.1008 15.8079L64.478 19.3394C64.1866 19.6237 64.0535 20.0331 64.1221 20.4345L64.9769 25.4211C65.0572 25.8854 64.8666 26.3551 64.4855 26.6322C64.1043 26.9093 63.5988 26.9457 63.1818 26.7262L58.7042 24.3723C58.3437 24.183 57.9133 24.183 57.5528 24.3723L53.0763 26.725C52.6594 26.9445 52.1539 26.9081 51.7727 26.631C51.3916 26.3539 51.201 25.8842 51.2812 25.4199L52.1361 20.4333C52.2053 20.0319 52.0721 19.6222 51.7801 19.3382L48.1574 15.8068C47.8204 15.4779 47.6993 14.9864 47.8448 14.5387C47.9903 14.091 48.3773 13.7646 48.8431 13.6967L53.8475 12.97C54.2509 12.9122 54.5997 12.6588 54.7795 12.2931L57.0189 7.75794C57.2269 7.33489 57.6574 7.06689 58.1288 7.06689C58.6002 7.06689 59.0307 7.33489 59.2387 7.75794Z" stroke="#45413C" stroke-linecap="round" stroke-linejoin="round"/>
<path fill-rule="evenodd" clip-rule="evenodd" d="M73.2769 1.44287H43.0203C40.0362 1.44287 37.6172 3.86193 37.6172 6.846V26.2964C37.6172 29.2804 40.0362 31.6995 43.0203 31.6995H45.4327L44.1202 38.92C44.0424 39.3467 44.2273 39.7785 44.5897 40.0167C44.9521 40.2549 45.4218 40.2534 45.7827 40.0129L58.2532 31.7004H73.2769C76.2607 31.6999 78.6792 29.281 78.6792 26.2972V6.846C78.6792 3.86227 76.2607 1.44335 73.2769 1.44287Z" stroke="#45413C" stroke-linecap="round" stroke-linejoin="round"/>
<ellipse opacity="0.15" rx="23.8168" ry="3.1064" transform="matrix(-1 0 0 1 38.1537 66.0473)" fill="#808080"/>
<path d="M62.344 60.268H55.768V55.8848H57.96C59.1226 55.8846 60.2377 56.3463 61.0599 57.1683C61.8821 57.9903 62.344 59.1053 62.344 60.268Z" fill="white" stroke="#45413C" stroke-linecap="round" stroke-linejoin="round"/>
<path d="M39.6489 50.5169C39.6489 50.5169 36.9833 49.1625 35.5953 41.9657L32.9273 26.9041C32.8761 26.6234 32.6919 26.385 32.4333 26.2645C32.1746 26.1439 31.8736 26.1563 31.6257 26.2977L30.1249 27.1641C28.9837 27.8224 28.3895 29.1354 28.6481 30.4273L32.1609 49.3073L38.2985 52.3761L39.6489 50.5169Z" fill="white" stroke="#45413C" stroke-linecap="round" stroke-linejoin="round"/>
<path d="M15.0001 60.268V51.6696C14.9901 50.1355 15.2778 48.6141 15.8473 47.1896C16.446 45.7207 16.7539 44.1495 16.7537 42.5632V40.7472C16.7528 39.4575 16.4515 38.1858 15.8737 37.0328C15.2985 35.8794 14.9994 34.608 15.0001 33.3192V31.4224C15.0011 31.1757 15.1056 30.9408 15.2881 30.7748C15.4706 30.6089 15.7144 30.5272 15.9601 30.5496L17.9601 30.7392C21.5275 31.0789 25.1242 30.9461 28.6569 30.344C29.5968 30.184 30.4924 30.8039 30.6737 31.74C31.2169 34.5624 32.2961 40.1504 33.1033 42.964C35.3833 50.9288 47.8801 55.8848 55.7681 55.8848V60.268H15.0001Z" fill="#FF6242" stroke="#45413C" stroke-linecap="round" stroke-linejoin="round"/>
<path d="M60.744 65.5289H15V60.2681H62.344V63.9289C62.344 64.8125 61.6276 65.5289 60.744 65.5289Z" fill="white" stroke="#45413C" stroke-linecap="round" stroke-linejoin="round"/>
<path d="M14.9975 63.3365H38.6711" stroke="#45413C" stroke-linecap="round" stroke-linejoin="round"/>
<circle r="0.8768" transform="matrix(-1 0 0 1 27.7111 33.9647)" fill="#E5E5E5" stroke="#45413C" stroke-width="0.8" stroke-linecap="round" stroke-linejoin="round"/>
<circle r="0.8768" transform="matrix(-1 0 0 1 29.4648 57.6385)" fill="#E5E5E5" stroke="#45413C" stroke-width="0.8" stroke-linecap="round" stroke-linejoin="round"/>
<circle r="0.8768" transform="matrix(-1 0 0 1 20.9648 57.1385)" fill="#E5E5E5" stroke="#45413C" stroke-width="0.8" stroke-linecap="round" stroke-linejoin="round"/>
<circle r="0.8768" transform="matrix(-1 0 0 1 37.3561 57.6385)" fill="#E5E5E5" stroke="#45413C" stroke-width="0.8" stroke-linecap="round" stroke-linejoin="round"/>
<rect width="2.6304" height="3.8728" rx="0.8" transform="matrix(-0.852019 -0.52351 -0.52351 0.852019 50.5139 54.0464)" fill="white" stroke="#45413C" stroke-linecap="round" stroke-linejoin="round"/>
<rect width="2.6304" height="5.188" rx="0.8" transform="matrix(-0.579381 -0.815057 -0.815057 0.579381 44.6497 52.5449)" fill="white" stroke="#45413C" stroke-linecap="round" stroke-linejoin="round"/>
<rect width="2.6304" height="6.6856" rx="0.8" transform="matrix(-0.46614 -0.884711 -0.884711 0.46614 40.1797 48.6963)" fill="white" stroke="#45413C" stroke-linecap="round" stroke-linejoin="round"/>
<rect width="2.6304" height="7.8912" rx="0.8" transform="matrix(-0.247946 -0.968774 -0.968774 0.247946 36.1682 38.3506)" fill="white" stroke="#45413C" stroke-linecap="round" stroke-linejoin="round"/>
<path d="M37.2847 42.9848C37.4404 43.4427 37.1974 43.9403 36.7407 44.0992L31.4999 45.9808C31.0423 46.1365 30.5447 45.894 30.3855 45.4376L30.0999 44.608C29.9443 44.1502 30.1872 43.6525 30.6439 43.4936L35.8847 41.612C36.3426 41.4564 36.8402 41.6993 36.9991 42.156L37.2847 42.9848Z" fill="white" stroke="#45413C" stroke-linecap="round" stroke-linejoin="round"/>
<path fill-rule="evenodd" clip-rule="evenodd" d="M15.1297 39.3332C16.9316 39.3187 18.5651 40.3905 19.2691 42.0492C19.7295 43.1386 19.7385 44.3662 19.2943 45.4622L13.5282 59.6962C13.4498 59.8906 13.2973 60.0459 13.1042 60.1279C12.9112 60.2098 12.6935 60.2116 12.4992 60.133L5.70515 57.3817C5.30045 57.2181 5.10493 56.7575 5.26836 56.3527L11.0347 42.1157C11.7118 40.4457 13.3278 39.3478 15.1297 39.3332ZM14.0496 43.7977C14.0535 44.2482 14.3284 44.6519 14.7461 44.8207C15.3164 45.049 15.9641 44.7741 16.1959 44.2053C16.3647 43.7876 16.2652 43.3094 15.9439 42.9936C15.6226 42.6779 15.1428 42.5868 14.7281 42.7628C14.3135 42.9388 14.0457 43.3473 14.0496 43.7977Z" fill="#EFEFEF"/>
<path d="M7.46364 58.0934C7.26909 58.0149 7.11372 57.8622 7.03175 57.6691C6.94977 57.476 6.94791 57.2582 7.02658 57.0637L12.7941 42.8262C13.5801 40.8858 15.6107 39.7541 17.6744 40.1063C16.5608 39.3479 15.1639 39.1339 13.8743 39.5242C12.5847 39.9144 11.5409 40.8672 11.0347 42.1158L5.26844 56.3529C5.105 56.7576 5.30053 57.2183 5.70523 57.3819L12.4995 60.1338L12.5441 60.1507L7.46364 58.0934Z" fill="white"/>
<circle cx="15.1645" cy="43.7878" r="1.11375" transform="rotate(-23 15.1645 43.7878)" stroke="#45413C" stroke-width="0.4375" stroke-linecap="round" stroke-linejoin="round"/>
<path fill-rule="evenodd" clip-rule="evenodd" d="M19.2694 42.0497C18.5653 40.391 16.9319 39.3192 15.1299 39.3337C13.328 39.3483 11.7121 40.4462 11.0349 42.1161L5.26861 56.3532C5.10517 56.7579 5.3007 57.2186 5.7054 57.3822L12.4994 60.1334C12.6938 60.2121 12.9115 60.2103 13.1045 60.1284C13.2975 60.0464 13.45 59.8911 13.5284 59.6967L19.2945 45.4627C19.7388 44.3666 19.7297 43.1391 19.2694 42.0497V42.0497Z" stroke="#45413C" stroke-width="0.4375" stroke-linecap="round" stroke-linejoin="round"/>
<path d="M15.5821 42.7557L16.8367 39.6584" stroke="#45413C" stroke-width="0.4375" stroke-linecap="round" stroke-linejoin="round"/>
<path d="M12.9304 46.0252L8.55973 56.8429" stroke="#45413C" stroke-width="0.4375" stroke-linecap="round"/>
<path d="M14.2416 46.555L10.4008 56.0615" stroke="#45413C" stroke-width="0.4375" stroke-linecap="round"/>
<path d="M15.5529 47.0848L12.7716 53.9688" stroke="#45413C" stroke-width="0.4375" stroke-linecap="round"/>
<path fill-rule="evenodd" clip-rule="evenodd" d="M15.1297 39.3332C16.9316 39.3187 18.5651 40.3905 19.2691 42.0492C19.7295 43.1386 19.7385 44.3662 19.2943 45.4622L13.5282 59.6962C13.4498 59.8906 13.2973 60.0459 13.1042 60.1279C12.9112 60.2098 12.6935 60.2116 12.4992 60.133L5.70515 57.3817C5.30045 57.2181 5.10493 56.7575 5.26836 56.3527L11.0347 42.1157C11.7118 40.4457 13.3278 39.3478 15.1297 39.3332ZM14.0496 43.7977C14.0535 44.2482 14.3284 44.6519 14.7461 44.8207C15.3164 45.049 15.9641 44.7741 16.1959 44.2053C16.3647 43.7876 16.2652 43.3094 15.9439 42.9936C15.6226 42.6779 15.1428 42.5868 14.7281 42.7628C14.3135 42.9388 14.0457 43.3473 14.0496 43.7977Z" fill="#EFEFEF"/>
<path d="M7.46364 58.0934C7.26909 58.0149 7.11372 57.8622 7.03175 57.6691C6.94977 57.476 6.94791 57.2582 7.02658 57.0637L12.7941 42.8262C13.5801 40.8858 15.6107 39.7541 17.6744 40.1063C16.5608 39.3479 15.1639 39.1339 13.8743 39.5242C12.5847 39.9144 11.5409 40.8672 11.0347 42.1158L5.26844 56.3529C5.105 56.7576 5.30053 57.2183 5.70523 57.3819L12.4995 60.1338L12.5441 60.1507L7.46364 58.0934Z" fill="white"/>
<circle cx="15.1645" cy="43.7878" r="1.11375" transform="rotate(-23 15.1645 43.7878)" stroke="#45413C" stroke-linecap="round" stroke-linejoin="round"/>
<path fill-rule="evenodd" clip-rule="evenodd" d="M19.2694 42.0497C18.5653 40.391 16.9319 39.3192 15.1299 39.3337C13.328 39.3483 11.7121 40.4462 11.0349 42.1161L5.26861 56.3532C5.10517 56.7579 5.3007 57.2186 5.7054 57.3822L12.4994 60.1334C12.6938 60.2121 12.9115 60.2103 13.1045 60.1284C13.2975 60.0464 13.45 59.8911 13.5284 59.6967L19.2945 45.4627C19.7388 44.3666 19.7297 43.1391 19.2694 42.0497V42.0497Z" stroke="#45413C" stroke-linecap="round" stroke-linejoin="round"/>
<path d="M15.2062 43.4113C14.305 42.5675 13.7031 41.2069 13.9661 39.6408C14.2292 38.0747 14.7748 37.3106 15.8242 36.6603L23.6018 30.9307L18.5344 40.1169" stroke="#45413C" stroke-linecap="round" stroke-linejoin="round"/>
</svg>
