<svg width="80" height="80" viewBox="0 0 80 80" fill="none" xmlns="http://www.w3.org/2000/svg">
<path d="M72.7357 55C74.8315 50.4337 76 45.3533 76 40C76 20.1177 59.8823 4 40 4C20.1177 4 4 20.1177 4 40C4 45.3533 5.16846 50.4337 7.26425 55H72.7357Z" fill="#E6F8FB"/>
<path d="M4.65894 55.1914H75.568" stroke="#333333" stroke-linecap="round" stroke-linejoin="round"/>
<path d="M0.568115 55.1914H2.84084" stroke="#333333" stroke-linecap="round" stroke-linejoin="round"/>
<path d="M76.8862 55.1914H79.159" stroke="#333333" stroke-linecap="round" stroke-linejoin="round"/>
<path opacity="0.15" d="M62 60.4996C62 61.328 52.1523 62 40 62C27.8477 62 18 61.3271 18 60.4996C18 59.672 27.8477 59 40 59C52.1523 59 62 59.6712 62 60.4996Z" fill="#45413C"/>
<path opacity="0.15" d="M40 65.4996C40 66.328 33.5095 67 25.5 67C17.4905 67 11 66.3271 11 65.4996C11 64.672 17.4905 64 25.5 64C33.5095 64 40 64.6712 40 65.4996Z" fill="#45413C"/>
<path d="M21.416 59.3001C21.416 59.9833 21.9699 60.5371 22.653 60.5371H58.531C59.2142 60.5371 59.768 59.9833 59.768 59.3001V19.0931L49.252 8.57715H22.652C22.324 8.57715 22.0093 8.70747 21.7773 8.93946C21.5454 9.17144 21.415 9.48608 21.415 9.81415L21.416 59.3001Z" fill="white"/>
<path d="M41.319 37.7321C41.319 37.0943 40.8019 36.5771 40.164 36.5771H21.416V59.3001C21.416 59.9833 21.9698 60.5371 22.653 60.5371H41.319V37.7321Z" fill="#E5E5E5"/>
<path fill-rule="evenodd" clip-rule="evenodd" d="M21.416 59.3001C21.416 59.9833 21.9699 60.5371 22.653 60.5371H58.531C59.2142 60.5371 59.768 59.9833 59.768 59.3001V19.0931L49.252 8.57715H22.652C22.324 8.57715 22.0093 8.70747 21.7773 8.93946C21.5454 9.17144 21.415 9.48608 21.415 9.81415L21.416 59.3001Z" stroke="#45413C" stroke-linecap="round" stroke-linejoin="round"/>
<path d="M59.768 19.0931H50.407C49.77 19.091 49.2541 18.5751 49.252 17.9381V8.57715L59.768 19.0931Z" fill="white" stroke="#45413C" stroke-linecap="round" stroke-linejoin="round"/>
<path d="M53.768 27.3719V23.4909C53.768 22.853 53.2509 22.3359 52.613 22.3359H28.571C27.9331 22.3359 27.416 22.853 27.416 23.4909V27.3719H53.768Z" fill="#4DB85F"/>
<rect x="27.416" y="22.3359" width="26.352" height="15.106" rx="1.155" stroke="#45413C" stroke-linecap="round" stroke-linejoin="round"/>
<path d="M36.2 22.3359V37.4419" stroke="#45413C" stroke-linecap="round" stroke-linejoin="round"/>
<path d="M44.9839 22.3359V37.4419" stroke="#45413C" stroke-linecap="round" stroke-linejoin="round"/>
<path d="M27.416 27.3721H53.768" stroke="#45413C" stroke-linecap="round" stroke-linejoin="round"/>
<path d="M27.416 32.4062H53.768" stroke="#45413C" stroke-linecap="round" stroke-linejoin="round"/>
<rect x="12.6001" y="40.042" width="25.254" height="25.254" rx="1.155" fill="#4DB85F" stroke="#45413C" stroke-linecap="round" stroke-linejoin="round"/>
<path d="M32.7001 46.6001C32.8148 46.46 32.8385 46.2664 32.7612 46.1027C32.6838 45.939 32.5192 45.8345 32.3381 45.8341H28.5601C28.4156 45.8345 28.2791 45.9012 28.1901 46.0151L25.2271 49.8341L22.2641 46.0101C22.1753 45.8959 22.0388 45.8292 21.8941 45.8291H18.1211C17.9399 45.8291 17.7749 45.9335 17.6973 46.0973C17.6197 46.261 17.6434 46.4548 17.7581 46.5951L22.7311 52.6691L17.7581 58.7441C17.6434 58.8844 17.6197 59.0782 17.6973 59.2419C17.7749 59.4057 17.9399 59.5101 18.1211 59.5101H21.8941C22.039 59.5101 22.1757 59.4429 22.2641 59.3281L25.2271 55.5091L28.1901 59.3281C28.2787 59.4426 28.4153 59.5098 28.5601 59.5101H32.3341C32.5152 59.5097 32.6798 59.4052 32.7572 59.2415C32.8345 59.0778 32.8108 58.8842 32.6961 58.7441L27.7231 52.6691L32.7001 46.6001Z" fill="white"/>
</svg>
