<svg width="80" height="80" viewBox="0 0 80 80" fill="none" xmlns="http://www.w3.org/2000/svg">
<path d="M72.7357 55C74.8315 50.4337 76 45.3533 76 40C76 20.1177 59.8823 4 40 4C20.1177 4 4 20.1177 4 40C4 45.3533 5.16846 50.4337 7.26425 55H72.7357Z" fill="#E6F8FB"/>
<path d="M4.65918 55.1914H75.5683" stroke="#333333" stroke-linecap="round" stroke-linejoin="round"/>
<path d="M0.568359 55.1914H2.84109" stroke="#333333" stroke-linecap="round" stroke-linejoin="round"/>
<path d="M76.8865 55.1914H79.1592" stroke="#333333" stroke-linecap="round" stroke-linejoin="round"/>
<path opacity="0.15" d="M38.7845 67.1367C38.7845 67.9758 33.797 68.6566 27.6423 68.6566C21.4875 68.6566 16.5 67.9749 16.5 67.1367C16.5 66.2984 21.4875 65.6177 27.6423 65.6177C33.797 65.6177 38.7845 66.2976 38.7845 67.1367Z" fill="#45413C"/>
<path opacity="0.15" d="M64.1421 67.1367C64.1421 67.9758 60.5611 68.6566 56.1421 68.6566C51.7231 68.6566 48.1421 67.9749 48.1421 67.1367C48.1421 66.2984 51.7231 65.6177 56.1421 65.6177C60.5611 65.6177 64.1421 66.2976 64.1421 67.1367Z" fill="#45413C"/>
<path fill-rule="evenodd" clip-rule="evenodd" d="M26.2215 41.0303H24.6357C24.6357 41.0303 25.1922 53.3529 25.8204 55.8508C26.4487 58.3487 27.329 59.761 27.329 59.761L29.8163 42.3319L26.2215 41.0303Z" fill="#999999"/>
<path fill-rule="evenodd" clip-rule="evenodd" d="M24.6357 40.6152C24.6357 40.6152 25.4225 60.7106 28.0419 60.7106C30.6612 60.7106 29.8163 42.5469 29.8163 42.5469L24.6357 40.6152Z" stroke="#45413C"/>
<path d="M69.2999 13.0952L10.3291 29.6189C9.30655 29.9053 8.57641 30.7979 8.50562 31.8484C8.43482 32.8988 9.03868 33.8797 10.0137 34.2982L29.8228 42.8019L41.4686 65.6347C41.8923 66.4642 42.7472 66.9907 43.6856 66.9999C44.6239 67.009 45.4892 66.4994 45.9293 65.6782L72.2064 16.6568C72.6788 15.7756 72.5745 14.7001 71.9413 13.9242C71.3081 13.1484 70.2685 12.822 69.2999 13.0952Z" fill="#E5E5E5"/>
<path d="M71.988 13.799C71.3478 13.1041 70.366 12.8336 69.4585 13.1022L10.3338 29.7638C9.30865 30.0525 8.57661 30.9526 8.50563 32.0118C8.43465 33.0709 9.04008 34.06 10.0176 34.482L29.8784 43.0566L71.988 13.799Z" fill="white"/>
<path d="M29.8162 42.5469L27.4564 59.4504C27.3858 59.9536 27.6169 60.451 28.0418 60.7105C28.4668 60.97 29.0019 60.9404 29.3974 60.6355L36.1478 55.435" fill="#B2B2B2"/>
<path d="M29.8162 42.5469L27.4564 59.4504C27.3858 59.9536 27.6169 60.451 28.0418 60.7105C28.4668 60.97 29.0019 60.9404 29.3974 60.6355L36.1478 55.435" stroke="#45413C" stroke-linecap="round" stroke-linejoin="round"/>
<path d="M29.8164 42.5472L71.9413 13.9243" stroke="#45413C" stroke-linecap="round" stroke-linejoin="round"/>
<path fill-rule="evenodd" clip-rule="evenodd" d="M10.3291 29.6189C9.30655 29.9053 8.57641 30.7979 8.50562 31.8484C8.43482 32.8988 9.03868 33.8797 10.0137 34.2982L29.8228 42.8019L41.4686 65.6347C41.8923 66.4642 42.7472 66.9907 43.6856 66.9999C44.6239 67.009 45.4892 66.4994 45.9293 65.6782L72.2064 16.6568C72.6788 15.7756 72.5745 14.7001 71.9413 13.9242C71.3081 13.1484 70.2685 12.822 69.2999 13.0952L10.3291 29.6189Z" stroke="#45413C" stroke-linecap="round" stroke-linejoin="round"/>
<path fill-rule="evenodd" clip-rule="evenodd" d="M71.2051 13.9243L29.4152 42.3316L29.2998 43.175L25.1069 41.3911V40.3232L71.2051 13.9243Z" fill="#999999"/>
<path d="M24.6357 40.6155L71.8212 13.9243" stroke="#45413C"/>
<path d="M67.4523 58.1096C68.4518 51.9504 64.2689 46.147 58.1096 45.1476C51.9504 44.1481 46.147 48.331 45.1476 54.4903C44.1481 60.6495 48.331 66.4529 54.4903 67.4523C60.6495 68.4518 66.4529 64.2689 67.4523 58.1096Z" fill="#FFAE00" stroke="#45413C" stroke-linecap="round" stroke-linejoin="round"/>
<path d="M64.5173 57.6335C65.2537 53.0952 62.1717 48.8193 57.6335 48.0829C53.0952 47.3464 48.8193 50.4284 48.0829 54.9667C47.3464 59.5049 50.4284 63.7809 54.9667 64.5173C59.5049 65.2537 63.7809 62.1717 64.5173 57.6335Z" fill="white"/>
<path d="M56.3001 51.5432C60.2094 51.5446 63.5913 54.2657 64.4292 58.0842C65.1661 54.7541 63.7974 51.3113 60.9751 49.3963C58.1529 47.4812 54.448 47.4812 51.6257 49.3963C48.8035 51.3113 47.4348 54.7541 48.1717 58.0842C49.0091 54.2657 52.3908 51.5444 56.3001 51.5432Z" fill="#EFEFEF"/>
<path d="M56.3003 52.7324L56.3222 56.278H57.9858" stroke="#45413C" stroke-linecap="round" stroke-linejoin="round"/>
<path d="M56.3003 62.6697V61.6084" stroke="#45413C" stroke-linecap="round" stroke-linejoin="round"/>
<path d="M56.3003 49.9321V50.9935" stroke="#45413C" stroke-linecap="round" stroke-linejoin="round"/>
<path d="M60.8038 51.7969L60.0532 52.5475" stroke="#45413C" stroke-linecap="round" stroke-linejoin="round"/>
<path d="M62.6688 56.3008H61.6074" stroke="#45413C" stroke-linecap="round" stroke-linejoin="round"/>
<path d="M60.8038 60.8038L60.0532 60.0532" stroke="#45413C" stroke-linecap="round" stroke-linejoin="round"/>
<path d="M51.7971 60.8038L52.5477 60.0532" stroke="#45413C" stroke-linecap="round" stroke-linejoin="round"/>
<path d="M49.9316 56.3008H50.993" stroke="#45413C" stroke-linecap="round" stroke-linejoin="round"/>
<path d="M51.7971 51.7969L52.5477 52.5475" stroke="#45413C" stroke-linecap="round" stroke-linejoin="round"/>
<path fill-rule="evenodd" clip-rule="evenodd" d="M64.5173 57.6335C65.2537 53.0952 62.1717 48.8193 57.6335 48.0829C53.0952 47.3464 48.8193 50.4284 48.0829 54.9667C47.3464 59.5049 50.4284 63.7809 54.9667 64.5173C59.5049 65.2537 63.7809 62.1717 64.5173 57.6335Z" stroke="#45413C" stroke-linecap="round" stroke-linejoin="round"/>
</svg>
