<svg width="80" height="80" viewBox="0 0 80 80" fill="none" xmlns="http://www.w3.org/2000/svg">
<path d="M72.7357 55C74.8315 50.4337 76 45.3533 76 40C76 20.1177 59.8823 4 40 4C20.1177 4 4 20.1177 4 40C4 45.3533 5.16846 50.4337 7.26425 55H72.7357Z" fill="#E6F8FB"/>
<path d="M4.65909 55.1914H75.5682" stroke="#333333" stroke-linecap="round" stroke-linejoin="round"/>
<path d="M0.568176 55.1914H2.8409" stroke="#333333" stroke-linecap="round" stroke-linejoin="round"/>
<path d="M76.8864 55.1914H79.1591" stroke="#333333" stroke-linecap="round" stroke-linejoin="round"/>
<path opacity="0.15" d="M49.5 63.9996C49.5 64.828 45.0238 65.5 39.5 65.5C33.9762 65.5 29.5 64.8271 29.5 63.9996C29.5 63.172 33.9762 62.5 39.5 62.5C45.0238 62.5 49.5 63.1712 49.5 63.9996Z" fill="#45413C"/>
<path d="M12.25 48.5V45" stroke="#4DB85F" stroke-linecap="round" stroke-linejoin="round"/>
<path d="M10.5 46.75H14" stroke="#4DB85F" stroke-linecap="round" stroke-linejoin="round"/>
<path d="M65.686 42.7959V42" stroke="#4DB85F" stroke-linecap="round" stroke-linejoin="round"/>
<path d="M67.3754 43.4944L67.9386 42.9316" stroke="#4DB85F" stroke-linecap="round" stroke-linejoin="round"/>
<path d="M68.0754 45.1836H68.872" stroke="#4DB85F" stroke-linecap="round" stroke-linejoin="round"/>
<path d="M67.3754 46.8711L67.9386 47.4338" stroke="#4DB85F" stroke-linecap="round" stroke-linejoin="round"/>
<path d="M65.686 47.5703V48.3662" stroke="#4DB85F" stroke-linecap="round" stroke-linejoin="round"/>
<path d="M63.9959 46.8711L63.4327 47.4338" stroke="#4DB85F" stroke-linecap="round" stroke-linejoin="round"/>
<path d="M63.2966 45.1836H62.5" stroke="#4DB85F" stroke-linecap="round" stroke-linejoin="round"/>
<path d="M63.9959 43.4944L63.4327 42.9316" stroke="#4DB85F" stroke-linecap="round" stroke-linejoin="round"/>
<path d="M55.1239 15.2447V11" stroke="#4DB85F" stroke-linecap="round" stroke-linejoin="round"/>
<path d="M53 13.1221H57.2483" stroke="#4DB85F" stroke-linecap="round" stroke-linejoin="round"/>
<path d="M33.562 14.6223V12.5" stroke="#4DB85F" stroke-linecap="round" stroke-linejoin="round"/>
<path d="M32.5 13.5615H34.6241" stroke="#4DB85F" stroke-linecap="round" stroke-linejoin="round"/>
<path d="M62.5623 23.6223V21.5" stroke="#0DBEDC" stroke-linecap="round" stroke-linejoin="round"/>
<path d="M61.5 22.5605H63.6249" stroke="#0DBEDC" stroke-linecap="round" stroke-linejoin="round"/>
<path d="M14.5619 33.6223V31.5" stroke="#0DBEDC" stroke-linecap="round" stroke-linejoin="round"/>
<path d="M13.5 32.5605H15.6241" stroke="#0DBEDC" stroke-linecap="round" stroke-linejoin="round"/>
<path fill-rule="evenodd" clip-rule="evenodd" d="M17.9137 20.5198C18.077 20.3953 17.9931 20.1248 17.7912 20.1248L15.9625 20.1241C15.872 20.1241 15.7922 20.0628 15.7642 19.973L15.1981 18.1509C15.1356 17.9497 14.8641 17.9497 14.8015 18.1509L14.2361 19.973C14.2082 20.0628 14.128 20.1241 14.0378 20.1241L12.2088 20.1248C12.0069 20.1248 11.923 20.3957 12.0863 20.5198L13.5662 21.6461C13.6391 21.7016 13.6696 21.8002 13.642 21.8904L13.0774 23.7129C13.0148 23.9141 13.2348 24.0813 13.3981 23.9568L14.8769 22.8309C14.9502 22.7755 15.0491 22.7755 15.1223 22.8309L16.6026 23.9572C16.7656 24.0817 16.9859 23.9145 16.9234 23.7129L16.3583 21.8904C16.3308 21.8002 16.3613 21.7016 16.4345 21.6461L17.9137 20.5198Z" fill="#FFDC0F"/>
<path fill-rule="evenodd" clip-rule="evenodd" d="M68.4496 32.9699C68.5449 32.8973 68.496 32.7395 68.3782 32.7395L67.3115 32.739C67.2587 32.739 67.2121 32.7033 67.1958 32.6509L66.8656 31.588C66.8291 31.4707 66.6707 31.4707 66.6342 31.588L66.3044 32.6509C66.2881 32.7033 66.2413 32.739 66.1887 32.739L65.1218 32.7395C65.004 32.7395 64.9551 32.8975 65.0504 32.9699L65.9136 33.6269C65.9561 33.6593 65.9739 33.7168 65.9578 33.7694L65.6285 34.8325C65.592 34.9499 65.7203 35.0474 65.8156 34.9748L66.6782 34.3181C66.7209 34.2857 66.7786 34.2857 66.8214 34.3181L67.6849 34.9751C67.7799 35.0477 67.9085 34.9501 67.872 34.8325L67.5424 33.7694C67.5263 33.7168 67.5441 33.6593 67.5868 33.6269L68.4496 32.9699Z" fill="#FFDC0F"/>
<mask id="path-26-outside-1_14_14388" maskUnits="userSpaceOnUse" x="14" y="13" width="52" height="52" fill="black">
<rect fill="white" x="14" y="13" width="52" height="52"/>
<path fill-rule="evenodd" clip-rule="evenodd" d="M60.0131 41.9359L63.8097 40.8512C64.2184 40.7341 64.5 40.3604 64.5 39.9353V37.565C64.5001 37.1395 64.218 36.7656 63.8089 36.6487L60.0113 35.5635C59.6685 35.463 59.4107 35.1793 59.3434 34.8284C59.1727 33.9921 58.948 33.1678 58.6707 32.3605C58.552 32.0222 58.6336 31.6458 58.8817 31.3869L61.6362 28.5402C61.932 28.2344 61.9893 27.7696 61.7765 27.4012L60.5915 25.3483C60.3787 24.98 59.9475 24.7974 59.5349 24.9009L55.6846 25.8647C55.338 25.9494 54.9731 25.8332 54.7394 25.5636C54.1767 24.9284 53.5744 24.3295 52.9361 23.7703C52.6651 23.5365 52.5481 23.1705 52.6332 22.8228L53.5989 18.9652C53.7025 18.5526 53.5199 18.1213 53.1515 17.9085L51.0988 16.7234C50.7303 16.5106 50.2654 16.5679 49.9598 16.8639L47.1108 19.6203C46.8523 19.8679 46.4768 19.9496 46.1388 19.8317C45.333 19.5579 44.5103 19.3365 43.676 19.1688C43.3245 19.1018 43.0402 18.8436 42.9397 18.5002L41.8514 14.6911C41.7344 14.2821 41.3605 14.0001 40.9351 14H38.5647C38.1393 14 37.7654 14.282 37.6484 14.6911L36.5599 18.501C36.4594 18.8439 36.1756 19.1018 35.8247 19.1691C34.9923 19.339 34.1718 19.5623 33.3681 19.8375C33.0298 19.9558 32.6538 19.8742 32.3951 19.6262L29.54 16.8637C29.2341 16.5679 28.7693 16.5106 28.4009 16.7234L26.3481 17.9085C25.9798 18.1214 25.7972 18.5526 25.9007 18.9652L26.8652 22.8174C26.95 23.1644 26.8334 23.5298 26.5631 23.7635C25.9274 24.3254 25.3277 24.9268 24.7677 25.5642C24.5338 25.8345 24.1682 25.9512 23.821 25.8663L19.9649 24.9009C19.5523 24.7975 19.1212 24.9801 18.9083 25.3483L17.7232 27.4012C17.5105 27.7696 17.5678 28.2344 17.8636 28.5402L20.6125 31.3805C20.8604 31.6392 20.942 32.0153 20.8235 32.3534C20.5477 33.1626 20.3247 33.9888 20.1559 34.8269C20.089 35.1783 19.8309 35.4626 19.4876 35.5632L15.691 36.6484C15.2819 36.7653 14.9998 37.1393 15 37.5648V39.9351C14.9998 40.3605 15.2819 40.7345 15.691 40.8514L19.4884 41.9366C19.8313 42.0371 20.0891 42.3209 20.1564 42.6718C20.3272 43.508 20.5519 44.3323 20.8292 45.1395C20.9479 45.478 20.8663 45.8544 20.6182 46.1133L17.8636 48.9595C17.5678 49.2653 17.5105 49.7301 17.7232 50.0985L18.9091 52.1514C19.1219 52.5198 19.5531 52.7026 19.9658 52.5993L23.8158 51.6354C24.1625 51.5508 24.5274 51.667 24.7612 51.9365C25.3239 52.5717 25.9262 53.1706 26.5646 53.7298C26.8355 53.9637 26.9525 54.3297 26.8675 54.6774L25.9015 58.535C25.7982 58.9476 25.9807 59.3788 26.349 59.5917L28.4017 60.7767C28.7702 60.9896 29.2351 60.9323 29.5408 60.6363L32.3899 57.8798C32.6483 57.6321 33.0239 57.5504 33.3619 57.6685C34.1677 57.9422 34.9903 58.1636 35.8247 58.3313C36.1761 58.3983 36.4605 58.6565 36.561 58.9999L37.6488 62.8089C37.7657 63.218 38.1397 63.5 38.5651 63.5H40.9355C41.3609 63.5 41.7348 63.218 41.8518 62.8089L42.9401 58.999C43.0408 58.6562 43.3245 58.3984 43.6753 58.3309C44.5078 58.1611 45.3285 57.9378 46.1323 57.6625C46.4705 57.5442 46.8465 57.6259 47.1051 57.874L49.9601 60.6363C50.2658 60.9322 50.7307 60.9896 51.0991 60.7767L53.1524 59.5916C53.5207 59.3787 53.7033 58.9475 53.5998 58.5349L52.6359 54.6827C52.5512 54.3356 52.6678 53.9703 52.938 53.7365C53.5738 53.1746 54.1735 52.5732 54.7337 51.9358C54.9676 51.6655 55.3331 51.5489 55.6804 51.6339L59.5357 52.5992C59.9484 52.7026 60.3797 52.5198 60.5924 52.1513L61.7775 50.0985C61.9902 49.7301 61.9328 49.2653 61.637 48.9595L58.8881 46.1186C58.6403 45.8598 58.5588 45.4838 58.6773 45.1456C58.9531 44.3365 59.176 43.5102 59.3447 42.6721C59.4117 42.3207 59.6698 42.0364 60.0131 41.9359ZM30.5056 26.8787C30.6434 26.9051 30.7627 26.9902 30.8326 27.1118L36.3158 36.6076C37.081 37.933 37.081 39.5659 36.3158 40.8913L30.8326 50.3875C30.7627 50.5091 30.6433 50.5942 30.5056 50.6206C30.3679 50.647 30.2255 50.6121 30.1156 50.525C26.5744 47.641 24.5191 43.3166 24.5191 38.7496C24.5191 34.1827 26.5744 29.8582 30.1156 26.9742C30.2255 26.8871 30.3679 26.8522 30.5056 26.8787ZM39.75 23.5182C37.9072 23.5162 36.0794 23.8495 34.3559 24.5018C34.2262 24.5532 34.1253 24.6586 34.0797 24.7905C34.0341 24.9224 34.0483 25.0677 34.1186 25.1882L39.6124 34.7038C40.3777 36.0292 41.7918 36.8457 43.3223 36.8457H54.2941C54.4343 36.8457 54.5675 36.7848 54.6591 36.6788C54.7507 36.5728 54.7916 36.4322 54.7712 36.2935C53.5709 28.9298 47.211 23.5208 39.75 23.5182ZM43.3227 40.6529H54.2937L54.2941 40.6537C54.4341 40.6536 54.5671 40.7145 54.6587 40.8203C54.7503 40.9261 54.7913 41.0665 54.7712 41.205C54.0352 45.7137 51.314 49.6537 47.3582 51.9387C43.4023 54.2236 38.6296 54.612 34.3564 52.9967C34.2267 52.9453 34.1258 52.8398 34.0802 52.7079C34.0346 52.576 34.0488 52.4308 34.1191 52.3102L39.6129 42.7948C40.3781 41.4694 41.7923 40.6529 43.3227 40.6529Z"/>
</mask>
<path fill-rule="evenodd" clip-rule="evenodd" d="M60.0131 41.9359L63.8097 40.8512C64.2184 40.7341 64.5 40.3604 64.5 39.9353V37.565C64.5001 37.1395 64.218 36.7656 63.8089 36.6487L60.0113 35.5635C59.6685 35.463 59.4107 35.1793 59.3434 34.8284C59.1727 33.9921 58.948 33.1678 58.6707 32.3605C58.552 32.0222 58.6336 31.6458 58.8817 31.3869L61.6362 28.5402C61.932 28.2344 61.9893 27.7696 61.7765 27.4012L60.5915 25.3483C60.3787 24.98 59.9475 24.7974 59.5349 24.9009L55.6846 25.8647C55.338 25.9494 54.9731 25.8332 54.7394 25.5636C54.1767 24.9284 53.5744 24.3295 52.9361 23.7703C52.6651 23.5365 52.5481 23.1705 52.6332 22.8228L53.5989 18.9652C53.7025 18.5526 53.5199 18.1213 53.1515 17.9085L51.0988 16.7234C50.7303 16.5106 50.2654 16.5679 49.9598 16.8639L47.1108 19.6203C46.8523 19.8679 46.4768 19.9496 46.1388 19.8317C45.333 19.5579 44.5103 19.3365 43.676 19.1688C43.3245 19.1018 43.0402 18.8436 42.9397 18.5002L41.8514 14.6911C41.7344 14.2821 41.3605 14.0001 40.9351 14H38.5647C38.1393 14 37.7654 14.282 37.6484 14.6911L36.5599 18.501C36.4594 18.8439 36.1756 19.1018 35.8247 19.1691C34.9923 19.339 34.1718 19.5623 33.3681 19.8375C33.0298 19.9558 32.6538 19.8742 32.3951 19.6262L29.54 16.8637C29.2341 16.5679 28.7693 16.5106 28.4009 16.7234L26.3481 17.9085C25.9798 18.1214 25.7972 18.5526 25.9007 18.9652L26.8652 22.8174C26.95 23.1644 26.8334 23.5298 26.5631 23.7635C25.9274 24.3254 25.3277 24.9268 24.7677 25.5642C24.5338 25.8345 24.1682 25.9512 23.821 25.8663L19.9649 24.9009C19.5523 24.7975 19.1212 24.9801 18.9083 25.3483L17.7232 27.4012C17.5105 27.7696 17.5678 28.2344 17.8636 28.5402L20.6125 31.3805C20.8604 31.6392 20.942 32.0153 20.8235 32.3534C20.5477 33.1626 20.3247 33.9888 20.1559 34.8269C20.089 35.1783 19.8309 35.4626 19.4876 35.5632L15.691 36.6484C15.2819 36.7653 14.9998 37.1393 15 37.5648V39.9351C14.9998 40.3605 15.2819 40.7345 15.691 40.8514L19.4884 41.9366C19.8313 42.0371 20.0891 42.3209 20.1564 42.6718C20.3272 43.508 20.5519 44.3323 20.8292 45.1395C20.9479 45.478 20.8663 45.8544 20.6182 46.1133L17.8636 48.9595C17.5678 49.2653 17.5105 49.7301 17.7232 50.0985L18.9091 52.1514C19.1219 52.5198 19.5531 52.7026 19.9658 52.5993L23.8158 51.6354C24.1625 51.5508 24.5274 51.667 24.7612 51.9365C25.3239 52.5717 25.9262 53.1706 26.5646 53.7298C26.8355 53.9637 26.9525 54.3297 26.8675 54.6774L25.9015 58.535C25.7982 58.9476 25.9807 59.3788 26.349 59.5917L28.4017 60.7767C28.7702 60.9896 29.2351 60.9323 29.5408 60.6363L32.3899 57.8798C32.6483 57.6321 33.0239 57.5504 33.3619 57.6685C34.1677 57.9422 34.9903 58.1636 35.8247 58.3313C36.1761 58.3983 36.4605 58.6565 36.561 58.9999L37.6488 62.8089C37.7657 63.218 38.1397 63.5 38.5651 63.5H40.9355C41.3609 63.5 41.7348 63.218 41.8518 62.8089L42.9401 58.999C43.0408 58.6562 43.3245 58.3984 43.6753 58.3309C44.5078 58.1611 45.3285 57.9378 46.1323 57.6625C46.4705 57.5442 46.8465 57.6259 47.1051 57.874L49.9601 60.6363C50.2658 60.9322 50.7307 60.9896 51.0991 60.7767L53.1524 59.5916C53.5207 59.3787 53.7033 58.9475 53.5998 58.5349L52.6359 54.6827C52.5512 54.3356 52.6678 53.9703 52.938 53.7365C53.5738 53.1746 54.1735 52.5732 54.7337 51.9358C54.9676 51.6655 55.3331 51.5489 55.6804 51.6339L59.5357 52.5992C59.9484 52.7026 60.3797 52.5198 60.5924 52.1513L61.7775 50.0985C61.9902 49.7301 61.9328 49.2653 61.637 48.9595L58.8881 46.1186C58.6403 45.8598 58.5588 45.4838 58.6773 45.1456C58.9531 44.3365 59.176 43.5102 59.3447 42.6721C59.4117 42.3207 59.6698 42.0364 60.0131 41.9359ZM30.5056 26.8787C30.6434 26.9051 30.7627 26.9902 30.8326 27.1118L36.3158 36.6076C37.081 37.933 37.081 39.5659 36.3158 40.8913L30.8326 50.3875C30.7627 50.5091 30.6433 50.5942 30.5056 50.6206C30.3679 50.647 30.2255 50.6121 30.1156 50.525C26.5744 47.641 24.5191 43.3166 24.5191 38.7496C24.5191 34.1827 26.5744 29.8582 30.1156 26.9742C30.2255 26.8871 30.3679 26.8522 30.5056 26.8787ZM39.75 23.5182C37.9072 23.5162 36.0794 23.8495 34.3559 24.5018C34.2262 24.5532 34.1253 24.6586 34.0797 24.7905C34.0341 24.9224 34.0483 25.0677 34.1186 25.1882L39.6124 34.7038C40.3777 36.0292 41.7918 36.8457 43.3223 36.8457H54.2941C54.4343 36.8457 54.5675 36.7848 54.6591 36.6788C54.7507 36.5728 54.7916 36.4322 54.7712 36.2935C53.5709 28.9298 47.211 23.5208 39.75 23.5182ZM43.3227 40.6529H54.2937L54.2941 40.6537C54.4341 40.6536 54.5671 40.7145 54.6587 40.8203C54.7503 40.9261 54.7913 41.0665 54.7712 41.205C54.0352 45.7137 51.314 49.6537 47.3582 51.9387C43.4023 54.2236 38.6296 54.612 34.3564 52.9967C34.2267 52.9453 34.1258 52.8398 34.0802 52.7079C34.0346 52.576 34.0488 52.4308 34.1191 52.3102L39.6129 42.7948C40.3781 41.4694 41.7923 40.6529 43.3227 40.6529Z" fill="white"/>
<path fill-rule="evenodd" clip-rule="evenodd" d="M60.0131 41.9359L63.8097 40.8512C64.2184 40.7341 64.5 40.3604 64.5 39.9353V37.565C64.5001 37.1395 64.218 36.7656 63.8089 36.6487L60.0113 35.5635C59.6685 35.463 59.4107 35.1793 59.3434 34.8284C59.1727 33.9921 58.948 33.1678 58.6707 32.3605C58.552 32.0222 58.6336 31.6458 58.8817 31.3869L61.6362 28.5402C61.932 28.2344 61.9893 27.7696 61.7765 27.4012L60.5915 25.3483C60.3787 24.98 59.9475 24.7974 59.5349 24.9009L55.6846 25.8647C55.338 25.9494 54.9731 25.8332 54.7394 25.5636C54.1767 24.9284 53.5744 24.3295 52.9361 23.7703C52.6651 23.5365 52.5481 23.1705 52.6332 22.8228L53.5989 18.9652C53.7025 18.5526 53.5199 18.1213 53.1515 17.9085L51.0988 16.7234C50.7303 16.5106 50.2654 16.5679 49.9598 16.8639L47.1108 19.6203C46.8523 19.8679 46.4768 19.9496 46.1388 19.8317C45.333 19.5579 44.5103 19.3365 43.676 19.1688C43.3245 19.1018 43.0402 18.8436 42.9397 18.5002L41.8514 14.6911C41.7344 14.2821 41.3605 14.0001 40.9351 14H38.5647C38.1393 14 37.7654 14.282 37.6484 14.6911L36.5599 18.501C36.4594 18.8439 36.1756 19.1018 35.8247 19.1691C34.9923 19.339 34.1718 19.5623 33.3681 19.8375C33.0298 19.9558 32.6538 19.8742 32.3951 19.6262L29.54 16.8637C29.2341 16.5679 28.7693 16.5106 28.4009 16.7234L26.3481 17.9085C25.9798 18.1214 25.7972 18.5526 25.9007 18.9652L26.8652 22.8174C26.95 23.1644 26.8334 23.5298 26.5631 23.7635C25.9274 24.3254 25.3277 24.9268 24.7677 25.5642C24.5338 25.8345 24.1682 25.9512 23.821 25.8663L19.9649 24.9009C19.5523 24.7975 19.1212 24.9801 18.9083 25.3483L17.7232 27.4012C17.5105 27.7696 17.5678 28.2344 17.8636 28.5402L20.6125 31.3805C20.8604 31.6392 20.942 32.0153 20.8235 32.3534C20.5477 33.1626 20.3247 33.9888 20.1559 34.8269C20.089 35.1783 19.8309 35.4626 19.4876 35.5632L15.691 36.6484C15.2819 36.7653 14.9998 37.1393 15 37.5648V39.9351C14.9998 40.3605 15.2819 40.7345 15.691 40.8514L19.4884 41.9366C19.8313 42.0371 20.0891 42.3209 20.1564 42.6718C20.3272 43.508 20.5519 44.3323 20.8292 45.1395C20.9479 45.478 20.8663 45.8544 20.6182 46.1133L17.8636 48.9595C17.5678 49.2653 17.5105 49.7301 17.7232 50.0985L18.9091 52.1514C19.1219 52.5198 19.5531 52.7026 19.9658 52.5993L23.8158 51.6354C24.1625 51.5508 24.5274 51.667 24.7612 51.9365C25.3239 52.5717 25.9262 53.1706 26.5646 53.7298C26.8355 53.9637 26.9525 54.3297 26.8675 54.6774L25.9015 58.535C25.7982 58.9476 25.9807 59.3788 26.349 59.5917L28.4017 60.7767C28.7702 60.9896 29.2351 60.9323 29.5408 60.6363L32.3899 57.8798C32.6483 57.6321 33.0239 57.5504 33.3619 57.6685C34.1677 57.9422 34.9903 58.1636 35.8247 58.3313C36.1761 58.3983 36.4605 58.6565 36.561 58.9999L37.6488 62.8089C37.7657 63.218 38.1397 63.5 38.5651 63.5H40.9355C41.3609 63.5 41.7348 63.218 41.8518 62.8089L42.9401 58.999C43.0408 58.6562 43.3245 58.3984 43.6753 58.3309C44.5078 58.1611 45.3285 57.9378 46.1323 57.6625C46.4705 57.5442 46.8465 57.6259 47.1051 57.874L49.9601 60.6363C50.2658 60.9322 50.7307 60.9896 51.0991 60.7767L53.1524 59.5916C53.5207 59.3787 53.7033 58.9475 53.5998 58.5349L52.6359 54.6827C52.5512 54.3356 52.6678 53.9703 52.938 53.7365C53.5738 53.1746 54.1735 52.5732 54.7337 51.9358C54.9676 51.6655 55.3331 51.5489 55.6804 51.6339L59.5357 52.5992C59.9484 52.7026 60.3797 52.5198 60.5924 52.1513L61.7775 50.0985C61.9902 49.7301 61.9328 49.2653 61.637 48.9595L58.8881 46.1186C58.6403 45.8598 58.5588 45.4838 58.6773 45.1456C58.9531 44.3365 59.176 43.5102 59.3447 42.6721C59.4117 42.3207 59.6698 42.0364 60.0131 41.9359ZM30.5056 26.8787C30.6434 26.9051 30.7627 26.9902 30.8326 27.1118L36.3158 36.6076C37.081 37.933 37.081 39.5659 36.3158 40.8913L30.8326 50.3875C30.7627 50.5091 30.6433 50.5942 30.5056 50.6206C30.3679 50.647 30.2255 50.6121 30.1156 50.525C26.5744 47.641 24.5191 43.3166 24.5191 38.7496C24.5191 34.1827 26.5744 29.8582 30.1156 26.9742C30.2255 26.8871 30.3679 26.8522 30.5056 26.8787ZM39.75 23.5182C37.9072 23.5162 36.0794 23.8495 34.3559 24.5018C34.2262 24.5532 34.1253 24.6586 34.0797 24.7905C34.0341 24.9224 34.0483 25.0677 34.1186 25.1882L39.6124 34.7038C40.3777 36.0292 41.7918 36.8457 43.3223 36.8457H54.2941C54.4343 36.8457 54.5675 36.7848 54.6591 36.6788C54.7507 36.5728 54.7916 36.4322 54.7712 36.2935C53.5709 28.9298 47.211 23.5208 39.75 23.5182ZM43.3227 40.6529H54.2937L54.2941 40.6537C54.4341 40.6536 54.5671 40.7145 54.6587 40.8203C54.7503 40.9261 54.7913 41.0665 54.7712 41.205C54.0352 45.7137 51.314 49.6537 47.3582 51.9387C43.4023 54.2236 38.6296 54.612 34.3564 52.9967C34.2267 52.9453 34.1258 52.8398 34.0802 52.7079C34.0346 52.576 34.0488 52.4308 34.1191 52.3102L39.6129 42.7948C40.3781 41.4694 41.7923 40.6529 43.3227 40.6529Z" stroke="#45413C" stroke-width="1.75" mask="url(#path-26-outside-1_14_14388)"/>
<path fill-rule="evenodd" clip-rule="evenodd" d="M60.0131 41.9359L63.8097 40.8512C64.2184 40.7341 64.5 40.3604 64.5 39.9353V37.565C64.5001 37.1395 64.218 36.7656 63.8089 36.6487L60.0113 35.5635C59.6685 35.463 59.4107 35.1793 59.3434 34.8284C59.1727 33.9921 58.948 33.1678 58.6707 32.3605C58.552 32.0222 58.6336 31.6458 58.8817 31.3869L61.6362 28.5402C61.932 28.2344 61.9893 27.7696 61.7765 27.4012L60.5915 25.3483C60.3787 24.98 59.9475 24.7974 59.5349 24.9009L55.6846 25.8647C55.338 25.9494 54.9731 25.8332 54.7394 25.5636C54.1767 24.9284 53.5744 24.3295 52.9361 23.7703C52.6651 23.5365 52.5481 23.1705 52.6332 22.8228L53.5989 18.9652C53.7025 18.5526 53.5199 18.1213 53.1515 17.9085L51.0988 16.7234C50.7303 16.5106 50.2654 16.5679 49.9598 16.8639L47.1108 19.6203C46.8523 19.8679 46.4768 19.9496 46.1388 19.8317C45.333 19.5579 44.5103 19.3365 43.676 19.1688C43.3245 19.1018 43.0402 18.8436 42.9397 18.5002L41.8514 14.6911C41.7344 14.2821 41.3605 14.0001 40.9351 14H38.5647C38.1393 14 37.7654 14.282 37.6484 14.6911L36.5599 18.501C36.4594 18.8439 36.1756 19.1018 35.8247 19.1691C34.9923 19.339 34.1718 19.5623 33.3681 19.8375C33.0298 19.9558 32.6538 19.8742 32.3951 19.6262L29.54 16.8637C29.2341 16.5679 28.7693 16.5106 28.4009 16.7234L26.3481 17.9085C25.9798 18.1214 25.7972 18.5526 25.9007 18.9652L26.8652 22.8174C26.95 23.1644 26.8334 23.5298 26.5631 23.7635C25.9274 24.3254 25.3277 24.9268 24.7677 25.5642C24.5338 25.8345 24.1682 25.9512 23.821 25.8663L19.9649 24.9009C19.5523 24.7975 19.1212 24.9801 18.9083 25.3483L17.7232 27.4012C17.5105 27.7696 17.5678 28.2344 17.8636 28.5402L20.6125 31.3805C20.8604 31.6392 20.942 32.0153 20.8235 32.3534C20.5477 33.1626 20.3247 33.9888 20.1559 34.8269C20.089 35.1783 19.8309 35.4626 19.4876 35.5632L15.691 36.6484C15.2819 36.7653 14.9998 37.1393 15 37.5648V39.9351C14.9998 40.3605 15.2819 40.7345 15.691 40.8514L19.4884 41.9366C19.8313 42.0371 20.0891 42.3209 20.1564 42.6718C20.3272 43.508 20.5519 44.3323 20.8292 45.1395C20.9479 45.478 20.8663 45.8544 20.6182 46.1133L17.8636 48.9595C17.5678 49.2653 17.5105 49.7301 17.7232 50.0985L18.9091 52.1514C19.1219 52.5198 19.5531 52.7026 19.9658 52.5993L23.8158 51.6354C24.1625 51.5508 24.5274 51.667 24.7612 51.9365C25.3239 52.5717 25.9262 53.1706 26.5646 53.7298C26.8355 53.9637 26.9525 54.3297 26.8675 54.6774L25.9015 58.535C25.7982 58.9476 25.9807 59.3788 26.349 59.5917L28.4017 60.7767C28.7702 60.9896 29.2351 60.9323 29.5408 60.6363L32.3899 57.8798C32.6483 57.6321 33.0239 57.5504 33.3619 57.6685C34.1677 57.9422 34.9903 58.1636 35.8247 58.3313C36.1761 58.3983 36.4605 58.6565 36.561 58.9999L37.6488 62.8089C37.7657 63.218 38.1397 63.5 38.5651 63.5H40.9355C41.3609 63.5 41.7348 63.218 41.8518 62.8089L42.9401 58.999C43.0408 58.6562 43.3245 58.3984 43.6753 58.3309C44.5078 58.1611 45.3285 57.9378 46.1323 57.6625C46.4705 57.5442 46.8465 57.6259 47.1051 57.874L49.9601 60.6363C50.2658 60.9322 50.7307 60.9896 51.0991 60.7767L53.1524 59.5916C53.5207 59.3787 53.7033 58.9475 53.5998 58.5349L52.6359 54.6827C52.5512 54.3356 52.6678 53.9703 52.938 53.7365C53.5738 53.1746 54.1735 52.5732 54.7337 51.9358C54.9676 51.6655 55.3331 51.5489 55.6804 51.6339L59.5357 52.5992C59.9484 52.7026 60.3797 52.5198 60.5924 52.1513L61.7775 50.0985C61.9902 49.7301 61.9328 49.2653 61.637 48.9595L58.8881 46.1186C58.6403 45.8598 58.5588 45.4838 58.6773 45.1456C58.9531 44.3365 59.176 43.5102 59.3447 42.6721C59.4117 42.3207 59.6698 42.0364 60.0131 41.9359ZM30.5056 26.8787C30.6434 26.9051 30.7627 26.9902 30.8326 27.1118L36.3158 36.6076C37.081 37.933 37.081 39.5659 36.3158 40.8913L30.8326 50.3875C30.7627 50.5091 30.6433 50.5942 30.5056 50.6206C30.3679 50.647 30.2255 50.6121 30.1156 50.525C26.5744 47.641 24.5191 43.3166 24.5191 38.7496C24.5191 34.1827 26.5744 29.8582 30.1156 26.9742C30.2255 26.8871 30.3679 26.8522 30.5056 26.8787ZM39.75 23.5182C37.9072 23.5162 36.0794 23.8495 34.3559 24.5018C34.2262 24.5532 34.1253 24.6586 34.0797 24.7905C34.0341 24.9224 34.0483 25.0677 34.1186 25.1882L39.6124 34.7038C40.3777 36.0292 41.7918 36.8457 43.3223 36.8457H54.2941C54.4343 36.8457 54.5675 36.7848 54.6591 36.6788C54.7507 36.5728 54.7916 36.4322 54.7712 36.2935C53.5709 28.9298 47.211 23.5208 39.75 23.5182ZM43.3227 40.6529H54.2937L54.2941 40.6537C54.4341 40.6536 54.5671 40.7145 54.6587 40.8203C54.7503 40.9261 54.7913 41.0665 54.7712 41.205C54.0352 45.7137 51.314 49.6537 47.3582 51.9387C43.4023 54.2236 38.6296 54.612 34.3564 52.9967C34.2267 52.9453 34.1258 52.8398 34.0802 52.7079C34.0346 52.576 34.0488 52.4308 34.1191 52.3102L39.6129 42.7948C40.3781 41.4694 41.7923 40.6529 43.3227 40.6529Z" fill="#CCCCCC"/>
<path fill-rule="evenodd" clip-rule="evenodd" d="M60.0131 40.9359L63.8097 39.8512C64.2184 39.7341 64.5 39.3604 64.5 38.9353V36.565C64.5001 36.1395 64.218 35.7656 63.8089 35.6487L60.0113 34.5635C59.6685 34.463 59.4107 34.1793 59.3434 33.8284C59.1727 32.9921 58.948 32.1678 58.6707 31.3605C58.552 31.0222 58.6336 30.6458 58.8817 30.3869L61.6362 27.5402C61.932 27.2344 61.9893 26.7696 61.7765 26.4012L60.5915 24.3483C60.3787 23.98 59.9475 23.7974 59.5349 23.9009L55.6846 24.8647C55.338 24.9494 54.9731 24.8332 54.7394 24.5636C54.1767 23.9284 53.5744 23.3295 52.9361 22.7703C52.6651 22.5365 52.5481 22.1705 52.6332 21.8228L53.5989 17.9652C53.7025 17.5526 53.5199 17.1213 53.1515 16.9085L51.0988 15.7234C50.7303 15.5106 50.2654 15.5679 49.9598 15.8639L47.1108 18.6203C46.8523 18.8679 46.4768 18.9496 46.1388 18.8317C45.333 18.5579 44.5103 18.3365 43.676 18.1688C43.3245 18.1018 43.0402 17.8436 42.9397 17.5002L41.8514 13.6911C41.7344 13.2821 41.3605 13.0001 40.9351 13H38.5647C38.1393 13 37.7654 13.282 37.6484 13.6911L36.5599 17.501C36.4594 17.8439 36.1756 18.1018 35.8247 18.1691C34.9923 18.339 34.1718 18.5623 33.3681 18.8375C33.0298 18.9558 32.6538 18.8742 32.3951 18.6262L29.54 15.8637C29.2341 15.5679 28.7693 15.5106 28.4009 15.7234L26.3481 16.9085C25.9798 17.1214 25.7972 17.5526 25.9007 17.9652L26.8652 21.8174C26.95 22.1644 26.8334 22.5298 26.5631 22.7635C25.9274 23.3254 25.3277 23.9268 24.7677 24.5642C24.5338 24.8345 24.1682 24.9512 23.821 24.8663L19.9649 23.9009C19.5523 23.7975 19.1212 23.9801 18.9083 24.3483L17.7232 26.4012C17.5105 26.7696 17.5678 27.2344 17.8636 27.5402L20.6125 30.3805C20.8604 30.6392 20.942 31.0153 20.8235 31.3534C20.5477 32.1626 20.3247 32.9888 20.1559 33.8269C20.089 34.1783 19.8309 34.4626 19.4876 34.5632L15.691 35.6484C15.2819 35.7653 14.9998 36.1393 15 36.5648V38.9351C14.9998 39.3605 15.2819 39.7345 15.691 39.8514L19.4884 40.9366C19.8313 41.0371 20.0891 41.3209 20.1564 41.6718C20.3272 42.508 20.5519 43.3323 20.8292 44.1395C20.9479 44.478 20.8663 44.8544 20.6182 45.1133L17.8636 47.9595C17.5678 48.2653 17.5105 48.7301 17.7232 49.0985L18.9091 51.1514C19.1219 51.5198 19.5531 51.7026 19.9658 51.5993L23.8158 50.6354C24.1625 50.5508 24.5274 50.667 24.7612 50.9365C25.3239 51.5717 25.9262 52.1706 26.5646 52.7298C26.8355 52.9637 26.9525 53.3297 26.8675 53.6774L25.9015 57.535C25.7982 57.9476 25.9807 58.3788 26.349 58.5917L28.4017 59.7767C28.7702 59.9896 29.2351 59.9323 29.5408 59.6363L32.3899 56.8798C32.6483 56.6321 33.0239 56.5504 33.3619 56.6685C34.1677 56.9422 34.9903 57.1636 35.8247 57.3313C36.1761 57.3983 36.4605 57.6565 36.561 57.9999L37.6488 61.8089C37.7657 62.218 38.1397 62.5 38.5651 62.5H40.9355C41.3609 62.5 41.7348 62.218 41.8518 61.8089L42.9401 57.999C43.0408 57.6562 43.3245 57.3984 43.6753 57.3309C44.5078 57.1611 45.3285 56.9378 46.1323 56.6625C46.4705 56.5442 46.8465 56.6259 47.1051 56.874L49.9601 59.6363C50.2658 59.9322 50.7307 59.9896 51.0991 59.7767L53.1524 58.5916C53.5207 58.3787 53.7033 57.9475 53.5998 57.5349L52.6359 53.6827C52.5512 53.3356 52.6678 52.9703 52.938 52.7365C53.5738 52.1746 54.1735 51.5732 54.7337 50.9358C54.9676 50.6655 55.3331 50.5489 55.6804 50.6339L59.5357 51.5992C59.9484 51.7026 60.3797 51.5198 60.5924 51.1513L61.7775 49.0985C61.9902 48.7301 61.9328 48.2653 61.637 47.9595L58.8881 45.1186C58.6403 44.8598 58.5588 44.4838 58.6773 44.1456C58.9531 43.3365 59.176 42.5102 59.3447 41.6721C59.4117 41.3207 59.6698 41.0364 60.0131 40.9359ZM30.5056 25.8787C30.6434 25.9051 30.7627 25.9902 30.8326 26.1118L36.3158 35.6076C37.081 36.933 37.081 38.5659 36.3158 39.8913L30.8326 49.3875C30.7627 49.5091 30.6433 49.5942 30.5056 49.6206C30.3679 49.647 30.2255 49.6121 30.1156 49.525C26.5744 46.641 24.5191 42.3166 24.5191 37.7496C24.5191 33.1827 26.5744 28.8582 30.1156 25.9742C30.2255 25.8871 30.3679 25.8522 30.5056 25.8787ZM39.75 22.5182C37.9072 22.5162 36.0794 22.8495 34.3559 23.5018C34.2262 23.5532 34.1253 23.6586 34.0797 23.7905C34.0341 23.9224 34.0483 24.0677 34.1186 24.1882L39.6124 33.7038C40.3777 35.0292 41.7918 35.8457 43.3223 35.8457H54.2941C54.4343 35.8457 54.5675 35.7848 54.6591 35.6788C54.7507 35.5728 54.7916 35.4322 54.7712 35.2935C53.5709 27.9298 47.211 22.5208 39.75 22.5182ZM43.3227 39.6529H54.2937L54.2941 39.6537C54.4341 39.6536 54.5671 39.7145 54.6587 39.8203C54.7503 39.9261 54.7913 40.0665 54.7712 40.205C54.0352 44.7137 51.314 48.6537 47.3582 50.9387C43.4023 53.2236 38.6296 53.612 34.3564 51.9967C34.2267 51.9453 34.1258 51.8398 34.0802 51.7079C34.0346 51.576 34.0488 51.4308 34.1191 51.3102L39.6129 41.7948C40.3781 40.4694 41.7923 39.6529 43.3227 39.6529Z" fill="#E5E5E5"/>
<path fill-rule="evenodd" clip-rule="evenodd" d="M41.8514 14.6911C41.7344 14.2821 41.3605 14 40.9351 14H38.5647C38.1393 14 37.7654 14.282 37.6484 14.6911L36.5599 18.501C36.4594 18.8439 36.1756 19.1018 35.8247 19.1691C34.9923 19.339 34.1718 19.5623 33.3681 19.8375C33.0298 19.9558 32.6538 19.8742 32.3951 19.6262L29.54 16.8637C29.2341 16.5679 28.7693 16.5106 28.4009 16.7234L26.3481 17.9085C25.9798 18.1214 25.7972 18.5526 25.9007 18.9652L26.0719 19.6495C26.1459 19.5541 26.2388 19.4717 26.3481 19.4085L28.4009 18.2234L28.4758 18.1844C28.8306 18.0193 29.2545 18.0876 29.54 18.3637L32.3951 21.1262L32.4568 21.1804C32.7114 21.3855 33.0559 21.4467 33.3681 21.3375C34.1718 21.0623 34.9923 20.839 35.8247 20.6691C36.1756 20.6018 36.4594 20.3439 36.5599 20.001L37.6484 16.1911L37.6733 16.1159C37.8123 15.7479 38.1659 15.5 38.5647 15.5H40.9351L41.0142 15.5033C41.4062 15.5358 41.7417 15.8076 41.8514 16.1911L42.9397 20.0002L42.9661 20.0778C43.0843 20.3822 43.3516 20.6069 43.676 20.6688C44.5103 20.8365 45.333 21.0579 46.1388 21.3317C46.4768 21.4496 46.8523 21.3679 47.1108 21.1203L49.9598 18.3639L50.0229 18.3079C50.327 18.0615 50.7549 18.0248 51.0988 18.2234L53.1515 19.4085L53.2305 19.4595C53.3064 19.5139 53.3726 19.5783 53.4281 19.65L53.5989 18.9652C53.7025 18.5526 53.5199 18.1213 53.1515 17.9085L51.0988 16.7234C50.7303 16.5106 50.2654 16.5679 49.9598 16.8639L47.1108 19.6203C46.8523 19.8679 46.4768 19.9496 46.1388 19.8317C45.333 19.5579 44.5103 19.3365 43.676 19.1688C43.3245 19.1018 43.0402 18.8436 42.9397 18.5002L41.8514 14.6911ZM26.8652 24.3174L26.6928 23.6268C26.6546 23.676 26.6113 23.7218 26.5631 23.7635L26.2483 24.0477C25.7286 24.5269 25.2344 25.0331 24.7677 25.5642C24.5338 25.8345 24.1682 25.9512 23.821 25.8663L19.9649 24.9009C19.5523 24.7975 19.1212 24.9801 18.9083 25.3483L17.7232 27.4012C17.5105 27.7696 17.5678 28.2344 17.8636 28.5402L17.906 28.584L18.9083 26.8483L18.9507 26.7815C19.175 26.4584 19.5781 26.304 19.9649 26.4009L23.821 27.3663L23.9014 27.3823C24.2237 27.4323 24.5518 27.3137 24.7677 27.0642C25.3277 26.4268 25.9274 25.8254 26.5631 25.2635C26.8334 25.0298 26.95 24.6644 26.8652 24.3174ZM34.5475 25.9308L39.6124 34.7038C40.3777 36.0292 41.7918 36.8457 43.3223 36.8457H54.2941C54.3922 36.8457 54.4869 36.8159 54.5663 36.7616C54.6459 37.1006 54.7143 37.4449 54.7712 37.7935C54.7916 37.9322 54.7507 38.0728 54.6591 38.1788C54.5806 38.2697 54.4715 38.3274 54.3537 38.342L54.2941 38.3457H43.3223C41.8412 38.3457 40.469 37.581 39.6885 36.3305L39.6124 36.2038L34.1186 26.6882C34.0483 26.5677 34.0341 26.4224 34.0797 26.2905C34.1253 26.1586 34.2262 26.0532 34.3559 26.0018L34.5475 25.9308ZM60.0113 35.5635C59.6685 35.463 59.4107 35.1793 59.3434 34.8284C59.2119 34.1844 59.0484 33.5474 58.8535 32.9198L58.8817 32.8869C58.6336 33.1458 58.552 33.5222 58.6707 33.8605C58.948 34.6678 59.1727 35.4921 59.3434 36.3284C59.4107 36.6793 59.6685 36.963 60.0113 37.0635L63.8089 38.1487L63.884 38.1736C64.252 38.3124 64.4998 38.6658 64.5 39.0645V37.565C64.5 37.1395 64.218 36.7656 63.8089 36.6487L60.0113 35.5635ZM20.6436 32.9147C20.8671 33.1716 20.9369 33.5298 20.8235 33.8534C20.5477 34.6626 20.3247 35.4888 20.1559 36.3269C20.0941 36.6513 19.8695 36.9185 19.5653 37.0368L19.4876 37.0632L15.691 38.1484C15.3074 38.258 15.0357 38.5935 15.0033 38.9856L15 39.0648V37.5648C15 37.1393 15.2819 36.7653 15.691 36.6484L19.4876 35.5632C19.8309 35.4626 20.089 35.1783 20.1559 34.8269C20.2685 34.2682 20.4051 33.7147 20.5654 33.1681L20.6436 32.9147ZM36.4026 42.2332C36.8469 41.3832 36.9873 40.4206 36.8236 39.4995L36.8071 39.5868C36.717 40.039 36.5533 40.4799 36.3158 40.8913L30.8326 50.3875C30.7627 50.5091 30.6433 50.5942 30.5056 50.6206C30.3679 50.647 30.2255 50.6121 30.1156 50.525C26.7689 47.7995 24.7494 43.7873 24.5376 39.4999C24.5253 39.7489 24.5191 39.9989 24.5191 40.2496C24.5191 44.8166 26.5744 49.141 30.1156 52.025C30.2255 52.1121 30.3679 52.147 30.5056 52.1206C30.6433 52.0942 30.7627 52.0091 30.8326 51.8875L36.3158 42.3913L36.4026 42.2332ZM54.5655 42.2373C54.5997 42.2606 54.6311 42.2884 54.6587 42.3203C54.7503 42.4261 54.7913 42.5665 54.7712 42.705C54.0352 47.2137 51.314 51.1537 47.3582 53.4387C43.4023 55.7236 38.6296 56.112 34.3564 54.4967C34.2267 54.4453 34.1258 54.3398 34.0802 54.2079C34.0411 54.0949 34.046 53.972 34.0924 53.8633L34.1191 53.8102L34.548 53.067L34.59 53.0828C38.8029 54.5972 43.4742 54.182 47.3582 51.9387C50.967 49.8542 53.5483 46.3922 54.5322 42.3777L54.5655 42.2373ZM26.8844 56.0915C26.9229 55.8331 26.8533 55.5715 26.695 55.3673L25.9015 58.535C25.8288 58.8252 25.8975 59.1245 26.0728 59.3507L26.8675 56.1774L26.8844 56.0915ZM53.5998 58.5349L52.808 55.3738L52.7587 55.4438C52.6206 55.6598 52.5733 55.9262 52.6359 56.1827L53.429 59.3501C53.6039 59.124 53.6725 58.8249 53.5998 58.5349ZM20.6464 46.0805C20.7046 46.2677 20.7655 46.4541 20.8292 46.6395C20.9388 46.9519 20.8777 47.2967 20.6725 47.5515L20.6182 47.6133L17.906 50.4155L17.7232 50.0985C17.5105 49.7301 17.5678 49.2653 17.8636 48.9595L20.6182 46.1133L20.6464 46.0805ZM61.637 48.9595L58.8727 46.1018L58.8592 46.0846C58.8014 46.2725 58.7407 46.4595 58.6773 46.6456L58.6535 46.7243C58.5724 47.041 58.6594 47.3797 58.8881 47.6186L61.5945 50.4155L61.7775 50.0985C61.9902 49.7301 61.9328 49.2653 61.637 48.9595ZM52.9361 23.7703C53.5744 24.3295 54.1767 24.9284 54.7394 25.5636C54.9731 25.8332 55.338 25.9494 55.6846 25.8647L59.5349 24.9009C59.9475 24.7974 60.3787 24.98 60.5915 25.3483L61.7765 27.4012C61.9893 27.7696 61.932 28.2344 61.6362 28.5402L61.593 28.584L60.5915 26.8483C60.392 26.503 60.0005 26.321 59.6124 26.3849L59.5349 26.4009L55.6846 27.3647C55.338 27.4494 54.9731 27.3332 54.7394 27.0636C54.1767 26.4284 53.5744 25.8295 52.9361 25.2703C52.686 25.0544 52.5671 24.726 52.6171 24.4033L52.6332 24.3228L52.8054 23.6325C52.8438 23.6821 52.8875 23.7284 52.9361 23.7703Z" fill="white"/>
<mask id="path-30-outside-2_14_14388" maskUnits="userSpaceOnUse" x="14" y="13" width="52" height="52" fill="black">
<rect fill="white" x="14" y="13" width="52" height="52"/>
<path fill-rule="evenodd" clip-rule="evenodd" d="M60.0131 41.9359L63.8097 40.8512C64.2184 40.7341 64.5 40.3604 64.5 39.9353V37.565C64.5001 37.1395 64.218 36.7656 63.8089 36.6487L60.0113 35.5635C59.6685 35.463 59.4107 35.1793 59.3434 34.8284C59.1727 33.9921 58.948 33.1678 58.6707 32.3605C58.552 32.0222 58.6336 31.6458 58.8817 31.3869L61.6362 28.5402C61.932 28.2344 61.9893 27.7696 61.7765 27.4012L60.5915 25.3483C60.3787 24.98 59.9475 24.7974 59.5349 24.9009L55.6846 25.8647C55.338 25.9494 54.9731 25.8332 54.7394 25.5636C54.1767 24.9284 53.5744 24.3295 52.9361 23.7703C52.6651 23.5365 52.5481 23.1705 52.6332 22.8228L53.5989 18.9652C53.7025 18.5526 53.5199 18.1213 53.1515 17.9085L51.0988 16.7234C50.7303 16.5106 50.2654 16.5679 49.9598 16.8639L47.1108 19.6203C46.8523 19.8679 46.4768 19.9496 46.1388 19.8317C45.333 19.5579 44.5103 19.3365 43.676 19.1688C43.3245 19.1018 43.0402 18.8436 42.9397 18.5002L41.8514 14.6911C41.7344 14.2821 41.3605 14.0001 40.9351 14H38.5647C38.1393 14 37.7654 14.282 37.6484 14.6911L36.5599 18.501C36.4594 18.8439 36.1756 19.1018 35.8247 19.1691C34.9923 19.339 34.1718 19.5623 33.3681 19.8375C33.0298 19.9558 32.6538 19.8742 32.3951 19.6262L29.54 16.8637C29.2341 16.5679 28.7693 16.5106 28.4009 16.7234L26.3481 17.9085C25.9798 18.1214 25.7972 18.5526 25.9007 18.9652L26.8652 22.8174C26.95 23.1644 26.8334 23.5298 26.5631 23.7635C25.9274 24.3254 25.3277 24.9268 24.7677 25.5642C24.5338 25.8345 24.1682 25.9512 23.821 25.8663L19.9649 24.9009C19.5523 24.7975 19.1212 24.9801 18.9083 25.3483L17.7232 27.4012C17.5105 27.7696 17.5678 28.2344 17.8636 28.5402L20.6125 31.3805C20.8604 31.6392 20.942 32.0153 20.8235 32.3534C20.5477 33.1626 20.3247 33.9888 20.1559 34.8269C20.089 35.1783 19.8309 35.4626 19.4876 35.5632L15.691 36.6484C15.2819 36.7653 14.9998 37.1393 15 37.5648V39.9351C14.9998 40.3605 15.2819 40.7345 15.691 40.8514L19.4884 41.9366C19.8313 42.0371 20.0891 42.3209 20.1564 42.6718C20.3272 43.508 20.5519 44.3323 20.8292 45.1395C20.9479 45.478 20.8663 45.8544 20.6182 46.1133L17.8636 48.9595C17.5678 49.2653 17.5105 49.7301 17.7232 50.0985L18.9091 52.1514C19.1219 52.5198 19.5531 52.7026 19.9658 52.5993L23.8158 51.6354C24.1625 51.5508 24.5274 51.667 24.7612 51.9365C25.3239 52.5717 25.9262 53.1706 26.5646 53.7298C26.8355 53.9637 26.9525 54.3297 26.8675 54.6774L25.9015 58.535C25.7982 58.9476 25.9807 59.3788 26.349 59.5917L28.4017 60.7767C28.7702 60.9896 29.2351 60.9323 29.5408 60.6363L32.3899 57.8798C32.6483 57.6321 33.0239 57.5504 33.3619 57.6685C34.1677 57.9422 34.9903 58.1636 35.8247 58.3313C36.1761 58.3983 36.4605 58.6565 36.561 58.9999L37.6488 62.8089C37.7657 63.218 38.1397 63.5 38.5651 63.5H40.9355C41.3609 63.5 41.7348 63.218 41.8518 62.8089L42.9401 58.999C43.0408 58.6562 43.3245 58.3984 43.6753 58.3309C44.5078 58.1611 45.3285 57.9378 46.1323 57.6625C46.4705 57.5442 46.8465 57.6259 47.1051 57.874L49.9601 60.6363C50.2658 60.9322 50.7307 60.9896 51.0991 60.7767L53.1524 59.5916C53.5207 59.3787 53.7033 58.9475 53.5998 58.5349L52.6359 54.6827C52.5512 54.3356 52.6678 53.9703 52.938 53.7365C53.5738 53.1746 54.1735 52.5732 54.7337 51.9358C54.9676 51.6655 55.3331 51.5489 55.6804 51.6339L59.5357 52.5992C59.9484 52.7026 60.3797 52.5198 60.5924 52.1513L61.7775 50.0985C61.9902 49.7301 61.9328 49.2653 61.637 48.9595L58.8881 46.1186C58.6403 45.8598 58.5588 45.4838 58.6773 45.1456C58.9531 44.3365 59.176 43.5102 59.3447 42.6721C59.4117 42.3207 59.6698 42.0364 60.0131 41.9359ZM30.5056 26.8787C30.6434 26.9051 30.7627 26.9902 30.8326 27.1118L36.3158 36.6076C37.081 37.933 37.081 39.5659 36.3158 40.8913L30.8326 50.3875C30.7627 50.5091 30.6433 50.5942 30.5056 50.6206C30.3679 50.647 30.2255 50.6121 30.1156 50.525C26.5744 47.641 24.5191 43.3166 24.5191 38.7496C24.5191 34.1827 26.5744 29.8582 30.1156 26.9742C30.2255 26.8871 30.3679 26.8522 30.5056 26.8787ZM39.75 23.5182C37.9072 23.5162 36.0794 23.8495 34.3559 24.5018C34.2262 24.5532 34.1253 24.6586 34.0797 24.7905C34.0341 24.9224 34.0483 25.0677 34.1186 25.1882L39.6124 34.7038C40.3777 36.0292 41.7918 36.8457 43.3223 36.8457H54.2941C54.4343 36.8457 54.5675 36.7848 54.6591 36.6788C54.7507 36.5728 54.7916 36.4322 54.7712 36.2935C53.5709 28.9298 47.211 23.5208 39.75 23.5182ZM43.3227 40.6529H54.2937L54.2941 40.6537C54.4341 40.6536 54.5671 40.7145 54.6587 40.8203C54.7503 40.9261 54.7913 41.0665 54.7712 41.205C54.0352 45.7137 51.314 49.6537 47.3582 51.9387C43.4023 54.2236 38.6296 54.612 34.3564 52.9967C34.2267 52.9453 34.1258 52.8398 34.0802 52.7079C34.0346 52.576 34.0488 52.4308 34.1191 52.3102L39.6129 42.7948C40.3781 41.4694 41.7923 40.6529 43.3227 40.6529Z"/>
</mask>
<path fill-rule="evenodd" clip-rule="evenodd" d="M60.0131 41.9359L63.8097 40.8512C64.2184 40.7341 64.5 40.3604 64.5 39.9353V37.565C64.5001 37.1395 64.218 36.7656 63.8089 36.6487L60.0113 35.5635C59.6685 35.463 59.4107 35.1793 59.3434 34.8284C59.1727 33.9921 58.948 33.1678 58.6707 32.3605C58.552 32.0222 58.6336 31.6458 58.8817 31.3869L61.6362 28.5402C61.932 28.2344 61.9893 27.7696 61.7765 27.4012L60.5915 25.3483C60.3787 24.98 59.9475 24.7974 59.5349 24.9009L55.6846 25.8647C55.338 25.9494 54.9731 25.8332 54.7394 25.5636C54.1767 24.9284 53.5744 24.3295 52.9361 23.7703C52.6651 23.5365 52.5481 23.1705 52.6332 22.8228L53.5989 18.9652C53.7025 18.5526 53.5199 18.1213 53.1515 17.9085L51.0988 16.7234C50.7303 16.5106 50.2654 16.5679 49.9598 16.8639L47.1108 19.6203C46.8523 19.8679 46.4768 19.9496 46.1388 19.8317C45.333 19.5579 44.5103 19.3365 43.676 19.1688C43.3245 19.1018 43.0402 18.8436 42.9397 18.5002L41.8514 14.6911C41.7344 14.2821 41.3605 14.0001 40.9351 14H38.5647C38.1393 14 37.7654 14.282 37.6484 14.6911L36.5599 18.501C36.4594 18.8439 36.1756 19.1018 35.8247 19.1691C34.9923 19.339 34.1718 19.5623 33.3681 19.8375C33.0298 19.9558 32.6538 19.8742 32.3951 19.6262L29.54 16.8637C29.2341 16.5679 28.7693 16.5106 28.4009 16.7234L26.3481 17.9085C25.9798 18.1214 25.7972 18.5526 25.9007 18.9652L26.8652 22.8174C26.95 23.1644 26.8334 23.5298 26.5631 23.7635C25.9274 24.3254 25.3277 24.9268 24.7677 25.5642C24.5338 25.8345 24.1682 25.9512 23.821 25.8663L19.9649 24.9009C19.5523 24.7975 19.1212 24.9801 18.9083 25.3483L17.7232 27.4012C17.5105 27.7696 17.5678 28.2344 17.8636 28.5402L20.6125 31.3805C20.8604 31.6392 20.942 32.0153 20.8235 32.3534C20.5477 33.1626 20.3247 33.9888 20.1559 34.8269C20.089 35.1783 19.8309 35.4626 19.4876 35.5632L15.691 36.6484C15.2819 36.7653 14.9998 37.1393 15 37.5648V39.9351C14.9998 40.3605 15.2819 40.7345 15.691 40.8514L19.4884 41.9366C19.8313 42.0371 20.0891 42.3209 20.1564 42.6718C20.3272 43.508 20.5519 44.3323 20.8292 45.1395C20.9479 45.478 20.8663 45.8544 20.6182 46.1133L17.8636 48.9595C17.5678 49.2653 17.5105 49.7301 17.7232 50.0985L18.9091 52.1514C19.1219 52.5198 19.5531 52.7026 19.9658 52.5993L23.8158 51.6354C24.1625 51.5508 24.5274 51.667 24.7612 51.9365C25.3239 52.5717 25.9262 53.1706 26.5646 53.7298C26.8355 53.9637 26.9525 54.3297 26.8675 54.6774L25.9015 58.535C25.7982 58.9476 25.9807 59.3788 26.349 59.5917L28.4017 60.7767C28.7702 60.9896 29.2351 60.9323 29.5408 60.6363L32.3899 57.8798C32.6483 57.6321 33.0239 57.5504 33.3619 57.6685C34.1677 57.9422 34.9903 58.1636 35.8247 58.3313C36.1761 58.3983 36.4605 58.6565 36.561 58.9999L37.6488 62.8089C37.7657 63.218 38.1397 63.5 38.5651 63.5H40.9355C41.3609 63.5 41.7348 63.218 41.8518 62.8089L42.9401 58.999C43.0408 58.6562 43.3245 58.3984 43.6753 58.3309C44.5078 58.1611 45.3285 57.9378 46.1323 57.6625C46.4705 57.5442 46.8465 57.6259 47.1051 57.874L49.9601 60.6363C50.2658 60.9322 50.7307 60.9896 51.0991 60.7767L53.1524 59.5916C53.5207 59.3787 53.7033 58.9475 53.5998 58.5349L52.6359 54.6827C52.5512 54.3356 52.6678 53.9703 52.938 53.7365C53.5738 53.1746 54.1735 52.5732 54.7337 51.9358C54.9676 51.6655 55.3331 51.5489 55.6804 51.6339L59.5357 52.5992C59.9484 52.7026 60.3797 52.5198 60.5924 52.1513L61.7775 50.0985C61.9902 49.7301 61.9328 49.2653 61.637 48.9595L58.8881 46.1186C58.6403 45.8598 58.5588 45.4838 58.6773 45.1456C58.9531 44.3365 59.176 43.5102 59.3447 42.6721C59.4117 42.3207 59.6698 42.0364 60.0131 41.9359ZM30.5056 26.8787C30.6434 26.9051 30.7627 26.9902 30.8326 27.1118L36.3158 36.6076C37.081 37.933 37.081 39.5659 36.3158 40.8913L30.8326 50.3875C30.7627 50.5091 30.6433 50.5942 30.5056 50.6206C30.3679 50.647 30.2255 50.6121 30.1156 50.525C26.5744 47.641 24.5191 43.3166 24.5191 38.7496C24.5191 34.1827 26.5744 29.8582 30.1156 26.9742C30.2255 26.8871 30.3679 26.8522 30.5056 26.8787ZM39.75 23.5182C37.9072 23.5162 36.0794 23.8495 34.3559 24.5018C34.2262 24.5532 34.1253 24.6586 34.0797 24.7905C34.0341 24.9224 34.0483 25.0677 34.1186 25.1882L39.6124 34.7038C40.3777 36.0292 41.7918 36.8457 43.3223 36.8457H54.2941C54.4343 36.8457 54.5675 36.7848 54.6591 36.6788C54.7507 36.5728 54.7916 36.4322 54.7712 36.2935C53.5709 28.9298 47.211 23.5208 39.75 23.5182ZM43.3227 40.6529H54.2937L54.2941 40.6537C54.4341 40.6536 54.5671 40.7145 54.6587 40.8203C54.7503 40.9261 54.7913 41.0665 54.7712 41.205C54.0352 45.7137 51.314 49.6537 47.3582 51.9387C43.4023 54.2236 38.6296 54.612 34.3564 52.9967C34.2267 52.9453 34.1258 52.8398 34.0802 52.7079C34.0346 52.576 34.0488 52.4308 34.1191 52.3102L39.6129 42.7948C40.3781 41.4694 41.7923 40.6529 43.3227 40.6529Z" stroke="#45413C" stroke-width="2" mask="url(#path-30-outside-2_14_14388)"/>
</svg>
