<?xml version="1.0" encoding="UTF-8"?>
<svg width="22px" height="22px" viewBox="0 0 22 22" version="1.1" xmlns="http://www.w3.org/2000/svg" xmlns:xlink="http://www.w3.org/1999/xlink">
    <title>3E2C0550-7156-498C-9789-2A14E73066CD@3x</title>
    <g id="MVP-new-Plugin" stroke="none" stroke-width="1" fill="none" fill-rule="evenodd">
        <g id="08-MVP-settings" transform="translate(-614.000000, -978.000000)" fill="#4D4D4D">
            <g id="Group-4" transform="translate(611.000000, 908.000000)">
                <g id="Feedback/Warning-Circle-Outlined" transform="translate(0.000000, 67.000000)">
                    <path d="M13.999381,3 C18.4484507,3 22.4595377,5.6797318 24.1622428,9.79008659 C25.864948,13.9004414 24.9239448,18.6317507 21.7780298,21.7777705 C18.6321149,24.9237903 13.9008369,25.8649512 9.79042536,24.1623831 C5.68001381,22.4598149 3,18.4488173 3,13.9997476 C3,7.9249084 7.92454177,3.0002278 13.999381,3 Z M13.9994935,5 C9.02917054,5.00018638 5,9.02947051 5,13.9997935 C5,17.6399414 7.19273857,20.9216668 10.5558026,22.3146771 C13.9188666,23.7076874 17.7899122,22.9376466 20.3638426,20.3636304 C22.937773,17.7896142 23.7076847,13.9185429 22.3145623,10.5555254 C20.9214399,7.19250784 17.6396415,5 13.9994935,5 Z M13.9999577,17.4616529 C14.7011884,17.4616529 15.2696482,18.0720003 15.2696482,18.824902 C15.2696482,19.5778037 14.7011884,20.1881511 13.9999577,20.1881511 C13.6632148,20.1881511 13.3402641,20.0445235 13.1021509,19.7888647 C12.8640378,19.5332059 12.7302672,19.1864581 12.7302672,18.824902 C12.7302672,18.0720003 13.298727,17.4616529 13.9999577,17.4616529 Z M14.8457832,7.46446154 C14.9631456,7.46305389 15.0759134,7.51344779 15.1576366,7.60390005 C15.2393599,7.6943523 15.2828482,7.81690446 15.2779012,7.94281159 L15.2779012,7.94281159 L14.8907725,15.6678898 C14.8760399,15.9118357 14.686282,16.1008708 14.4586122,16.0984285 L14.4586122,16.0984285 L13.5489636,16.0984285 C13.3212853,16.1009154 13.1315153,15.9118497 13.1168456,15.6678898 L13.1168456,15.6678898 L12.729717,7.94281159 C12.7247585,7.81690473 12.7682357,7.69434778 12.849951,7.60388689 C12.9316663,7.51342599 13.0444299,7.46302041 13.1617927,7.46446154 L13.1617927,7.46446154 Z" id="🎨-Icon-Color"></path>
                </g>
            </g>
        </g>
    </g>
</svg>