<svg width="896" height="438" viewBox="0 0 896 438" fill="none" xmlns="http://www.w3.org/2000/svg">
<g filter="url(#filter0_f_3915_10966)">
<path d="M48 64C48 55.1634 55.1634 48 64 48H832C840.837 48 848 55.1634 848 64V374C848 382.837 840.837 390 832 390H64C55.1634 390 48 382.837 48 374V64Z" fill="url(#paint0_linear_3915_10966)"/>
</g>
<g filter="url(#filter1_dd_3915_10966)">
<mask id="path-2-inside-1_3915_10966" fill="white">
<path d="M48 62C48 54.268 54.268 48 62 48H834C841.732 48 848 54.268 848 62V376C848 383.732 841.732 390 834 390H62C54.268 390 48 383.732 48 376V62Z"/>
</mask>
<path d="M48 62C48 54.268 54.268 48 62 48H834C841.732 48 848 54.268 848 62V376C848 383.732 841.732 390 834 390H62C54.268 390 48 383.732 48 376V62Z" fill="white"/>
<path d="M62 48V50H834V48V46H62V48ZM848 62H846V376H848H850V62H848ZM834 390V388H62V390V392H834V390ZM48 376H50V62H48H46V376H48ZM62 390V388C55.3726 388 50 382.627 50 376H48H46C46 384.837 53.1634 392 62 392V390ZM848 376H846C846 382.627 840.627 388 834 388V390V392C842.837 392 850 384.837 850 376H848ZM834 48V50C840.627 50 846 55.3726 846 62H848H850C850 53.1634 842.837 46 834 46V48ZM62 48V46C53.1634 46 46 53.1635 46 62H48H50C50 55.3726 55.3726 50 62 50V48Z" fill="#E5E7EB" fill-opacity="0.8" mask="url(#path-2-inside-1_3915_10966)"/>
<mask id="path-4-inside-2_3915_10966" fill="white">
<path d="M50 50H846V95H50V50Z"/>
</mask>
<path d="M50 50H846V95H50V50Z" fill="url(#paint1_linear_3915_10966)"/>
<path d="M846 95V94H50V95V96H846V95Z" fill="#E5E7EB" mask="url(#path-4-inside-2_3915_10966)"/>
<g filter="url(#filter2_dd_3915_10966)">
<path d="M66 72C66 68.6863 68.6863 66 72 66V66C75.3137 66 78 68.6863 78 72V72C78 75.3137 75.3137 78 72 78V78C68.6863 78 66 75.3137 66 72V72Z" fill="#FF6467"/>
</g>
<g filter="url(#filter3_dd_3915_10966)">
<path d="M86 72C86 68.6863 88.6863 66 92 66V66C95.3137 66 98 68.6863 98 72V72C98 75.3137 95.3137 78 92 78V78C88.6863 78 86 75.3137 86 72V72Z" fill="#FDC700"/>
</g>
<g filter="url(#filter4_dd_3915_10966)">
<path d="M106 72C106 68.6863 108.686 66 112 66V66C115.314 66 118 68.6863 118 72V72C118 75.3137 115.314 78 112 78V78C108.686 78 106 75.3137 106 72V72Z" fill="#05DF72"/>
</g>
<mask id="path-9-inside-3_3915_10966" fill="white">
<path d="M138 68C138 63.5817 141.582 60 146 60H822C826.418 60 830 63.5817 830 68V76C830 80.4183 826.418 84 822 84H146C141.582 84 138 80.4183 138 76V68Z"/>
</mask>
<path d="M138 68C138 63.5817 141.582 60 146 60H822C826.418 60 830 63.5817 830 68V76C830 80.4183 826.418 84 822 84H146C141.582 84 138 80.4183 138 76V68Z" fill="white" fill-opacity="0.8"/>
<path d="M146 60V61H822V60V59H146V60ZM830 68H829V76H830H831V68H830ZM822 84V83H146V84V85H822V84ZM138 76H139V68H138H137V76H138ZM146 84V83C142.134 83 139 79.866 139 76H138H137C137 80.9706 141.029 85 146 85V84ZM830 76H829C829 79.866 825.866 83 822 83V84V85C826.971 85 831 80.9706 831 76H830ZM822 60V61C825.866 61 829 64.134 829 68H830H831C831 63.0294 826.971 59 822 59V60ZM146 60V59C141.029 59 137 63.0294 137 68H138H139C139 64.134 142.134 61 146 61V60Z" fill="#E5E7EB" mask="url(#path-9-inside-3_3915_10966)"/>
<rect x="149" y="66.25" width="215" height="12" rx="3" fill="#E5E7EB" fill-opacity="0.6"/>
<mask id="path-12-inside-4_3915_10966" fill="white">
<path d="M50 95H846V176H50V95Z"/>
</mask>
<path d="M50 95H846V176H50V95Z" fill="white"/>
<path d="M846 176V175H50V176V177H846V176Z" fill="#F3F4F6" mask="url(#path-12-inside-4_3915_10966)"/>
<path d="M115.264 127.455H119.057L123.062 137.227H123.233L127.239 127.455H131.031V142H128.048V132.533H127.928L124.163 141.929H122.132L118.368 132.497H118.247V142H115.264V127.455ZM134.427 146.091C134.043 146.091 133.683 146.06 133.347 145.999C133.016 145.942 132.741 145.868 132.523 145.778L133.205 143.52C133.56 143.629 133.88 143.688 134.164 143.697C134.453 143.707 134.701 143.641 134.91 143.499C135.123 143.357 135.296 143.115 135.428 142.774L135.606 142.312L131.692 131.091H134.874L137.133 139.102H137.246L139.526 131.091H142.729L138.489 143.179C138.286 143.766 138.009 144.277 137.658 144.713C137.313 145.153 136.875 145.492 136.344 145.729C135.814 145.97 135.175 146.091 134.427 146.091ZM151.276 131.638C151.219 131.065 150.975 130.62 150.544 130.303C150.114 129.985 149.529 129.827 148.79 129.827C148.288 129.827 147.864 129.898 147.519 130.04C147.173 130.177 146.908 130.369 146.723 130.615C146.543 130.861 146.453 131.141 146.453 131.453C146.444 131.714 146.498 131.941 146.617 132.135C146.74 132.329 146.908 132.497 147.121 132.639C147.334 132.777 147.58 132.897 147.86 133.001C148.139 133.101 148.437 133.186 148.755 133.257L150.061 133.57C150.696 133.712 151.278 133.901 151.809 134.138C152.339 134.375 152.798 134.666 153.186 135.011C153.575 135.357 153.875 135.764 154.088 136.233C154.306 136.702 154.417 137.239 154.422 137.845C154.417 138.735 154.19 139.507 153.74 140.161C153.295 140.809 152.651 141.313 151.809 141.673C150.971 142.028 149.96 142.206 148.776 142.206C147.602 142.206 146.579 142.026 145.708 141.666C144.841 141.306 144.164 140.774 143.676 140.068C143.194 139.358 142.94 138.48 142.917 137.433H145.892C145.926 137.921 146.065 138.328 146.311 138.655C146.562 138.977 146.896 139.221 147.313 139.386C147.734 139.547 148.21 139.628 148.74 139.628C149.261 139.628 149.713 139.552 150.097 139.401C150.485 139.249 150.786 139.038 150.999 138.768C151.212 138.499 151.319 138.188 151.319 137.838C151.319 137.511 151.221 137.237 151.027 137.014C150.838 136.792 150.559 136.602 150.189 136.446C149.825 136.29 149.377 136.148 148.847 136.02L147.263 135.622C146.037 135.324 145.069 134.857 144.358 134.223C143.648 133.589 143.295 132.734 143.3 131.659C143.295 130.778 143.53 130.009 144.003 129.351C144.481 128.693 145.137 128.179 145.971 127.81C146.804 127.44 147.751 127.256 148.811 127.256C149.891 127.256 150.833 127.44 151.638 127.81C152.448 128.179 153.078 128.693 153.527 129.351C153.977 130.009 154.209 130.771 154.223 131.638H151.276ZM158.51 135.693V142H155.485V127.455H158.425V133.016H158.553C158.799 132.372 159.197 131.867 159.746 131.503C160.295 131.134 160.984 130.949 161.813 130.949C162.57 130.949 163.231 131.115 163.794 131.446C164.363 131.773 164.803 132.244 165.115 132.859C165.433 133.47 165.589 134.202 165.584 135.054V142H162.559V135.594C162.563 134.921 162.393 134.398 162.047 134.024C161.706 133.65 161.228 133.463 160.613 133.463C160.201 133.463 159.836 133.551 159.519 133.726C159.206 133.901 158.96 134.157 158.78 134.493C158.605 134.824 158.515 135.224 158.51 135.693ZM171.945 142.213C170.842 142.213 169.888 141.979 169.083 141.51C168.283 141.036 167.665 140.378 167.229 139.536C166.793 138.688 166.576 137.705 166.576 136.588C166.576 135.461 166.793 134.476 167.229 133.634C167.665 132.786 168.283 132.128 169.083 131.659C169.888 131.186 170.842 130.949 171.945 130.949C173.048 130.949 174 131.186 174.8 131.659C175.605 132.128 176.225 132.786 176.661 133.634C177.096 134.476 177.314 135.461 177.314 136.588C177.314 137.705 177.096 138.688 176.661 139.536C176.225 140.378 175.605 141.036 174.8 141.51C174 141.979 173.048 142.213 171.945 142.213ZM171.959 139.869C172.461 139.869 172.88 139.727 173.216 139.443C173.552 139.154 173.806 138.761 173.976 138.264C174.151 137.767 174.239 137.201 174.239 136.567C174.239 135.932 174.151 135.366 173.976 134.869C173.806 134.372 173.552 133.979 173.216 133.69C172.88 133.402 172.461 133.257 171.959 133.257C171.453 133.257 171.026 133.402 170.681 133.69C170.34 133.979 170.082 134.372 169.907 134.869C169.736 135.366 169.651 135.932 169.651 136.567C169.651 137.201 169.736 137.767 169.907 138.264C170.082 138.761 170.34 139.154 170.681 139.443C171.026 139.727 171.453 139.869 171.959 139.869ZM178.332 146.091V131.091H181.315V132.923H181.45C181.583 132.63 181.775 132.331 182.026 132.028C182.281 131.721 182.613 131.465 183.02 131.261C183.432 131.053 183.943 130.949 184.554 130.949C185.349 130.949 186.083 131.157 186.756 131.574C187.428 131.986 187.965 132.608 188.368 133.442C188.77 134.27 188.972 135.31 188.972 136.56C188.972 137.777 188.775 138.804 188.382 139.642C187.994 140.475 187.464 141.107 186.791 141.538C186.124 141.964 185.375 142.178 184.547 142.178C183.96 142.178 183.46 142.08 183.048 141.886C182.641 141.692 182.307 141.448 182.047 141.155C181.786 140.857 181.588 140.556 181.45 140.253H181.358V146.091H178.332ZM181.294 136.545C181.294 137.194 181.384 137.76 181.564 138.243C181.744 138.726 182.004 139.102 182.345 139.372C182.686 139.637 183.1 139.77 183.588 139.77C184.08 139.77 184.497 139.635 184.838 139.365C185.179 139.09 185.437 138.712 185.612 138.229C185.792 137.741 185.882 137.18 185.882 136.545C185.882 135.916 185.795 135.362 185.619 134.884C185.444 134.405 185.186 134.031 184.845 133.761C184.504 133.491 184.085 133.357 183.588 133.357C183.096 133.357 182.679 133.487 182.338 133.747C182.002 134.008 181.744 134.377 181.564 134.855C181.384 135.333 181.294 135.897 181.294 136.545Z" fill="#4A5565"/>
<path d="M253.572 140.5V130.318H255.108V134.743H260.184V130.318H261.725V140.5H260.184V136.06H255.108V140.5H253.572ZM266.909 140.654C266.193 140.654 265.569 140.49 265.035 140.162C264.501 139.834 264.087 139.375 263.792 138.785C263.497 138.195 263.35 137.505 263.35 136.717C263.35 135.924 263.497 135.232 263.792 134.638C264.087 134.045 264.501 133.585 265.035 133.256C265.569 132.928 266.193 132.764 266.909 132.764C267.625 132.764 268.25 132.928 268.784 133.256C269.317 133.585 269.731 134.045 270.026 134.638C270.321 135.232 270.469 135.924 270.469 136.717C270.469 137.505 270.321 138.195 270.026 138.785C269.731 139.375 269.317 139.834 268.784 140.162C268.25 140.49 267.625 140.654 266.909 140.654ZM266.914 139.406C267.378 139.406 267.763 139.284 268.068 139.038C268.373 138.793 268.598 138.467 268.744 138.059C268.893 137.651 268.968 137.202 268.968 136.712C268.968 136.224 268.893 135.777 268.744 135.369C268.598 134.958 268.373 134.629 268.068 134.38C267.763 134.131 267.378 134.007 266.914 134.007C266.447 134.007 266.059 134.131 265.751 134.38C265.446 134.629 265.219 134.958 265.07 135.369C264.924 135.777 264.851 136.224 264.851 136.712C264.851 137.202 264.924 137.651 265.07 138.059C265.219 138.467 265.446 138.793 265.751 139.038C266.059 139.284 266.447 139.406 266.914 139.406ZM271.978 140.5V132.864H273.405V134.107H273.499C273.658 133.686 273.918 133.357 274.28 133.122C274.641 132.884 275.073 132.764 275.577 132.764C276.088 132.764 276.515 132.884 276.86 133.122C277.208 133.361 277.465 133.689 277.631 134.107H277.71C277.892 133.699 278.182 133.374 278.58 133.132C278.978 132.887 279.452 132.764 280.002 132.764C280.695 132.764 281.26 132.981 281.697 133.415C282.138 133.85 282.358 134.504 282.358 135.379V140.5H280.872V135.518C280.872 135.001 280.731 134.627 280.449 134.395C280.168 134.163 279.831 134.047 279.44 134.047C278.956 134.047 278.58 134.196 278.312 134.494C278.043 134.789 277.909 135.169 277.909 135.633V140.5H276.427V135.424C276.427 135.01 276.298 134.677 276.04 134.425C275.781 134.173 275.445 134.047 275.03 134.047C274.749 134.047 274.488 134.121 274.25 134.271C274.015 134.416 273.824 134.62 273.678 134.882C273.536 135.144 273.464 135.447 273.464 135.792V140.5H271.978ZM287.492 140.654C286.739 140.654 286.091 140.493 285.548 140.172C285.008 139.847 284.59 139.391 284.295 138.805C284.003 138.215 283.857 137.524 283.857 136.732C283.857 135.949 284.003 135.26 284.295 134.663C284.59 134.067 285.001 133.601 285.528 133.266C286.058 132.932 286.678 132.764 287.387 132.764C287.818 132.764 288.236 132.835 288.64 132.978C289.044 133.121 289.407 133.344 289.729 133.649C290.05 133.954 290.304 134.35 290.49 134.837C290.675 135.321 290.768 135.91 290.768 136.602V137.129H284.698V136.016H289.311C289.311 135.625 289.232 135.278 289.073 134.977C288.914 134.672 288.69 134.431 288.401 134.256C288.116 134.08 287.782 133.992 287.397 133.992C286.98 133.992 286.615 134.095 286.303 134.3C285.995 134.503 285.757 134.768 285.588 135.096C285.422 135.421 285.339 135.774 285.339 136.155V137.025C285.339 137.535 285.428 137.969 285.607 138.327C285.79 138.685 286.043 138.959 286.368 139.148C286.693 139.333 287.072 139.426 287.507 139.426C287.788 139.426 288.045 139.386 288.277 139.307C288.509 139.224 288.71 139.101 288.879 138.939C289.048 138.777 289.177 138.576 289.267 138.337L290.673 138.591C290.561 139.005 290.359 139.368 290.067 139.68C289.779 139.988 289.416 140.228 288.978 140.401C288.544 140.57 288.048 140.654 287.492 140.654Z" fill="#4A5565"/>
<path d="M324.564 140.5V130.318H328.193C328.985 130.318 329.642 130.462 330.162 130.751C330.682 131.039 331.072 131.433 331.33 131.934C331.589 132.431 331.718 132.991 331.718 133.614C331.718 134.241 331.587 134.804 331.325 135.305C331.067 135.802 330.676 136.196 330.152 136.488C329.632 136.776 328.977 136.92 328.188 136.92H325.692V135.618H328.049C328.549 135.618 328.955 135.532 329.267 135.359C329.579 135.184 329.807 134.945 329.953 134.643C330.099 134.342 330.172 133.999 330.172 133.614C330.172 133.23 330.099 132.888 329.953 132.59C329.807 132.292 329.577 132.058 329.262 131.889C328.951 131.72 328.54 131.636 328.029 131.636H326.1V140.5H324.564ZM333.249 140.5V132.864H334.686V134.077H334.766C334.905 133.666 335.15 133.343 335.501 133.107C335.856 132.869 336.257 132.749 336.705 132.749C336.797 132.749 336.907 132.753 337.033 132.759C337.162 132.766 337.263 132.774 337.336 132.784V134.206C337.276 134.189 337.17 134.171 337.018 134.151C336.865 134.128 336.713 134.116 336.56 134.116C336.209 134.116 335.896 134.191 335.621 134.34C335.349 134.486 335.134 134.69 334.974 134.952C334.815 135.21 334.736 135.505 334.736 135.837V140.5H333.249ZM341.415 140.654C340.699 140.654 340.074 140.49 339.541 140.162C339.007 139.834 338.593 139.375 338.298 138.785C338.003 138.195 337.855 137.505 337.855 136.717C337.855 135.924 338.003 135.232 338.298 134.638C338.593 134.045 339.007 133.585 339.541 133.256C340.074 132.928 340.699 132.764 341.415 132.764C342.131 132.764 342.756 132.928 343.289 133.256C343.823 133.585 344.237 134.045 344.532 134.638C344.827 135.232 344.975 135.924 344.975 136.717C344.975 137.505 344.827 138.195 344.532 138.785C344.237 139.375 343.823 139.834 343.289 140.162C342.756 140.49 342.131 140.654 341.415 140.654ZM341.42 139.406C341.884 139.406 342.269 139.284 342.574 139.038C342.878 138.793 343.104 138.467 343.25 138.059C343.399 137.651 343.473 137.202 343.473 136.712C343.473 136.224 343.399 135.777 343.25 135.369C343.104 134.958 342.878 134.629 342.574 134.38C342.269 134.131 341.884 134.007 341.42 134.007C340.953 134.007 340.565 134.131 340.257 134.38C339.952 134.629 339.725 134.958 339.576 135.369C339.43 135.777 339.357 136.224 339.357 136.712C339.357 137.202 339.43 137.651 339.576 138.059C339.725 138.467 339.952 138.793 340.257 139.038C340.565 139.284 340.953 139.406 341.42 139.406ZM349.342 140.649C348.726 140.649 348.176 140.492 347.692 140.177C347.211 139.859 346.833 139.406 346.558 138.82C346.286 138.23 346.151 137.522 346.151 136.697C346.151 135.871 346.288 135.165 346.563 134.579C346.842 133.992 347.223 133.543 347.707 133.232C348.191 132.92 348.739 132.764 349.352 132.764C349.826 132.764 350.207 132.844 350.496 133.003C350.787 133.159 351.013 133.341 351.172 133.55C351.334 133.759 351.46 133.942 351.55 134.102H351.639V130.318H353.126V140.5H351.674V139.312H351.55C351.46 139.474 351.331 139.66 351.162 139.869C350.996 140.077 350.768 140.26 350.476 140.415C350.184 140.571 349.806 140.649 349.342 140.649ZM349.67 139.381C350.098 139.381 350.459 139.269 350.754 139.043C351.053 138.815 351.278 138.498 351.43 138.094C351.586 137.689 351.664 137.219 351.664 136.682C351.664 136.152 351.588 135.687 351.435 135.29C351.283 134.892 351.059 134.582 350.764 134.36C350.469 134.138 350.105 134.027 349.67 134.027C349.223 134.027 348.85 134.143 348.552 134.375C348.254 134.607 348.028 134.924 347.876 135.325C347.727 135.726 347.652 136.178 347.652 136.682C347.652 137.192 347.728 137.651 347.881 138.059C348.033 138.467 348.259 138.79 348.557 139.028C348.858 139.264 349.23 139.381 349.67 139.381ZM359.934 137.333V132.864H361.426V140.5H359.964V139.178H359.885C359.709 139.585 359.427 139.925 359.039 140.197C358.655 140.465 358.176 140.599 357.603 140.599C357.112 140.599 356.678 140.492 356.3 140.276C355.926 140.058 355.631 139.734 355.415 139.307C355.203 138.879 355.097 138.351 355.097 137.721V132.864H356.583V137.542C356.583 138.062 356.728 138.477 357.016 138.785C357.304 139.093 357.679 139.247 358.14 139.247C358.418 139.247 358.695 139.178 358.97 139.038C359.248 138.899 359.479 138.689 359.661 138.407C359.846 138.125 359.938 137.767 359.934 137.333ZM366.489 140.654C365.75 140.654 365.114 140.487 364.58 140.152C364.05 139.814 363.642 139.348 363.357 138.755C363.072 138.162 362.93 137.482 362.93 136.717C362.93 135.941 363.076 135.257 363.367 134.663C363.659 134.067 364.07 133.601 364.6 133.266C365.13 132.932 365.755 132.764 366.474 132.764C367.054 132.764 367.571 132.872 368.026 133.087C368.48 133.299 368.846 133.598 369.124 133.982C369.406 134.367 369.573 134.816 369.626 135.33H368.18C368.1 134.972 367.918 134.663 367.633 134.405C367.351 134.146 366.973 134.017 366.499 134.017C366.085 134.017 365.722 134.126 365.411 134.345C365.102 134.561 364.862 134.869 364.69 135.27C364.517 135.668 364.431 136.138 364.431 136.682C364.431 137.239 364.516 137.719 364.685 138.124C364.854 138.528 365.092 138.841 365.401 139.063C365.712 139.285 366.078 139.396 366.499 139.396C366.781 139.396 367.036 139.345 367.265 139.242C367.497 139.136 367.691 138.985 367.847 138.79C368.006 138.594 368.117 138.359 368.18 138.084H369.626C369.573 138.578 369.413 139.018 369.144 139.406C368.876 139.794 368.516 140.099 368.065 140.321C367.618 140.543 367.093 140.654 366.489 140.654ZM374.63 132.864V134.057H370.459V132.864H374.63ZM371.578 131.034H373.064V138.258C373.064 138.546 373.107 138.763 373.194 138.909C373.28 139.052 373.391 139.149 373.527 139.202C373.666 139.252 373.817 139.277 373.979 139.277C374.098 139.277 374.203 139.269 374.292 139.252C374.382 139.236 374.451 139.222 374.501 139.212L374.77 140.44C374.683 140.473 374.561 140.507 374.402 140.54C374.243 140.576 374.044 140.596 373.805 140.599C373.414 140.606 373.049 140.536 372.711 140.391C372.373 140.245 372.1 140.019 371.891 139.714C371.682 139.41 371.578 139.027 371.578 138.566V131.034ZM381.724 134.728L380.376 134.967C380.32 134.794 380.23 134.63 380.108 134.474C379.988 134.319 379.826 134.191 379.621 134.092C379.415 133.992 379.158 133.942 378.85 133.942C378.429 133.942 378.078 134.037 377.796 134.226C377.514 134.411 377.373 134.652 377.373 134.947C377.373 135.202 377.468 135.407 377.657 135.563C377.846 135.719 378.151 135.847 378.572 135.946L379.785 136.224C380.487 136.387 381.011 136.637 381.356 136.975C381.7 137.313 381.873 137.752 381.873 138.293C381.873 138.75 381.74 139.158 381.475 139.516C381.213 139.87 380.847 140.149 380.376 140.351C379.909 140.553 379.367 140.654 378.751 140.654C377.895 140.654 377.198 140.472 376.657 140.107C376.117 139.739 375.786 139.217 375.663 138.541L377.1 138.322C377.189 138.697 377.373 138.98 377.652 139.173C377.93 139.362 378.293 139.456 378.741 139.456C379.228 139.456 379.617 139.355 379.909 139.153C380.201 138.947 380.346 138.697 380.346 138.402C380.346 138.163 380.257 137.963 380.078 137.8C379.902 137.638 379.632 137.515 379.268 137.433L377.975 137.149C377.262 136.987 376.735 136.728 376.394 136.374C376.056 136.019 375.887 135.57 375.887 135.026C375.887 134.576 376.013 134.181 376.265 133.843C376.517 133.505 376.865 133.241 377.309 133.053C377.753 132.86 378.262 132.764 378.835 132.764C379.66 132.764 380.31 132.943 380.784 133.301C381.258 133.656 381.571 134.131 381.724 134.728Z" fill="#4A5565"/>
<path d="M417.049 140.5H415.418L419.082 130.318H420.857L424.521 140.5H422.891L420.012 132.168H419.933L417.049 140.5ZM417.322 136.513H422.612V137.805H417.322V136.513ZM425.841 140.5V130.318H427.328V134.102H427.417C427.503 133.942 427.628 133.759 427.79 133.55C427.953 133.341 428.178 133.159 428.466 133.003C428.755 132.844 429.136 132.764 429.61 132.764C430.226 132.764 430.776 132.92 431.26 133.232C431.744 133.543 432.124 133.992 432.399 134.579C432.677 135.165 432.816 135.871 432.816 136.697C432.816 137.522 432.679 138.23 432.404 138.82C432.129 139.406 431.751 139.859 431.27 140.177C430.79 140.492 430.241 140.649 429.625 140.649C429.161 140.649 428.781 140.571 428.486 140.415C428.194 140.26 427.966 140.077 427.8 139.869C427.634 139.66 427.507 139.474 427.417 139.312H427.293V140.5H425.841ZM427.298 136.682C427.298 137.219 427.376 137.689 427.532 138.094C427.687 138.498 427.913 138.815 428.208 139.043C428.503 139.269 428.864 139.381 429.292 139.381C429.736 139.381 430.107 139.264 430.405 139.028C430.703 138.79 430.929 138.467 431.081 138.059C431.237 137.651 431.315 137.192 431.315 136.682C431.315 136.178 431.239 135.726 431.086 135.325C430.937 134.924 430.712 134.607 430.41 134.375C430.112 134.143 429.739 134.027 429.292 134.027C428.861 134.027 428.496 134.138 428.198 134.36C427.903 134.582 427.679 134.892 427.527 135.29C427.374 135.687 427.298 136.152 427.298 136.682ZM437.552 140.654C436.836 140.654 436.211 140.49 435.678 140.162C435.144 139.834 434.73 139.375 434.435 138.785C434.14 138.195 433.992 137.505 433.992 136.717C433.992 135.924 434.14 135.232 434.435 134.638C434.73 134.045 435.144 133.585 435.678 133.256C436.211 132.928 436.836 132.764 437.552 132.764C438.268 132.764 438.893 132.928 439.426 133.256C439.96 133.585 440.374 134.045 440.669 134.638C440.964 135.232 441.112 135.924 441.112 136.717C441.112 137.505 440.964 138.195 440.669 138.785C440.374 139.375 439.96 139.834 439.426 140.162C438.893 140.49 438.268 140.654 437.552 140.654ZM437.557 139.406C438.021 139.406 438.405 139.284 438.71 139.038C439.015 138.793 439.241 138.467 439.386 138.059C439.536 137.651 439.61 137.202 439.61 136.712C439.61 136.224 439.536 135.777 439.386 135.369C439.241 134.958 439.015 134.629 438.71 134.38C438.405 134.131 438.021 134.007 437.557 134.007C437.089 134.007 436.702 134.131 436.393 134.38C436.089 134.629 435.862 134.958 435.712 135.369C435.567 135.777 435.494 136.224 435.494 136.712C435.494 137.202 435.567 137.651 435.712 138.059C435.862 138.467 436.089 138.793 436.393 139.038C436.702 139.284 437.089 139.406 437.557 139.406ZM447.458 137.333V132.864H448.949V140.5H447.488V139.178H447.408C447.232 139.585 446.951 139.925 446.563 140.197C446.178 140.465 445.699 140.599 445.126 140.599C444.636 140.599 444.201 140.492 443.824 140.276C443.449 140.058 443.154 139.734 442.939 139.307C442.726 138.879 442.62 138.351 442.62 137.721V132.864H444.107V137.542C444.107 138.062 444.251 138.477 444.539 138.785C444.828 139.093 445.202 139.247 445.663 139.247C445.941 139.247 446.218 139.178 446.493 139.038C446.772 138.899 447.002 138.689 447.184 138.407C447.37 138.125 447.461 137.767 447.458 137.333ZM454.361 132.864V134.057H450.19V132.864H454.361ZM451.308 131.034H452.795V138.258C452.795 138.546 452.838 138.763 452.924 138.909C453.01 139.052 453.121 139.149 453.257 139.202C453.396 139.252 453.547 139.277 453.71 139.277C453.829 139.277 453.933 139.269 454.023 139.252C454.112 139.236 454.182 139.222 454.232 139.212L454.5 140.44C454.414 140.473 454.291 140.507 454.132 140.54C453.973 140.576 453.774 140.596 453.536 140.599C453.144 140.606 452.78 140.536 452.442 140.391C452.104 140.245 451.83 140.019 451.621 139.714C451.413 139.41 451.308 139.027 451.308 138.566V131.034Z" fill="#4A5565"/>
<rect x="708.472" y="123.845" width="38.5228" height="22.3097" rx="11.1548" fill="white" stroke="#4A5565" stroke-width="2.01"/>
<circle cx="735.717" cy="135.09" r="10.25" fill="#FFD200"/>
<path d="M739.228 137.018C738.21 138.526 736.786 139.904 734.899 139.904C732.891 139.904 731.717 138.647 731.717 136.612C731.717 133.319 734.159 130.09 737.581 130.09C738.728 130.081 740.282 130.543 740.282 131.94C740.282 134.438 736.37 135.27 734.446 135.77C734.372 136.14 734.325 136.574 734.316 137.018C734.316 137.888 734.779 138.684 735.731 138.684C736.971 138.684 737.961 137.49 738.691 136.602L739.228 137.018ZM738.164 131.644C738.164 131.136 737.877 130.738 737.35 130.738C735.759 130.738 734.936 133.836 734.631 135.048C736.111 134.604 738.164 133.393 738.164 131.644Z" fill="#181C20"/>
<circle cx="735.967" cy="135.09" r="8.35739" stroke="#181C20" stroke-width="1.78522"/>
<g clip-path="url(#clip0_3915_10966)">
<path d="M768.666 143.333C769.127 143.333 769.5 142.96 769.5 142.5C769.5 142.04 769.127 141.667 768.666 141.667C768.206 141.667 767.833 142.04 767.833 142.5C767.833 142.96 768.206 143.333 768.666 143.333Z" stroke="#4A5565" stroke-width="1.66667" stroke-linecap="round" stroke-linejoin="round"/>
<path d="M777.833 143.333C778.294 143.333 778.667 142.96 778.667 142.5C778.667 142.04 778.294 141.667 777.833 141.667C777.373 141.667 777 142.04 777 142.5C777 142.96 777.373 143.333 777.833 143.333Z" stroke="#4A5565" stroke-width="1.66667" stroke-linecap="round" stroke-linejoin="round"/>
<path d="M763.708 126.708H765.375L767.591 137.058C767.673 137.437 767.884 137.776 768.188 138.016C768.492 138.257 768.87 138.384 769.258 138.375H777.408C777.787 138.374 778.155 138.244 778.451 138.006C778.746 137.769 778.951 137.437 779.033 137.067L780.408 130.875H766.266" stroke="#4A5565" stroke-width="1.66667" stroke-linecap="round" stroke-linejoin="round"/>
</g>
<path d="M772 128C772 124.134 775.134 121 779 121V121C782.866 121 786 124.134 786 128V128C786 131.866 782.866 135 779 135V135C775.134 135 772 131.866 772 128V128Z" fill="#155DFC"/>
<path d="M776.531 131V130.003L778.86 127.846C779.059 127.654 779.225 127.481 779.359 127.328C779.495 127.174 779.599 127.024 779.669 126.877C779.739 126.728 779.775 126.567 779.775 126.395C779.775 126.203 779.731 126.038 779.643 125.899C779.556 125.759 779.437 125.651 779.286 125.576C779.134 125.5 778.963 125.461 778.771 125.461C778.571 125.461 778.396 125.502 778.247 125.583C778.098 125.664 777.983 125.78 777.902 125.931C777.821 126.082 777.78 126.262 777.78 126.471H776.467C776.467 126.043 776.564 125.671 776.757 125.356C776.951 125.04 777.223 124.797 777.572 124.624C777.922 124.451 778.325 124.365 778.781 124.365C779.249 124.365 779.657 124.448 780.005 124.614C780.354 124.778 780.626 125.006 780.82 125.298C781.013 125.59 781.11 125.925 781.11 126.302C781.11 126.549 781.061 126.793 780.963 127.034C780.868 127.275 780.696 127.542 780.449 127.836C780.202 128.128 779.853 128.478 779.404 128.887L778.448 129.824V129.869H781.197V131H776.531Z" fill="white"/>
<rect width="796" height="212" transform="translate(50 176)" fill="url(#paint2_linear_3915_10966)"/>
<path d="M277.336 228C277.336 225.791 279.127 224 281.336 224H614.664C616.873 224 618.664 225.791 618.664 228V236C618.664 238.209 616.873 240 614.664 240H281.336C279.127 240 277.336 238.209 277.336 236V228Z" fill="#D1D5DC"/>
<path d="M192 256C192 253.791 193.791 252 196 252H700C702.209 252 704 253.791 704 256V260C704 262.209 702.209 264 700 264H196C193.791 264 192 262.209 192 260V256Z" fill="#E5E7EB"/>
<path d="M234.664 280C234.664 277.791 236.455 276 238.664 276H657.328C659.537 276 661.328 277.791 661.328 280V284C661.328 286.209 659.537 288 657.328 288H238.664C236.455 288 234.664 286.209 234.664 284V280Z" fill="#E5E7EB"/>
<rect x="330" y="308" width="112" height="32" rx="8" fill="#76787B"/>
<path d="M454 312C454 309.791 455.791 308 458 308H562C564.209 308 566 309.791 566 312V336C566 338.209 564.209 340 562 340H458C455.791 340 454 338.209 454 336V312Z" fill="#D1D5DC"/>
</g>
<defs>
<filter id="filter0_f_3915_10966" x="0" y="0" width="896" height="438" filterUnits="userSpaceOnUse" color-interpolation-filters="sRGB">
<feFlood flood-opacity="0" result="BackgroundImageFix"/>
<feBlend mode="normal" in="SourceGraphic" in2="BackgroundImageFix" result="shape"/>
<feGaussianBlur stdDeviation="24" result="effect1_foregroundBlur_3915_10966"/>
</filter>
<filter id="filter1_dd_3915_10966" x="28" y="48" width="840" height="382" filterUnits="userSpaceOnUse" color-interpolation-filters="sRGB">
<feFlood flood-opacity="0" result="BackgroundImageFix"/>
<feColorMatrix in="SourceAlpha" type="matrix" values="0 0 0 0 0 0 0 0 0 0 0 0 0 0 0 0 0 0 127 0" result="hardAlpha"/>
<feMorphology radius="6" operator="erode" in="SourceAlpha" result="effect1_dropShadow_3915_10966"/>
<feOffset dy="8"/>
<feGaussianBlur stdDeviation="5"/>
<feComposite in2="hardAlpha" operator="out"/>
<feColorMatrix type="matrix" values="0 0 0 0 0.819608 0 0 0 0 0.835294 0 0 0 0 0.862745 0 0 0 0.2 0"/>
<feBlend mode="normal" in2="BackgroundImageFix" result="effect1_dropShadow_3915_10966"/>
<feColorMatrix in="SourceAlpha" type="matrix" values="0 0 0 0 0 0 0 0 0 0 0 0 0 0 0 0 0 0 127 0" result="hardAlpha"/>
<feMorphology radius="5" operator="erode" in="SourceAlpha" result="effect2_dropShadow_3915_10966"/>
<feOffset dy="20"/>
<feGaussianBlur stdDeviation="12.5"/>
<feComposite in2="hardAlpha" operator="out"/>
<feColorMatrix type="matrix" values="0 0 0 0 0.819608 0 0 0 0 0.835294 0 0 0 0 0.862745 0 0 0 0.2 0"/>
<feBlend mode="normal" in2="effect1_dropShadow_3915_10966" result="effect2_dropShadow_3915_10966"/>
<feBlend mode="normal" in="SourceGraphic" in2="effect2_dropShadow_3915_10966" result="shape"/>
</filter>
<filter id="filter2_dd_3915_10966" x="63" y="64" width="18" height="18" filterUnits="userSpaceOnUse" color-interpolation-filters="sRGB">
<feFlood flood-opacity="0" result="BackgroundImageFix"/>
<feColorMatrix in="SourceAlpha" type="matrix" values="0 0 0 0 0 0 0 0 0 0 0 0 0 0 0 0 0 0 127 0" result="hardAlpha"/>
<feMorphology radius="1" operator="erode" in="SourceAlpha" result="effect1_dropShadow_3915_10966"/>
<feOffset dy="1"/>
<feGaussianBlur stdDeviation="1"/>
<feComposite in2="hardAlpha" operator="out"/>
<feColorMatrix type="matrix" values="0 0 0 0 0 0 0 0 0 0 0 0 0 0 0 0 0 0 0.1 0"/>
<feBlend mode="normal" in2="BackgroundImageFix" result="effect1_dropShadow_3915_10966"/>
<feColorMatrix in="SourceAlpha" type="matrix" values="0 0 0 0 0 0 0 0 0 0 0 0 0 0 0 0 0 0 127 0" result="hardAlpha"/>
<feOffset dy="1"/>
<feGaussianBlur stdDeviation="1.5"/>
<feComposite in2="hardAlpha" operator="out"/>
<feColorMatrix type="matrix" values="0 0 0 0 0 0 0 0 0 0 0 0 0 0 0 0 0 0 0.1 0"/>
<feBlend mode="normal" in2="effect1_dropShadow_3915_10966" result="effect2_dropShadow_3915_10966"/>
<feBlend mode="normal" in="SourceGraphic" in2="effect2_dropShadow_3915_10966" result="shape"/>
</filter>
<filter id="filter3_dd_3915_10966" x="83" y="64" width="18" height="18" filterUnits="userSpaceOnUse" color-interpolation-filters="sRGB">
<feFlood flood-opacity="0" result="BackgroundImageFix"/>
<feColorMatrix in="SourceAlpha" type="matrix" values="0 0 0 0 0 0 0 0 0 0 0 0 0 0 0 0 0 0 127 0" result="hardAlpha"/>
<feMorphology radius="1" operator="erode" in="SourceAlpha" result="effect1_dropShadow_3915_10966"/>
<feOffset dy="1"/>
<feGaussianBlur stdDeviation="1"/>
<feComposite in2="hardAlpha" operator="out"/>
<feColorMatrix type="matrix" values="0 0 0 0 0 0 0 0 0 0 0 0 0 0 0 0 0 0 0.1 0"/>
<feBlend mode="normal" in2="BackgroundImageFix" result="effect1_dropShadow_3915_10966"/>
<feColorMatrix in="SourceAlpha" type="matrix" values="0 0 0 0 0 0 0 0 0 0 0 0 0 0 0 0 0 0 127 0" result="hardAlpha"/>
<feOffset dy="1"/>
<feGaussianBlur stdDeviation="1.5"/>
<feComposite in2="hardAlpha" operator="out"/>
<feColorMatrix type="matrix" values="0 0 0 0 0 0 0 0 0 0 0 0 0 0 0 0 0 0 0.1 0"/>
<feBlend mode="normal" in2="effect1_dropShadow_3915_10966" result="effect2_dropShadow_3915_10966"/>
<feBlend mode="normal" in="SourceGraphic" in2="effect2_dropShadow_3915_10966" result="shape"/>
</filter>
<filter id="filter4_dd_3915_10966" x="103" y="64" width="18" height="18" filterUnits="userSpaceOnUse" color-interpolation-filters="sRGB">
<feFlood flood-opacity="0" result="BackgroundImageFix"/>
<feColorMatrix in="SourceAlpha" type="matrix" values="0 0 0 0 0 0 0 0 0 0 0 0 0 0 0 0 0 0 127 0" result="hardAlpha"/>
<feMorphology radius="1" operator="erode" in="SourceAlpha" result="effect1_dropShadow_3915_10966"/>
<feOffset dy="1"/>
<feGaussianBlur stdDeviation="1"/>
<feComposite in2="hardAlpha" operator="out"/>
<feColorMatrix type="matrix" values="0 0 0 0 0 0 0 0 0 0 0 0 0 0 0 0 0 0 0.1 0"/>
<feBlend mode="normal" in2="BackgroundImageFix" result="effect1_dropShadow_3915_10966"/>
<feColorMatrix in="SourceAlpha" type="matrix" values="0 0 0 0 0 0 0 0 0 0 0 0 0 0 0 0 0 0 127 0" result="hardAlpha"/>
<feOffset dy="1"/>
<feGaussianBlur stdDeviation="1.5"/>
<feComposite in2="hardAlpha" operator="out"/>
<feColorMatrix type="matrix" values="0 0 0 0 0 0 0 0 0 0 0 0 0 0 0 0 0 0 0.1 0"/>
<feBlend mode="normal" in2="effect1_dropShadow_3915_10966" result="effect2_dropShadow_3915_10966"/>
<feBlend mode="normal" in="SourceGraphic" in2="effect2_dropShadow_3915_10966" result="shape"/>
</filter>
<linearGradient id="paint0_linear_3915_10966" x1="448" y1="48" x2="448" y2="390" gradientUnits="userSpaceOnUse">
<stop stop-color="#2B7FFF" stop-opacity="0.05"/>
<stop offset="1" stop-color="#AD46FF" stop-opacity="0.05"/>
</linearGradient>
<linearGradient id="paint1_linear_3915_10966" x1="448" y1="50" x2="448" y2="95" gradientUnits="userSpaceOnUse">
<stop stop-color="#F3F4F6"/>
<stop offset="1" stop-color="#F9FAFB"/>
</linearGradient>
<linearGradient id="paint2_linear_3915_10966" x1="398" y1="0" x2="398" y2="212" gradientUnits="userSpaceOnUse">
<stop stop-color="#F9FAFB"/>
<stop offset="1" stop-color="#F3F4F6"/>
</linearGradient>
<clipPath id="clip0_3915_10966">
<rect width="20" height="20" fill="white" transform="translate(762 125)"/>
</clipPath>
</defs>
</svg>
