<svg width="416" height="398" viewBox="0 0 416 398" fill="none" xmlns="http://www.w3.org/2000/svg">
<g filter="url(#filter0_f_3915_11038)">
<path d="M48 64C48 55.1634 55.1634 48 64 48H352C360.837 48 368 55.1634 368 64V334C368 342.837 360.837 350 352 350H64C55.1634 350 48 342.837 48 334V64Z" fill="url(#paint0_linear_3915_11038)"/>
</g>
<g filter="url(#filter1_dd_3915_11038)">
<mask id="path-2-inside-1_3915_11038" fill="white">
<path d="M48 64C48 55.1634 55.1634 48 64 48H352C360.837 48 368 55.1634 368 64V334C368 342.837 360.837 350 352 350H64C55.1634 350 48 342.837 48 334V64Z"/>
</mask>
<path d="M48 64C48 55.1634 55.1634 48 64 48H352C360.837 48 368 55.1634 368 64V334C368 342.837 360.837 350 352 350H64C55.1634 350 48 342.837 48 334V64Z" fill="white"/>
<path d="M64 48V50H352V48V46H64V48ZM368 64H366V334H368H370V64H368ZM352 350V348H64V350V352H352V350ZM48 334H50V64H48H46V334H48ZM64 350V348C56.268 348 50 341.732 50 334H48H46C46 343.941 54.0589 352 64 352V350ZM368 334H366C366 341.732 359.732 348 352 348V350V352C361.941 352 370 343.941 370 334H368ZM352 48V50C359.732 50 366 56.268 366 64H368H370C370 54.0589 361.941 46 352 46V48ZM64 48V46C54.0589 46 46 54.0589 46 64H48H50C50 56.268 56.268 50 64 50V48Z" fill="#E5E7EB" fill-opacity="0.8" mask="url(#path-2-inside-1_3915_11038)"/>
<mask id="path-4-inside-2_3915_11038" fill="white">
<path d="M50 50H366V83H50V50Z"/>
</mask>
<path d="M50 50H366V83H50V50Z" fill="url(#paint1_linear_3915_11038)"/>
<path d="M366 83V82H50V83V84H366V83Z" fill="#E5E7EB" mask="url(#path-4-inside-2_3915_11038)"/>
<g filter="url(#filter2_dd_3915_11038)">
<path d="M62 66C62 63.2386 64.2386 61 67 61V61C69.7614 61 72 63.2386 72 66V66C72 68.7614 69.7614 71 67 71V71C64.2386 71 62 68.7614 62 66V66Z" fill="#FF6467"/>
</g>
<g filter="url(#filter3_dd_3915_11038)">
<path d="M78 66C78 63.2386 80.2386 61 83 61V61C85.7614 61 88 63.2386 88 66V66C88 68.7614 85.7614 71 83 71V71C80.2386 71 78 68.7614 78 66V66Z" fill="#FDC700"/>
</g>
<g filter="url(#filter4_dd_3915_11038)">
<path d="M94 66C94 63.2386 96.2386 61 99 61V61C101.761 61 104 63.2386 104 66V66C104 68.7614 101.761 71 99 71V71C96.2386 71 94 68.7614 94 66V66Z" fill="#05DF72"/>
</g>
<mask id="path-9-inside-3_3915_11038" fill="white">
<path d="M110 66C110 61.5817 113.582 58 118 58H346C350.418 58 354 61.5817 354 66V66C354 70.4183 350.418 74 346 74H118C113.582 74 110 70.4183 110 66V66Z"/>
</mask>
<path d="M110 66C110 61.5817 113.582 58 118 58H346C350.418 58 354 61.5817 354 66V66C354 70.4183 350.418 74 346 74H118C113.582 74 110 70.4183 110 66V66Z" fill="white" fill-opacity="0.8"/>
<path d="M110 66M354 66M354 66M110 66M118 58V59H346V58V57H118V58ZM354 66M346 74V73H118V74V75H346V74ZM110 66M118 74V73C114.134 73 111 69.866 111 66H110H109C109 70.9706 113.029 75 118 75V74ZM354 66H353C353 69.866 349.866 73 346 73V74V75C350.971 75 355 70.9706 355 66H354ZM346 58V59C349.866 59 353 62.134 353 66H354H355C355 61.0294 350.971 57 346 57V58ZM118 58V57C113.029 57 109 61.0294 109 66H110H111C111 62.134 114.134 59 118 59V58Z" fill="#E5E7EB" mask="url(#path-9-inside-3_3915_11038)"/>
<rect x="114.5" y="62.25" width="173" height="8" rx="4" fill="#E5E7EB" fill-opacity="0.6"/>
<mask id="path-12-inside-4_3915_11038" fill="white">
<path d="M50 83H366V144H50V83Z"/>
</mask>
<path d="M50 83H366V144H50V83Z" fill="white"/>
<path d="M366 144V143H50V144V145H366V144Z" fill="#F3F4F6" mask="url(#path-12-inside-4_3915_11038)"/>
<path d="M74 113H90" stroke="#4A5565" stroke-width="2" stroke-linecap="round" stroke-linejoin="round"/>
<path d="M74 107H90" stroke="#4A5565" stroke-width="2" stroke-linecap="round" stroke-linejoin="round"/>
<path d="M74 119H90" stroke="#4A5565" stroke-width="2" stroke-linecap="round" stroke-linejoin="round"/>
<path d="M103.138 106.909H106.551L110.156 115.705H110.31L113.915 106.909H117.328V120H114.643V111.479H114.535L111.147 119.936H109.319L105.931 111.447H105.822V120H103.138V106.909ZM120.349 123.682C120.004 123.682 119.68 123.654 119.377 123.599C119.079 123.548 118.832 123.482 118.636 123.401L119.25 121.368C119.569 121.466 119.857 121.519 120.113 121.528C120.372 121.536 120.596 121.477 120.784 121.349C120.975 121.221 121.131 121.004 121.25 120.697L121.41 120.281L117.888 110.182H120.752L122.784 117.392H122.887L124.938 110.182H127.821L124.005 121.061C123.822 121.589 123.573 122.05 123.257 122.442C122.946 122.838 122.552 123.143 122.075 123.356C121.598 123.573 121.022 123.682 120.349 123.682ZM135.478 110.674C135.427 110.158 135.207 109.758 134.82 109.472C134.432 109.187 133.906 109.044 133.241 109.044C132.789 109.044 132.408 109.108 132.097 109.236C131.786 109.359 131.547 109.532 131.381 109.754C131.219 109.975 131.138 110.227 131.138 110.508C131.129 110.742 131.178 110.947 131.285 111.121C131.396 111.296 131.547 111.447 131.739 111.575C131.93 111.699 132.152 111.808 132.403 111.901C132.655 111.991 132.923 112.067 133.209 112.131L134.385 112.413C134.956 112.54 135.48 112.711 135.957 112.924C136.435 113.137 136.848 113.399 137.197 113.71C137.547 114.021 137.818 114.388 138.009 114.81C138.205 115.232 138.305 115.715 138.31 116.261C138.305 117.062 138.101 117.756 137.696 118.344C137.295 118.928 136.716 119.382 135.957 119.706C135.203 120.026 134.293 120.185 133.228 120.185C132.171 120.185 131.251 120.023 130.467 119.7C129.687 119.376 129.077 118.896 128.639 118.261C128.204 117.622 127.976 116.832 127.955 115.89H130.633C130.663 116.329 130.788 116.695 131.01 116.989C131.236 117.279 131.536 117.499 131.911 117.648C132.291 117.793 132.719 117.865 133.196 117.865C133.665 117.865 134.072 117.797 134.417 117.661C134.766 117.524 135.037 117.335 135.229 117.092C135.42 116.849 135.516 116.57 135.516 116.254C135.516 115.96 135.429 115.713 135.254 115.513C135.084 115.312 134.832 115.142 134.5 115.001C134.172 114.861 133.769 114.733 133.292 114.618L131.867 114.26C130.763 113.991 129.891 113.572 129.252 113.001C128.613 112.43 128.295 111.661 128.3 110.693C128.295 109.901 128.506 109.208 128.933 108.616C129.363 108.023 129.953 107.561 130.703 107.229C131.453 106.896 132.305 106.73 133.26 106.73C134.232 106.73 135.08 106.896 135.804 107.229C136.533 107.561 137.099 108.023 137.504 108.616C137.909 109.208 138.118 109.894 138.131 110.674H135.478ZM141.954 114.324V120H139.231V106.909H141.877V111.914H141.992C142.214 111.335 142.572 110.881 143.066 110.553C143.56 110.22 144.18 110.054 144.926 110.054C145.608 110.054 146.202 110.203 146.709 110.501C147.221 110.795 147.617 111.219 147.898 111.773C148.184 112.323 148.325 112.982 148.32 113.749V120H145.597V114.234C145.602 113.629 145.448 113.158 145.137 112.822C144.83 112.485 144.4 112.317 143.846 112.317C143.475 112.317 143.147 112.396 142.861 112.553C142.58 112.711 142.359 112.941 142.197 113.244C142.039 113.542 141.958 113.902 141.954 114.324ZM154.01 120.192C153.017 120.192 152.158 119.981 151.434 119.559C150.714 119.133 150.158 118.54 149.766 117.782C149.373 117.019 149.177 116.135 149.177 115.129C149.177 114.115 149.373 113.229 149.766 112.47C150.158 111.707 150.714 111.115 151.434 110.693C152.158 110.267 153.017 110.054 154.01 110.054C155.003 110.054 155.859 110.267 156.579 110.693C157.304 111.115 157.862 111.707 158.254 112.47C158.646 113.229 158.842 114.115 158.842 115.129C158.842 116.135 158.646 117.019 158.254 117.782C157.862 118.54 157.304 119.133 156.579 119.559C155.859 119.981 155.003 120.192 154.01 120.192ZM154.023 118.082C154.474 118.082 154.851 117.955 155.154 117.699C155.457 117.439 155.685 117.085 155.838 116.638C155.996 116.19 156.074 115.681 156.074 115.11C156.074 114.539 155.996 114.03 155.838 113.582C155.685 113.135 155.457 112.781 155.154 112.521C154.851 112.261 154.474 112.131 154.023 112.131C153.567 112.131 153.183 112.261 152.872 112.521C152.565 112.781 152.333 113.135 152.175 113.582C152.022 114.03 151.945 114.539 151.945 115.11C151.945 115.681 152.022 116.19 152.175 116.638C152.333 117.085 152.565 117.439 152.872 117.699C153.183 117.955 153.567 118.082 154.023 118.082ZM159.723 123.682V110.182H162.408V111.831H162.529C162.649 111.567 162.821 111.298 163.047 111.026C163.277 110.749 163.576 110.518 163.942 110.335C164.313 110.148 164.773 110.054 165.323 110.054C166.039 110.054 166.699 110.241 167.304 110.616C167.909 110.987 168.393 111.548 168.755 112.298C169.118 113.043 169.299 113.979 169.299 115.104C169.299 116.199 169.122 117.124 168.768 117.878C168.419 118.628 167.941 119.197 167.336 119.585C166.735 119.968 166.062 120.16 165.316 120.16C164.788 120.16 164.338 120.072 163.968 119.898C163.601 119.723 163.301 119.504 163.066 119.239C162.832 118.971 162.653 118.7 162.529 118.428H162.446V123.682H159.723ZM162.389 115.091C162.389 115.675 162.47 116.184 162.632 116.619C162.794 117.053 163.028 117.392 163.335 117.635C163.642 117.874 164.015 117.993 164.453 117.993C164.897 117.993 165.272 117.871 165.578 117.629C165.885 117.381 166.118 117.04 166.275 116.606C166.437 116.167 166.518 115.662 166.518 115.091C166.518 114.524 166.439 114.026 166.282 113.595C166.124 113.165 165.892 112.828 165.585 112.585C165.278 112.342 164.901 112.221 164.453 112.221C164.01 112.221 163.635 112.338 163.328 112.572C163.026 112.807 162.794 113.139 162.632 113.57C162.47 114 162.389 114.507 162.389 115.091Z" fill="#4A5565"/>
<rect x="272.472" y="101.845" width="38.5228" height="22.3097" rx="11.1548" fill="white" stroke="#4A5565" stroke-width="2.01"/>
<circle cx="299.717" cy="113.09" r="10.25" fill="#FFD200"/>
<path d="M303.228 115.018C302.21 116.526 300.786 117.904 298.899 117.904C296.891 117.904 295.717 116.647 295.717 114.612C295.717 111.319 298.159 108.09 301.581 108.09C302.728 108.081 304.282 108.543 304.282 109.94C304.282 112.438 300.37 113.27 298.446 113.77C298.372 114.14 298.325 114.574 298.316 115.018C298.316 115.888 298.779 116.684 299.731 116.684C300.971 116.684 301.961 115.49 302.691 114.602L303.228 115.018ZM302.164 109.644C302.164 109.136 301.877 108.738 301.35 108.738C299.759 108.738 298.936 111.836 298.631 113.048C300.111 112.604 302.164 111.393 302.164 109.644Z" fill="#181C20"/>
<circle cx="299.967" cy="113.09" r="8.35739" stroke="#181C20" stroke-width="1.78522"/>
<g clip-path="url(#clip0_3915_11038)">
<path d="M332.666 121.333C333.127 121.333 333.5 120.96 333.5 120.5C333.5 120.04 333.127 119.667 332.666 119.667C332.206 119.667 331.833 120.04 331.833 120.5C331.833 120.96 332.206 121.333 332.666 121.333Z" stroke="#4A5565" stroke-width="1.66667" stroke-linecap="round" stroke-linejoin="round"/>
<path d="M341.833 121.333C342.294 121.333 342.667 120.96 342.667 120.5C342.667 120.04 342.294 119.667 341.833 119.667C341.373 119.667 341 120.04 341 120.5C341 120.96 341.373 121.333 341.833 121.333Z" stroke="#4A5565" stroke-width="1.66667" stroke-linecap="round" stroke-linejoin="round"/>
<path d="M327.708 104.708H329.375L331.591 115.058C331.673 115.437 331.884 115.776 332.188 116.016C332.492 116.257 332.87 116.384 333.258 116.375H341.408C341.787 116.374 342.155 116.244 342.451 116.006C342.746 115.769 342.951 115.437 343.033 115.067L344.408 108.875H330.266" stroke="#4A5565" stroke-width="1.66667" stroke-linecap="round" stroke-linejoin="round"/>
</g>
<path d="M336 106C336 102.134 339.134 99 343 99V99C346.866 99 350 102.134 350 106V106C350 109.866 346.866 113 343 113V113C339.134 113 336 109.866 336 106V106Z" fill="#155DFC"/>
<path d="M340.531 109V108.003L342.86 105.846C343.059 105.654 343.225 105.481 343.359 105.328C343.495 105.174 343.599 105.024 343.669 104.877C343.739 104.728 343.775 104.567 343.775 104.395C343.775 104.203 343.731 104.038 343.643 103.899C343.556 103.759 343.437 103.651 343.286 103.576C343.134 103.5 342.963 103.461 342.771 103.461C342.571 103.461 342.396 103.502 342.247 103.583C342.098 103.664 341.983 103.78 341.902 103.931C341.821 104.082 341.78 104.262 341.78 104.471H340.467C340.467 104.043 340.564 103.671 340.757 103.356C340.951 103.04 341.223 102.797 341.572 102.624C341.922 102.451 342.325 102.365 342.781 102.365C343.249 102.365 343.657 102.448 344.005 102.614C344.354 102.778 344.626 103.006 344.82 103.298C345.013 103.59 345.11 103.925 345.11 104.302C345.11 104.549 345.061 104.793 344.963 105.034C344.868 105.275 344.696 105.542 344.449 105.836C344.202 106.128 343.853 106.478 343.404 106.887L342.448 107.824V107.869H345.197V109H340.531Z" fill="white"/>
<rect width="316" height="204" transform="translate(50 144)" fill="url(#paint2_linear_3915_11038)"/>
<path d="M107.5 188C107.5 185.791 109.291 184 111.5 184H304.5C306.709 184 308.5 185.791 308.5 188V194C308.5 196.209 306.709 198 304.5 198H111.5C109.291 198 107.5 196.209 107.5 194V188Z" fill="#D1D5DC"/>
<path d="M74 212C74 209.791 75.7909 208 78 208H338C340.209 208 342 209.791 342 212V214C342 216.209 340.209 218 338 218H78C75.7909 218 74 216.209 74 214V212Z" fill="#E5E7EB"/>
<path d="M85.1719 232C85.1719 229.791 86.9627 228 89.1719 228H326.828C329.037 228 330.828 229.791 330.828 232V234C330.828 236.209 329.037 238 326.828 238H89.1719C86.9627 238 85.1719 236.209 85.1719 234V232Z" fill="#E5E7EB"/>
<path d="M100.797 252C100.797 249.791 102.588 248 104.797 248H311.188C313.397 248 315.188 249.791 315.188 252V254C315.188 256.209 313.397 258 311.188 258H104.797C102.588 258 100.797 256.209 100.797 254V252Z" fill="#E5E7EB"/>
<path d="M74 288C74 283.582 77.5817 280 82 280H196C200.418 280 204 283.582 204 288V300C204 304.418 200.418 308 196 308H82C77.5817 308 74 304.418 74 300V288Z" fill="#76787B"/>
<path d="M212 288C212 283.582 215.582 280 220 280H334C338.418 280 342 283.582 342 288V300C342 304.418 338.418 308 334 308H220C215.582 308 212 304.418 212 300V288Z" fill="#D1D5DC"/>
</g>
<defs>
<filter id="filter0_f_3915_11038" x="0" y="0" width="416" height="398" filterUnits="userSpaceOnUse" color-interpolation-filters="sRGB">
<feFlood flood-opacity="0" result="BackgroundImageFix"/>
<feBlend mode="normal" in="SourceGraphic" in2="BackgroundImageFix" result="shape"/>
<feGaussianBlur stdDeviation="24" result="effect1_foregroundBlur_3915_11038"/>
</filter>
<filter id="filter1_dd_3915_11038" x="28" y="48" width="360" height="342" filterUnits="userSpaceOnUse" color-interpolation-filters="sRGB">
<feFlood flood-opacity="0" result="BackgroundImageFix"/>
<feColorMatrix in="SourceAlpha" type="matrix" values="0 0 0 0 0 0 0 0 0 0 0 0 0 0 0 0 0 0 127 0" result="hardAlpha"/>
<feMorphology radius="6" operator="erode" in="SourceAlpha" result="effect1_dropShadow_3915_11038"/>
<feOffset dy="8"/>
<feGaussianBlur stdDeviation="5"/>
<feComposite in2="hardAlpha" operator="out"/>
<feColorMatrix type="matrix" values="0 0 0 0 0.819018 0 0 0 0 0.835815 0 0 0 0 0.861009 0 0 0 0.2 0"/>
<feBlend mode="normal" in2="BackgroundImageFix" result="effect1_dropShadow_3915_11038"/>
<feColorMatrix in="SourceAlpha" type="matrix" values="0 0 0 0 0 0 0 0 0 0 0 0 0 0 0 0 0 0 127 0" result="hardAlpha"/>
<feMorphology radius="5" operator="erode" in="SourceAlpha" result="effect2_dropShadow_3915_11038"/>
<feOffset dy="20"/>
<feGaussianBlur stdDeviation="12.5"/>
<feComposite in2="hardAlpha" operator="out"/>
<feColorMatrix type="matrix" values="0 0 0 0 0.819018 0 0 0 0 0.835815 0 0 0 0 0.861009 0 0 0 0.2 0"/>
<feBlend mode="normal" in2="effect1_dropShadow_3915_11038" result="effect2_dropShadow_3915_11038"/>
<feBlend mode="normal" in="SourceGraphic" in2="effect2_dropShadow_3915_11038" result="shape"/>
</filter>
<filter id="filter2_dd_3915_11038" x="59" y="59" width="16" height="16" filterUnits="userSpaceOnUse" color-interpolation-filters="sRGB">
<feFlood flood-opacity="0" result="BackgroundImageFix"/>
<feColorMatrix in="SourceAlpha" type="matrix" values="0 0 0 0 0 0 0 0 0 0 0 0 0 0 0 0 0 0 127 0" result="hardAlpha"/>
<feMorphology radius="1" operator="erode" in="SourceAlpha" result="effect1_dropShadow_3915_11038"/>
<feOffset dy="1"/>
<feGaussianBlur stdDeviation="1"/>
<feComposite in2="hardAlpha" operator="out"/>
<feColorMatrix type="matrix" values="0 0 0 0 0 0 0 0 0 0 0 0 0 0 0 0 0 0 0.1 0"/>
<feBlend mode="normal" in2="BackgroundImageFix" result="effect1_dropShadow_3915_11038"/>
<feColorMatrix in="SourceAlpha" type="matrix" values="0 0 0 0 0 0 0 0 0 0 0 0 0 0 0 0 0 0 127 0" result="hardAlpha"/>
<feOffset dy="1"/>
<feGaussianBlur stdDeviation="1.5"/>
<feComposite in2="hardAlpha" operator="out"/>
<feColorMatrix type="matrix" values="0 0 0 0 0 0 0 0 0 0 0 0 0 0 0 0 0 0 0.1 0"/>
<feBlend mode="normal" in2="effect1_dropShadow_3915_11038" result="effect2_dropShadow_3915_11038"/>
<feBlend mode="normal" in="SourceGraphic" in2="effect2_dropShadow_3915_11038" result="shape"/>
</filter>
<filter id="filter3_dd_3915_11038" x="75" y="59" width="16" height="16" filterUnits="userSpaceOnUse" color-interpolation-filters="sRGB">
<feFlood flood-opacity="0" result="BackgroundImageFix"/>
<feColorMatrix in="SourceAlpha" type="matrix" values="0 0 0 0 0 0 0 0 0 0 0 0 0 0 0 0 0 0 127 0" result="hardAlpha"/>
<feMorphology radius="1" operator="erode" in="SourceAlpha" result="effect1_dropShadow_3915_11038"/>
<feOffset dy="1"/>
<feGaussianBlur stdDeviation="1"/>
<feComposite in2="hardAlpha" operator="out"/>
<feColorMatrix type="matrix" values="0 0 0 0 0 0 0 0 0 0 0 0 0 0 0 0 0 0 0.1 0"/>
<feBlend mode="normal" in2="BackgroundImageFix" result="effect1_dropShadow_3915_11038"/>
<feColorMatrix in="SourceAlpha" type="matrix" values="0 0 0 0 0 0 0 0 0 0 0 0 0 0 0 0 0 0 127 0" result="hardAlpha"/>
<feOffset dy="1"/>
<feGaussianBlur stdDeviation="1.5"/>
<feComposite in2="hardAlpha" operator="out"/>
<feColorMatrix type="matrix" values="0 0 0 0 0 0 0 0 0 0 0 0 0 0 0 0 0 0 0.1 0"/>
<feBlend mode="normal" in2="effect1_dropShadow_3915_11038" result="effect2_dropShadow_3915_11038"/>
<feBlend mode="normal" in="SourceGraphic" in2="effect2_dropShadow_3915_11038" result="shape"/>
</filter>
<filter id="filter4_dd_3915_11038" x="91" y="59" width="16" height="16" filterUnits="userSpaceOnUse" color-interpolation-filters="sRGB">
<feFlood flood-opacity="0" result="BackgroundImageFix"/>
<feColorMatrix in="SourceAlpha" type="matrix" values="0 0 0 0 0 0 0 0 0 0 0 0 0 0 0 0 0 0 127 0" result="hardAlpha"/>
<feMorphology radius="1" operator="erode" in="SourceAlpha" result="effect1_dropShadow_3915_11038"/>
<feOffset dy="1"/>
<feGaussianBlur stdDeviation="1"/>
<feComposite in2="hardAlpha" operator="out"/>
<feColorMatrix type="matrix" values="0 0 0 0 0 0 0 0 0 0 0 0 0 0 0 0 0 0 0.1 0"/>
<feBlend mode="normal" in2="BackgroundImageFix" result="effect1_dropShadow_3915_11038"/>
<feColorMatrix in="SourceAlpha" type="matrix" values="0 0 0 0 0 0 0 0 0 0 0 0 0 0 0 0 0 0 127 0" result="hardAlpha"/>
<feOffset dy="1"/>
<feGaussianBlur stdDeviation="1.5"/>
<feComposite in2="hardAlpha" operator="out"/>
<feColorMatrix type="matrix" values="0 0 0 0 0 0 0 0 0 0 0 0 0 0 0 0 0 0 0.1 0"/>
<feBlend mode="normal" in2="effect1_dropShadow_3915_11038" result="effect2_dropShadow_3915_11038"/>
<feBlend mode="normal" in="SourceGraphic" in2="effect2_dropShadow_3915_11038" result="shape"/>
</filter>
<linearGradient id="paint0_linear_3915_11038" x1="208" y1="48" x2="208" y2="350" gradientUnits="userSpaceOnUse">
<stop stop-color="#2B7FFF" stop-opacity="0.05"/>
<stop offset="1" stop-color="#AD46FF" stop-opacity="0.05"/>
</linearGradient>
<linearGradient id="paint1_linear_3915_11038" x1="208" y1="50" x2="208" y2="83" gradientUnits="userSpaceOnUse">
<stop stop-color="#F3F4F6"/>
<stop offset="1" stop-color="#F9FAFB"/>
</linearGradient>
<linearGradient id="paint2_linear_3915_11038" x1="158" y1="0" x2="158" y2="204" gradientUnits="userSpaceOnUse">
<stop stop-color="#F9FAFB"/>
<stop offset="1" stop-color="#F3F4F6"/>
</linearGradient>
<clipPath id="clip0_3915_11038">
<rect width="20" height="20" fill="white" transform="translate(326 103)"/>
</clipPath>
</defs>
</svg>
