<svg width="185" height="186" viewBox="0 0 185 186" fill="none" xmlns="http://www.w3.org/2000/svg">
<g clip-path="url(#clip0_2912_15211)">
<rect width="185" height="185.201" rx="20" fill="#E6EDFE"/>
<rect x="42.3901" y="63.3721" width="99.2126" height="58.51" rx="29.255" fill="white" stroke="#181C20" stroke-width="2.54391"/>
<circle cx="112.348" cy="93.1" r="27.983" fill="#FFD200"/>
<path d="M120.285 99.4346C117.487 103.581 113.569 107.372 108.379 107.372C102.859 107.372 99.6284 103.912 99.6284 98.3155C99.6284 89.2591 106.344 80.3807 115.757 80.3807C118.911 80.3553 123.185 81.6273 123.185 85.4686C123.185 92.3371 112.424 94.6267 107.133 96.0004C106.929 97.018 106.802 98.2136 106.777 99.4346C106.777 101.826 108.049 104.014 110.669 104.014C114.078 104.014 116.8 100.732 118.81 98.29L120.285 99.4346ZM117.359 84.6547C117.359 83.2555 116.571 82.1617 115.121 82.1617C110.745 82.1617 108.481 90.6836 107.642 94.0161C111.712 92.795 117.359 89.4627 117.359 84.6547Z" fill="#181C20"/>
<circle cx="112.348" cy="92.6608" r="24.1672" stroke="#181C20" stroke-width="2.54391"/>
</g>
<rect x="0.5" y="0.5" width="184" height="184.201" rx="19.5" stroke="black" stroke-opacity="0.1"/>
<defs>
<clipPath id="clip0_2912_15211">
<rect width="185" height="185.201" rx="20" fill="white"/>
</clipPath>
</defs>
</svg>
