<svg width="108" height="68" viewBox="0 5 108 68" fill="none" xmlns="http://www.w3.org/2000/svg">
<rect x="4.71727" y="7.72118" width="99.2126" height="58.51" rx="29.255" fill="white" stroke="#181C20" stroke-width="2.54391"/>
<circle cx="74.6749" cy="37.4492" r="27.983" fill="#FFD200"/>
<path d="M82.6121 43.784C79.8138 47.9306 75.8961 51.721 70.7065 51.721C65.1862 51.721 61.9556 48.2614 61.9556 42.6648C61.9556 33.6085 68.6714 24.7301 78.0839 24.7301C81.2383 24.7047 85.5122 25.9766 85.5122 29.8179C85.5122 36.6865 74.7513 38.9761 69.46 40.3498C69.2565 41.3673 69.1296 42.5629 69.1041 43.784C69.1041 46.1753 70.3758 48.3632 72.9961 48.3632C76.4049 48.3632 79.1271 45.0815 81.1368 42.6394L82.6121 43.784ZM79.6866 29.004C79.6866 27.6049 78.8979 26.511 77.4479 26.511C73.0724 26.511 70.8084 35.0329 69.969 38.3654C74.0392 37.1444 79.6866 33.812 79.6866 29.004Z" fill="#181C20"/>
<circle cx="74.675" cy="37.0102" r="24.1672" stroke="#181C20" stroke-width="2.54391"/>
</svg>
