<svg id="Ebene_1" data-name="Ebene 1" xmlns="http://www.w3.org/2000/svg" viewBox="0 0 500 500"><defs><style>.cls-1{fill:white;}</style></defs><title>Trusted-Shops_Symbol_e_circle</title><circle class="cls-1" cx="250" cy="250" r="249"/><g id="simplified-e"><path d="M250,66A184.05,184.05,0,1,0,434.05,250,184,184,0,0,0,250,66Zm-1.52,299.43a116,116,0,1,1,116-116A116,116,0,0,1,248.48,365.38Z"/><path d="M298.88,285.82C282,310.76,258.55,333.49,227,333.49c-33.37,0-52.8-20.9-52.8-54.63,0-54.63,40.33-108.16,97.16-108.16,19.06,0,44.73,7.7,44.73,30.8,0,41.43-64.9,55.36-96.8,63.43-1.1,7-2.19,13.93-2.19,20.89,0,14.3,7.69,27.5,23.46,27.5,20.53,0,37-19.8,49.13-34.46Zm-17.6-89.09c0-8.43-4.77-15-13.57-15-26.4,0-40,51.33-45.09,71.49C247.18,245.86,281.28,225.7,281.28,196.73Z"/></g></svg>