<svg width="16" height="16" viewBox="0 0 16 16" fill="none" xmlns="http://www.w3.org/2000/svg">
<path fill-rule="evenodd" clip-rule="evenodd" d="M13.5605 13.7142H2.43967C2.17778 13.714 1.93629 13.5624 1.80777 13.3174C1.67924 13.0724 1.68362 12.7721 1.81922 12.5315L7.37961 2.66138C7.51091 2.42816 7.74624 2.28564 8.00006 2.28564C8.25387 2.28564 8.4892 2.42816 8.6205 2.66138L14.1809 12.5315C14.3165 12.7721 14.3209 13.0724 14.1924 13.3174C14.0638 13.5624 13.8224 13.714 13.5605 13.7142ZM8.00005 12.6789C8.40075 12.6789 8.72558 12.3301 8.72558 11.8999C8.72558 11.4696 8.40075 11.1209 8.00005 11.1209C7.59934 11.1209 7.27451 11.4696 7.27451 11.8999C7.27451 12.1065 7.35095 12.3046 7.48701 12.4507C7.62308 12.5968 7.80762 12.6789 8.00005 12.6789ZM8.48337 5.40821H7.52109C7.45403 5.40737 7.38959 5.43617 7.3429 5.48787C7.2962 5.53956 7.27136 5.60959 7.27419 5.68154L7.49541 10.0959C7.50379 10.2353 7.61223 10.3433 7.74233 10.3419H8.26213C8.39223 10.3433 8.50066 10.2353 8.50908 10.0959L8.7303 5.68154C8.73313 5.60959 8.70828 5.53956 8.66158 5.48787C8.61488 5.43619 8.55044 5.40739 8.48337 5.40824V5.40821Z" fill="#FF9100"/>
</svg>
