<?xml version="1.0" encoding="UTF-8"?>
<svg width="81px" height="69px" viewBox="0 0 81 69" version="1.1" xmlns="http://www.w3.org/2000/svg" xmlns:xlink="http://www.w3.org/1999/xlink">
    <title>70C29345-C48E-401B-AF31-5ED573D104A9@3x</title>
    <defs>
        <path d="M19.4025,0 C30.1182049,0 38.805,8.7794673 38.805,19.6094891 L38.805,19.6094891 L38.805,34.5235949 C38.805,45.2392997 30.1182049,53.9260949 19.4025,53.9260949 C8.68679514,53.9260949 4.86500904e-15,45.2392997 0,34.5235949 L0,19.6094891 L0.00294132604,19.2645544 C0.185055047,8.59366372 8.800792,0 19.4025,0 Z" id="path-1"></path>
        <path d="M13.905816,22.4444901 L1.03602431,22.4444901 L1.03621983,13.6384017 C0.401215236,13.4134006 0,13.0823748 0,12.7133018 C0,12.0354359 1.35344476,11.4859169 3.02300347,11.4859169 C4.61964471,11.4859169 5.92718138,11.9884839 6.03834836,12.6252546 L6.952,12.625 L6.95290799,0 L13.905816,0 L13.905816,22.4444901 Z" id="path-3"></path>
        <filter x="0.0%" y="0.0%" width="100.0%" height="100.0%" filterUnits="objectBoundingBox" id="filter-5">
            <feGaussianBlur stdDeviation="0" in="SourceGraphic"></feGaussianBlur>
        </filter>
        <path d="M13.905816,29.2415957 L1.81380208,29.2415957 L1.81289226,12.2158595 C0.745710966,12.0270496 0,11.5961397 0,11.0947656 C0,10.4193099 1.35344476,9.87174479 3.02300347,9.87174479 C4.69256219,9.87174479 6.04600694,10.4193099 6.04600694,11.0947656 C6.04600694,11.3545371 5.84582275,11.5953927 5.50446104,11.7934599 L6.952,11.793 L6.95290799,0 L13.905816,0 L13.905816,29.2415957 Z" id="path-6"></path>
        <path d="M15.6210938,20.1084985 C23.6063546,20.1084985 30.0796875,20.1454442 30.0796875,15.1804245 C30.0796875,7.01533737 23.6063546,0.396226415 15.6210938,0.396226415 C7.63583292,0.396226415 1.1625,7.01533737 1.1625,15.1804245 C1.1625,20.1253345 7.63583292,20.1084985 15.6210938,20.1084985 Z" id="path-8"></path>
        <filter x="-25.9%" y="-27.9%" width="151.9%" height="176.1%" filterUnits="objectBoundingBox" id="filter-9">
            <feMorphology radius="0.5" operator="dilate" in="SourceAlpha" result="shadowSpreadOuter1"></feMorphology>
            <feOffset dx="0" dy="2" in="shadowSpreadOuter1" result="shadowOffsetOuter1"></feOffset>
            <feGaussianBlur stdDeviation="2" in="shadowOffsetOuter1" result="shadowBlurOuter1"></feGaussianBlur>
            <feComposite in="shadowBlurOuter1" in2="SourceAlpha" operator="out" result="shadowBlurOuter1"></feComposite>
            <feColorMatrix values="0 0 0 0 1   0 0 0 0 1   0 0 0 0 1  0 0 0 0.5 0" type="matrix" in="shadowBlurOuter1"></feColorMatrix>
        </filter>
        <path d="M1.80732422,0 C2.80548182,0 3.61464844,1.10318516 3.61464844,2.46403302 C3.61464844,3.82488088 2.80548182,3.99703313 1.80732422,3.99703313 C0.809166615,3.99703313 0,3.82488088 0,2.46403302 C0,1.10318516 0.809166615,0 1.80732422,0 Z M11.4463867,0 C12.4445443,0 13.2537109,1.10318516 13.2537109,2.46403302 C13.2537109,3.82488088 12.4445443,3.99703313 11.4463867,3.99703313 C10.4482291,3.99703313 9.6390625,3.82488088 9.6390625,2.46403302 C9.6390625,1.10318516 10.4482291,0 11.4463867,0 Z" id="path-10"></path>
    </defs>
    <g id="MVP-new-Plugin" stroke="none" stroke-width="1" fill="none" fill-rule="evenodd">
        <g id="06.5-MVP-widgets-reworked---library" transform="translate(-728.000000, -457.000000)">
            <g id="Group-6" transform="translate(697.000000, 421.000000)">
                <g id="Trusty/Hand-up" transform="translate(32.000000, 32.000000)">
                    <g id="Background-with-Horizon" transform="translate(0.568182, 4.000000)">
                        <path d="M39.4318182,0 C59.3140692,0 75.4318182,16.117749 75.4318182,36 C75.4318182,41.3534225 74.2632977,46.4339225 72.1674022,51.0003544 L6.6962342,51.0003544 C4.60033866,46.4339225 3.43181818,41.3534225 3.43181818,36 C3.43181818,16.117749 19.5495672,0 39.4318182,0 Z" id="Combined-Shape" fill="#E1F0F6"></path>
                        <line x1="4.09090909" y1="51.1914894" x2="75" y2="51.1914894" id="Stroke-5" stroke="#45413C" stroke-width="1.70212766" stroke-linecap="round" stroke-linejoin="round"></line>
                        <line x1="0" y1="51.1914894" x2="2.27272727" y2="51.1914894" id="Stroke-7" stroke="#45413C" stroke-width="1.70212766" stroke-linecap="round" stroke-linejoin="round"></line>
                        <line x1="76.3181818" y1="51.1914894" x2="78.5909091" y2="51.1914894" id="Stroke-9" stroke="#45413C" stroke-width="1.70212766" stroke-linecap="round" stroke-linejoin="round"></line>
                    </g>
                    <path d="M45.5,71 C45.5,71.8281549 42.8138708,72.5 39.5005515,72.5 C36.1872323,72.5 33.5,71.8281549 33.5,71 C33.5,70.1718451 36.1861292,69.5 39.5005515,69.5 C42.8149738,69.5 45.5,70.1711281 45.5,71 Z" id="Path" fill="#45413C" fill-rule="nonzero" opacity="0.15"></path>
                    <g id="Trusty-Marsbot" transform="translate(8.000000, -7.000000)">
                        <g id="Body" transform="translate(13.000000, 12.500000)">
                            <mask id="mask-2" fill="white">
                                <use xlink:href="#path-1"></use>
                            </mask>
                            <use id="Mask" fill="#E5E5E5" xlink:href="#path-1"></use>
                            <path d="M19.4025,1 C24.4243706,1 28.9758493,3.03428186 32.2955223,6.33085273 C35.6230829,9.63525635 37.7134044,14.2076153 37.8020603,19.2732906 L37.8020603,19.2732906 L37.805,34.5235949 C37.805,39.6053049 35.74523,44.2059299 32.4150325,47.5361274 C29.0848351,50.8663249 24.4842101,52.9260949 19.4025,52.9260949 C14.3207899,52.9260949 9.72016495,50.8663249 6.38996746,47.5361274 C3.05976997,44.2059299 1,39.6053049 1,34.5235949 L1,34.5235949 L1,19.6179881 C1.08976664,14.4003888 3.16581383,9.75277055 6.47808574,6.40516278 C9.80001008,3.0477996 14.3645381,1 19.4025,1 Z" stroke="#666666" stroke-width="2" fill="#F8F9FB" mask="url(#mask-2)"></path>
                            <path d="M19.4025,1 C9.45542745,1 1.32927253,8.98945888 1.00985096,18.9895826 L1.00256726,19.2932259 L1,19.6094891 L1,37.9260949 C1,46.1275234 7.58208575,52.7916235 15.7519476,52.9240853 L16,52.9260949 L22.805,52.9260949 C31.0064285,52.9260949 37.6705286,46.3440091 37.8029904,38.1741473 L37.8050321,37.9260949 L37.8050321,19.6175047 L37.8025293,19.3012506 C37.6397064,9.15167726 29.450048,1 19.4025,1 Z" id="Body-Copy" fill="#F2F2F2" fill-rule="nonzero" mask="url(#mask-2)"></path>
                            <path d="M19.4025,1 C29.450048,1 37.6397064,9.15167726 37.8025293,19.3012506 L37.8025293,19.3012506 L37.8050321,19.6175047 L37.805,21.609 L37.8025293,21.3012506 C37.6397064,11.1516773 29.450048,3 19.4025,3 C9.45542745,3 1.32927253,10.9894589 1.00985096,20.9895826 L1.00256726,21.2932259 L1,21.6094891 L1,19.6094891 L1.00256726,19.2932259 L1.00985096,18.9895826 C1.32927253,8.98945888 9.45542745,1 19.4025,1 Z" id="Body-Copy-2" fill="#FFFFFF" fill-rule="nonzero" mask="url(#mask-2)"></path>
                            <path d="M15.7519476,50.9240853 L16,50.9260949 L22.805,50.9260949 C31.0064285,50.9260949 37.6705286,44.3440091 37.8029904,36.1741473 L37.8050321,35.9260949 L37.8050321,37.9260949 L37.8029904,38.1741473 C37.6705286,46.3440091 31.0064285,52.9260949 22.805,52.9260949 L22.805,52.9260949 L16,52.9260949 L15.7519476,52.9240853 C7.58208575,52.7916235 1,46.1275234 1,37.9260949 L1,37.9260949 L1,35.9260949 C1,44.1275234 7.58208575,50.7916235 15.7519476,50.9240853 Z" id="Body-Copy-3" fill="#CCCCCC" fill-rule="nonzero" mask="url(#mask-2)"></path>
                            <path d="M19.3720653,29.9273794 L20.903162,34.5960401 L25.8638373,34.5980567 L21.8504798,37.4917207 L23.3801274,42.1672545 L19.372491,39.2784468 L15.3670748,42.1678481 L16.8958877,37.4917646 L12.8824692,34.5980567 L17.8429951,34.5960401 L19.3720653,29.9273794 Z" id="icon-star-copy-2" stroke="#666666" fill="#FFDC0F" stroke-linecap="round" stroke-linejoin="round" mask="url(#mask-2)"></path>
                        </g>
                        <g id="Flamy-Thing" transform="translate(25.000000, 66.000000)">
                            <path d="M6.66216216,8.30786133 C8.87960414,8.30786133 12.1486486,3.36475708 12.1486486,0 C6.66216216,0 6.66216216,0 1.17567568,0 C1.17567568,3.36475708 4.44472019,8.30786133 6.66216216,8.30786133 Z" id="Mask-2" fill="#0DBEDC"></path>
                            <path d="M6.66216216,5.53702799 C9.03799285,5.53702799 12.5405405,0.593923751 12.5405405,-2.77083333 C6.66216216,-2.77083333 6.66216216,-2.77083333 0.783783784,-2.77083333 C0.783783784,0.593923751 4.28633147,5.53702799 6.66216216,5.53702799 Z" id="Mask-Copy-2" fill="#27CFEB"></path>
                            <path d="M6.66216216,3.55786133 C9.35477028,3.55786133 13.3243243,-1.38524292 13.3243243,-4.75 C6.66216216,-4.75 6.66216216,-4.75 0,-4.75 C0,-1.38524292 3.96955405,3.55786133 6.66216216,3.55786133 Z" id="Mask-Copy-3" fill="#5EDDF3"></path>
                            <path d="M0.783783784,-0.395833333 L12.9691723,-0.395833333 L12.721677,1.45035807 C10.1722659,1.2414623 8.22386628,1.13701441 6.87647804,1.13701441 C5.5290898,1.13701441 3.5920348,1.2414623 1.06531302,1.45035807 L0.783783784,-0.395833333 Z" id="Mask" stroke="#666666" fill="#B2B2B2"></path>
                            <path d="M0.783783784,-0.395833333 L12.9691723,-0.395833333 L12.721677,1.45035807 C10.1722659,1.2414623 8.22386628,1.13701441 6.87647804,1.13701441 C5.5290898,1.13701441 3.5920348,1.2414623 1.06531302,1.45035807 L0.783783784,-0.395833333 Z" id="Mask-Copy" stroke="#666666" fill="#B2B2B2"></path>
                        </g>
                        <g id="Right-Shoulder" transform="translate(50.000000, 31.500000)">
                            <path d="M3.28226103,11.571875 C4.96136418,11.571875 6.32254623,11.0346167 6.32254623,10.371875 C6.32254623,9.7091333 4.96136418,9.171875 3.28226103,9.171875 C1.60315788,9.171875 0.241975824,9.7091333 0.241975824,10.371875 C0.241975824,11.0346167 1.60315788,11.571875 3.28226103,11.571875 Z M1.76225798,0.650896789 L1.76211843,0.371875 C4.80240363,1.20529355 6.32254623,4.53862689 6.32254623,10.371875 C4.16477637,10.3569722 2.77112951,10.3532542 2.14160565,10.3607209 L2.14215408,10.371875 L0.241975824,10.371875 C0.243797534,3.70520833 0.749615267,0.371875 1.75942902,0.371875 C1.76006948,0.460672456 1.76101247,0.553679719 1.76225798,0.650896789 L1.76225798,0.650896789 Z" id="Combined-Shape-Copy-2" stroke="#666666" fill="#F8F9FB"></path>
                            <ellipse id="Arm-Opening" fill="#666666" cx="3.33421903" cy="10.4390625" rx="2.95418338" ry="1.24375"></ellipse>
                        </g>
                        <g id="Left-Shoulder" transform="translate(8.000000, 32.000000)">
                            <path d="M1.77251003,0 C4.85361388,0.803833792 6.42840029,3.96525856 6.49686926,9.48427432 L6.49920343,9.86422414 C6.49920343,10.5452067 5.04430719,11.0972522 3.24960172,11.0972522 C1.45489625,11.0972522 -2.48689958e-14,10.5452067 -2.48689958e-14,9.86422414 L-2.48689958e-14,9.86422414 C0.00234401757,3.28807471 0.59310857,0 1.77251003,0 Z" id="Combined-Shape-Copy-3" stroke="#666666" fill="#F8F9FB" transform="translate(3.249602, 5.548626) scale(-1, 1) translate(-3.249602, -5.548626) "></path>
                            <ellipse id="Arm-Opening" fill="#666666" cx="3.24960172" cy="9.95251886" rx="2.95418338" ry="1.23302802"></ellipse>
                        </g>
                        <g id="Right-Arm" transform="translate(50.000000, 29.000000)">
                            <mask id="mask-4" fill="white">
                                <use xlink:href="#path-3"></use>
                            </mask>
                            <g id="Mask"></g>
                            <path d="M2.20269097,7.40902549 L4.62109375,7.40902549 L4.62109375,16.614412 C4.62109375,17.9701439 5.70384955,19.0691817 7.03949653,19.0691817 C8.3751435,19.0691817 9.45789931,17.9701439 9.45789931,16.614412 L9.45789931,5.56794819 L11.8763021,5.56794819 L11.8763021,16.614412 C11.8763021,19.3258758 9.71079047,21.5239515 7.03949653,21.5239515 C4.36820258,21.5239515 2.20269097,19.3258758 2.20269097,16.614412 L2.20269097,16.614412 L2.20269097,7.40902549 Z" stroke="#666666" fill="#808080" mask="url(#mask-4)"></path>
                            <path d="M-0.286009092,12.9964125 C0.112971027,12.1789123 1.1250469,11.7701622 2.75021854,11.7701622 C4.37539018,11.7701622 5.37537629,12.0896268 5.75017688,12.7285561 L5.22842403,11.1382061 L-0.30155349,11.1382061 L-0.286009092,12.9964125 Z" id="Path-5" filter="url(#filter-5)" mask="url(#mask-4)"></path>
                            <path d="M11.0740017,0.923408616 C11.9128962,1.0452439 12.6416692,1.54105254 13.095123,2.24971365 C13.4042274,2.73278441 13.5855035,3.31459591 13.5855035,3.94113404 C13.5855035,4.77954933 13.2610697,5.53755773 12.7397819,6.0866408 C12.2093365,6.64536969 11.4758387,6.98848684 10.6671007,6.98848684 C9.85836273,6.98848684 9.12486489,6.64536969 8.59441952,6.0866408 C8.07313169,5.53755773 7.74869792,4.77954933 7.74869792,3.94113404 C7.74869792,3.31459591 7.92997396,2.73278441 8.23907836,2.24971365 C8.69253215,1.54105254 9.4213052,1.0452439 10.2601997,0.923408616 L10.2601997,0.923408616 L10.2601997,3.94113404 Z" id="Right-Hand" stroke="#666666" fill="#CCCCCC" mask="url(#mask-4)"></path>
                        </g>
                        <g id="Left-Arm" transform="translate(7.500000, 45.750000) scale(-1, 1) translate(-7.500000, -45.750000) translate(0.500000, 31.000000)">
                            <mask id="mask-7" fill="white">
                                <use xlink:href="#path-6"></use>
                            </mask>
                            <g id="Mask"></g>
                            <path d="M3.7649886,8.95734043 L6.13506599,8.93521759 C5.56188841,11.8770532 5.2282636,13.9042336 5.13419157,15.0167588 C5.04011954,16.1292841 5.16747181,19.3089069 5.51624837,24.5556273 L3.36666792,24.575692 C2.87439427,20.243062 2.63623713,17.208247 2.65219651,15.4712471 C2.66815589,13.7342472 3.03908659,11.562945 3.7649886,8.95734043 Z" id="ARM" stroke="#666666" fill="#808080" mask="url(#mask-7)" transform="translate(4.393255, 16.755455) scale(-1, 1) rotate(9.000000) translate(-4.393255, -16.755455) "></path>
                            <path d="M5.02400656,22.293115 L5.04878852,25.2908862 L5.83820421,22.2976687 C6.67871849,22.4233835 7.41219633,22.9223114 7.87137404,23.631356 C8.18429455,24.1145559 8.36988522,24.6950126 8.3750381,25.3183354 C8.38196505,26.1562603 8.06202269,26.9108612 7.54332161,27.4551969 C7.01612823,28.0084447 6.2838832,28.3457831 5.47280813,28.3390899 C4.66646877,28.3324357 3.9320699,27.9862594 3.3985382,27.4272535 C2.87327617,26.876912 2.54378183,26.1202227 2.53689106,25.2866758 C2.53171664,24.6607474 2.70910586,24.0811082 3.01528617,23.6011157 C3.46303009,22.8991969 4.1865809,22.4103694 5.02400656,22.293115 L5.02400656,22.293115 Z" id="Mask" stroke="#666666" fill="#CCCCCC" mask="url(#mask-7)" transform="translate(5.455965, 25.390995) rotate(-188.000000) translate(-5.455965, -25.390995) "></path>
                        </g>
                        <g id="😀-Expression" transform="translate(17.000000, 17.000000)">
                            <g id="Face">
                                <g id="Mask">
                                    <use fill="black" fill-opacity="1" filter="url(#filter-9)" xlink:href="#path-8"></use>
                                    <use stroke="#666666" stroke-width="1" fill="#003660" fill-rule="evenodd" xlink:href="#path-8"></use>
                                </g>
                                <ellipse id="Oval-8" fill="#003F71" cx="15.7717041" cy="5.78629864" rx="4.9701416" ry="2.00202683"></ellipse>
                            </g>
                            <g id="Group" transform="translate(8.693018, 9.636350)">
                                <mask id="mask-11" fill="white">
                                    <use xlink:href="#path-10"></use>
                                </mask>
                                <use id="Mask" fill="#0DBEDC" xlink:href="#path-10"></use>
                            </g>
                        </g>
                    </g>
                </g>
            </g>
        </g>
    </g>
</svg>