<svg width="98" height="10" viewBox="0 0 98 10" fill="none" xmlns="http://www.w3.org/2000/svg">
<path fill-rule="evenodd" clip-rule="evenodd" d="M4.24934 1L3.24601 4.05461L0 4.05592L2.62633 5.94408L1.62434 9L4.24934 7.11184L6.87633 9L5.87367 5.94408L8.5 4.05592L5.25399 4.05461L4.24934 1Z" fill="#FFDC0F"/>
<path fill-rule="evenodd" clip-rule="evenodd" d="M13.9993 1L12.996 4.05461L9.75 4.05592L12.3763 5.94408L11.3743 9L13.9993 7.11184L16.6263 9L15.6237 5.94408L18.25 4.05592L15.004 4.05461L13.9993 1Z" fill="#FFDC0F"/>
<path fill-rule="evenodd" clip-rule="evenodd" d="M23.7493 1L22.746 4.05461L19.5 4.05592L22.1263 5.94408L21.1243 9L23.7493 7.11184L26.3763 9L25.3737 5.94408L28 4.05592L24.754 4.05461L23.7493 1Z" fill="#FFDC0F"/>
<path fill-rule="evenodd" clip-rule="evenodd" d="M33.4993 1L32.496 4.05461L29.25 4.05592L31.8763 5.94408L30.8743 9L33.4993 7.11184L36.1263 9L35.1237 5.94408L37.75 4.05592L34.504 4.05461L33.4993 1Z" fill="#FFDC0F"/>
<path fill-rule="evenodd" clip-rule="evenodd" d="M43.2493 1L42.246 4.05461L39 4.05592L41.6263 5.94408L40.6243 9L43.2493 7.11184L45.8763 9L44.8737 5.94408L47.5 4.05592L44.254 4.05461L43.2493 1Z" fill="#FFDC0F"/>
<path d="M54.1445 6.01953V3.48438L52.3516 6.01953H54.1445ZM54.1562 8V6.63281H51.7031V5.94531L54.2656 2.39062H54.8594V6.01953H55.6836V6.63281H54.8594V8H54.1562ZM56.6367 7.14844H57.4531V8H56.6367V7.14844ZM62.3633 2.5V3.11328C62.1836 3.28776 61.944 3.59115 61.6445 4.02344C61.3477 4.45573 61.0846 4.92188 60.8555 5.42188C60.6289 5.90885 60.457 6.35286 60.3398 6.75391C60.2643 7.01172 60.1667 7.42708 60.0469 8H59.2695C59.4466 6.93229 59.8372 5.86979 60.4414 4.8125C60.7982 4.19271 61.1732 3.65755 61.5664 3.20703H58.4727V2.5H62.3633ZM63.6211 6.57422C63.668 6.97526 63.8542 7.2526 64.1797 7.40625C64.3464 7.48438 64.5391 7.52344 64.7578 7.52344C65.1745 7.52344 65.4831 7.39062 65.6836 7.125C65.8841 6.85938 65.9844 6.5651 65.9844 6.24219C65.9844 5.85156 65.8646 5.54948 65.625 5.33594C65.388 5.1224 65.1029 5.01562 64.7695 5.01562C64.5273 5.01562 64.319 5.0625 64.1445 5.15625C63.9727 5.25 63.8255 5.38021 63.7031 5.54688L63.0938 5.51172L63.5195 2.5H66.4258V3.17969H64.0469L63.8086 4.73438C63.9388 4.63542 64.0625 4.5612 64.1797 4.51172C64.388 4.42578 64.6289 4.38281 64.9023 4.38281C65.4154 4.38281 65.8503 4.54818 66.207 4.87891C66.5638 5.20964 66.7422 5.62891 66.7422 6.13672C66.7422 6.66536 66.5781 7.13151 66.25 7.53516C65.9245 7.9388 65.4036 8.14062 64.6875 8.14062C64.2318 8.14062 63.8281 8.01302 63.4766 7.75781C63.1276 7.5 62.9323 7.10547 62.8906 6.57422H63.6211Z" fill="black"/>
<path d="M73.8672 2.16797C73.4583 2.96224 73.1927 3.54688 73.0703 3.92188C72.8854 4.49219 72.793 5.15104 72.793 5.89844C72.793 6.65365 72.8984 7.34375 73.1094 7.96875C73.2396 8.35417 73.4961 8.90885 73.8789 9.63281H73.4062C73.026 9.03906 72.7904 8.66016 72.6992 8.49609C72.6081 8.33203 72.5091 8.10938 72.4023 7.82812C72.2565 7.44271 72.1549 7.03125 72.0977 6.59375C72.069 6.36719 72.0547 6.15104 72.0547 5.94531C72.0547 5.17448 72.1758 4.48828 72.418 3.88672C72.5716 3.50391 72.8919 2.93099 73.3789 2.16797H73.8672ZM74.9297 4.03906V3.5C75.4375 3.45052 75.7917 3.36849 75.9922 3.25391C76.1927 3.13672 76.3424 2.86198 76.4414 2.42969H76.9961V8H76.2461V4.03906H74.9297ZM79.2812 8.81641C79.4609 8.78516 79.5872 8.65885 79.6602 8.4375C79.6992 8.32031 79.7188 8.20703 79.7188 8.09766C79.7188 8.07943 79.7174 8.0625 79.7148 8.04688C79.7148 8.03385 79.7122 8.01823 79.707 8H79.2812V7.14844H80.1172V7.9375C80.1172 8.2474 80.0547 8.51953 79.9297 8.75391C79.8047 8.98828 79.5885 9.13281 79.2812 9.1875V8.81641ZM83.0078 2.40625C83.7318 2.40625 84.2552 2.70443 84.5781 3.30078C84.8281 3.76172 84.9531 4.39323 84.9531 5.19531C84.9531 5.95573 84.8398 6.58464 84.6133 7.08203C84.2852 7.79557 83.7487 8.15234 83.0039 8.15234C82.332 8.15234 81.832 7.86068 81.5039 7.27734C81.2305 6.79036 81.0938 6.13672 81.0938 5.31641C81.0938 4.68099 81.1758 4.13542 81.3398 3.67969C81.6471 2.83073 82.2031 2.40625 83.0078 2.40625ZM83 7.51172C83.3646 7.51172 83.6549 7.35026 83.8711 7.02734C84.0872 6.70443 84.1953 6.10286 84.1953 5.22266C84.1953 4.58724 84.1172 4.0651 83.9609 3.65625C83.8047 3.24479 83.5013 3.03906 83.0508 3.03906C82.6367 3.03906 82.3333 3.23438 82.1406 3.625C81.9505 4.01302 81.8555 4.58594 81.8555 5.34375C81.8555 5.91406 81.9167 6.3724 82.0391 6.71875C82.2266 7.2474 82.5469 7.51172 83 7.51172ZM87.4609 2.40625C88.1849 2.40625 88.7083 2.70443 89.0312 3.30078C89.2812 3.76172 89.4062 4.39323 89.4062 5.19531C89.4062 5.95573 89.293 6.58464 89.0664 7.08203C88.7383 7.79557 88.2018 8.15234 87.457 8.15234C86.7852 8.15234 86.2852 7.86068 85.957 7.27734C85.6836 6.79036 85.5469 6.13672 85.5469 5.31641C85.5469 4.68099 85.6289 4.13542 85.793 3.67969C86.1003 2.83073 86.6562 2.40625 87.4609 2.40625ZM87.4531 7.51172C87.8177 7.51172 88.1081 7.35026 88.3242 7.02734C88.5404 6.70443 88.6484 6.10286 88.6484 5.22266C88.6484 4.58724 88.5703 4.0651 88.4141 3.65625C88.2578 3.24479 87.9544 3.03906 87.5039 3.03906C87.0898 3.03906 86.7865 3.23438 86.5938 3.625C86.4036 4.01302 86.3086 4.58594 86.3086 5.34375C86.3086 5.91406 86.3698 6.3724 86.4922 6.71875C86.6797 7.2474 87 7.51172 87.4531 7.51172ZM90.7383 6.57422C90.7852 6.97526 90.9714 7.2526 91.2969 7.40625C91.4635 7.48438 91.6562 7.52344 91.875 7.52344C92.2917 7.52344 92.6003 7.39062 92.8008 7.125C93.0013 6.85938 93.1016 6.5651 93.1016 6.24219C93.1016 5.85156 92.9818 5.54948 92.7422 5.33594C92.5052 5.1224 92.2201 5.01562 91.8867 5.01562C91.6445 5.01562 91.4362 5.0625 91.2617 5.15625C91.0898 5.25 90.9427 5.38021 90.8203 5.54688L90.2109 5.51172L90.6367 2.5H93.543V3.17969H91.1641L90.9258 4.73438C91.056 4.63542 91.1797 4.5612 91.2969 4.51172C91.5052 4.42578 91.7461 4.38281 92.0195 4.38281C92.5326 4.38281 92.9674 4.54818 93.3242 4.87891C93.681 5.20964 93.8594 5.62891 93.8594 6.13672C93.8594 6.66536 93.6953 7.13151 93.3672 7.53516C93.0417 7.9388 92.5208 8.14062 91.8047 8.14062C91.349 8.14062 90.9453 8.01302 90.5938 7.75781C90.2448 7.5 90.0495 7.10547 90.0078 6.57422H90.7383ZM94.4805 9.63281C94.8945 8.82552 95.1615 8.23698 95.2812 7.86719C95.4635 7.30729 95.5547 6.65104 95.5547 5.89844C95.5547 5.14583 95.4492 4.45703 95.2383 3.83203C95.1081 3.44661 94.8516 2.89193 94.4688 2.16797H94.9414C95.3424 2.80859 95.5846 3.20443 95.668 3.35547C95.7539 3.50391 95.8464 3.70964 95.9453 3.97266C96.0703 4.29818 96.1589 4.61979 96.2109 4.9375C96.2656 5.25521 96.293 5.5612 96.293 5.85547C96.293 6.6263 96.1706 7.3138 95.9258 7.91797C95.7721 8.30599 95.4531 8.8776 94.9688 9.63281H94.4805Z" fill="#4D4D4D"/>
</svg>
