<svg width="185" height="186" viewBox="0 0 185 186" fill="none" xmlns="http://www.w3.org/2000/svg">
<g clip-path="url(#clip0_2912_15295)">
<path d="M0 20C0 8.95432 8.95431 0 20 0H165C176.046 0 185 8.9543 185 20V165.201C185 176.247 176.046 185.201 165 185.201H20C8.9543 185.201 0 176.247 0 165.201V20Z" fill="#E6EDFE"/>
<g filter="url(#filter0_dd_2912_15295)">
<rect x="-91.5" y="55.6855" width="133.511" height="74.2923" rx="3.49611" fill="white" shape-rendering="crispEdges"/>
<rect x="-91.7185" y="55.467" width="133.948" height="74.7294" rx="3.71462" stroke="black" stroke-opacity="0.1" stroke-width="0.437014" shape-rendering="crispEdges"/>
<path d="M-84.5078 85.5306C-84.5078 84.6064 -83.7586 83.8572 -82.8344 83.8572H33.3456C34.2698 83.8572 35.0191 84.6064 35.0191 85.5306V87.2041C35.0191 88.1283 34.2698 88.8776 33.3456 88.8776H-82.8344C-83.7586 88.8776 -84.5078 88.1283 -84.5078 87.2041V85.5306Z" fill="#D0D5DD"/>
<path d="M-84.5078 93.8978C-84.5078 92.9736 -83.7586 92.2244 -82.8344 92.2244H33.3456C34.2698 92.2244 35.0191 92.9736 35.0191 93.8978V95.5713C35.0191 96.4955 34.2698 97.2448 33.3456 97.2448H-82.8344C-83.7586 97.2448 -84.5078 96.4955 -84.5078 95.5713V93.8978Z" fill="#D0D5DD"/>
<path d="M-84.5078 102.265C-84.5078 101.341 -83.7586 100.592 -82.8344 100.592H33.3456C34.2698 100.592 35.0191 101.341 35.0191 102.265V103.939C35.0191 104.863 34.2698 105.612 33.3456 105.612H-82.8344C-83.7586 105.612 -84.5078 104.863 -84.5078 103.939V102.265Z" fill="#D0D5DD"/>
<path d="M-84.5078 110.632C-84.5078 109.708 -83.7586 108.959 -82.8344 108.959H33.3456C34.2698 108.959 35.0191 109.708 35.0191 110.632V112.306C35.0191 113.23 34.2698 113.979 33.3456 113.979H-82.8344C-83.7586 113.979 -84.5078 113.23 -84.5078 112.306V110.632Z" fill="#D0D5DD"/>
</g>
<g filter="url(#filter1_dd_2912_15295)">
<rect x="148.397" y="55.3379" width="133.511" height="74.2923" rx="3.49611" fill="white" shape-rendering="crispEdges"/>
<rect x="148.179" y="55.1194" width="133.948" height="74.7294" rx="3.71462" stroke="black" stroke-opacity="0.1" stroke-width="0.437014" shape-rendering="crispEdges"/>
<path fill-rule="evenodd" clip-rule="evenodd" d="M158.639 62.3301L157.872 64.6662L155.39 64.6672L157.398 66.1112L156.632 68.4483L158.639 67.0043L160.648 68.4483L159.882 66.1112L161.89 64.6672L159.408 64.6662L158.639 62.3301Z" fill="#FFDC0F"/>
<path fill-rule="evenodd" clip-rule="evenodd" d="M166.096 62.3301L165.329 64.6662L162.846 64.6672L164.855 66.1112L164.088 68.4483L166.096 67.0043L168.105 68.4483L167.338 66.1112L169.347 64.6672L166.864 64.6662L166.096 62.3301Z" fill="#FFDC0F"/>
<path fill-rule="evenodd" clip-rule="evenodd" d="M173.553 62.3301L172.785 64.6662L170.303 64.6672L172.311 66.1112L171.545 68.4483L173.553 67.0043L175.562 68.4483L174.795 66.1112L176.803 64.6672L174.321 64.6662L173.553 62.3301Z" fill="#FFDC0F"/>
<path fill-rule="evenodd" clip-rule="evenodd" d="M181.009 62.3301L180.242 64.6662L177.759 64.6672L179.768 66.1112L179.002 68.4483L181.009 67.0043L183.018 68.4483L182.251 66.1112L184.26 64.6672L181.777 64.6662L181.009 62.3301Z" fill="#FFDC0F"/>
<path d="M155.39 76.8156C155.39 75.8913 156.139 75.1421 157.063 75.1421H220.67C221.594 75.1421 222.343 75.8913 222.343 76.8156V78.489C222.343 79.4132 221.594 80.1625 220.67 80.1625H157.063C156.139 80.1625 155.39 79.4132 155.39 78.489V76.8156Z" fill="#D0D5DD"/>
<path d="M155.39 85.183C155.39 84.2588 156.139 83.5095 157.063 83.5095H273.243C274.167 83.5095 274.917 84.2588 274.917 85.183V86.8564C274.917 87.7807 274.167 88.5299 273.243 88.5299H157.063C156.139 88.5299 155.39 87.7807 155.39 86.8564V85.183Z" fill="#D0D5DD"/>
<path d="M155.39 93.5502C155.39 92.6259 156.139 91.8767 157.063 91.8767H273.243C274.167 91.8767 274.917 92.6259 274.917 93.5502V95.2236C274.917 96.1479 274.167 96.8971 273.243 96.8971H157.063C156.139 96.8971 155.39 96.1479 155.39 95.2236V93.5502Z" fill="#D0D5DD"/>
<path d="M155.39 101.918C155.39 100.993 156.139 100.244 157.063 100.244H273.243C274.167 100.244 274.917 100.993 274.917 101.918V103.591C274.917 104.515 274.167 105.265 273.243 105.265H157.063C156.139 105.265 155.39 104.515 155.39 103.591V101.918Z" fill="#D0D5DD"/>
<path d="M155.39 110.285C155.39 109.361 156.139 108.611 157.063 108.611H273.243C274.167 108.611 274.917 109.361 274.917 110.285V111.958C274.917 112.882 274.167 113.632 273.243 113.632H157.063C156.139 113.632 155.39 112.882 155.39 111.958V110.285Z" fill="#D0D5DD"/>
<path d="M155.39 118.801C155.39 117.877 156.139 117.128 157.063 117.128H220.67C221.594 117.128 222.343 117.877 222.343 118.801V120.475C222.343 121.399 221.594 122.148 220.67 122.148H157.063C156.139 122.148 155.39 121.399 155.39 120.475V118.801Z" fill="#005AA0"/>
</g>
<g filter="url(#filter2_dd_2912_15295)">
<rect x="55.2231" y="55.7749" width="79.3137" height="74.2923" rx="3.49611" fill="white" shape-rendering="crispEdges"/>
<rect x="55.0046" y="55.5564" width="79.7507" height="74.7294" rx="3.71462" stroke="black" stroke-opacity="0.1" stroke-width="0.437014" shape-rendering="crispEdges"/>
<path fill-rule="evenodd" clip-rule="evenodd" d="M70.8453 62.7671L69.5847 66.6049L65.5063 66.6066L68.8061 68.9789L67.5472 72.8184L70.8453 70.4461L74.1459 72.8184L72.8861 68.9789L76.1859 66.6066L72.1075 66.6049L70.8453 62.7671Z" fill="#FFDC0F"/>
<path fill-rule="evenodd" clip-rule="evenodd" d="M83.0953 62.7671L81.8347 66.6049L77.7563 66.6066L81.0561 68.9789L79.7972 72.8184L83.0953 70.4461L86.3959 72.8184L85.1361 68.9789L88.4359 66.6066L84.3575 66.6049L83.0953 62.7671Z" fill="#FFDC0F"/>
<path fill-rule="evenodd" clip-rule="evenodd" d="M95.3453 62.7671L94.0847 66.6049L90.0063 66.6066L93.3061 68.9789L92.0472 72.8184L95.3453 70.4461L98.6459 72.8184L97.3861 68.9789L100.686 66.6066L96.6075 66.6049L95.3453 62.7671Z" fill="#FFDC0F"/>
<path fill-rule="evenodd" clip-rule="evenodd" d="M107.595 62.7671L106.335 66.6049L102.256 66.6066L105.556 68.9789L104.297 72.8184L107.595 70.4461L110.896 72.8184L109.636 68.9789L112.936 66.6066L108.858 66.6049L107.595 62.7671Z" fill="#FFDC0F"/>
<path fill-rule="evenodd" clip-rule="evenodd" d="M119.845 62.7671L118.585 66.6049L114.506 66.6066L117.806 68.9789L116.547 72.8184L119.845 70.4461L123.146 72.8184L121.886 68.9789L125.186 66.6066L121.108 66.6049L119.845 62.7671Z" fill="#FFDC0F"/>
<path d="M90.8079 83.0076V83.8641H90.178V85.0625H89.1064V83.8641H86.9017V82.9077L88.9489 79.5277H90.178V83.0076H90.8079ZM87.7121 83.0076H89.1064V80.6032L87.7121 83.0076ZM91.5646 83.9179H92.7284V85.0625H91.5646V83.9179ZM96.7268 81.283C96.4349 81.6978 96.1903 82.1255 95.9932 82.5659C95.837 82.9116 95.6961 83.3341 95.5707 83.8334C95.4452 84.3327 95.3825 84.7424 95.3825 85.0625H94.2455C94.2788 84.0639 94.6066 83.0255 95.2288 81.9475C95.6308 81.2792 95.9676 80.8131 96.239 80.5494H93.462L93.4774 79.5661H97.4105V80.4226C97.2466 80.584 97.0187 80.8708 96.7268 81.283ZM99.7381 82.297C99.6049 82.297 99.4897 82.3137 99.3924 82.347C99.2208 82.4084 99.0915 82.5224 99.0045 82.6888L98.0212 82.6427L98.413 79.5661H101.482V80.4956H99.2042L99.0045 81.7132C99.1735 81.6031 99.3053 81.5301 99.4001 81.4943C99.5588 81.4354 99.7522 81.4059 99.9801 81.4059C100.441 81.4059 100.843 81.5608 101.186 81.8707C101.529 82.1805 101.701 82.6312 101.701 83.2227C101.701 83.7374 101.536 84.197 101.205 84.6016C100.875 85.0062 100.381 85.2085 99.7227 85.2085C99.1927 85.2085 98.7574 85.0663 98.4168 84.7821C98.0762 84.4979 97.8868 84.0946 97.8483 83.5722H98.9392C98.9827 83.8104 99.0659 83.9947 99.1888 84.1253C99.3117 84.2533 99.491 84.3174 99.7266 84.3174C99.998 84.3174 100.204 84.2226 100.345 84.0331C100.488 83.8411 100.56 83.6004 100.56 83.311C100.56 83.0268 100.493 82.7874 100.36 82.5928C100.227 82.3956 100.02 82.297 99.7381 82.297Z" fill="black"/>
<path d="M81.2724 92.8562C81.2903 93.1762 81.3659 93.4361 81.499 93.6359C81.7525 94.0097 82.1994 94.1966 82.8395 94.1966C83.1263 94.1966 83.3875 94.1557 83.6231 94.0737C84.0789 93.915 84.3068 93.6307 84.3068 93.221C84.3068 92.9138 84.2107 92.6948 84.0187 92.5642C83.8241 92.4362 83.5194 92.3248 83.1045 92.2301L82.3402 92.0572C81.8409 91.9446 81.4875 91.8204 81.2801 91.6847C80.9216 91.4491 80.7424 91.097 80.7424 90.6284C80.7424 90.1214 80.9178 89.7053 81.2686 89.3801C81.6194 89.0549 82.1161 88.8923 82.7589 88.8923C83.3504 88.8923 83.8522 89.0357 84.2645 89.3225C84.6793 89.6067 84.8867 90.0625 84.8867 90.6899H84.1685C84.1301 90.3877 84.0481 90.156 83.9227 89.9947C83.6896 89.7002 83.294 89.5529 82.7358 89.5529C82.2851 89.5529 81.9612 89.6477 81.7641 89.8372C81.5669 90.0267 81.4683 90.2469 81.4683 90.4978C81.4683 90.7744 81.5835 90.9767 81.814 91.1047C81.9651 91.1866 82.3069 91.289 82.8395 91.412L83.6308 91.5925C84.0123 91.6795 84.3068 91.7986 84.5142 91.9497C84.8727 92.2134 85.0519 92.5962 85.0519 93.0981C85.0519 93.7229 84.824 94.1698 84.3682 94.4386C83.915 94.7075 83.3875 94.8419 82.7857 94.8419C82.0841 94.8419 81.5349 94.6627 81.138 94.3042C80.7411 93.9483 80.5465 93.4656 80.5542 92.8562H81.2724ZM87.6407 90.4709C87.9326 90.4709 88.2156 90.5401 88.4895 90.6783C88.7635 90.8141 88.9722 90.9907 89.1156 91.2084C89.2539 91.4158 89.3461 91.6578 89.3922 91.9343C89.4331 92.1238 89.4536 92.426 89.4536 92.8408H86.4385C86.4513 93.2582 86.5499 93.5936 86.7342 93.8471C86.9186 94.0981 87.2041 94.2235 87.5908 94.2235C87.9518 94.2235 88.2399 94.1045 88.455 93.8663C88.5779 93.728 88.6649 93.568 88.7162 93.3862H89.396C89.3781 93.5373 89.3179 93.7063 89.2155 93.8932C89.1156 94.0776 89.0029 94.2286 88.8775 94.3464C88.6675 94.5513 88.4076 94.6896 88.0978 94.7613C87.9313 94.8022 87.7431 94.8227 87.5331 94.8227C87.021 94.8227 86.587 94.6371 86.2311 94.2658C85.8751 93.8919 85.6972 93.3696 85.6972 92.6987C85.6972 92.038 85.8764 91.5016 86.2349 91.0893C86.5934 90.6771 87.062 90.4709 87.6407 90.4709ZM88.743 92.2915C88.7149 91.9919 88.6496 91.7525 88.5472 91.5733C88.3577 91.2404 88.0414 91.074 87.5984 91.074C87.2809 91.074 87.0146 91.1892 86.7995 91.4196C86.5844 91.6475 86.4705 91.9382 86.4577 92.2915H88.743ZM90.3063 89.0152H90.9977V91.12C91.1616 90.9126 91.3088 90.7667 91.4394 90.6822C91.6622 90.5362 91.94 90.4632 92.2729 90.4632C92.8695 90.4632 93.2741 90.6719 93.4866 91.0893C93.6018 91.3172 93.6594 91.6335 93.6594 92.038V94.6768H92.9489V92.0841C92.9489 91.782 92.9105 91.5605 92.8336 91.4196C92.7082 91.1943 92.4726 91.0816 92.1269 91.0816C91.8401 91.0816 91.5802 91.1802 91.3472 91.3774C91.1142 91.5746 90.9977 91.9471 90.9977 92.4951V94.6768H90.3063V89.0152ZM94.7042 90.5631H95.361V91.2737C95.4148 91.1354 95.5466 90.9677 95.7566 90.7705C95.9666 90.5708 96.2086 90.4709 96.4825 90.4709C96.4953 90.4709 96.5171 90.4722 96.5478 90.4748C96.5786 90.4773 96.6311 90.4824 96.7053 90.4901V91.2199C96.6643 91.2122 96.6259 91.2071 96.5901 91.2045C96.5568 91.202 96.5197 91.2007 96.4787 91.2007C96.1305 91.2007 95.8629 91.3134 95.6759 91.5387C95.489 91.7615 95.3956 92.0188 95.3956 92.3107V94.6768H94.7042V90.5631ZM100.946 90.4901C101.268 90.4901 101.55 90.5695 101.791 90.7283C101.921 90.8179 102.054 90.9485 102.19 91.12V90.6015H102.828V94.3426C102.828 94.865 102.751 95.2772 102.597 95.5794C102.311 96.1376 101.769 96.4167 100.973 96.4167C100.53 96.4167 100.157 96.3168 99.8549 96.1171C99.5527 95.9199 99.3837 95.6101 99.3479 95.1876H100.051C100.084 95.372 100.151 95.5141 100.251 95.6139C100.407 95.7676 100.653 95.8444 100.988 95.8444C101.518 95.8444 101.865 95.6575 102.029 95.2836C102.126 95.0634 102.171 94.6704 102.163 94.1045C102.025 94.3144 101.859 94.4706 101.664 94.5731C101.469 94.6755 101.212 94.7267 100.892 94.7267C100.446 94.7267 100.056 94.5692 99.7205 94.2543C99.3876 93.9367 99.2211 93.4131 99.2211 92.6833C99.2211 91.9945 99.3889 91.4568 99.7243 91.0701C100.062 90.6835 100.469 90.4901 100.946 90.4901ZM102.19 92.6026C102.19 92.0931 102.085 91.7154 101.875 91.4696C101.665 91.2238 101.398 91.1008 101.072 91.1008C100.586 91.1008 100.253 91.3287 100.074 91.7845C99.9791 92.0278 99.9317 92.3466 99.9317 92.7409C99.9317 93.2044 100.025 93.5578 100.212 93.801C100.402 94.0417 100.655 94.1621 100.973 94.1621C101.469 94.1621 101.819 93.938 102.021 93.4899C102.134 93.2364 102.19 92.9407 102.19 92.6026ZM104.564 90.5631V93.294C104.564 93.504 104.597 93.6756 104.664 93.8087C104.787 94.0545 105.016 94.1774 105.351 94.1774C105.833 94.1774 106.16 93.9623 106.335 93.5322C106.429 93.3017 106.477 92.9855 106.477 92.5834V90.5631H107.168V94.6768H106.515L106.523 94.0699C106.433 94.2261 106.322 94.358 106.189 94.4655C105.925 94.6806 105.605 94.7881 105.228 94.7881C104.642 94.7881 104.243 94.5923 104.03 94.2005C103.915 93.9905 103.857 93.7101 103.857 93.3593V90.5631H104.564ZM108.389 89.4147H109.089V90.5631H109.745V91.1277H109.089V93.8125C109.089 93.9559 109.137 94.052 109.234 94.1006C109.288 94.1288 109.378 94.1429 109.503 94.1429C109.537 94.1429 109.572 94.1429 109.611 94.1429C109.649 94.1403 109.694 94.1365 109.745 94.1313V94.6768C109.666 94.6998 109.583 94.7164 109.496 94.7267C109.411 94.7369 109.319 94.7421 109.219 94.7421C108.896 94.7421 108.678 94.6601 108.562 94.4962C108.447 94.3298 108.389 94.1147 108.389 93.851V91.1277H107.833V90.5631H108.389V89.4147Z" fill="black"/>
<path d="M95.186 102.255C99.9925 102.255 103.89 106.151 103.89 110.958C103.89 115.765 99.9925 119.662 95.186 119.662C90.3793 119.662 86.4829 115.765 86.4829 110.958C86.4829 106.151 90.3793 102.255 95.186 102.255ZM95.1147 105.446C92.0857 105.446 89.6304 107.901 89.6304 110.93C89.6306 113.959 92.0858 116.414 95.1147 116.414C98.143 116.414 100.598 113.959 100.598 110.93C100.598 107.902 98.1431 105.446 95.1147 105.446ZM96.4614 107.189C97.3631 107.189 98.5767 107.554 98.5767 108.646C98.5765 110.605 95.5072 111.264 93.9985 111.645C93.9465 111.974 93.895 112.304 93.895 112.634C93.895 113.309 94.2588 113.934 95.0044 113.934C95.9755 113.934 96.7557 112.998 97.3276 112.304L97.7612 112.634C96.9637 113.812 95.8543 114.887 94.3638 114.887C92.7857 114.887 91.8668 113.9 91.8667 112.304C91.8667 109.721 93.7738 107.189 96.4614 107.189ZM96.2876 107.71C95.0395 107.71 94.3975 110.137 94.1548 111.091C95.3162 110.744 96.929 109.791 96.9292 108.421C96.9292 108.022 96.7038 107.71 96.2876 107.71Z" fill="black"/>
</g>
</g>
<path d="M20 0.5H165C175.77 0.5 184.5 9.23045 184.5 20V165.201C184.5 175.971 175.77 184.701 165 184.701H20C9.23045 184.701 0.5 175.971 0.5 165.201V20C0.50001 9.23046 9.23046 0.5 20 0.5Z" stroke="black" stroke-opacity="0.1"/>
<defs>
<filter id="filter0_dd_2912_15295" x="-95.2839" y="53.5751" width="141.079" height="81.8601" filterUnits="userSpaceOnUse" color-interpolation-filters="sRGB">
<feFlood flood-opacity="0" result="BackgroundImageFix"/>
<feColorMatrix in="SourceAlpha" type="matrix" values="0 0 0 0 0 0 0 0 0 0 0 0 0 0 0 0 0 0 127 0" result="hardAlpha"/>
<feOffset dy="1.67346"/>
<feGaussianBlur stdDeviation="1.67346"/>
<feComposite in2="hardAlpha" operator="out"/>
<feColorMatrix type="matrix" values="0 0 0 0 0 0 0 0 0 0.215686 0 0 0 0 0.380392 0 0 0 0.1 0"/>
<feBlend mode="normal" in2="BackgroundImageFix" result="effect1_dropShadow_2912_15295"/>
<feColorMatrix in="SourceAlpha" type="matrix" values="0 0 0 0 0 0 0 0 0 0 0 0 0 0 0 0 0 0 127 0" result="hardAlpha"/>
<feMorphology radius="0.836731" operator="erode" in="SourceAlpha" result="effect2_dropShadow_2912_15295"/>
<feOffset dy="0.836731"/>
<feGaussianBlur stdDeviation="0.836731"/>
<feComposite in2="hardAlpha" operator="out"/>
<feColorMatrix type="matrix" values="0 0 0 0 0 0 0 0 0 0.215686 0 0 0 0 0.380392 0 0 0 0.1 0"/>
<feBlend mode="normal" in2="effect1_dropShadow_2912_15295" result="effect2_dropShadow_2912_15295"/>
<feBlend mode="normal" in="SourceGraphic" in2="effect2_dropShadow_2912_15295" result="shape"/>
</filter>
<filter id="filter1_dd_2912_15295" x="144.614" y="53.2274" width="141.079" height="81.8601" filterUnits="userSpaceOnUse" color-interpolation-filters="sRGB">
<feFlood flood-opacity="0" result="BackgroundImageFix"/>
<feColorMatrix in="SourceAlpha" type="matrix" values="0 0 0 0 0 0 0 0 0 0 0 0 0 0 0 0 0 0 127 0" result="hardAlpha"/>
<feOffset dy="1.67346"/>
<feGaussianBlur stdDeviation="1.67346"/>
<feComposite in2="hardAlpha" operator="out"/>
<feColorMatrix type="matrix" values="0 0 0 0 0 0 0 0 0 0.215686 0 0 0 0 0.380392 0 0 0 0.1 0"/>
<feBlend mode="normal" in2="BackgroundImageFix" result="effect1_dropShadow_2912_15295"/>
<feColorMatrix in="SourceAlpha" type="matrix" values="0 0 0 0 0 0 0 0 0 0 0 0 0 0 0 0 0 0 127 0" result="hardAlpha"/>
<feMorphology radius="0.836731" operator="erode" in="SourceAlpha" result="effect2_dropShadow_2912_15295"/>
<feOffset dy="0.836731"/>
<feGaussianBlur stdDeviation="0.836731"/>
<feComposite in2="hardAlpha" operator="out"/>
<feColorMatrix type="matrix" values="0 0 0 0 0 0 0 0 0 0.215686 0 0 0 0 0.380392 0 0 0 0.1 0"/>
<feBlend mode="normal" in2="effect1_dropShadow_2912_15295" result="effect2_dropShadow_2912_15295"/>
<feBlend mode="normal" in="SourceGraphic" in2="effect2_dropShadow_2912_15295" result="shape"/>
</filter>
<filter id="filter2_dd_2912_15295" x="53.0381" y="54.4639" width="83.6836" height="78.6624" filterUnits="userSpaceOnUse" color-interpolation-filters="sRGB">
<feFlood flood-opacity="0" result="BackgroundImageFix"/>
<feColorMatrix in="SourceAlpha" type="matrix" values="0 0 0 0 0 0 0 0 0 0 0 0 0 0 0 0 0 0 127 0" result="hardAlpha"/>
<feOffset dy="0.874028"/>
<feGaussianBlur stdDeviation="0.874028"/>
<feComposite in2="hardAlpha" operator="out"/>
<feColorMatrix type="matrix" values="0 0 0 0 0 0 0 0 0 0.215686 0 0 0 0 0.380392 0 0 0 0.1 0"/>
<feBlend mode="normal" in2="BackgroundImageFix" result="effect1_dropShadow_2912_15295"/>
<feColorMatrix in="SourceAlpha" type="matrix" values="0 0 0 0 0 0 0 0 0 0 0 0 0 0 0 0 0 0 127 0" result="hardAlpha"/>
<feMorphology radius="0.437014" operator="erode" in="SourceAlpha" result="effect2_dropShadow_2912_15295"/>
<feOffset dy="0.437014"/>
<feGaussianBlur stdDeviation="0.437014"/>
<feComposite in2="hardAlpha" operator="out"/>
<feColorMatrix type="matrix" values="0 0 0 0 0 0 0 0 0 0.215686 0 0 0 0 0.380392 0 0 0 0.1 0"/>
<feBlend mode="normal" in2="effect1_dropShadow_2912_15295" result="effect2_dropShadow_2912_15295"/>
<feBlend mode="normal" in="SourceGraphic" in2="effect2_dropShadow_2912_15295" result="shape"/>
</filter>
<clipPath id="clip0_2912_15295">
<path d="M0 20C0 8.95432 8.95431 0 20 0H165C176.046 0 185 8.9543 185 20V165.201C185 176.247 176.046 185.201 165 185.201H20C8.9543 185.201 0 176.247 0 165.201V20Z" fill="white"/>
</clipPath>
</defs>
</svg>
