<svg width="80" height="80" viewBox="0 0 80 80" fill="none" xmlns="http://www.w3.org/2000/svg">
<path d="M72.7355 55C74.8313 50.4337 75.9998 45.3533 75.9998 40C75.9998 20.1177 59.882 4 39.9998 4C20.1175 4 3.99976 20.1177 3.99976 40C3.99976 45.3533 5.16822 50.4337 7.26401 55H72.7355Z" fill="#E6F8FB"/>
<path d="M4.65869 55.1914H75.5678" stroke="#333333" stroke-linecap="round" stroke-linejoin="round"/>
<path d="M0.567871 55.1914H2.8406" stroke="#333333" stroke-linecap="round" stroke-linejoin="round"/>
<path d="M76.886 55.1914H79.1587" stroke="#333333" stroke-linecap="round" stroke-linejoin="round"/>
<ellipse opacity="0.15" cx="41.8301" cy="67.5" rx="20" ry="1.5" fill="#45413C"/>
<path d="M63.25 55.2501L22.5109 61.1215L15.75 21.7001L56.8827 15.6001L63.25 55.2501Z" fill="white"/>
<path d="M56.8828 15.5999L15.7986 21.6689L15.0706 17.0975C15.0744 15.7736 14.8205 15.9196 16.1444 15.9157L54.5627 10.1625C55.8866 10.1664 55.8043 9.3465 55.8082 10.6704L56.8828 15.5999Z" fill="#EFEFEF"/>
<path fill-rule="evenodd" clip-rule="evenodd" d="M61.9522 55.458C60.3403 55.7157 24.6571 60.9582 23.336 61.1215C22.7289 61.1215 22.0735 60.7184 21.9566 60.0848C21.8567 59.4684 15.7986 21.6691 15.7986 21.6691L56.8828 15.6001C56.8828 15.6001 62.6974 51.8124 63.0455 53.9764C63.1594 54.8717 62.8572 55.284 61.9522 55.458Z" stroke="#45413C" stroke-linecap="round" stroke-linejoin="round"/>
<path fill-rule="evenodd" clip-rule="evenodd" d="M56.8827 15.6L15.7985 21.669C15.7985 21.669 15.1782 17.521 15.1653 17.4175C14.9759 16.2174 16.0714 15.8597 16.507 15.792C16.9426 15.7244 53.2134 10.3456 54.1983 10.2009C55.7096 9.97902 56.1452 11.0413 56.1452 11.0413L56.8827 15.6Z" stroke="#45413C" stroke-linecap="round" stroke-linejoin="round"/>
<circle cx="18.9091" cy="18.351" r="1.2" transform="rotate(-9 18.9091 18.351)" fill="#EF515A"/>
<circle cx="23.65" cy="17.6" r="1.2" transform="rotate(-9 23.65 17.6)" fill="#FFDC0F"/>
<circle cx="28.3908" cy="16.8491" r="1.2" transform="rotate(-9 28.3908 16.8491)" fill="#75DE8B"/>
<g filter="url(#filter0_dddd_10_8340)">
<path fill-rule="evenodd" clip-rule="evenodd" d="M15.8528 39.0688C15.6578 37.7606 16.5579 36.5412 17.8655 36.3422L27.589 34.8624C28.9029 34.6625 30.129 35.5682 30.3241 36.8828L31.1488 42.4399C31.3429 43.7481 30.4422 44.9668 29.1347 45.1651L19.4141 46.6392C18.1012 46.8383 16.8762 45.9336 16.6805 44.6203L15.8528 39.0688Z" fill="#F5F9FA"/>
<path d="M16.2237 39.0135C16.0592 37.9097 16.8186 36.8808 17.9219 36.7129L27.6455 35.2332C28.754 35.0645 29.7886 35.8287 29.9532 36.9378L30.7779 42.4949C30.9417 43.5987 30.1817 44.627 29.0784 44.7943L19.3578 46.2685C18.2501 46.4365 17.2166 45.6731 17.0514 44.565L16.2237 39.0135Z" stroke="#005AA0" stroke-width="0.75"/>
</g>
<g filter="url(#filter1_dddd_10_8340)">
<path fill-rule="evenodd" clip-rule="evenodd" d="M31.8528 36.5688C31.6578 35.2606 32.5579 34.0412 33.8655 33.8422L43.589 32.3624C44.9029 32.1625 46.129 33.0682 46.3241 34.3828L47.1488 39.9399C47.3429 41.2481 46.4422 42.4668 45.1347 42.6651L35.4141 44.1392C34.1012 44.3383 32.8762 43.4336 32.6805 42.1203L31.8528 36.5688Z" fill="#F5F9FA"/>
<path d="M32.2237 36.5135C32.0592 35.4097 32.8186 34.3808 33.9219 34.2129L43.6455 32.7332C44.754 32.5645 45.7886 33.3287 45.9532 34.4378L46.7779 39.9949C46.9417 41.0987 46.1817 42.127 45.0784 42.2943L35.3578 43.7685C34.2501 43.9365 33.2166 43.1731 33.0514 42.065L32.2237 36.5135Z" stroke="#005AA0" stroke-width="0.75"/>
</g>
<path d="M23.4621 38.1715L24.2805 39.3294C24.3464 39.4225 24.4563 39.4779 24.5742 39.4775L26.0396 39.476C26.1762 39.4757 26.3002 39.5498 26.3595 39.6673C26.4188 39.7847 26.403 39.9251 26.3188 40.0293L25.4145 41.147C25.3421 41.2371 25.3199 41.3551 25.3552 41.4626L25.7931 42.8005C25.8332 42.9242 25.7969 43.06 25.6992 43.1511C25.6015 43.2423 25.4592 43.2734 25.3315 43.2313L23.951 42.7642C23.8401 42.7269 23.7166 42.7443 23.6204 42.8107L22.4257 43.6397C22.3144 43.7147 22.1694 43.7238 22.0506 43.6632C21.9317 43.6026 21.8593 43.4826 21.8633 43.3528L21.9161 41.946C21.9202 41.8327 21.8661 41.7255 21.7714 41.659L20.5919 40.8341C20.4823 40.7573 20.4283 40.6269 20.4528 40.4977C20.4772 40.3685 20.5757 40.263 20.707 40.2255L22.116 39.823C22.2296 39.7911 22.3201 39.7075 22.3576 39.5997L22.8251 38.2611C22.8687 38.1366 22.9819 38.0459 23.117 38.0269C23.2521 38.0079 23.3858 38.0639 23.4621 38.1715Z" fill="#FFDC0F"/>
<path d="M21.8697 43.1018L21.9132 41.9464C21.9172 41.8331 21.8631 41.7259 21.7685 41.6594L20.5919 40.8341C20.4823 40.7573 20.4283 40.6269 20.4528 40.4977C20.4772 40.3685 20.5757 40.263 20.707 40.2255L22.116 39.823C22.2296 39.7911 22.3201 39.7075 22.3576 39.5997L22.8251 38.2611C22.8687 38.1366 22.9819 38.0459 23.117 38.0269C23.2521 38.0079 23.3858 38.0639 23.4621 38.1715L24.2805 39.3294C24.3464 39.4225 24.4563 39.4779 24.5742 39.4775L21.8697 43.1018Z" fill="#FFEE58"/>
<path fill-rule="evenodd" clip-rule="evenodd" d="M23.4621 38.1715L24.2805 39.3294C24.3464 39.4225 24.4563 39.4779 24.5742 39.4775L26.0396 39.476C26.1762 39.4757 26.3002 39.5498 26.3595 39.6673C26.4188 39.7847 26.403 39.9251 26.3188 40.0293L25.4145 41.147C25.3421 41.2371 25.3199 41.3551 25.3552 41.4626L25.7931 42.8005C25.8332 42.9242 25.7969 43.06 25.6992 43.1511C25.6015 43.2423 25.4592 43.2734 25.3315 43.2313L23.951 42.7642C23.8401 42.7269 23.7166 42.7443 23.6204 42.8107L22.4257 43.6397C22.3144 43.7147 22.1694 43.7238 22.0506 43.6632C21.9317 43.6026 21.8593 43.4826 21.8633 43.3528L21.9161 41.946C21.9202 41.8327 21.8661 41.7255 21.7714 41.659L20.5919 40.8341C20.4823 40.7573 20.4283 40.6269 20.4528 40.4977C20.4772 40.3685 20.5757 40.263 20.707 40.2255L22.116 39.823C22.2296 39.7911 22.3201 39.7075 22.3576 39.5997L22.8251 38.2611C22.8687 38.1366 22.9819 38.0459 23.117 38.0269C23.2521 38.0079 23.3858 38.0639 23.4621 38.1715V38.1715Z" stroke="#45413C" stroke-width="0.72404" stroke-linecap="round" stroke-linejoin="round"/>
<path d="M39.4621 35.6715L40.2805 36.8294C40.3464 36.9225 40.4563 36.9779 40.5742 36.9775L42.0396 36.976C42.1762 36.9757 42.3002 37.0498 42.3595 37.1673C42.4188 37.2847 42.403 37.4251 42.3188 37.5293L41.4145 38.647C41.3421 38.7371 41.3199 38.8551 41.3552 38.9626L41.7931 40.3005C41.8332 40.4242 41.7969 40.56 41.6992 40.6511C41.6015 40.7423 41.4592 40.7734 41.3315 40.7313L39.951 40.2642C39.8401 40.2269 39.7166 40.2443 39.6204 40.3107L38.4257 41.1397C38.3144 41.2147 38.1694 41.2238 38.0506 41.1632C37.9317 41.1026 37.8593 40.9826 37.8633 40.8528L37.9161 39.446C37.9202 39.3327 37.8661 39.2255 37.7714 39.159L36.5919 38.3341C36.4823 38.2573 36.4283 38.1269 36.4528 37.9977C36.4772 37.8685 36.5757 37.763 36.707 37.7255L38.116 37.323C38.2296 37.2911 38.3201 37.2075 38.3576 37.0997L38.8251 35.7611C38.8687 35.6366 38.9819 35.5459 39.117 35.5269C39.2521 35.5079 39.3858 35.5639 39.4621 35.6715Z" fill="#FFDC0F"/>
<path d="M37.8697 40.6018L37.9132 39.4464C37.9172 39.3331 37.8631 39.2259 37.7685 39.1594L36.5919 38.3341C36.4823 38.2573 36.4283 38.1269 36.4528 37.9977C36.4772 37.8685 36.5757 37.763 36.707 37.7255L38.116 37.323C38.2296 37.2911 38.3201 37.2075 38.3576 37.0997L38.8251 35.7611C38.8687 35.6366 38.9819 35.5459 39.117 35.5269C39.2521 35.5079 39.3858 35.5639 39.4621 35.6715L40.2805 36.8294C40.3464 36.9225 40.4563 36.9779 40.5742 36.9775L37.8697 40.6018Z" fill="#FFEE58"/>
<path fill-rule="evenodd" clip-rule="evenodd" d="M39.4621 35.6715L40.2805 36.8294C40.3464 36.9225 40.4563 36.9779 40.5742 36.9775L42.0396 36.976C42.1762 36.9757 42.3002 37.0498 42.3595 37.1673C42.4188 37.2847 42.403 37.4251 42.3188 37.5293L41.4145 38.647C41.3421 38.7371 41.3199 38.8551 41.3552 38.9626L41.7931 40.3005C41.8332 40.4242 41.7969 40.56 41.6992 40.6511C41.6015 40.7423 41.4592 40.7734 41.3315 40.7313L39.951 40.2642C39.8401 40.2269 39.7166 40.2443 39.6204 40.3107L38.4257 41.1397C38.3144 41.2147 38.1694 41.2238 38.0506 41.1632C37.9317 41.1026 37.8593 40.9826 37.8633 40.8528L37.9161 39.446C37.9202 39.3327 37.8661 39.2255 37.7714 39.159L36.5919 38.3341C36.4823 38.2573 36.4283 38.1269 36.4528 37.9977C36.4772 37.8685 36.5757 37.763 36.707 37.7255L38.116 37.323C38.2296 37.2911 38.3201 37.2075 38.3576 37.0997L38.8251 35.7611C38.8687 35.6366 38.9819 35.5459 39.117 35.5269C39.2521 35.5079 39.3858 35.5639 39.4621 35.6715V35.6715Z" stroke="#45413C" stroke-width="0.72404" stroke-linecap="round" stroke-linejoin="round"/>
<g filter="url(#filter2_dddd_10_8340)">
<path fill-rule="evenodd" clip-rule="evenodd" d="M47.8528 34.0688C47.6578 32.7606 48.5579 31.5412 49.8655 31.3422L59.589 29.8624C60.9029 29.6625 62.129 30.5682 62.3241 31.8828L63.1488 37.4399C63.3429 38.7481 62.4422 39.9668 61.1347 40.1651L51.4141 41.6392C50.1012 41.8383 48.8762 40.9336 48.6805 39.6203L47.8528 34.0688Z" fill="#F5F9FA"/>
<path d="M48.2237 34.0135C48.0592 32.9097 48.8186 31.8808 49.9219 31.7129L59.6455 30.2332C60.754 30.0645 61.7886 30.8287 61.9532 31.9378L62.7779 37.4949C62.9417 38.5987 62.1817 39.627 61.0784 39.7943L51.3578 41.2685C50.2501 41.4365 49.2166 40.6731 49.0514 39.565L48.2237 34.0135Z" stroke="#005AA0" stroke-width="0.75"/>
</g>
<path d="M55.4621 33.1715L56.2805 34.3294C56.3464 34.4225 56.4563 34.4779 56.5742 34.4775L58.0396 34.476C58.1762 34.4757 58.3002 34.5498 58.3595 34.6673C58.4188 34.7847 58.403 34.9251 58.3188 35.0293L57.4145 36.147C57.3421 36.2371 57.3199 36.3551 57.3552 36.4626L57.7931 37.8005C57.8332 37.9242 57.7969 38.06 57.6992 38.1511C57.6015 38.2423 57.4592 38.2734 57.3315 38.2313L55.951 37.7642C55.8401 37.7269 55.7166 37.7443 55.6204 37.8107L54.4257 38.6397C54.3144 38.7147 54.1694 38.7238 54.0506 38.6632C53.9317 38.6026 53.8593 38.4826 53.8633 38.3528L53.9161 36.946C53.9202 36.8327 53.8661 36.7255 53.7714 36.659L52.5919 35.8341C52.4823 35.7573 52.4283 35.6269 52.4528 35.4977C52.4772 35.3685 52.5757 35.263 52.707 35.2255L54.116 34.823C54.2296 34.7911 54.3201 34.7075 54.3576 34.5997L54.8251 33.2611C54.8687 33.1366 54.9819 33.0459 55.117 33.0269C55.2521 33.0079 55.3858 33.0639 55.4621 33.1715Z" fill="#FFDC0F"/>
<path d="M53.8697 38.1018L53.9132 36.9464C53.9172 36.8331 53.8631 36.7259 53.7685 36.6594L52.5919 35.8341C52.4823 35.7573 52.4283 35.6269 52.4528 35.4977C52.4772 35.3685 52.5757 35.263 52.707 35.2255L54.116 34.823C54.2296 34.7911 54.3201 34.7075 54.3576 34.5997L54.8251 33.2611C54.8687 33.1366 54.9819 33.0459 55.117 33.0269C55.2521 33.0079 55.3858 33.0639 55.4621 33.1715L56.2805 34.3294C56.3464 34.4225 56.4563 34.4779 56.5742 34.4775L53.8697 38.1018Z" fill="#FFEE58"/>
<path fill-rule="evenodd" clip-rule="evenodd" d="M55.4621 33.1715L56.2805 34.3294C56.3464 34.4225 56.4563 34.4779 56.5742 34.4775L58.0396 34.476C58.1762 34.4757 58.3002 34.5498 58.3595 34.6673C58.4188 34.7847 58.403 34.9251 58.3188 35.0293L57.4145 36.147C57.3421 36.2371 57.3199 36.3551 57.3552 36.4626L57.7931 37.8005C57.8332 37.9242 57.7969 38.06 57.6992 38.1511C57.6015 38.2423 57.4592 38.2734 57.3315 38.2313L55.951 37.7642C55.8401 37.7269 55.7166 37.7443 55.6204 37.8107L54.4257 38.6397C54.3144 38.7147 54.1694 38.7238 54.0506 38.6632C53.9317 38.6026 53.8593 38.4826 53.8633 38.3528L53.9161 36.946C53.9202 36.8327 53.8661 36.7255 53.7714 36.659L52.5919 35.8341C52.4823 35.7573 52.4283 35.6269 52.4528 35.4977C52.4772 35.3685 52.5757 35.263 52.707 35.2255L54.116 34.823C54.2296 34.7911 54.3201 34.7075 54.3576 34.5997L54.8251 33.2611C54.8687 33.1366 54.9819 33.0459 55.117 33.0269C55.2521 33.0079 55.3858 33.0639 55.4621 33.1715V33.1715Z" stroke="#45413C" stroke-width="0.72404" stroke-linecap="round" stroke-linejoin="round"/>
<path d="M65.4939 35.8491L66.7408 34.1329" stroke="#005AA0" stroke-width="0.875" stroke-linecap="round"/>
<path d="M66.7406 34.133L65.0244 32.8861" stroke="#005AA0" stroke-width="0.75" stroke-linecap="round"/>
<path d="M13.5339 41.1603L12.2572 42.8544" stroke="#005AA0" stroke-width="0.75" stroke-linecap="round"/>
<path d="M12.2572 42.8544L13.9514 44.131" stroke="#005AA0" stroke-width="0.75" stroke-linecap="round"/>
<path fill-rule="evenodd" clip-rule="evenodd" d="M23.5946 55.487C23.459 54.6583 24.0302 53.8797 24.8614 53.7601L48.0741 50.4221C48.8935 50.3043 49.6534 50.8725 49.7721 51.6917L50.0437 53.5659C50.1626 54.3859 49.5941 55.147 48.7741 55.2656L25.5988 58.6191C24.7896 58.7362 24.0357 58.1836 23.9037 57.3767L23.5946 55.487Z" fill="#CCCCCC"/>
<path fill-rule="evenodd" clip-rule="evenodd" d="M22.5972 49.405C22.4529 48.5716 23.0258 47.7837 23.8631 47.6641L57.9481 42.7953C58.766 42.6784 59.5244 43.245 59.6443 44.0624L59.9192 45.9358C60.0398 46.7573 59.4701 47.5204 58.6482 47.6384L24.6152 52.5214C23.8119 52.6367 23.0626 52.0922 22.9241 51.2926L22.5972 49.405Z" fill="#CCCCCC"/>
<path fill-rule="evenodd" clip-rule="evenodd" d="M18.0972 24.905C17.9529 24.0716 18.5258 23.2837 19.3631 23.1641L53.4481 18.2953C54.266 18.1784 55.0244 18.745 55.1443 19.5624L55.4192 21.4358C55.5398 22.2573 54.9701 23.0204 54.1482 23.1384L20.1152 28.0214C19.3119 28.1367 18.5626 27.5922 18.4241 26.7926L18.0972 24.905Z" fill="#CCCCCC"/>
<path fill-rule="evenodd" clip-rule="evenodd" d="M19.5926 31.0489C19.4638 30.2242 20.0329 29.4531 20.8589 29.333L35.6706 27.1803C36.4914 27.061 37.2533 27.6305 37.3711 28.4516L37.6402 30.3268C37.7576 31.145 37.191 31.904 36.3731 32.024L21.5877 34.1925C20.7734 34.3119 20.0149 33.753 19.8879 32.9398L19.5926 31.0489Z" fill="#CCCCCC"/>
<path fill-rule="evenodd" clip-rule="evenodd" d="M38.0926 28.0489C37.9638 27.2242 38.5329 26.4531 39.3589 26.333L54.1706 24.1803C54.9914 24.061 55.7533 24.6305 55.8711 25.4516L56.1402 27.3268C56.2576 28.145 55.691 28.904 54.8731 29.024L40.0877 31.1925C39.2734 31.3119 38.5149 30.753 38.3879 29.9398L38.0926 28.0489Z" fill="#CCCCCC"/>
<defs>
<filter id="filter0_dddd_10_8340" x="12.3263" y="32.335" width="22.3489" height="18.8315" filterUnits="userSpaceOnUse" color-interpolation-filters="sRGB">
<feFlood flood-opacity="0" result="BackgroundImageFix"/>
<feColorMatrix in="SourceAlpha" type="matrix" values="0 0 0 0 0 0 0 0 0 0 0 0 0 0 0 0 0 0 127 0" result="hardAlpha"/>
<feOffset/>
<feColorMatrix type="matrix" values="0 0 0 0 0 0 0 0 0 0 0 0 0 0 0 0 0 0 0.0431373 0"/>
<feBlend mode="normal" in2="BackgroundImageFix" result="effect1_dropShadow_10_8340"/>
<feColorMatrix in="SourceAlpha" type="matrix" values="0 0 0 0 0 0 0 0 0 0 0 0 0 0 0 0 0 0 127 0" result="hardAlpha"/>
<feOffset/>
<feGaussianBlur stdDeviation="0.25"/>
<feColorMatrix type="matrix" values="0 0 0 0 0 0 0 0 0 0 0 0 0 0 0 0 0 0 0.0588235 0"/>
<feBlend mode="normal" in2="effect1_dropShadow_10_8340" result="effect2_dropShadow_10_8340"/>
<feColorMatrix in="SourceAlpha" type="matrix" values="0 0 0 0 0 0 0 0 0 0 0 0 0 0 0 0 0 0 127 0" result="hardAlpha"/>
<feOffset dy="0.5"/>
<feGaussianBlur stdDeviation="0.5"/>
<feColorMatrix type="matrix" values="0 0 0 0 0 0 0 0 0 0 0 0 0 0 0 0 0 0 0.0823529 0"/>
<feBlend mode="normal" in2="effect2_dropShadow_10_8340" result="effect3_dropShadow_10_8340"/>
<feColorMatrix in="SourceAlpha" type="matrix" values="0 0 0 0 0 0 0 0 0 0 0 0 0 0 0 0 0 0 127 0" result="hardAlpha"/>
<feOffset dy="1"/>
<feGaussianBlur stdDeviation="1.75"/>
<feColorMatrix type="matrix" values="0 0 0 0 0 0 0 0 0 0 0 0 0 0 0 0 0 0 0.141176 0"/>
<feBlend mode="normal" in2="effect3_dropShadow_10_8340" result="effect4_dropShadow_10_8340"/>
<feBlend mode="normal" in="SourceGraphic" in2="effect4_dropShadow_10_8340" result="shape"/>
</filter>
<filter id="filter1_dddd_10_8340" x="28.3263" y="29.835" width="22.3489" height="18.8315" filterUnits="userSpaceOnUse" color-interpolation-filters="sRGB">
<feFlood flood-opacity="0" result="BackgroundImageFix"/>
<feColorMatrix in="SourceAlpha" type="matrix" values="0 0 0 0 0 0 0 0 0 0 0 0 0 0 0 0 0 0 127 0" result="hardAlpha"/>
<feOffset/>
<feColorMatrix type="matrix" values="0 0 0 0 0 0 0 0 0 0 0 0 0 0 0 0 0 0 0.0431373 0"/>
<feBlend mode="normal" in2="BackgroundImageFix" result="effect1_dropShadow_10_8340"/>
<feColorMatrix in="SourceAlpha" type="matrix" values="0 0 0 0 0 0 0 0 0 0 0 0 0 0 0 0 0 0 127 0" result="hardAlpha"/>
<feOffset/>
<feGaussianBlur stdDeviation="0.25"/>
<feColorMatrix type="matrix" values="0 0 0 0 0 0 0 0 0 0 0 0 0 0 0 0 0 0 0.0588235 0"/>
<feBlend mode="normal" in2="effect1_dropShadow_10_8340" result="effect2_dropShadow_10_8340"/>
<feColorMatrix in="SourceAlpha" type="matrix" values="0 0 0 0 0 0 0 0 0 0 0 0 0 0 0 0 0 0 127 0" result="hardAlpha"/>
<feOffset dy="0.5"/>
<feGaussianBlur stdDeviation="0.5"/>
<feColorMatrix type="matrix" values="0 0 0 0 0 0 0 0 0 0 0 0 0 0 0 0 0 0 0.0823529 0"/>
<feBlend mode="normal" in2="effect2_dropShadow_10_8340" result="effect3_dropShadow_10_8340"/>
<feColorMatrix in="SourceAlpha" type="matrix" values="0 0 0 0 0 0 0 0 0 0 0 0 0 0 0 0 0 0 127 0" result="hardAlpha"/>
<feOffset dy="1"/>
<feGaussianBlur stdDeviation="1.75"/>
<feColorMatrix type="matrix" values="0 0 0 0 0 0 0 0 0 0 0 0 0 0 0 0 0 0 0.141176 0"/>
<feBlend mode="normal" in2="effect3_dropShadow_10_8340" result="effect4_dropShadow_10_8340"/>
<feBlend mode="normal" in="SourceGraphic" in2="effect4_dropShadow_10_8340" result="shape"/>
</filter>
<filter id="filter2_dddd_10_8340" x="44.3263" y="27.335" width="22.3489" height="18.8315" filterUnits="userSpaceOnUse" color-interpolation-filters="sRGB">
<feFlood flood-opacity="0" result="BackgroundImageFix"/>
<feColorMatrix in="SourceAlpha" type="matrix" values="0 0 0 0 0 0 0 0 0 0 0 0 0 0 0 0 0 0 127 0" result="hardAlpha"/>
<feOffset/>
<feColorMatrix type="matrix" values="0 0 0 0 0 0 0 0 0 0 0 0 0 0 0 0 0 0 0.0431373 0"/>
<feBlend mode="normal" in2="BackgroundImageFix" result="effect1_dropShadow_10_8340"/>
<feColorMatrix in="SourceAlpha" type="matrix" values="0 0 0 0 0 0 0 0 0 0 0 0 0 0 0 0 0 0 127 0" result="hardAlpha"/>
<feOffset/>
<feGaussianBlur stdDeviation="0.25"/>
<feColorMatrix type="matrix" values="0 0 0 0 0 0 0 0 0 0 0 0 0 0 0 0 0 0 0.0588235 0"/>
<feBlend mode="normal" in2="effect1_dropShadow_10_8340" result="effect2_dropShadow_10_8340"/>
<feColorMatrix in="SourceAlpha" type="matrix" values="0 0 0 0 0 0 0 0 0 0 0 0 0 0 0 0 0 0 127 0" result="hardAlpha"/>
<feOffset dy="0.5"/>
<feGaussianBlur stdDeviation="0.5"/>
<feColorMatrix type="matrix" values="0 0 0 0 0 0 0 0 0 0 0 0 0 0 0 0 0 0 0.0823529 0"/>
<feBlend mode="normal" in2="effect2_dropShadow_10_8340" result="effect3_dropShadow_10_8340"/>
<feColorMatrix in="SourceAlpha" type="matrix" values="0 0 0 0 0 0 0 0 0 0 0 0 0 0 0 0 0 0 127 0" result="hardAlpha"/>
<feOffset dy="1"/>
<feGaussianBlur stdDeviation="1.75"/>
<feColorMatrix type="matrix" values="0 0 0 0 0 0 0 0 0 0 0 0 0 0 0 0 0 0 0.141176 0"/>
<feBlend mode="normal" in2="effect3_dropShadow_10_8340" result="effect4_dropShadow_10_8340"/>
<feBlend mode="normal" in="SourceGraphic" in2="effect4_dropShadow_10_8340" result="shape"/>
</filter>
</defs>
</svg>
