<svg width="636" height="90" fill="none" xmlns="http://www.w3.org/2000/svg">
  <g clip-path="url(#checkout-service-widget-en_svg__a)">
    <rect width="632.4" height="86.4" x="2" y="2" fill="#fff" rx="9.6"/>
    <path fill="url(#checkout-service-widget-en_svg__b)" fill-rule="evenodd" d="M45.2 16.4C61.103 16.4 74 29.33 74 45.273c-1.513 38.303-56.087 38.303-57.6 0C16.4 29.33 29.297 16.4 45.2 16.4Zm.233 10.81c-23.913.953-23.932 35.231 0 36.184 9.968 0 18.056-8.108 18.056-18.102 0-9.993-8.107-18.082-18.056-18.082Z" clip-rule="evenodd"/>
    <path fill="url(#checkout-service-widget-en_svg__c)" fill-rule="evenodd" d="M63.47 45.312c0 9.994-8.088 18.101-18.056 18.101-23.933-.952-23.913-35.23 0-36.183 9.968-.02 18.055 8.088 18.055 18.082Z" clip-rule="evenodd"/>
    <path fill="#fff" fill-rule="evenodd" d="m64.342 38.638 1.881-.583c.116.758.601 1.633 1.183 1.944.756.486 2.153.04 2.424-.855.388-.739-.368-2.683-.698-3.305l-5.159 1.613.369 1.186Zm4.325-1.36c.31.563.446 1.438-.291 1.652-.698.253-1.183-.467-1.26-1.166l1.55-.487Zm-6.73-3.267c.892 1.341 2.386 1.633 3.898.642 3.142-2.061.155-6.475-3.006-4.336-1.3.875-1.803 2.352-.892 3.694Zm1.629-2.625c.892-.583 1.823-.622 2.288.078 1.009 1.458-2.172 3.539-3.083 2.06-.446-.699-.097-1.535.795-2.138Zm-6.477-2.566 1.454-1.79 1.59 1.284-1.454 1.789.97.778 3.432-4.258-.95-.797-1.319 1.652-1.59-1.283 1.319-1.653-.97-.777-3.433 4.277.95.778ZM52.9 26.584c1.376.602 2.326.155 2.695-.68.31-.72.097-1.362-.66-2.062-.543-.525-.756-.797-.62-1.108.116-.253.446-.389.95-.175.485.214.795.505.95.7l.64-.797c-.93-1.07-3.102-1.614-3.723-.117-.31.739.039 1.439.737 2.1.523.467.679.758.543 1.07-.369.855-1.862-.215-2.153-.662l-.64.836c.194.234.698.642 1.28.895Zm-5.625-6.514c-.756-.72-2.812-.7-3.898-.525l-.097 5.386c1.105.194 3.122.194 3.956-.564 1.125-.855 1.319-3.402.039-4.297Zm-2.327 3.986c-.155 0-.33 0-.427-.039l.058-3.597c1.203-.214 2.328.311 2.27 1.73-.02 1.342-.776 1.945-1.901 1.906Zm-3.026 1.108-.252-.991-2.172.564-.33-1.264 1.96-.506-.253-.972-1.959.506-.29-1.109 2.075-.544-.253-.992-3.258.856 1.358 5.327 3.374-.875Zm-9.037-1.341 2.114 3.908 1.086-.603-2.114-3.908 1.319-.72-.505-.913-3.704 2.022.505.914 1.299-.7Zm-3.123 4.997c.64-.273.97-.311 1.203-.059.62.7-.95 1.614-1.474 1.711l.504.914c.35-.078.912-.37 1.377-.797 1.105-1.011 1.105-2.061.485-2.741-.524-.564-1.183-.642-2.153-.253-.717.291-1.028.37-1.28.116-.523-.602.834-1.438 1.241-1.516l-.465-.914c-1.358.408-2.735 2.178-1.63 3.364.524.583 1.3.544 2.192.175Zm-1.668 5.774c.757-1.205.524-2.372-.892-3.266l-2.599-1.633-.659 1.05 2.657 1.672c.834.525 1.028 1.069.679 1.613-.33.525-.931.584-1.746.078l-2.657-1.672-.659 1.05 2.58 1.633c1.493.914 2.56.642 3.296-.525Zm-2.521 5.658-2.075-.602.097-.35c.155-.487.388-.662 1.086-.623.698.04 1.144.02 1.338 0l.35-1.225c-.233.04-.97 0-1.61 0-.524 0-.931.098-1.183.428h-.02c-.039-1.05-1.338-1.789-2.269-1.128-.737.448-1.144 2.392-1.26 3.209l5.197 1.497.35-1.206Zm-2.792-1.303-.136.467-1.435-.408c.058-.564.33-1.458 1.086-1.225.465.117.66.564.485 1.166Zm2.21 5.153-4.44-.097.038-1.517-1.028-.02-.116 4.22 1.047.02.039-1.478 4.422.116.038-1.244Zm1.164 15.146.563.914-1.339.836c-1.163-.953-1.415-2.664.136-3.578 1.59-1.05 3.122.214 3.355 1.809l.563-.156c-.369-2.06-2.463-3.48-4.345-2.255-2.21 1.38-1.338 3.733.272 4.977l2.172-1.342-.93-1.497-.447.292Zm6.827 2.839-2.017 2.43c-.756.895-1.474.972-2.075.467-.543-.447-.62-1.186.136-2.08l2.017-2.412-.524-.447-2.017 2.372c-1.067 1.264-.834 2.275 0 2.975.873.739 1.959.778 3.006-.467l1.998-2.372-.524-.466Zm-1.009 5.735.64.292 1.183-1.303 1.707.778-.175 1.75.66.311.543-5.6-.737-.33-3.82 4.102Zm3.957-3.363c-.136.602-.233 1.963-.31 2.605l-1.455-.66c.446-.487 1.377-1.44 1.765-1.945Zm4.674.836a8.898 8.898 0 0 0-1.32-.156l-1.008 5.153.68.136.445-2.256.64.117c.601.136.834.467.854 1.225.019.68.038 1.147.096 1.322l.699.136c-.078-.214-.097-.758-.117-1.516-.02-.564-.174-.992-.543-1.206v-.02c1.028-.077 1.649-1.36 1.028-2.216-.29-.35-.737-.583-1.454-.72Zm.95 1.75c-.117.602-.66.894-1.377.758l-.679-.136.368-1.906c.757-.019 1.92.273 1.688 1.284Zm3.762-1.225-1.745 5.347h.717l.524-1.672 1.881-.02.582 1.672.737-.02-1.881-5.288-.815-.02Zm-.368 3.11c.194-.622.62-1.885.756-2.508h.02c.135.603.62 1.886.834 2.49l-1.61.019Zm7.331-4.14c.33 1.224.756 3.13 1.163 4.257l-.019.02c-.718-.933-2.754-2.742-3.646-3.617l-.737.195 1.319 5.133.62-.156c-.31-1.186-.814-3.247-1.163-4.316l.02-.02c.775.992 2.773 2.742 3.703 3.675l.68-.175-1.32-5.152-.62.155Zm5.197-1.867-.29-.506-3.433 1.886.271.506 1.416-.778 2.27 4.16.6-.33-2.269-4.16 1.435-.778Zm4.131 1.925-1.3-1.42 1.514-1.38-.388-.428-1.513 1.4-1.125-1.244 1.59-1.478-.387-.428-2.114 1.964 3.587 3.908 2.211-2.022-.388-.428-1.687 1.556Zm3.569-3.986-1.61-1.05 1.125-1.73-.485-.292-1.105 1.73-1.416-.914 1.183-1.847-.485-.31-1.552 2.41 4.461 2.897 1.61-2.508-.485-.33-1.241 1.944Zm5.798-16.702c-.058-1.283-.814-2.041-1.745-1.983-.795.039-1.26.68-1.552 1.594-.194.68-.368.934-.717.953-.931.039-.64-1.77-.369-2.236l-1.027-.194c-.156.31-.291.952-.253 1.575.078 1.497.892 2.158 1.804 2.119.776-.039 1.241-.525 1.552-1.497.232-.74.368-1.03.717-1.05.815-.02.582 1.555.369 1.925l1.008.233c.136-.35.233-.797.213-1.439Z" clip-rule="evenodd"/>
    <path fill="#F7E19E" fill-rule="evenodd" d="M23.808 51.67c-.038 1.341-1.978 1.341-2.017 0 .04-1.342 1.979-1.342 2.017 0Z" clip-rule="evenodd"/>
    <path fill="#F1CB53" fill-rule="evenodd" d="M68.531 51.67c-.039 1.341-1.978 1.341-2.017 0 .039-1.342 1.978-1.342 2.017 0Z" clip-rule="evenodd"/>
    <path fill="#006DAD" fill-rule="evenodd" d="M48.865 33.335c3.103 0 5.276 1.478 5.683 3.87.233 1.282-.058 2.41-.446 3.285l-.058.117c-.02.038-.04.077-.058.116l-.059.117c-.058.097-.097.194-.155.272l-.058.097-.058.097-.058.098c-.02.02-.02.039-.04.039l-.057.097-.059.078-.058.077-.038.04-.059.077-.077.117c0 .02-.02.02-.02.039l-.077.097-.078.078c-1.163 1.302-3.025 2.41-5.663 3.441l-.29.117c-1.746.66-3.55 1.127-5.334 1.536l-.563.136-.562.116-.834.175c-.175 4.258.912 6.475 3.336 6.786.213.02.446.039.66.039 1.376 0 2.54-.564 3.451-1.167l.136-.097.136-.097.136-.097.135-.097.194-.137c1.203-.952 2.172-2.08 2.968-3.208l.29-.389 1.32 1.147-.078.098-.175.252c-.097.137-.174.253-.271.39l-.175.252c-1.105 1.556-2.25 2.839-3.82 3.85l-.136.078c-.02.02-.039.02-.078.038l-.136.078a3.598 3.598 0 0 1-.368.214l-.155.078-.155.078c-1.28.66-2.987 1.264-4.965 1.264-.466 0-.95-.04-1.397-.098-3.607-.525-5.643-3.13-5.701-7.35v-.135c-.04-3.889 1.163-7.466 3.607-10.636l.097-.116c2.696-3.461 5.934-5.23 9.91-5.405.039.077.175.058.31.058Zm-1.299 1.886c-.155 0-.33.02-.485.039l-.097.02c-1.687.29-2.909 1.38-3.879 2.682l-.116.156c-.02.02-.039.058-.058.078l-.116.155-.117.156-.116.155-.117.156-.096.155-.097.175-.097.175c-1.125 1.828-1.862 3.928-2.289 6.436 2.521-.447 4.79-1.303 6.575-2.47 2.482-1.633 3.684-3.557 3.588-5.677-.097-1.419-1.087-2.391-2.483-2.391Z" clip-rule="evenodd"/>
    <path fill="#044D73" fill-rule="evenodd" d="M35.056 49.609c-.039-3.947 1.164-7.641 3.646-10.85 2.677-3.46 6.129-5.133 10.085-5.307.155 0 .291-.02.427-.02.814 0 1.57.117 2.23.311-.873-.408-1.9-.622-3.084-.622-.135 0-.29 0-.426.02-3.957.174-7.195 1.944-9.872 5.405-2.482 3.188-3.723 6.824-3.685 10.752.04 3.83 1.59 6.28 4.5 7.155-2.386-1.09-3.802-3.403-3.82-6.844Z" clip-rule="evenodd"/>
    <path fill="#044D73" d="M42.574 54.34c.175.049.359.085.551.11.213.02.446.039.66.039 1.377 0 2.54-.564 3.452-1.167l.543-.389.194-.136c1.202-.952 2.172-2.08 2.967-3.208l.29-.389.437.38c-.834 1.14-2.04 2.488-3.288 3.47l-.168.133c-.968.77-2.082 1.656-3.75 1.656-.213 0-.426-.02-.64-.039-.465-.058-.989-.292-1.357-.486a.945.945 0 0 0 .109.026Zm-1.788-8.76c2.161-.479 4.105-1.264 5.675-2.29 2.482-1.633 3.685-3.558 3.588-5.678-.06-.873-.457-1.577-1.08-1.989a2.093 2.093 0 0 0-.104-.072c1.144.195 1.9 1.109 1.959 2.372.096 2.12-1.106 4.045-3.569 5.678-1.784 1.186-3.995 1.77-6.497 2.216l.028-.237Z"/>
    <path fill="#000" d="M95.028 38.536c-1.728 0-3.049-.47-3.962-1.41-1.225-1.154-1.838-2.817-1.838-4.988 0-2.215.613-3.877 1.838-4.988.913-.94 2.234-1.41 3.962-1.41 1.728 0 3.049.47 3.962 1.41 1.22 1.11 1.83 2.773 1.83 4.988 0 2.171-.61 3.834-1.83 4.987-.913.941-2.234 1.411-3.962 1.411Zm2.387-3.248c.585-.738.878-1.788.878-3.15 0-1.356-.295-2.404-.886-3.142-.585-.744-1.378-1.115-2.379-1.115-1 0-1.8.369-2.395 1.107-.596.738-.894 1.788-.894 3.15 0 1.362.298 2.412.894 3.15.596.738 1.394 1.107 2.395 1.107 1 0 1.797-.369 2.387-1.107Zm9.647-3.872c-.94 0-1.572.306-1.895.919-.18.344-.27.875-.27 1.591V38.2h-2.355v-8.941h2.231v1.558c.361-.596.676-1.003.944-1.222.437-.366 1.006-.55 1.706-.55.044 0 .079.003.107.008.033 0 .101.003.205.009v2.395a6.388 6.388 0 0 0-.673-.041Zm10.188-5.291V38.2h-2.272v-1.239c-.333.53-.714.916-1.14 1.157-.427.24-.957.36-1.591.36-1.045 0-1.925-.42-2.642-1.262-.711-.848-1.066-1.934-1.066-3.257 0-1.526.35-2.726 1.05-3.601.705-.875 1.646-1.313 2.822-1.313.541 0 1.022.12 1.443.361.421.235.763.564 1.026.985v-4.266h2.37Zm-6.3 7.662c0 .825.164 1.485.493 1.977.322.497.814.746 1.476.746s1.165-.246 1.51-.738c.344-.492.516-1.13.516-1.911 0-1.094-.276-1.876-.828-2.347a1.783 1.783 0 0 0-1.181-.426c-.684 0-1.187.26-1.51.78-.317.513-.476 1.153-.476 1.919Zm16.087 1.788c-.06.53-.337 1.07-.829 1.616-.765.87-1.837 1.304-3.215 1.304a4.536 4.536 0 0 1-3.011-1.099c-.869-.733-1.304-1.925-1.304-3.577 0-1.547.391-2.734 1.173-3.56.787-.825 1.807-1.238 3.06-1.238.743 0 1.413.14 2.009.418.596.279 1.089.72 1.477 1.32.35.531.577 1.146.681 1.846.06.41.085 1.001.074 1.772h-6.12c.033.897.315 1.526.845 1.887.323.224.711.336 1.165.336.481 0 .872-.136 1.173-.41.164-.147.309-.352.435-.615h2.387Zm-2.314-2.74c-.038-.618-.226-1.085-.566-1.403-.333-.322-.749-.484-1.246-.484-.542 0-.963.17-1.264.509-.295.34-.481.798-.558 1.378h3.634Zm8.507-1.419c-.941 0-1.572.306-1.895.919-.18.344-.271.875-.271 1.591V38.2h-2.354v-8.941h2.231v1.558c.361-.596.676-1.003.944-1.222.437-.366 1.006-.55 1.706-.55.044 0 .079.003.107.008.032 0 .101.003.205.009v2.395a6.388 6.388 0 0 0-.673-.041Zm13.511 6.784-1.403-6.513-1.419 6.513h-2.428l-2.511-8.941h2.511l1.394 6.414 1.288-6.414h2.371l1.361 6.439 1.395-6.44h2.436l-2.592 8.942h-2.403Zm8.695-8.941V38.2h-2.371v-8.941h2.371Zm0-3.224v2.157h-2.371v-2.157h2.371Zm6.366 10.5v1.747l-1.108.041c-1.105.038-1.859-.153-2.264-.574-.262-.268-.394-.681-.394-1.239v-5.504h-1.247V29.34h1.247v-2.494h2.314v2.494h1.452v1.665h-1.452v4.725c0 .366.046.596.139.689.093.087.377.131.853.131h.222l.238-.016Zm9.581-3.585v5.25h-2.387v-5.439c0-.48-.082-.87-.246-1.165-.214-.415-.618-.623-1.214-.623-.618 0-1.089.208-1.411.623-.318.41-.476.998-.476 1.764v4.84h-2.33V26.15h2.33v4.273c.339-.52.73-.88 1.173-1.082a3.317 3.317 0 0 1 1.411-.312c.552 0 1.053.096 1.501.287a2.63 2.63 0 0 1 1.116.878c.246.333.396.678.451 1.033.054.35.082.925.082 1.723Zm14.601-.484h-2.395a2.083 2.083 0 0 0-.336-.902c-.263-.361-.67-.542-1.222-.542-.788 0-1.327.391-1.617 1.173-.153.416-.229.968-.229 1.657 0 .657.076 1.184.229 1.584.279.743.804 1.115 1.575 1.115.547 0 .936-.148 1.165-.443.23-.295.369-.678.419-1.148h2.387c-.055.71-.312 1.383-.771 2.018-.733 1.022-1.819 1.534-3.257 1.534-1.438 0-2.496-.427-3.175-1.28-.678-.853-1.017-1.96-1.017-3.322 0-1.537.375-2.732 1.124-3.585.749-.853 1.783-1.28 3.101-1.28 1.121 0 2.037.252 2.748.755.716.503 1.14 1.392 1.271 2.666Zm9.073-2.075c.755.946 1.132 2.064 1.132 3.355 0 1.312-.377 2.436-1.132 3.371-.755.93-1.9 1.395-3.437 1.395s-2.682-.465-3.437-1.395c-.755-.935-1.132-2.059-1.132-3.371 0-1.29.377-2.41 1.132-3.355.755-.946 1.9-1.42 3.437-1.42s2.682.474 3.437 1.42Zm-3.445.557c-.684 0-1.212.244-1.583.73-.367.482-.55 1.17-.55 2.068 0 .897.183 1.588.55 2.075.371.487.899.73 1.583.73.683 0 1.208-.243 1.575-.73.366-.487.549-1.178.549-2.075 0-.897-.183-1.586-.549-2.068-.367-.486-.892-.73-1.575-.73Zm10.467.041c-.793 0-1.337.337-1.632 1.01-.154.355-.23.809-.23 1.361v4.84h-2.33v-8.925h2.256v1.304c.301-.46.585-.79.853-.992.481-.361 1.091-.542 1.829-.542.925 0 1.679.244 2.264.73.591.482.886 1.283.886 2.404V38.2h-2.395v-5.439c0-.47-.063-.83-.189-1.083-.229-.459-.667-.689-1.312-.689Zm8.835 7.211h-2.33v-7.21h-1.304v-1.65h1.279v-.574c0-.951.211-1.66.632-2.124.377-.438 1.146-.657 2.305-.657.142 0 .287.006.435.017l.459.033v1.903a6.36 6.36 0 0 0-.32-.008 7.288 7.288 0 0 0-.377-.008c-.366 0-.591.1-.673.303-.082.202-.117.52-.106.952v.164h1.534v1.648h-1.534V38.2Zm5.25-8.9v8.9h-2.33v-8.9h2.33Zm-2.33-1.132v-2.133h2.289v2.133h-2.289Zm12.715-2.043V38.2h-2.272v-1.239c-.334.53-.714.916-1.141 1.157-.426.24-.957.36-1.591.36-1.045 0-1.925-.42-2.641-1.262-.711-.848-1.067-1.934-1.067-3.257 0-1.526.35-2.726 1.05-3.601.706-.875 1.646-1.313 2.822-1.313.541 0 1.023.12 1.444.361.421.235.763.564 1.025.985v-4.266h2.371Zm-6.3 7.662c0 .825.164 1.485.492 1.977.323.497.815.746 1.477.746.661 0 1.164-.246 1.509-.738s.517-1.13.517-1.911c0-1.094-.276-1.876-.829-2.347a1.783 1.783 0 0 0-1.181-.426c-.684 0-1.187.26-1.509.78-.318.513-.476 1.153-.476 1.919Zm16.086 1.788c-.06.53-.336 1.07-.828 1.616-.766.87-1.838 1.304-3.216 1.304a4.533 4.533 0 0 1-3.01-1.099c-.87-.733-1.305-1.925-1.305-3.577 0-1.547.391-2.734 1.173-3.56.788-.825 1.808-1.238 3.06-1.238.744 0 1.414.14 2.01.418.596.279 1.088.72 1.476 1.32.35.531.577 1.146.681 1.846.06.41.085 1.001.074 1.772h-6.119c.032.897.314 1.526.844 1.887.323.224.711.336 1.165.336.482 0 .873-.136 1.173-.41.164-.147.309-.352.435-.615h2.387Zm-2.313-2.74c-.038-.618-.227-1.085-.566-1.403-.334-.322-.749-.484-1.247-.484-.541 0-.962.17-1.263.509-.296.34-.482.798-.558 1.378h3.634Zm8.219-1.846c-.793 0-1.337.337-1.632 1.01-.153.355-.23.809-.23 1.361v4.84h-2.329v-8.925h2.256v1.304c.3-.46.585-.79.853-.992.481-.361 1.091-.542 1.829-.542.924 0 1.679.244 2.264.73.591.482.886 1.283.886 2.404V38.2h-2.395v-5.439c0-.47-.063-.83-.189-1.083-.23-.459-.667-.689-1.313-.689Zm13.798 1.477h-2.395a2.072 2.072 0 0 0-.337-.902c-.262-.361-.669-.542-1.222-.542-.787 0-1.326.391-1.616 1.173-.153.416-.23.968-.23 1.657 0 .657.077 1.184.23 1.584.279.743.804 1.115 1.575 1.115.547 0 .935-.148 1.165-.443.23-.295.369-.678.418-1.148h2.387c-.054.71-.311 1.383-.771 2.018-.732 1.022-1.818 1.534-3.256 1.534-1.439 0-2.497-.427-3.175-1.28-.678-.853-1.017-1.96-1.017-3.322 0-1.537.375-2.732 1.124-3.585.749-.853 1.783-1.28 3.101-1.28 1.121 0 2.037.252 2.748.755.716.503 1.14 1.392 1.271 2.666Zm9.27 3.109c-.061.53-.337 1.07-.829 1.616-.766.87-1.837 1.304-3.216 1.304a4.533 4.533 0 0 1-3.01-1.099c-.87-.733-1.304-1.925-1.304-3.577 0-1.547.391-2.734 1.173-3.56.787-.825 1.807-1.238 3.059-1.238.744 0 1.414.14 2.01.418.596.279 1.089.72 1.477 1.32.35.531.577 1.146.681 1.846.06.41.084 1.001.073 1.772h-6.119c.033.897.314 1.526.845 1.887.323.224.711.336 1.165.336.481 0 .872-.136 1.173-.41.164-.147.309-.352.435-.615h2.387Zm-2.314-2.74c-.038-.618-.227-1.085-.566-1.403-.333-.322-.749-.484-1.247-.484-.541 0-.962.17-1.263.509-.295.34-.481.798-.558 1.378h3.634Zm3.971 2.92h2.485V38.2h-2.485v-2.445Z"/>
    <path fill="#4D4D4D" d="M94.208 56.244c.689 0 1.225-.096 1.608-.287.601-.301.902-.843.902-1.625 0-.787-.32-1.318-.96-1.591-.36-.153-.897-.23-1.608-.23h-2.912v3.733h2.97Zm.55 5.562c1 0 1.714-.29 2.14-.87.268-.367.402-.81.402-1.329 0-.875-.39-1.471-1.173-1.788-.415-.17-.965-.255-1.648-.255h-3.24v4.242h3.518Zm-5.12-10.656h5.177c1.41 0 2.414.42 3.01 1.263.35.498.525 1.072.525 1.723 0 .76-.216 1.383-.648 1.87-.224.257-.546.492-.968.705.618.236 1.08.5 1.387.796.541.525.812 1.25.812 2.174a3.36 3.36 0 0 1-.73 2.108c-.728.94-1.884 1.411-3.47 1.411h-5.094V51.15Zm12.527 3.264v5.833c0 .448.071.815.213 1.1.263.524.752.787 1.469.787 1.028 0 1.728-.46 2.1-1.379.202-.492.303-1.167.303-2.026v-4.315h1.477V63.2h-1.395l.016-1.296a2.976 2.976 0 0 1-.713.845c-.563.46-1.247.689-2.051.689-1.252 0-2.105-.419-2.559-1.255-.246-.449-.37-1.047-.37-1.797v-5.972h1.51Zm13.363 0h1.632c-.208.564-.67 1.849-1.386 3.856-.536 1.51-.985 2.74-1.345 3.691-.854 2.243-1.455 3.61-1.805 4.102-.35.492-.952.738-1.805.738a3.64 3.64 0 0 1-.484-.024 3.894 3.894 0 0 1-.41-.09V65.34c.257.071.443.115.558.131.115.017.216.025.303.025.274 0 .473-.047.599-.14.131-.087.241-.197.328-.328a9.88 9.88 0 0 0 .296-.672c.169-.405.292-.706.369-.903l-3.249-9.04h1.674l2.354 7.154 2.371-7.154Zm6.57-.196c.624 0 1.228.147 1.813.442.586.29 1.031.668 1.337 1.133.296.443.493.96.591 1.55.088.405.131 1.05.131 1.936h-6.439c.027.891.238 1.608.632 2.15.393.535 1.003.803 1.829.803.771 0 1.386-.254 1.846-.763a2.57 2.57 0 0 0 .557-1.025h1.452c-.038.322-.167.683-.385 1.083a3.802 3.802 0 0 1-.722.968c-.449.437-1.004.732-1.665.886a5.066 5.066 0 0 1-1.206.13c-1.094 0-2.021-.396-2.781-1.189-.76-.798-1.14-1.914-1.14-3.347 0-1.41.382-2.556 1.148-3.437.766-.88 1.767-1.32 3.002-1.32Zm2.355 3.888c-.06-.64-.2-1.151-.419-1.534-.404-.711-1.08-1.067-2.026-1.067a2.24 2.24 0 0 0-1.706.739c-.459.486-.703 1.107-.73 1.862h4.881Zm3.379-3.692h1.403v1.518c.115-.295.397-.654.845-1.075.449-.426.965-.64 1.55-.64a12.333 12.333 0 0 1 .476.042v1.558a2.142 2.142 0 0 0-.246-.033 3.1 3.1 0 0 0-.238-.008c-.743 0-1.315.24-1.714.722a2.491 2.491 0 0 0-.599 1.649V63.2h-1.477v-8.786Zm10.582-3.264h5.423c1.072 0 1.936.303 2.592.91.656.602.984 1.45.984 2.543 0 .94-.292 1.761-.877 2.461-.586.695-1.485 1.042-2.699 1.042h-3.79V63.2h-1.633V51.15Zm7.35 3.461c0-.886-.328-1.487-.984-1.804-.361-.17-.856-.255-1.485-.255h-3.248v4.176h3.248c.733 0 1.327-.156 1.78-.468.46-.312.689-.861.689-1.649Zm3.544-.197h1.403v1.518c.115-.295.396-.654.845-1.075.448-.426.965-.64 1.55-.64a13.183 13.183 0 0 1 .476.042v1.558a2.142 2.142 0 0 0-.246-.033 3.1 3.1 0 0 0-.238-.008c-.744 0-1.315.24-1.714.722a2.486 2.486 0 0 0-.599 1.649V63.2h-1.477v-8.786Zm9.04 7.834c.979 0 1.649-.369 2.01-1.107.366-.744.549-1.57.549-2.477 0-.82-.131-1.488-.393-2.002-.416-.81-1.132-1.214-2.15-1.214-.902 0-1.558.345-1.968 1.034-.41.689-.615 1.52-.615 2.493 0 .935.205 1.715.615 2.338.41.624 1.061.935 1.952.935Zm.058-8.088c1.132 0 2.089.378 2.871 1.132.782.755 1.173 1.865 1.173 3.33 0 1.417-.345 2.587-1.034 3.512-.689.924-1.758 1.386-3.207 1.386-1.209 0-2.169-.408-2.88-1.222-.711-.82-1.066-1.92-1.066-3.298 0-1.477.375-2.652 1.124-3.527.749-.875 1.755-1.313 3.019-1.313Zm6.103-2.198h1.493v2.452h1.402v1.206h-1.402v5.734c0 .306.104.512.311.615.115.06.307.09.575.09h.229c.082-.005.178-.013.287-.024V63.2c-.169.05-.347.085-.533.107a5.11 5.11 0 0 1-.59.032c-.69 0-1.157-.175-1.403-.524-.246-.356-.369-.815-.369-1.379V55.62h-1.19v-1.206h1.19v-2.452Zm8.039 2.256c.623 0 1.227.147 1.813.442.585.29 1.03.668 1.337 1.133.295.443.492.96.59 1.55.088.405.132 1.05.132 1.936h-6.44c.027.891.238 1.608.632 2.15.394.535 1.003.803 1.829.803.771 0 1.386-.254 1.846-.763.262-.295.448-.637.558-1.025h1.452c-.039.322-.167.683-.386 1.083a3.78 3.78 0 0 1-.722.968c-.448.437-1.003.732-1.665.886a5.066 5.066 0 0 1-1.206.13c-1.094 0-2.021-.396-2.781-1.189-.76-.798-1.14-1.914-1.14-3.347 0-1.41.383-2.556 1.148-3.437.766-.88 1.767-1.32 3.003-1.32Zm2.354 3.888c-.06-.64-.2-1.151-.418-1.534-.405-.711-1.08-1.067-2.027-1.067-.678 0-1.246.247-1.706.739-.459.486-.703 1.107-.73 1.862h4.881Zm6.727-3.946c.989 0 1.793.24 2.411.722.624.481.998 1.31 1.124 2.486h-1.435c-.088-.542-.288-.99-.599-1.346-.312-.36-.812-.541-1.501-.541-.941 0-1.614.46-2.018 1.378-.263.596-.394 1.332-.394 2.207 0 .88.186 1.621.558 2.223.372.601.957.902 1.755.902.613 0 1.097-.186 1.452-.558.361-.377.61-.891.747-1.542h1.435c-.164 1.165-.574 2.018-1.23 2.56-.657.535-1.496.803-2.519.803-1.148 0-2.064-.418-2.748-1.255-.683-.842-1.025-1.892-1.025-3.15 0-1.542.374-2.742 1.124-3.601.749-.859 1.703-1.288 2.863-1.288Zm5.307-2.198h1.493v2.452h1.403v1.206h-1.403v5.734c0 .306.104.512.312.615.115.06.306.09.574.09h.23c.082-.005.177-.013.287-.024V63.2a3.3 3.3 0 0 1-.534.107 5.11 5.11 0 0 1-.59.032c-.689 0-1.157-.175-1.403-.524-.246-.356-.369-.815-.369-1.379V55.62h-1.189v-1.206h1.189v-2.452Zm4.38 2.493h1.502V63.2h-1.502v-8.745Zm0-3.305h1.502v1.673h-1.502V51.15Zm7.227 11.098c.979 0 1.649-.369 2.01-1.107.367-.744.55-1.57.55-2.477 0-.82-.131-1.488-.394-2.002-.416-.81-1.132-1.214-2.149-1.214-.903 0-1.559.345-1.969 1.034-.41.689-.615 1.52-.615 2.493 0 .935.205 1.715.615 2.338.41.624 1.061.935 1.952.935Zm.058-8.088c1.132 0 2.089.378 2.871 1.132.782.755 1.173 1.865 1.173 3.33 0 1.417-.345 2.587-1.034 3.512-.689.924-1.758 1.386-3.207 1.386-1.209 0-2.168-.408-2.879-1.222-.711-.82-1.067-1.92-1.067-3.298 0-1.477.375-2.652 1.124-3.527.749-.875 1.756-1.313 3.019-1.313Zm5.808.254h1.402v1.247c.416-.514.856-.883 1.321-1.107a3.523 3.523 0 0 1 1.55-.336c1.247 0 2.09.434 2.527 1.304.241.476.361 1.157.361 2.042V63.2h-1.501v-5.537c0-.536-.08-.968-.238-1.296-.263-.547-.738-.82-1.427-.82-.35 0-.638.035-.862.106-.404.12-.76.361-1.066.722-.246.29-.408.59-.484.902-.071.307-.107.747-.107 1.321V63.2h-1.476v-8.786Zm15.159 6.448c0 .427.156.763.468 1.01.311.245.68.368 1.107.368.52 0 1.023-.12 1.509-.36.821-.4 1.231-1.053 1.231-1.961v-1.19c-.181.115-.413.21-.697.287a5.968 5.968 0 0 1-.837.165l-.894.114c-.536.071-.938.183-1.206.337-.454.257-.681.667-.681 1.23Zm3.577-2.986c.339-.044.566-.186.68-.426.066-.132.099-.32.099-.566 0-.504-.181-.867-.542-1.091-.355-.23-.866-.345-1.534-.345-.771 0-1.317.208-1.64.623-.181.23-.298.572-.353 1.026h-1.378c.027-1.083.377-1.835 1.05-2.256.678-.427 1.463-.64 2.354-.64 1.034 0 1.873.197 2.519.59.639.395.959 1.007.959 1.838v5.062c0 .153.03.276.091.369.065.093.199.14.402.14.065 0 .139-.004.221-.009.082-.01.17-.025.263-.041v1.091c-.23.066-.405.107-.525.123a3.858 3.858 0 0 1-.493.025c-.508 0-.877-.18-1.107-.542-.12-.191-.205-.462-.254-.812-.301.394-.733.736-1.296 1.026a4.012 4.012 0 0 1-1.863.434c-.814 0-1.482-.246-2.001-.738-.514-.498-.771-1.118-.771-1.862 0-.815.254-1.447.763-1.895.508-.448 1.175-.725 2.001-.828l2.355-.296Zm5.364-3.462 2.347 7.154 2.452-7.154h1.616L231.61 63.2h-1.575l-3.24-8.786h1.714Zm8.811 6.448c0 .427.155.763.467 1.01a1.74 1.74 0 0 0 1.108.368c.519 0 1.022-.12 1.509-.36.82-.4 1.23-1.053 1.23-1.961v-1.19c-.18.115-.412.21-.697.287a5.912 5.912 0 0 1-.837.165l-.894.114c-.536.071-.938.183-1.206.337-.453.257-.68.667-.68 1.23Zm3.576-2.986c.339-.044.566-.186.681-.426.066-.132.098-.32.098-.566 0-.504-.18-.867-.541-1.091-.355-.23-.867-.345-1.534-.345-.771 0-1.318.208-1.641.623-.18.23-.298.572-.352 1.026h-1.378c.027-1.083.377-1.835 1.05-2.256.678-.427 1.462-.64 2.354-.64 1.033 0 1.873.197 2.518.59.64.395.96 1.007.96 1.838v5.062c0 .153.03.276.09.369.066.093.2.14.402.14.066 0 .14-.004.222-.009.082-.01.169-.025.262-.041v1.091c-.23.066-.405.107-.525.123a3.83 3.83 0 0 1-.492.025c-.509 0-.878-.18-1.107-.542-.121-.191-.206-.462-.255-.812-.301.394-.733.736-1.296 1.026a4.008 4.008 0 0 1-1.862.434c-.815 0-1.482-.246-2.002-.738-.514-.498-.771-1.118-.771-1.862 0-.815.255-1.447.763-1.895.509-.448 1.176-.725 2.002-.828l2.354-.296Zm4.643-3.42h1.501V63.2h-1.501v-8.745Zm0-3.306h1.501v1.673h-1.501V51.15Zm3.782 0h1.476V63.2h-1.476V51.15Zm4.831 9.712c0 .427.156.763.468 1.01a1.74 1.74 0 0 0 1.107.368c.52 0 1.023-.12 1.51-.36.82-.4 1.23-1.053 1.23-1.961v-1.19c-.18.115-.413.21-.697.287a5.912 5.912 0 0 1-.837.165l-.894.114c-.536.071-.938.183-1.206.337-.454.257-.681.667-.681 1.23Zm3.577-2.986c.339-.044.566-.186.681-.426.065-.132.098-.32.098-.566 0-.504-.18-.867-.541-1.091-.356-.23-.867-.345-1.534-.345-.771 0-1.318.208-1.641.623-.18.23-.298.572-.353 1.026h-1.378c.028-1.083.378-1.835 1.05-2.256.678-.427 1.463-.64 2.355-.64 1.033 0 1.873.197 2.518.59.64.395.96 1.007.96 1.838v5.062c0 .153.03.276.09.369.066.093.2.14.402.14.066 0 .139-.004.221-.009.082-.01.17-.025.263-.041v1.091c-.23.066-.405.107-.525.123a3.83 3.83 0 0 1-.492.025c-.509 0-.878-.18-1.108-.542-.12-.191-.205-.462-.254-.812-.301.394-.733.736-1.296 1.026a4.008 4.008 0 0 1-1.862.434c-.815 0-1.482-.246-2.002-.738-.514-.498-.771-1.118-.771-1.862 0-.815.254-1.447.763-1.895.509-.448 1.176-.725 2.002-.828l2.354-.296Zm4.528-6.767h1.436v4.372a3.23 3.23 0 0 1 1.156-.96 3.22 3.22 0 0 1 1.46-.336c1.094 0 1.98.377 2.658 1.132.684.749 1.026 1.856 1.026 3.322 0 1.39-.337 2.543-1.009 3.462-.673.919-1.605 1.378-2.798 1.378-.667 0-1.23-.161-1.689-.484-.274-.191-.566-.498-.878-.919V63.2h-1.362V51.109Zm3.839 11.066c.799 0 1.395-.318 1.788-.952.4-.634.599-1.471.599-2.51 0-.924-.199-1.69-.599-2.297-.393-.607-.976-.91-1.747-.91-.673 0-1.263.248-1.772.746-.503.498-.754 1.318-.754 2.46 0 .827.103 1.497.311 2.01.389.969 1.113 1.453 2.174 1.453Zm5.668-11.025h1.477V63.2h-1.477V51.15Zm7.359 3.068c.623 0 1.227.147 1.813.442.585.29 1.03.668 1.337 1.133.295.443.492.96.59 1.55.088.405.132 1.05.132 1.936h-6.44c.027.891.238 1.608.632 2.15.394.535 1.003.803 1.829.803.771 0 1.386-.254 1.846-.763.262-.295.448-.637.558-1.025h1.452c-.039.322-.167.683-.386 1.083a3.78 3.78 0 0 1-.722.968c-.448.437-1.003.732-1.665.886a5.066 5.066 0 0 1-1.206.13c-1.094 0-2.021-.396-2.781-1.189-.76-.798-1.14-1.914-1.14-3.347 0-1.41.383-2.556 1.148-3.437.766-.88 1.767-1.32 3.003-1.32Zm2.354 3.888c-.06-.64-.2-1.151-.418-1.534-.405-.711-1.08-1.067-2.027-1.067-.678 0-1.246.247-1.706.739-.459.486-.703 1.107-.73 1.862h4.881Zm8.014-3.65h1.502V63.2h-1.502v-8.745Zm0-3.306h1.502v1.673h-1.502V51.15Zm3.741 3.264h1.403v1.247c.415-.514.856-.883 1.321-1.107a3.517 3.517 0 0 1 1.55-.336c1.247 0 2.089.434 2.526 1.304.241.476.361 1.157.361 2.042V63.2h-1.501v-5.537c0-.536-.079-.968-.238-1.296-.262-.547-.738-.82-1.427-.82-.35 0-.637.035-.861.106-.405.12-.76.361-1.067.722a2.22 2.22 0 0 0-.484.902c-.071.307-.106.747-.106 1.321V63.2h-1.477v-8.786Zm14.323-2.452h1.493v2.452h1.402v1.206h-1.402v5.734c0 .306.104.512.311.615.115.06.307.09.575.09h.229c.082-.005.178-.013.287-.024V63.2c-.169.05-.347.085-.533.107a5.11 5.11 0 0 1-.59.032c-.689 0-1.157-.175-1.403-.524-.246-.356-.369-.815-.369-1.379V55.62h-1.19v-1.206h1.19v-2.452Zm4.38-.853h1.477v4.495c.35-.443.664-.755.943-.935.476-.312 1.069-.468 1.78-.468 1.274 0 2.138.446 2.592 1.337.246.487.37 1.162.37 2.026V63.2h-1.518v-5.537c0-.645-.082-1.118-.246-1.42-.268-.48-.771-.721-1.51-.721-.612 0-1.167.21-1.665.632-.497.42-.746 1.216-.746 2.387V63.2h-1.477V51.109Zm13.01 3.109c.624 0 1.228.147 1.813.442.585.29 1.031.668 1.337 1.133.296.443.493.96.591 1.55.087.405.131 1.05.131 1.936h-6.439c.027.891.238 1.608.631 2.15.394.535 1.004.803 1.83.803.771 0 1.386-.254 1.845-.763a2.56 2.56 0 0 0 .558-1.025h1.452c-.038.322-.167.683-.385 1.083a3.802 3.802 0 0 1-.722.968c-.449.437-1.004.732-1.665.886a5.066 5.066 0 0 1-1.206.13c-1.094 0-2.021-.396-2.781-1.189-.76-.798-1.14-1.914-1.14-3.347 0-1.41.382-2.556 1.148-3.437.766-.88 1.766-1.32 3.002-1.32Zm2.355 3.888c-.061-.64-.2-1.151-.419-1.534-.404-.711-1.08-1.067-2.026-1.067a2.24 2.24 0 0 0-1.706.739c-.46.486-.703 1.107-.73 1.862h4.881Zm8.014-3.692h1.403v1.247c.415-.514.856-.883 1.321-1.107a3.517 3.517 0 0 1 1.55-.336c1.247 0 2.089.434 2.526 1.304.241.476.361 1.157.361 2.042V63.2h-1.501v-5.537c0-.536-.079-.968-.238-1.296-.262-.547-.738-.82-1.427-.82-.35 0-.637.035-.861.106-.405.12-.76.361-1.067.722a2.22 2.22 0 0 0-.484.902c-.071.307-.106.747-.106 1.321V63.2h-1.477v-8.786Zm13.01-.196c.624 0 1.228.147 1.813.442.585.29 1.031.668 1.337 1.133.296.443.492.96.591 1.55.087.405.131 1.05.131 1.936h-6.439c.027.891.238 1.608.631 2.15.394.535 1.004.803 1.83.803.771 0 1.386-.254 1.845-.763a2.56 2.56 0 0 0 .558-1.025h1.452c-.038.322-.167.683-.385 1.083a3.802 3.802 0 0 1-.722.968c-.449.437-1.004.732-1.666.886a5.051 5.051 0 0 1-1.205.13c-1.094 0-2.021-.396-2.781-1.189-.76-.798-1.141-1.914-1.141-3.347 0-1.41.383-2.556 1.149-3.437.766-.88 1.766-1.32 3.002-1.32Zm2.355 3.888c-.061-.64-.2-1.151-.419-1.534-.404-.711-1.08-1.067-2.026-1.067a2.24 2.24 0 0 0-1.706.739c-.46.486-.703 1.107-.73 1.862h4.881Zm2.502-3.692h1.911l2.018 3.093 2.042-3.093 1.797.041-2.961 4.242 3.092 4.503h-1.887l-2.182-3.298-2.116 3.298h-1.87l3.092-4.504-2.936-4.282Zm9.532-2.452h1.493v2.452h1.402v1.206h-1.402v5.734c0 .306.103.512.311.615.115.06.306.09.574.09h.23c.082-.005.178-.013.287-.024V63.2c-.169.05-.347.085-.533.107-.18.021-.377.032-.591.032-.689 0-1.156-.175-1.402-.524-.246-.356-.369-.815-.369-1.379V55.62h-1.19v-1.206h1.19v-2.452Zm9.934 8.482c.043.492.166.87.369 1.132.372.476 1.017.713 1.936.713.546 0 1.028-.117 1.443-.352.416-.24.624-.61.624-1.108 0-.377-.167-.664-.501-.861-.213-.12-.634-.26-1.263-.418l-1.173-.296c-.749-.186-1.301-.393-1.657-.623-.634-.4-.952-.952-.952-1.657 0-.831.299-1.504.895-2.018.601-.514 1.408-.771 2.42-.771 1.323 0 2.277.388 2.862 1.165.367.492.545 1.022.534 1.591h-1.395a1.704 1.704 0 0 0-.353-.91c-.339-.389-.927-.583-1.763-.583-.558 0-.982.107-1.272.32a1.006 1.006 0 0 0-.426.845c0 .383.188.689.566.919.218.136.541.257.968.36l.976.238c1.061.258 1.772.506 2.133.747.574.377.861.97.861 1.78 0 .782-.298 1.457-.894 2.026-.591.569-1.493.853-2.707.853-1.307 0-2.234-.295-2.781-.886-.541-.596-.831-1.331-.87-2.206h1.42Zm7.817-8.482h1.493v2.452h1.403v1.206h-1.403v5.734c0 .306.104.512.312.615.115.06.306.09.574.09h.23c.082-.005.177-.013.287-.024V63.2c-.17.05-.347.085-.533.107a4.936 4.936 0 0 1-.591.032c-.689 0-1.157-.175-1.403-.524-.246-.356-.369-.815-.369-1.379V55.62h-1.189v-1.206h1.189v-2.452Zm8.039 2.256c.624 0 1.228.147 1.813.442.585.29 1.031.668 1.337 1.133.295.443.492.96.591 1.55.087.405.131 1.05.131 1.936h-6.439c.027.891.237 1.608.631 2.15.394.535 1.004.803 1.83.803.771 0 1.386-.254 1.845-.763a2.56 2.56 0 0 0 .558-1.025h1.452c-.038.322-.167.683-.386 1.083a3.777 3.777 0 0 1-.721.968c-.449.437-1.004.732-1.666.886a5.054 5.054 0 0 1-1.206.13c-1.093 0-2.02-.396-2.78-1.189-.761-.798-1.141-1.914-1.141-3.347 0-1.41.383-2.556 1.149-3.437.765-.88 1.766-1.32 3.002-1.32Zm2.354 3.888c-.06-.64-.199-1.151-.418-1.534-.405-.711-1.08-1.067-2.026-1.067a2.24 2.24 0 0 0-1.706.739c-.46.486-.703 1.107-.73 1.862h4.88Zm7.047 4.101c.689 0 1.261-.287 1.714-.86.46-.58.689-1.445.689-2.593 0-.7-.101-1.302-.303-1.805-.383-.968-1.083-1.452-2.1-1.452-1.023 0-1.723.512-2.1 1.534-.202.547-.304 1.242-.304 2.084 0 .678.102 1.255.304 1.73.383.909 1.083 1.362 2.1 1.362Zm-3.823-7.752h1.436v1.165c.295-.399.618-.708.968-.927.497-.328 1.083-.492 1.755-.492.996 0 1.841.383 2.535 1.149.695.76 1.042 1.848 1.042 3.264 0 1.915-.501 3.282-1.501 4.102-.635.52-1.373.78-2.215.78-.662 0-1.217-.146-1.665-.436-.263-.163-.555-.445-.878-.844v4.487h-1.477V54.455Zm10.344 5.989c.044.492.167.87.37 1.132.371.476 1.017.713 1.936.713.546 0 1.028-.117 1.443-.352.416-.24.624-.61.624-1.108 0-.377-.167-.664-.501-.861-.213-.12-.634-.26-1.263-.418l-1.173-.296c-.749-.186-1.302-.393-1.657-.623-.634-.4-.952-.952-.952-1.657 0-.831.298-1.504.895-2.018.601-.514 1.408-.771 2.419-.771 1.324 0 2.278.388 2.863 1.165.367.492.544 1.022.534 1.591h-1.395a1.704 1.704 0 0 0-.353-.91c-.339-.389-.927-.583-1.763-.583-.558 0-.982.107-1.272.32a1.006 1.006 0 0 0-.426.845c0 .383.188.689.566.919.218.136.541.257.968.36l.976.238c1.061.258 1.772.506 2.133.747.574.377.861.97.861 1.78 0 .782-.298 1.457-.894 2.026-.591.569-1.493.853-2.707.853-1.307 0-2.234-.295-2.781-.886-.542-.596-.831-1.331-.87-2.206h1.419Z"/>
    <path fill="#FFDC0F" d="M505.6 2h128.8v86.4H505.6V2Z"/>
    <path fill="#000" fill-rule="evenodd" d="M542.926 51.801c-5.519 0-9.993-4.473-9.993-9.992 0-5.518 4.474-9.992 9.993-9.992 5.518 0 9.992 4.474 9.992 9.992 0 5.519-4.474 9.992-9.992 9.992Zm.131-25.797c-8.758 0-15.857 7.099-15.857 15.856 0 8.758 7.099 15.857 15.857 15.857 8.757 0 15.857-7.1 15.857-15.857s-7.1-15.856-15.857-15.856Zm44.889 23.516c.593.304 1.505.608 2.446.608 1.014 0 1.549-.42 1.549-1.057 0-.608-.463-.955-1.636-1.375-1.621-.565-2.678-1.463-2.678-2.881 0-1.665 1.39-2.94 3.692-2.94 1.1 0 1.911.232 2.49.493l-.492 1.78a4.64 4.64 0 0 0-2.042-.463c-.955 0-1.418.435-1.418.941 0 .623.55.898 1.809 1.376 1.723.637 2.534 1.534 2.534 2.91 0 1.636-1.26 3.026-3.938 3.026-1.115 0-2.215-.29-2.765-.594l.449-1.824Zm-15.635-3.156h.869c1.1 0 1.752-.55 1.752-1.405 0-.897-.608-1.346-1.622-1.36-.536 0-.84.043-.999.072v2.693Zm-2.186-4.2c.709-.115 1.766-.202 2.939-.202 1.448 0 2.461.217 3.156.768.579.463.898 1.143.898 2.041 0 1.245-.883 2.1-1.723 2.403v.044c.68.275 1.057.926 1.303 1.824.083.301.166.615.247.92.215.81.413 1.557.549 1.831h-2.258c-.16-.275-.391-1.071-.681-2.273-.26-1.216-.68-1.55-1.578-1.564h-.666v3.837h-2.186v-9.628Zm-8.338 1.724h2.621v7.905h2.215v-7.905h2.664v-1.853h-7.5v1.853Zm3.28 18.224c-.936 0-1.843-.302-2.433-.604l-.447 1.814c.547.302 1.642.59 2.751.59 2.664 0 3.917-1.382 3.917-3.01 0-1.367-.806-2.26-2.52-2.894-1.253-.475-1.8-.749-1.8-1.368 0-.504.46-.936 1.411-.936.95 0 1.642.273 2.03.46l.49-1.77c-.576-.26-1.382-.49-2.477-.49-2.29 0-3.672 1.267-3.672 2.923 0 1.411 1.051 2.304 2.664 2.866 1.166.418 1.627.763 1.627 1.368 0 .634-.532 1.051-1.541 1.051Zm7.186-4.32v-3.73h-2.203v9.707h2.203v-4.062h3.615v4.062h2.189v-9.707h-2.189v3.73h-3.615Zm9.38 1.152c0 1.901.892 3.24 2.361 3.24 1.484 0 2.333-1.41 2.333-3.297 0-1.743-.835-3.24-2.347-3.24-1.483 0-2.347 1.41-2.347 3.297Zm7.013-.13c0 3.183-1.93 5.113-4.767 5.113-2.88 0-4.565-2.175-4.565-4.94 0-2.909 1.858-5.083 4.724-5.083 2.981 0 4.608 2.232 4.608 4.91Zm4.153-.158c-.317 0-.547-.014-.734-.057v-2.866c.158-.044.461-.087.907-.087 1.094 0 1.714.533 1.714 1.426 0 .994-.72 1.584-1.887 1.584Zm.058-4.666c-1.34 0-2.29.086-2.967.202v9.577h2.175v-3.471c.201.029.461.043.748.043 1.297 0 2.406-.317 3.154-1.022.576-.548.893-1.354.893-2.305 0-.95-.417-1.757-1.037-2.246-.648-.519-1.613-.778-2.966-.778Zm5.148 7.518c.59.302 1.498.604 2.434.604 1.008 0 1.541-.417 1.541-1.05 0-.606-.461-.951-1.628-1.37-1.613-.56-2.664-1.454-2.664-2.865 0-1.656 1.383-2.923 3.672-2.923 1.095 0 1.901.23 2.477.49l-.489 1.77a4.615 4.615 0 0 0-2.031-.46c-.95 0-1.411.432-1.411.936 0 .62.547.893 1.8 1.368 1.714.634 2.52 1.526 2.52 2.895 0 1.627-1.253 3.01-3.917 3.01-1.109 0-2.203-.288-2.751-.59l.447-1.815Zm-17.397-13.856v-5.617h-2.215v5.444c0 3.112 1.448 4.473 3.909 4.473 2.548 0 4.069-1.433 4.069-4.444v-5.473h-2.201v5.617c0 1.723-.637 2.534-1.795 2.534-1.13 0-1.767-.854-1.767-2.534Zm14.026-3.764h2.621v7.905h2.215v-7.905h2.664v-1.853h-7.5v1.853Zm14.144 3.779h-3.591v2.316h4.011v1.81h-6.226v-9.758h6.023v1.81h-3.808v2.026h3.591v1.796Zm4.772 2.504c-.276 0-.58 0-.768-.043v-6.385c.188-.043.507-.087.999-.087 1.897 0 3.084 1.072 3.07 3.099 0 2.33-1.303 3.43-3.301 3.416Zm0-8.209c-1.115 0-2.172.073-2.983.203v9.585c.55.072 1.361.144 2.505.144 1.911 0 3.475-.405 4.503-1.26.941-.795 1.621-2.084 1.621-3.952 0-1.723-.637-2.924-1.65-3.677-.941-.71-2.143-1.043-3.996-1.043Zm-68.967-5.986c.758 0 1.168.569 1.168 1.295 0 2.496-2.937 4.233-5.054 4.865.443-1.738 1.612-6.16 3.886-6.16Zm-3.506 13.078c2.716 0 4.738-1.96 6.191-4.107l-.79-.6c-1.042 1.263-2.464 2.97-4.233 2.97-1.358 0-2.021-1.138-2.021-2.37 0-.6.094-1.2.189-1.8l.442-.111c2.863-.713 7.897-1.967 7.897-5.354 0-1.99-2.211-2.654-3.853-2.654-4.897 0-8.371 4.612-8.371 9.319 0 2.906 1.674 4.706 4.549 4.706Z" clip-rule="evenodd"/>
  </g>
  <rect width="633.6" height="87.6" x="1.4" y="1.4" stroke="#E5E5E5" stroke-width="1.2" rx="10.2"/>
  <defs>
    <radialGradient id="checkout-service-widget-en_svg__b" cx="0" cy="0" r="1" gradientTransform="translate(32.915 32.306) scale(39.2472)" gradientUnits="userSpaceOnUse">
      <stop stop-color="#9B9C9E"/>
      <stop offset=".321" stop-color="#656667"/>
      <stop offset=".785" stop-color="#1D1D1D"/>
      <stop offset="1"/>
    </radialGradient>
    <radialGradient id="checkout-service-widget-en_svg__c" cx="0" cy="0" r="1" gradientTransform="matrix(20.86427 24.82897 -24.8073 20.84607 36.224 33.824)" gradientUnits="userSpaceOnUse">
      <stop stop-color="#FFFEFC"/>
      <stop offset=".242" stop-color="#FFFDF7"/>
      <stop offset="1" stop-color="#F1CB54"/>
    </radialGradient>
    <clipPath id="checkout-service-widget-en_svg__a">
      <rect width="632.4" height="86.4" x="2" y="2" fill="#fff" rx="9.6"/>
    </clipPath>
  </defs>
</svg>
