<svg width="242" height="166" viewBox="0 0 242 166" fill="none" xmlns="http://www.w3.org/2000/svg">
<rect x="1" y="1" width="240" height="163.6" rx="4.8" fill="white"/>
<path d="M19.3995 35.0793C17.8675 35.0793 16.5653 34.5431 15.4929 33.4707C14.4205 32.3983 13.9609 31.2473 13.8843 29.5641C13.8627 29.0903 13.9098 28.7215 13.9609 27.8023C14.1019 25.1224 15.0254 22.1894 16.9036 20.1765C18.6223 18.3346 20.883 17.2715 22.439 17.1572C23.697 17.1572 24.4001 18.9443 23.4454 19.4217C21.9357 20.1765 20.6922 21.2009 20.4261 21.4345C19.6021 22.1579 19.1858 22.9443 18.7995 24.2023C20.3092 23.9507 22.2082 24.5851 23.2295 25.6575C24.3019 26.7299 24.8381 28.0321 24.8381 29.5641C24.8381 31.0961 24.3019 32.3983 23.2295 33.4707C22.2082 34.5431 20.9315 35.0793 19.3995 35.0793Z" fill="#4D4D4D"/>
<path d="M32.483 35.0793C30.951 35.0793 29.6488 34.5431 28.5764 33.4707C27.504 32.3983 27.0444 31.2473 26.9678 29.5641C26.9462 29.0903 26.9933 28.7215 27.0444 27.8023C27.1854 25.1224 28.1089 22.1894 29.9871 20.1765C31.7058 18.3346 33.9665 17.2715 35.5225 17.1572C36.7805 17.1572 37.4836 18.9443 36.5289 19.4217C35.0192 20.1765 33.7757 21.2009 33.5096 21.4345C32.6856 22.1579 32.2693 22.9443 31.883 24.2023C33.3927 23.9507 35.2917 24.5851 36.313 25.6575C37.3854 26.7299 37.9216 28.0321 37.9216 29.5641C37.9216 31.0961 37.3854 32.3983 36.313 33.4707C35.2917 34.5431 34.015 35.0793 32.483 35.0793Z" fill="#4D4D4D"/>
<path fill-rule="evenodd" clip-rule="evenodd" d="M16.9741 48.3999L15.4691 52.9818L10.6001 52.9838L14.5396 55.816L13.0366 60.3999L16.9741 57.5677L20.9146 60.3999L19.4106 55.816L23.3501 52.9838L18.4811 52.9818L16.9741 48.3999Z" fill="#FFDC0F"/>
<path fill-rule="evenodd" clip-rule="evenodd" d="M31.5991 48.3999L30.0941 52.9818L25.2251 52.9838L29.1646 55.816L27.6616 60.3999L31.5991 57.5677L35.5396 60.3999L34.0356 55.816L37.9751 52.9838L33.1061 52.9818L31.5991 48.3999Z" fill="#FFDC0F"/>
<path fill-rule="evenodd" clip-rule="evenodd" d="M46.2241 48.3999L44.7191 52.9818L39.8501 52.9838L43.7896 55.816L42.2866 60.3999L46.2241 57.5677L50.1646 60.3999L48.6606 55.816L52.6001 52.9838L47.7311 52.9818L46.2241 48.3999Z" fill="#FFDC0F"/>
<path fill-rule="evenodd" clip-rule="evenodd" d="M60.8491 48.3999L59.3441 52.9818L54.4751 52.9838L58.4146 55.816L56.9116 60.3999L60.8491 57.5677L64.7896 60.3999L63.2856 55.816L67.2251 52.9838L62.3561 52.9818L60.8491 48.3999Z" fill="#FFDC0F"/>
<path fill-rule="evenodd" clip-rule="evenodd" d="M75.4741 48.3999L73.9691 52.9818L69.1001 52.9838L73.0396 55.816L71.5366 60.3999L75.4741 57.5677L79.4146 60.3999L77.9106 55.816L81.8501 52.9838L76.9811 52.9818L75.4741 48.3999Z" fill="#FFDC0F"/>
<path d="M13.981 80.6001L10.6528 72.0103H11.8833L14.1157 78.2505C14.2954 78.7505 14.4458 79.2192 14.5669 79.6567C14.6997 79.188 14.854 78.7192 15.0298 78.2505L17.3501 72.0103H18.5103L15.147 80.6001H13.981ZM22.9868 78.5962L24.0767 78.731C23.9048 79.3677 23.5864 79.8618 23.1216 80.2134C22.6567 80.5649 22.063 80.7407 21.3403 80.7407C20.4302 80.7407 19.7075 80.4614 19.1724 79.9028C18.6411 79.3403 18.3755 78.5532 18.3755 77.5415C18.3755 76.4946 18.645 75.6821 19.1841 75.104C19.7231 74.5259 20.4224 74.2368 21.2817 74.2368C22.1138 74.2368 22.7935 74.52 23.3208 75.0864C23.8481 75.6528 24.1118 76.4497 24.1118 77.4771C24.1118 77.5396 24.1099 77.6333 24.106 77.7583H19.4653C19.5044 78.4419 19.6978 78.9653 20.0454 79.3286C20.3931 79.6919 20.8267 79.8735 21.3462 79.8735C21.7329 79.8735 22.063 79.772 22.3364 79.5688C22.6099 79.3657 22.8267 79.0415 22.9868 78.5962ZM19.5239 76.8911H22.9985C22.9517 76.3677 22.8188 75.9751 22.6001 75.7134C22.2642 75.3071 21.8286 75.104 21.2935 75.104C20.8091 75.104 20.4009 75.2661 20.0688 75.5903C19.7407 75.9146 19.5591 76.3481 19.5239 76.8911ZM25.395 80.6001V74.3774H26.3442V75.3208C26.5864 74.8794 26.8091 74.5884 27.0122 74.4478C27.2192 74.3071 27.4458 74.2368 27.6919 74.2368C28.0474 74.2368 28.4087 74.3501 28.7759 74.5767L28.4126 75.5552C28.1548 75.4028 27.897 75.3267 27.6392 75.3267C27.4087 75.3267 27.2017 75.397 27.0181 75.5376C26.8345 75.6743 26.7036 75.8657 26.6255 76.1118C26.5083 76.4868 26.4497 76.897 26.4497 77.3423V80.6001H25.395ZM29.356 82.9966L29.2388 82.0063C29.4692 82.0688 29.6704 82.1001 29.8423 82.1001C30.0767 82.1001 30.2642 82.061 30.4048 81.9829C30.5454 81.9048 30.6606 81.7954 30.7505 81.6548C30.8169 81.5493 30.9243 81.2876 31.0728 80.8696C31.0923 80.811 31.1235 80.7251 31.1665 80.6118L28.8052 74.3774H29.9419L31.2368 77.981C31.4048 78.438 31.5552 78.9185 31.688 79.4224C31.8091 78.938 31.9536 78.4653 32.1216 78.0044L33.4517 74.3774H34.5063L32.1392 80.7056C31.8853 81.3892 31.688 81.8599 31.5474 82.1177C31.3599 82.4653 31.145 82.7192 30.9028 82.8794C30.6606 83.0435 30.3716 83.1255 30.0356 83.1255C29.8325 83.1255 29.606 83.0825 29.356 82.9966ZM38.9946 80.6001V75.1978H38.063V74.3774H38.9946V73.7153C38.9946 73.2974 39.0317 72.9868 39.106 72.7837C39.2075 72.5103 39.3853 72.2896 39.6392 72.1216C39.897 71.9497 40.2563 71.8638 40.7173 71.8638C41.0142 71.8638 41.3423 71.8989 41.7017 71.9692L41.5435 72.8892C41.3247 72.8501 41.1177 72.8306 40.9224 72.8306C40.6021 72.8306 40.3755 72.8989 40.2427 73.0356C40.1099 73.1724 40.0435 73.4282 40.0435 73.8032V74.3774H41.2563V75.1978H40.0435V80.6001H38.9946ZM46.1431 79.8325C45.7524 80.1646 45.3755 80.3989 45.0122 80.5356C44.6528 80.6724 44.2661 80.7407 43.8521 80.7407C43.1685 80.7407 42.6431 80.5747 42.2759 80.2427C41.9087 79.9067 41.7251 79.479 41.7251 78.9595C41.7251 78.6548 41.7935 78.3774 41.9302 78.1274C42.0708 77.8735 42.2524 77.6704 42.4751 77.5181C42.7017 77.3657 42.9556 77.2505 43.2368 77.1724C43.4438 77.1177 43.7563 77.0649 44.1743 77.0142C45.0259 76.9126 45.6528 76.7915 46.0552 76.6509C46.0591 76.5063 46.061 76.4146 46.061 76.3755C46.061 75.9458 45.9614 75.6431 45.7622 75.4673C45.4927 75.229 45.0923 75.1099 44.561 75.1099C44.0649 75.1099 43.6978 75.1978 43.4595 75.3735C43.2251 75.5454 43.0513 75.8521 42.938 76.2935L41.9067 76.1528C42.0005 75.7114 42.1548 75.356 42.3696 75.0864C42.5845 74.813 42.895 74.604 43.3013 74.4595C43.7075 74.311 44.1782 74.2368 44.7134 74.2368C45.2446 74.2368 45.6763 74.2993 46.0083 74.4243C46.3403 74.5493 46.5845 74.7075 46.7407 74.8989C46.897 75.0864 47.0063 75.3247 47.0688 75.6138C47.104 75.7935 47.1216 76.1177 47.1216 76.5864V77.9927C47.1216 78.9731 47.1431 79.5942 47.186 79.856C47.2329 80.1138 47.3228 80.3618 47.4556 80.6001H46.354C46.2446 80.3813 46.1743 80.1255 46.1431 79.8325ZM46.0552 77.4771C45.6724 77.6333 45.0981 77.7661 44.3325 77.8755C43.8989 77.938 43.5923 78.0083 43.4126 78.0864C43.2329 78.1646 43.0942 78.2798 42.9966 78.4321C42.8989 78.5806 42.8501 78.7466 42.8501 78.9302C42.8501 79.2114 42.9556 79.4458 43.1665 79.6333C43.3813 79.8208 43.6938 79.9146 44.104 79.9146C44.5103 79.9146 44.8716 79.8267 45.188 79.6509C45.5044 79.4712 45.7368 79.2271 45.8853 78.9185C45.9985 78.6802 46.0552 78.3286 46.0552 77.8638V77.4771ZM48.3403 78.7427L49.3833 78.5786C49.4419 78.9966 49.604 79.3169 49.8696 79.5396C50.1392 79.7622 50.5142 79.8735 50.9946 79.8735C51.479 79.8735 51.8384 79.7759 52.0728 79.5806C52.3071 79.3813 52.4243 79.1489 52.4243 78.8833C52.4243 78.645 52.3208 78.4575 52.1138 78.3208C51.9692 78.2271 51.6099 78.1079 51.0356 77.9634C50.2622 77.7681 49.7251 77.6001 49.4243 77.4595C49.1274 77.3149 48.9009 77.1177 48.7446 76.8677C48.5923 76.6138 48.5161 76.3345 48.5161 76.0298C48.5161 75.7524 48.5786 75.4966 48.7036 75.2622C48.8325 75.0239 49.0063 74.8267 49.2251 74.6704C49.3892 74.5493 49.6118 74.4478 49.8931 74.3657C50.1782 74.2798 50.4829 74.2368 50.8071 74.2368C51.2954 74.2368 51.7231 74.3071 52.0903 74.4478C52.4614 74.5884 52.7349 74.7798 52.9106 75.022C53.0864 75.2603 53.2075 75.5806 53.2739 75.9829L52.2427 76.1235C52.1958 75.8032 52.0591 75.5532 51.8325 75.3735C51.6099 75.1938 51.2935 75.104 50.8833 75.104C50.3989 75.104 50.0532 75.1841 49.8462 75.3442C49.6392 75.5044 49.5356 75.6919 49.5356 75.9067C49.5356 76.0435 49.5786 76.1665 49.6646 76.2759C49.7505 76.3892 49.8853 76.4829 50.0688 76.5571C50.1743 76.5962 50.4849 76.686 51.0005 76.8267C51.7466 77.0259 52.2661 77.1899 52.5591 77.3188C52.856 77.4438 53.0884 77.6274 53.2563 77.8696C53.4243 78.1118 53.5083 78.4126 53.5083 78.772C53.5083 79.1235 53.4048 79.4556 53.1978 79.7681C52.9946 80.0767 52.6997 80.3169 52.313 80.4888C51.9263 80.6567 51.4888 80.7407 51.0005 80.7407C50.1919 80.7407 49.5747 80.5728 49.1489 80.2368C48.7271 79.9009 48.4575 79.4028 48.3403 78.7427ZM57.0649 79.6567L57.2173 80.5884C56.9204 80.6509 56.6548 80.6821 56.4204 80.6821C56.0376 80.6821 55.7407 80.6216 55.5298 80.5005C55.3188 80.3794 55.1704 80.2212 55.0845 80.0259C54.9985 79.8267 54.9556 79.4106 54.9556 78.7778V75.1978H54.1821V74.3774H54.9556V72.8364L56.0044 72.2036V74.3774H57.0649V75.1978H56.0044V78.8364C56.0044 79.1372 56.022 79.3306 56.0571 79.4165C56.0962 79.5024 56.1567 79.5708 56.2388 79.6216C56.3247 79.6724 56.4458 79.6978 56.6021 79.6978C56.7192 79.6978 56.8735 79.6841 57.0649 79.6567ZM65.479 80.6001V79.8149C65.0845 80.4321 64.5044 80.7407 63.7388 80.7407C63.2427 80.7407 62.7856 80.604 62.3677 80.3306C61.9536 80.0571 61.6313 79.6763 61.4009 79.188C61.1743 78.6958 61.061 78.1313 61.061 77.4946C61.061 76.8735 61.1646 76.311 61.3716 75.8071C61.5786 75.2993 61.8892 74.9106 62.3032 74.6411C62.7173 74.3716 63.1802 74.2368 63.6919 74.2368C64.0669 74.2368 64.4009 74.3169 64.6938 74.4771C64.9868 74.6333 65.2251 74.8384 65.4087 75.0923V72.0103H66.4575V80.6001H65.479ZM62.145 77.4946C62.145 78.2915 62.313 78.8872 62.6489 79.2817C62.9849 79.6763 63.3813 79.8735 63.8384 79.8735C64.2993 79.8735 64.6899 79.686 65.0103 79.311C65.3345 78.9321 65.4966 78.356 65.4966 77.5825C65.4966 76.731 65.3325 76.106 65.0044 75.7075C64.6763 75.3091 64.272 75.1099 63.7915 75.1099C63.3228 75.1099 62.9302 75.3013 62.6138 75.6841C62.3013 76.0669 62.145 76.6704 62.145 77.4946ZM72.3813 78.5962L73.4712 78.731C73.2993 79.3677 72.981 79.8618 72.5161 80.2134C72.0513 80.5649 71.4575 80.7407 70.7349 80.7407C69.8247 80.7407 69.1021 80.4614 68.5669 79.9028C68.0356 79.3403 67.77 78.5532 67.77 77.5415C67.77 76.4946 68.0396 75.6821 68.5786 75.104C69.1177 74.5259 69.8169 74.2368 70.6763 74.2368C71.5083 74.2368 72.188 74.52 72.7153 75.0864C73.2427 75.6528 73.5063 76.4497 73.5063 77.4771C73.5063 77.5396 73.5044 77.6333 73.5005 77.7583H68.8599C68.8989 78.4419 69.0923 78.9653 69.4399 79.3286C69.7876 79.6919 70.2212 79.8735 70.7407 79.8735C71.1274 79.8735 71.4575 79.772 71.731 79.5688C72.0044 79.3657 72.2212 79.0415 72.3813 78.5962ZM68.9185 76.8911H72.3931C72.3462 76.3677 72.2134 75.9751 71.9946 75.7134C71.6587 75.3071 71.2231 75.104 70.688 75.104C70.2036 75.104 69.7954 75.2661 69.4634 75.5903C69.1353 75.9146 68.9536 76.3481 68.9185 76.8911ZM74.7778 80.6001V72.0103H75.8325V80.6001H74.7778ZM77.479 73.2231V72.0103H78.5337V73.2231H77.479ZM77.479 80.6001V74.3774H78.5337V80.6001H77.479ZM81.8735 80.6001L79.5063 74.3774H80.6196L81.9556 78.104C82.1001 78.5063 82.2329 78.9243 82.354 79.3579C82.4478 79.0298 82.5786 78.6353 82.7466 78.1743L84.1294 74.3774H85.2134L82.8579 80.6001H81.8735ZM90.4048 78.5962L91.4946 78.731C91.3228 79.3677 91.0044 79.8618 90.5396 80.2134C90.0747 80.5649 89.481 80.7407 88.7583 80.7407C87.8481 80.7407 87.1255 80.4614 86.5903 79.9028C86.0591 79.3403 85.7935 78.5532 85.7935 77.5415C85.7935 76.4946 86.063 75.6821 86.6021 75.104C87.1411 74.5259 87.8403 74.2368 88.6997 74.2368C89.5317 74.2368 90.2114 74.52 90.7388 75.0864C91.2661 75.6528 91.5298 76.4497 91.5298 77.4771C91.5298 77.5396 91.5278 77.6333 91.5239 77.7583H86.8833C86.9224 78.4419 87.1157 78.9653 87.4634 79.3286C87.811 79.6919 88.2446 79.8735 88.7642 79.8735C89.1509 79.8735 89.481 79.772 89.7544 79.5688C90.0278 79.3657 90.2446 79.0415 90.4048 78.5962ZM86.9419 76.8911H90.4165C90.3696 76.3677 90.2368 75.9751 90.0181 75.7134C89.6821 75.3071 89.2466 75.104 88.7114 75.104C88.2271 75.104 87.8188 75.2661 87.4868 75.5903C87.1587 75.9146 86.9771 76.3481 86.9419 76.8911ZM92.813 80.6001V74.3774H93.7622V75.3208C94.0044 74.8794 94.2271 74.5884 94.4302 74.4478C94.6372 74.3071 94.8638 74.2368 95.1099 74.2368C95.4653 74.2368 95.8267 74.3501 96.1938 74.5767L95.8306 75.5552C95.5728 75.4028 95.3149 75.3267 95.0571 75.3267C94.8267 75.3267 94.6196 75.397 94.436 75.5376C94.2524 75.6743 94.1216 75.8657 94.0435 76.1118C93.9263 76.4868 93.8677 76.897 93.8677 77.3423V80.6001H92.813ZM96.7739 82.9966L96.6567 82.0063C96.8872 82.0688 97.0884 82.1001 97.2603 82.1001C97.4946 82.1001 97.6821 82.061 97.8228 81.9829C97.9634 81.9048 98.0786 81.7954 98.1685 81.6548C98.2349 81.5493 98.3423 81.2876 98.4907 80.8696C98.5103 80.811 98.5415 80.7251 98.5845 80.6118L96.2231 74.3774H97.3599L98.6548 77.981C98.8228 78.438 98.9731 78.9185 99.106 79.4224C99.2271 78.938 99.3716 78.4653 99.5396 78.0044L100.87 74.3774H101.924L99.5571 80.7056C99.3032 81.3892 99.106 81.8599 98.9653 82.1177C98.7778 82.4653 98.563 82.7192 98.3208 82.8794C98.0786 83.0435 97.7896 83.1255 97.4536 83.1255C97.2505 83.1255 97.0239 83.0825 96.7739 82.9966ZM110.221 79.8325C109.831 80.1646 109.454 80.3989 109.09 80.5356C108.731 80.6724 108.344 80.7407 107.93 80.7407C107.247 80.7407 106.721 80.5747 106.354 80.2427C105.987 79.9067 105.803 79.479 105.803 78.9595C105.803 78.6548 105.872 78.3774 106.008 78.1274C106.149 77.8735 106.331 77.6704 106.553 77.5181C106.78 77.3657 107.034 77.2505 107.315 77.1724C107.522 77.1177 107.834 77.0649 108.252 77.0142C109.104 76.9126 109.731 76.7915 110.133 76.6509C110.137 76.5063 110.139 76.4146 110.139 76.3755C110.139 75.9458 110.04 75.6431 109.84 75.4673C109.571 75.229 109.17 75.1099 108.639 75.1099C108.143 75.1099 107.776 75.1978 107.538 75.3735C107.303 75.5454 107.129 75.8521 107.016 76.2935L105.985 76.1528C106.079 75.7114 106.233 75.356 106.448 75.0864C106.663 74.813 106.973 74.604 107.379 74.4595C107.786 74.311 108.256 74.2368 108.792 74.2368C109.323 74.2368 109.754 74.2993 110.086 74.4243C110.418 74.5493 110.663 74.7075 110.819 74.8989C110.975 75.0864 111.084 75.3247 111.147 75.6138C111.182 75.7935 111.2 76.1177 111.2 76.5864V77.9927C111.2 78.9731 111.221 79.5942 111.264 79.856C111.311 80.1138 111.401 80.3618 111.534 80.6001H110.432C110.323 80.3813 110.252 80.1255 110.221 79.8325ZM110.133 77.4771C109.75 77.6333 109.176 77.7661 108.411 77.8755C107.977 77.938 107.67 78.0083 107.491 78.0864C107.311 78.1646 107.172 78.2798 107.075 78.4321C106.977 78.5806 106.928 78.7466 106.928 78.9302C106.928 79.2114 107.034 79.4458 107.245 79.6333C107.459 79.8208 107.772 79.9146 108.182 79.9146C108.588 79.9146 108.95 79.8267 109.266 79.6509C109.583 79.4712 109.815 79.2271 109.963 78.9185C110.077 78.6802 110.133 78.3286 110.133 77.8638V77.4771ZM112.84 80.6001V74.3774H113.79V75.2622C114.247 74.5786 114.907 74.2368 115.77 74.2368C116.145 74.2368 116.489 74.3052 116.801 74.4419C117.118 74.5747 117.354 74.7505 117.51 74.9692C117.667 75.188 117.776 75.4478 117.838 75.7485C117.877 75.9438 117.897 76.2856 117.897 76.7739V80.6001H116.842V76.8149C116.842 76.3853 116.801 76.0649 116.719 75.854C116.637 75.6392 116.491 75.4692 116.28 75.3442C116.073 75.2153 115.829 75.1509 115.547 75.1509C115.098 75.1509 114.709 75.2935 114.381 75.5786C114.057 75.8638 113.895 76.4048 113.895 77.2017V80.6001H112.84ZM123.557 80.6001V79.8149C123.163 80.4321 122.583 80.7407 121.817 80.7407C121.321 80.7407 120.864 80.604 120.446 80.3306C120.032 80.0571 119.709 79.6763 119.479 79.188C119.252 78.6958 119.139 78.1313 119.139 77.4946C119.139 76.8735 119.243 76.311 119.45 75.8071C119.657 75.2993 119.967 74.9106 120.381 74.6411C120.795 74.3716 121.258 74.2368 121.77 74.2368C122.145 74.2368 122.479 74.3169 122.772 74.4771C123.065 74.6333 123.303 74.8384 123.487 75.0923V72.0103H124.536V80.6001H123.557ZM120.223 77.4946C120.223 78.2915 120.391 78.8872 120.727 79.2817C121.063 79.6763 121.459 79.8735 121.917 79.8735C122.377 79.8735 122.768 79.686 123.088 79.311C123.413 78.9321 123.575 78.356 123.575 77.5825C123.575 76.731 123.411 76.106 123.083 75.7075C122.754 75.3091 122.35 75.1099 121.87 75.1099C121.401 75.1099 121.008 75.3013 120.692 75.6841C120.379 76.0669 120.223 76.6704 120.223 77.4946ZM129.54 80.6001V72.0103H130.594V75.0923C131.086 74.522 131.708 74.2368 132.458 74.2368C132.918 74.2368 133.319 74.3286 133.659 74.5122C133.999 74.6919 134.241 74.9419 134.385 75.2622C134.534 75.5825 134.608 76.0474 134.608 76.6567V80.6001H133.553V76.6567C133.553 76.1294 133.438 75.7466 133.208 75.5083C132.981 75.2661 132.659 75.145 132.241 75.145C131.928 75.145 131.633 75.2271 131.356 75.3911C131.083 75.5513 130.887 75.77 130.77 76.0474C130.653 76.3247 130.594 76.7075 130.594 77.1958V80.6001H129.54ZM140.28 79.8325C139.889 80.1646 139.512 80.3989 139.149 80.5356C138.79 80.6724 138.403 80.7407 137.989 80.7407C137.305 80.7407 136.78 80.5747 136.413 80.2427C136.045 79.9067 135.862 79.479 135.862 78.9595C135.862 78.6548 135.93 78.3774 136.067 78.1274C136.208 77.8735 136.389 77.6704 136.612 77.5181C136.838 77.3657 137.092 77.2505 137.374 77.1724C137.581 77.1177 137.893 77.0649 138.311 77.0142C139.163 76.9126 139.79 76.7915 140.192 76.6509C140.196 76.5063 140.198 76.4146 140.198 76.3755C140.198 75.9458 140.098 75.6431 139.899 75.4673C139.629 75.229 139.229 75.1099 138.698 75.1099C138.202 75.1099 137.834 75.1978 137.596 75.3735C137.362 75.5454 137.188 75.8521 137.075 76.2935L136.043 76.1528C136.137 75.7114 136.292 75.356 136.506 75.0864C136.721 74.813 137.032 74.604 137.438 74.4595C137.844 74.311 138.315 74.2368 138.85 74.2368C139.381 74.2368 139.813 74.2993 140.145 74.4243C140.477 74.5493 140.721 74.7075 140.877 74.8989C141.034 75.0864 141.143 75.3247 141.206 75.6138C141.241 75.7935 141.258 76.1177 141.258 76.5864V77.9927C141.258 78.9731 141.28 79.5942 141.323 79.856C141.37 80.1138 141.459 80.3618 141.592 80.6001H140.491C140.381 80.3813 140.311 80.1255 140.28 79.8325ZM140.192 77.4771C139.809 77.6333 139.235 77.7661 138.469 77.8755C138.036 77.938 137.729 78.0083 137.549 78.0864C137.37 78.1646 137.231 78.2798 137.133 78.4321C137.036 78.5806 136.987 78.7466 136.987 78.9302C136.987 79.2114 137.092 79.4458 137.303 79.6333C137.518 79.8208 137.831 79.9146 138.241 79.9146C138.647 79.9146 139.008 79.8267 139.325 79.6509C139.641 79.4712 139.874 79.2271 140.022 78.9185C140.135 78.6802 140.192 78.3286 140.192 77.8638V77.4771ZM142.899 80.6001V74.3774H143.848V75.2622C144.305 74.5786 144.965 74.2368 145.829 74.2368C146.204 74.2368 146.547 74.3052 146.86 74.4419C147.176 74.5747 147.413 74.7505 147.569 74.9692C147.725 75.188 147.834 75.4478 147.897 75.7485C147.936 75.9438 147.956 76.2856 147.956 76.7739V80.6001H146.901V76.8149C146.901 76.3853 146.86 76.0649 146.778 75.854C146.696 75.6392 146.549 75.4692 146.338 75.3442C146.131 75.2153 145.887 75.1509 145.606 75.1509C145.157 75.1509 144.768 75.2935 144.44 75.5786C144.116 75.8638 143.954 76.4048 143.954 77.2017V80.6001H142.899ZM153.616 80.6001V79.8149C153.221 80.4321 152.641 80.7407 151.875 80.7407C151.379 80.7407 150.922 80.604 150.504 80.3306C150.09 80.0571 149.768 79.6763 149.538 79.188C149.311 78.6958 149.198 78.1313 149.198 77.4946C149.198 76.8735 149.301 76.311 149.508 75.8071C149.715 75.2993 150.026 74.9106 150.44 74.6411C150.854 74.3716 151.317 74.2368 151.829 74.2368C152.204 74.2368 152.538 74.3169 152.831 74.4771C153.124 74.6333 153.362 74.8384 153.545 75.0923V72.0103H154.594V80.6001H153.616ZM150.282 77.4946C150.282 78.2915 150.45 78.8872 150.786 79.2817C151.122 79.6763 151.518 79.8735 151.975 79.8735C152.436 79.8735 152.827 79.686 153.147 79.311C153.471 78.9321 153.633 78.356 153.633 77.5825C153.633 76.731 153.469 76.106 153.141 75.7075C152.813 75.3091 152.409 75.1099 151.928 75.1099C151.459 75.1099 151.067 75.3013 150.75 75.6841C150.438 76.0669 150.282 76.6704 150.282 77.4946ZM156.235 80.6001V72.0103H157.29V80.6001H156.235ZM158.936 73.2231V72.0103H159.991V73.2231H158.936ZM158.936 80.6001V74.3774H159.991V80.6001H158.936ZM161.602 80.6001V74.3774H162.551V75.2622C163.008 74.5786 163.668 74.2368 164.532 74.2368C164.907 74.2368 165.25 74.3052 165.563 74.4419C165.879 74.5747 166.116 74.7505 166.272 74.9692C166.428 75.188 166.538 75.4478 166.6 75.7485C166.639 75.9438 166.659 76.2856 166.659 76.7739V80.6001H165.604V76.8149C165.604 76.3853 165.563 76.0649 165.481 75.854C165.399 75.6392 165.252 75.4692 165.042 75.3442C164.834 75.2153 164.59 75.1509 164.309 75.1509C163.86 75.1509 163.471 75.2935 163.143 75.5786C162.819 75.8638 162.657 76.4048 162.657 77.2017V80.6001H161.602ZM168.088 81.1157L169.114 81.2681C169.157 81.5845 169.276 81.8149 169.471 81.9595C169.733 82.1548 170.09 82.2524 170.543 82.2524C171.032 82.2524 171.409 82.1548 171.674 81.9595C171.94 81.7642 172.12 81.4907 172.213 81.1392C172.268 80.9243 172.293 80.4731 172.29 79.7856C171.829 80.3286 171.254 80.6001 170.567 80.6001C169.711 80.6001 169.049 80.2915 168.581 79.6743C168.112 79.0571 167.877 78.3169 167.877 77.4536C167.877 76.8599 167.985 76.313 168.2 75.813C168.415 75.3091 168.725 74.9204 169.131 74.647C169.542 74.3735 170.022 74.2368 170.573 74.2368C171.307 74.2368 171.913 74.5337 172.389 75.1274V74.3774H173.362V79.7563C173.362 80.7251 173.262 81.4106 173.063 81.813C172.868 82.2192 172.555 82.5396 172.125 82.7739C171.7 83.0083 171.174 83.1255 170.549 83.1255C169.807 83.1255 169.208 82.9575 168.75 82.6216C168.293 82.2896 168.073 81.7876 168.088 81.1157ZM168.961 77.3774C168.961 78.1938 169.124 78.7896 169.448 79.1646C169.772 79.5396 170.178 79.7271 170.667 79.7271C171.151 79.7271 171.557 79.5415 171.885 79.1704C172.213 78.7954 172.377 78.2095 172.377 77.4126C172.377 76.6509 172.208 76.0767 171.868 75.6899C171.532 75.3032 171.125 75.1099 170.649 75.1099C170.18 75.1099 169.782 75.3013 169.454 75.6841C169.125 76.063 168.961 76.6274 168.961 77.3774ZM177.909 77.4888C177.909 76.3364 178.229 75.4829 178.87 74.9282C179.405 74.4673 180.057 74.2368 180.827 74.2368C181.682 74.2368 182.381 74.5181 182.924 75.0806C183.467 75.6392 183.739 76.4126 183.739 77.4009C183.739 78.2017 183.618 78.8325 183.375 79.2935C183.137 79.7505 182.788 80.106 182.327 80.3599C181.87 80.6138 181.37 80.7407 180.827 80.7407C179.956 80.7407 179.25 80.4614 178.711 79.9028C178.176 79.3442 177.909 78.5396 177.909 77.4888ZM178.993 77.4888C178.993 78.2856 179.167 78.8833 179.514 79.2817C179.862 79.6763 180.299 79.8735 180.827 79.8735C181.35 79.8735 181.786 79.6743 182.133 79.2759C182.481 78.8774 182.655 78.27 182.655 77.4536C182.655 76.6841 182.479 76.1021 182.127 75.7075C181.78 75.3091 181.346 75.1099 180.827 75.1099C180.299 75.1099 179.862 75.3071 179.514 75.7017C179.167 76.0962 178.993 76.6919 178.993 77.4888ZM185.233 80.6001V75.1978H184.301V74.3774H185.233V73.7153C185.233 73.2974 185.27 72.9868 185.344 72.7837C185.446 72.5103 185.624 72.2896 185.877 72.1216C186.135 71.9497 186.495 71.8638 186.956 71.8638C187.252 71.8638 187.581 71.8989 187.94 71.9692L187.782 72.8892C187.563 72.8501 187.356 72.8306 187.161 72.8306C186.84 72.8306 186.614 72.8989 186.481 73.0356C186.348 73.1724 186.282 73.4282 186.282 73.8032V74.3774H187.495V75.1978H186.282V80.6001H185.233ZM191.661 80.6001V74.3774H192.604V75.2505C192.799 74.9458 193.059 74.7017 193.383 74.5181C193.708 74.3306 194.077 74.2368 194.491 74.2368C194.952 74.2368 195.329 74.3325 195.622 74.5239C195.918 74.7153 196.127 74.9829 196.249 75.3267C196.741 74.6001 197.381 74.2368 198.17 74.2368C198.788 74.2368 199.262 74.4087 199.594 74.7524C199.926 75.0923 200.092 75.6177 200.092 76.3286V80.6001H199.043V76.6802C199.043 76.2583 199.008 75.9556 198.938 75.772C198.872 75.5845 198.749 75.4341 198.569 75.3208C198.389 75.2075 198.178 75.1509 197.936 75.1509C197.499 75.1509 197.135 75.2974 196.846 75.5903C196.557 75.8794 196.413 76.3442 196.413 76.9849V80.6001H195.358V76.5571C195.358 76.0884 195.272 75.7368 195.1 75.5024C194.928 75.2681 194.647 75.1509 194.256 75.1509C193.959 75.1509 193.684 75.229 193.43 75.3853C193.18 75.5415 192.999 75.77 192.885 76.0708C192.772 76.3716 192.715 76.8052 192.715 77.3716V80.6001H191.661ZM201.61 82.9966L201.493 82.0063C201.723 82.0688 201.924 82.1001 202.096 82.1001C202.331 82.1001 202.518 82.061 202.659 81.9829C202.799 81.9048 202.915 81.7954 203.004 81.6548C203.071 81.5493 203.178 81.2876 203.327 80.8696C203.346 80.811 203.377 80.7251 203.42 80.6118L201.059 74.3774H202.196L203.491 77.981C203.659 78.438 203.809 78.9185 203.942 79.4224C204.063 78.938 204.208 78.4653 204.375 78.0044L205.706 74.3774H206.76L204.393 80.7056C204.139 81.3892 203.942 81.8599 203.801 82.1177C203.614 82.4653 203.399 82.7192 203.157 82.8794C202.915 83.0435 202.625 83.1255 202.29 83.1255C202.086 83.1255 201.86 83.0825 201.61 82.9966ZM11.3794 96.6001V90.3774H12.3286V91.3208C12.5708 90.8794 12.7935 90.5884 12.9966 90.4478C13.2036 90.3071 13.4302 90.2368 13.6763 90.2368C14.0317 90.2368 14.3931 90.3501 14.7603 90.5767L14.397 91.5552C14.1392 91.4028 13.8813 91.3267 13.6235 91.3267C13.3931 91.3267 13.186 91.397 13.0024 91.5376C12.8188 91.6743 12.688 91.8657 12.6099 92.1118C12.4927 92.4868 12.4341 92.897 12.4341 93.3423V96.6001H11.3794ZM19.647 94.5962L20.7368 94.731C20.5649 95.3677 20.2466 95.8618 19.7817 96.2134C19.3169 96.5649 18.7231 96.7407 18.0005 96.7407C17.0903 96.7407 16.3677 96.4614 15.8325 95.9028C15.3013 95.3403 15.0356 94.5532 15.0356 93.5415C15.0356 92.4946 15.3052 91.6821 15.8442 91.104C16.3833 90.5259 17.0825 90.2368 17.9419 90.2368C18.7739 90.2368 19.4536 90.52 19.981 91.0864C20.5083 91.6528 20.772 92.4497 20.772 93.4771C20.772 93.5396 20.77 93.6333 20.7661 93.7583H16.1255C16.1646 94.4419 16.3579 94.9653 16.7056 95.3286C17.0532 95.6919 17.4868 95.8735 18.0063 95.8735C18.3931 95.8735 18.7231 95.772 18.9966 95.5688C19.27 95.3657 19.4868 95.0415 19.647 94.5962ZM16.1841 92.8911H19.6587C19.6118 92.3677 19.479 91.9751 19.2603 91.7134C18.9243 91.3071 18.4888 91.104 17.9536 91.104C17.4692 91.104 17.061 91.2661 16.729 91.5903C16.4009 91.9146 16.2192 92.3481 16.1841 92.8911ZM26.1274 94.3208L27.1646 94.4556C27.0513 95.1704 26.7603 95.731 26.2915 96.1372C25.8267 96.5396 25.2544 96.7407 24.5747 96.7407C23.7231 96.7407 23.0376 96.4634 22.5181 95.9087C22.0024 95.3501 21.7446 94.5513 21.7446 93.5122C21.7446 92.8403 21.856 92.2524 22.0786 91.7485C22.3013 91.2446 22.6392 90.8677 23.0923 90.6177C23.5493 90.3638 24.0454 90.2368 24.5806 90.2368C25.2563 90.2368 25.8091 90.4087 26.2388 90.7524C26.6685 91.0923 26.9438 91.5767 27.0649 92.2056L26.0396 92.3638C25.9419 91.9458 25.7681 91.6313 25.5181 91.4204C25.272 91.2095 24.9731 91.104 24.6216 91.104C24.0903 91.104 23.6587 91.2954 23.3267 91.6782C22.9946 92.0571 22.8286 92.6587 22.8286 93.4829C22.8286 94.3188 22.9888 94.9263 23.3091 95.3052C23.6294 95.6841 24.0474 95.8735 24.563 95.8735C24.9771 95.8735 25.3228 95.7466 25.6001 95.4927C25.8774 95.2388 26.0532 94.8481 26.1274 94.3208ZM28.0435 96.6001V88.0103H29.0981V96.6001H28.0435ZM34.7993 95.8325C34.4087 96.1646 34.0317 96.3989 33.6685 96.5356C33.3091 96.6724 32.9224 96.7407 32.5083 96.7407C31.8247 96.7407 31.2993 96.5747 30.9321 96.2427C30.5649 95.9067 30.3813 95.479 30.3813 94.9595C30.3813 94.6548 30.4497 94.3774 30.5864 94.1274C30.7271 93.8735 30.9087 93.6704 31.1313 93.5181C31.3579 93.3657 31.6118 93.2505 31.8931 93.1724C32.1001 93.1177 32.4126 93.0649 32.8306 93.0142C33.6821 92.9126 34.3091 92.7915 34.7114 92.6509C34.7153 92.5063 34.7173 92.4146 34.7173 92.3755C34.7173 91.9458 34.6177 91.6431 34.4185 91.4673C34.1489 91.229 33.7485 91.1099 33.2173 91.1099C32.7212 91.1099 32.354 91.1978 32.1157 91.3735C31.8813 91.5454 31.7075 91.8521 31.5942 92.2935L30.563 92.1528C30.6567 91.7114 30.811 91.356 31.0259 91.0864C31.2407 90.813 31.5513 90.604 31.9575 90.4595C32.3638 90.311 32.8345 90.2368 33.3696 90.2368C33.9009 90.2368 34.3325 90.2993 34.6646 90.4243C34.9966 90.5493 35.2407 90.7075 35.397 90.8989C35.5532 91.0864 35.6626 91.3247 35.7251 91.6138C35.7603 91.7935 35.7778 92.1177 35.7778 92.5864V93.9927C35.7778 94.9731 35.7993 95.5942 35.8423 95.856C35.8892 96.1138 35.979 96.3618 36.1118 96.6001H35.0103C34.9009 96.3813 34.8306 96.1255 34.7993 95.8325ZM34.7114 93.4771C34.3286 93.6333 33.7544 93.7661 32.9888 93.8755C32.5552 93.938 32.2485 94.0083 32.0688 94.0864C31.8892 94.1646 31.7505 94.2798 31.6528 94.4321C31.5552 94.5806 31.5063 94.7466 31.5063 94.9302C31.5063 95.2114 31.6118 95.4458 31.8228 95.6333C32.0376 95.8208 32.3501 95.9146 32.7603 95.9146C33.1665 95.9146 33.5278 95.8267 33.8442 95.6509C34.1606 95.4712 34.3931 95.2271 34.5415 94.9185C34.6548 94.6802 34.7114 94.3286 34.7114 93.8638V93.4771ZM37.4185 96.6001V90.3774H38.3618V91.2505C38.5571 90.9458 38.8169 90.7017 39.1411 90.5181C39.4653 90.3306 39.8345 90.2368 40.2485 90.2368C40.7095 90.2368 41.0864 90.3325 41.3794 90.5239C41.6763 90.7153 41.8853 90.9829 42.0063 91.3267C42.4985 90.6001 43.1392 90.2368 43.9282 90.2368C44.5454 90.2368 45.02 90.4087 45.3521 90.7524C45.6841 91.0923 45.8501 91.6177 45.8501 92.3286V96.6001H44.8013V92.6802C44.8013 92.2583 44.7661 91.9556 44.6958 91.772C44.6294 91.5845 44.5063 91.4341 44.3267 91.3208C44.147 91.2075 43.936 91.1509 43.6938 91.1509C43.2563 91.1509 42.8931 91.2974 42.604 91.5903C42.3149 91.8794 42.1704 92.3442 42.1704 92.9849V96.6001H41.1157V92.5571C41.1157 92.0884 41.0298 91.7368 40.8579 91.5024C40.686 91.2681 40.4048 91.1509 40.0142 91.1509C39.7173 91.1509 39.4419 91.229 39.188 91.3853C38.938 91.5415 38.7563 91.77 38.6431 92.0708C38.5298 92.3716 38.4731 92.8052 38.4731 93.3716V96.6001H37.4185ZM51.4751 95.8325C51.0845 96.1646 50.7075 96.3989 50.3442 96.5356C49.9849 96.6724 49.5981 96.7407 49.1841 96.7407C48.5005 96.7407 47.9751 96.5747 47.6079 96.2427C47.2407 95.9067 47.0571 95.479 47.0571 94.9595C47.0571 94.6548 47.1255 94.3774 47.2622 94.1274C47.4028 93.8735 47.5845 93.6704 47.8071 93.5181C48.0337 93.3657 48.2876 93.2505 48.5688 93.1724C48.7759 93.1177 49.0884 93.0649 49.5063 93.0142C50.3579 92.9126 50.9849 92.7915 51.3872 92.6509C51.3911 92.5063 51.3931 92.4146 51.3931 92.3755C51.3931 91.9458 51.2935 91.6431 51.0942 91.4673C50.8247 91.229 50.4243 91.1099 49.8931 91.1099C49.397 91.1099 49.0298 91.1978 48.7915 91.3735C48.5571 91.5454 48.3833 91.8521 48.27 92.2935L47.2388 92.1528C47.3325 91.7114 47.4868 91.356 47.7017 91.0864C47.9165 90.813 48.2271 90.604 48.6333 90.4595C49.0396 90.311 49.5103 90.2368 50.0454 90.2368C50.5767 90.2368 51.0083 90.2993 51.3403 90.4243C51.6724 90.5493 51.9165 90.7075 52.0728 90.8989C52.229 91.0864 52.3384 91.3247 52.4009 91.6138C52.436 91.7935 52.4536 92.1177 52.4536 92.5864V93.9927C52.4536 94.9731 52.4751 95.5942 52.5181 95.856C52.5649 96.1138 52.6548 96.3618 52.7876 96.6001H51.686C51.5767 96.3813 51.5063 96.1255 51.4751 95.8325ZM51.3872 93.4771C51.0044 93.6333 50.4302 93.7661 49.6646 93.8755C49.231 93.938 48.9243 94.0083 48.7446 94.0864C48.5649 94.1646 48.4263 94.2798 48.3286 94.4321C48.231 94.5806 48.1821 94.7466 48.1821 94.9302C48.1821 95.2114 48.2876 95.4458 48.4985 95.6333C48.7134 95.8208 49.0259 95.9146 49.436 95.9146C49.8423 95.9146 50.2036 95.8267 50.52 95.6509C50.8364 95.4712 51.0688 95.2271 51.2173 94.9185C51.3306 94.6802 51.3872 94.3286 51.3872 93.8638V93.4771ZM56.397 95.6567L56.5493 96.5884C56.2524 96.6509 55.9868 96.6821 55.7524 96.6821C55.3696 96.6821 55.0728 96.6216 54.8618 96.5005C54.6509 96.3794 54.5024 96.2212 54.4165 96.0259C54.3306 95.8267 54.2876 95.4106 54.2876 94.7778V91.1978H53.5142V90.3774H54.2876V88.8364L55.3364 88.2036V90.3774H56.397V91.1978H55.3364V94.8364C55.3364 95.1372 55.354 95.3306 55.3892 95.4165C55.4282 95.5024 55.4888 95.5708 55.5708 95.6216C55.6567 95.6724 55.7778 95.6978 55.9341 95.6978C56.0513 95.6978 56.2056 95.6841 56.397 95.6567ZM57.4399 89.2231V88.0103H58.4946V89.2231H57.4399ZM57.4399 96.6001V90.3774H58.4946V96.6001H57.4399ZM59.7134 93.4888C59.7134 92.3364 60.0337 91.4829 60.6743 90.9282C61.2095 90.4673 61.8618 90.2368 62.6313 90.2368C63.4868 90.2368 64.186 90.5181 64.729 91.0806C65.272 91.6392 65.5435 92.4126 65.5435 93.4009C65.5435 94.2017 65.4224 94.8325 65.1802 95.2935C64.9419 95.7505 64.5923 96.106 64.1313 96.3599C63.6743 96.6138 63.1743 96.7407 62.6313 96.7407C61.7603 96.7407 61.0552 96.4614 60.5161 95.9028C59.981 95.3442 59.7134 94.5396 59.7134 93.4888ZM60.7974 93.4888C60.7974 94.2856 60.9712 94.8833 61.3188 95.2817C61.6665 95.6763 62.104 95.8735 62.6313 95.8735C63.1548 95.8735 63.5903 95.6743 63.938 95.2759C64.2856 94.8774 64.4595 94.27 64.4595 93.4536C64.4595 92.6841 64.2837 92.1021 63.9321 91.7075C63.5845 91.3091 63.1509 91.1099 62.6313 91.1099C62.104 91.1099 61.6665 91.3071 61.3188 91.7017C60.9712 92.0962 60.7974 92.6919 60.7974 93.4888ZM66.7856 96.6001V90.3774H67.7349V91.2622C68.1919 90.5786 68.8521 90.2368 69.7153 90.2368C70.0903 90.2368 70.4341 90.3052 70.7466 90.4419C71.063 90.5747 71.2993 90.7505 71.4556 90.9692C71.6118 91.188 71.7212 91.4478 71.7837 91.7485C71.8228 91.9438 71.8423 92.2856 71.8423 92.7739V96.6001H70.7876V92.8149C70.7876 92.3853 70.7466 92.0649 70.6646 91.854C70.5825 91.6392 70.436 91.4692 70.2251 91.3442C70.0181 91.2153 69.7739 91.1509 69.4927 91.1509C69.0435 91.1509 68.6548 91.2935 68.3267 91.5786C68.0024 91.8638 67.8403 92.4048 67.8403 93.2017V96.6001H66.7856ZM77.9536 96.6001L76.0493 90.3774H77.1392L78.1294 93.9692L78.4985 95.3052C78.5142 95.2388 78.6216 94.811 78.8208 94.022L79.811 90.3774H80.895L81.8267 93.9868L82.1372 95.1763L82.4946 93.9751L83.561 90.3774H84.5864L82.6411 96.6001H81.5454L80.5552 92.8735L80.3149 91.813L79.0552 96.6001H77.9536ZM85.4829 89.2231V88.0103H86.5376V89.2231H85.4829ZM85.4829 96.6001V90.3774H86.5376V96.6001H85.4829ZM90.4517 95.6567L90.604 96.5884C90.3071 96.6509 90.0415 96.6821 89.8071 96.6821C89.4243 96.6821 89.1274 96.6216 88.9165 96.5005C88.7056 96.3794 88.5571 96.2212 88.4712 96.0259C88.3853 95.8267 88.3423 95.4106 88.3423 94.7778V91.1978H87.5688V90.3774H88.3423V88.8364L89.3911 88.2036V90.3774H90.4517V91.1978H89.3911V94.8364C89.3911 95.1372 89.4087 95.3306 89.4438 95.4165C89.4829 95.5024 89.5435 95.5708 89.6255 95.6216C89.7114 95.6724 89.8325 95.6978 89.9888 95.6978C90.106 95.6978 90.2603 95.6841 90.4517 95.6567ZM91.4888 96.6001V88.0103H92.5435V91.0923C93.0356 90.522 93.6567 90.2368 94.4067 90.2368C94.8677 90.2368 95.2681 90.3286 95.6079 90.5122C95.9478 90.6919 96.1899 90.9419 96.3345 91.2622C96.4829 91.5825 96.5571 92.0474 96.5571 92.6567V96.6001H95.5024V92.6567C95.5024 92.1294 95.3872 91.7466 95.1567 91.5083C94.9302 91.2661 94.6079 91.145 94.1899 91.145C93.8774 91.145 93.5825 91.2271 93.3052 91.3911C93.0317 91.5513 92.8364 91.77 92.7192 92.0474C92.6021 92.3247 92.5435 92.7075 92.5435 93.1958V96.6001H91.4888ZM105.569 95.8325C105.178 96.1646 104.801 96.3989 104.438 96.5356C104.079 96.6724 103.692 96.7407 103.278 96.7407C102.594 96.7407 102.069 96.5747 101.702 96.2427C101.334 95.9067 101.151 95.479 101.151 94.9595C101.151 94.6548 101.219 94.3774 101.356 94.1274C101.497 93.8735 101.678 93.6704 101.901 93.5181C102.127 93.3657 102.381 93.2505 102.663 93.1724C102.87 93.1177 103.182 93.0649 103.6 93.0142C104.452 92.9126 105.079 92.7915 105.481 92.6509C105.485 92.5063 105.487 92.4146 105.487 92.3755C105.487 91.9458 105.387 91.6431 105.188 91.4673C104.918 91.229 104.518 91.1099 103.987 91.1099C103.491 91.1099 103.124 91.1978 102.885 91.3735C102.651 91.5454 102.477 91.8521 102.364 92.2935L101.333 92.1528C101.426 91.7114 101.581 91.356 101.795 91.0864C102.01 90.813 102.321 90.604 102.727 90.4595C103.133 90.311 103.604 90.2368 104.139 90.2368C104.67 90.2368 105.102 90.2993 105.434 90.4243C105.766 90.5493 106.01 90.7075 106.167 90.8989C106.323 91.0864 106.432 91.3247 106.495 91.6138C106.53 91.7935 106.547 92.1177 106.547 92.5864V93.9927C106.547 94.9731 106.569 95.5942 106.612 95.856C106.659 96.1138 106.749 96.3618 106.881 96.6001H105.78C105.67 96.3813 105.6 96.1255 105.569 95.8325ZM105.481 93.4771C105.098 93.6333 104.524 93.7661 103.758 93.8755C103.325 93.938 103.018 94.0083 102.838 94.0864C102.659 94.1646 102.52 94.2798 102.422 94.4321C102.325 94.5806 102.276 94.7466 102.276 94.9302C102.276 95.2114 102.381 95.4458 102.592 95.6333C102.807 95.8208 103.12 95.9146 103.53 95.9146C103.936 95.9146 104.297 95.8267 104.614 95.6509C104.93 95.4712 105.163 95.2271 105.311 94.9185C105.424 94.6802 105.481 94.3286 105.481 93.8638V93.4771ZM108.188 96.6001V90.3774H109.137V91.2622C109.594 90.5786 110.254 90.2368 111.118 90.2368C111.493 90.2368 111.836 90.3052 112.149 90.4419C112.465 90.5747 112.702 90.7505 112.858 90.9692C113.014 91.188 113.124 91.4478 113.186 91.7485C113.225 91.9438 113.245 92.2856 113.245 92.7739V96.6001H112.19V92.8149C112.19 92.3853 112.149 92.0649 112.067 91.854C111.985 91.6392 111.838 91.4692 111.627 91.3442C111.42 91.2153 111.176 91.1509 110.895 91.1509C110.446 91.1509 110.057 91.2935 109.729 91.5786C109.405 91.8638 109.243 92.4048 109.243 93.2017V96.6001H108.188ZM118.213 89.2231V88.0103H119.268V89.2231H118.213ZM118.213 96.6001V90.3774H119.268V96.6001H118.213ZM120.879 96.6001V90.3774H121.823V91.2505C122.018 90.9458 122.278 90.7017 122.602 90.5181C122.926 90.3306 123.295 90.2368 123.709 90.2368C124.17 90.2368 124.547 90.3325 124.84 90.5239C125.137 90.7153 125.346 90.9829 125.467 91.3267C125.959 90.6001 126.6 90.2368 127.389 90.2368C128.006 90.2368 128.481 90.4087 128.813 90.7524C129.145 91.0923 129.311 91.6177 129.311 92.3286V96.6001H128.262V92.6802C128.262 92.2583 128.227 91.9556 128.157 91.772C128.09 91.5845 127.967 91.4341 127.788 91.3208C127.608 91.2075 127.397 91.1509 127.155 91.1509C126.717 91.1509 126.354 91.2974 126.065 91.5903C125.776 91.8794 125.631 92.3442 125.631 92.9849V96.6001H124.577V92.5571C124.577 92.0884 124.491 91.7368 124.319 91.5024C124.147 91.2681 123.866 91.1509 123.475 91.1509C123.178 91.1509 122.903 91.229 122.649 91.3853C122.399 91.5415 122.217 91.77 122.104 92.0708C121.991 92.3716 121.934 92.8052 121.934 93.3716V96.6001H120.879ZM130.875 96.6001V90.3774H131.819V91.2505C132.014 90.9458 132.274 90.7017 132.598 90.5181C132.922 90.3306 133.292 90.2368 133.706 90.2368C134.167 90.2368 134.543 90.3325 134.836 90.5239C135.133 90.7153 135.342 90.9829 135.463 91.3267C135.956 90.6001 136.596 90.2368 137.385 90.2368C138.002 90.2368 138.477 90.4087 138.809 90.7524C139.141 91.0923 139.307 91.6177 139.307 92.3286V96.6001H138.258V92.6802C138.258 92.2583 138.223 91.9556 138.153 91.772C138.086 91.5845 137.963 91.4341 137.784 91.3208C137.604 91.2075 137.393 91.1509 137.151 91.1509C136.713 91.1509 136.35 91.2974 136.061 91.5903C135.772 91.8794 135.627 92.3442 135.627 92.9849V96.6001H134.573V92.5571C134.573 92.0884 134.487 91.7368 134.315 91.5024C134.143 91.2681 133.862 91.1509 133.471 91.1509C133.174 91.1509 132.899 91.229 132.645 91.3853C132.395 91.5415 132.213 91.77 132.1 92.0708C131.987 92.3716 131.93 92.8052 131.93 93.3716V96.6001H130.875ZM145.131 94.5962L146.221 94.731C146.049 95.3677 145.731 95.8618 145.266 96.2134C144.801 96.5649 144.208 96.7407 143.485 96.7407C142.575 96.7407 141.852 96.4614 141.317 95.9028C140.786 95.3403 140.52 94.5532 140.52 93.5415C140.52 92.4946 140.79 91.6821 141.329 91.104C141.868 90.5259 142.567 90.2368 143.426 90.2368C144.258 90.2368 144.938 90.52 145.465 91.0864C145.993 91.6528 146.256 92.4497 146.256 93.4771C146.256 93.5396 146.254 93.6333 146.25 93.7583H141.61C141.649 94.4419 141.842 94.9653 142.19 95.3286C142.538 95.6919 142.971 95.8735 143.491 95.8735C143.877 95.8735 144.208 95.772 144.481 95.5688C144.754 95.3657 144.971 95.0415 145.131 94.5962ZM141.668 92.8911H145.143C145.096 92.3677 144.963 91.9751 144.745 91.7134C144.409 91.3071 143.973 91.104 143.438 91.104C142.954 91.104 142.545 91.2661 142.213 91.5903C141.885 91.9146 141.704 92.3481 141.668 92.8911ZM151.588 96.6001V95.8149C151.194 96.4321 150.614 96.7407 149.848 96.7407C149.352 96.7407 148.895 96.604 148.477 96.3306C148.063 96.0571 147.741 95.6763 147.51 95.188C147.284 94.6958 147.17 94.1313 147.17 93.4946C147.17 92.8735 147.274 92.311 147.481 91.8071C147.688 91.2993 147.999 90.9106 148.413 90.6411C148.827 90.3716 149.29 90.2368 149.801 90.2368C150.176 90.2368 150.51 90.3169 150.803 90.4771C151.096 90.6333 151.334 90.8384 151.518 91.0923V88.0103H152.567V96.6001H151.588ZM148.254 93.4946C148.254 94.2915 148.422 94.8872 148.758 95.2817C149.094 95.6763 149.491 95.8735 149.948 95.8735C150.409 95.8735 150.799 95.686 151.12 95.311C151.444 94.9321 151.606 94.356 151.606 93.5825C151.606 92.731 151.442 92.106 151.114 91.7075C150.786 91.3091 150.381 91.1099 149.901 91.1099C149.432 91.1099 149.04 91.3013 148.723 91.6841C148.411 92.0669 148.254 92.6704 148.254 93.4946ZM154.237 89.2231V88.0103H155.292V89.2231H154.237ZM154.237 96.6001V90.3774H155.292V96.6001H154.237ZM160.963 95.8325C160.573 96.1646 160.196 96.3989 159.833 96.5356C159.473 96.6724 159.086 96.7407 158.672 96.7407C157.989 96.7407 157.463 96.5747 157.096 96.2427C156.729 95.9067 156.545 95.479 156.545 94.9595C156.545 94.6548 156.614 94.3774 156.75 94.1274C156.891 93.8735 157.073 93.6704 157.295 93.5181C157.522 93.3657 157.776 93.2505 158.057 93.1724C158.264 93.1177 158.577 93.0649 158.995 93.0142C159.846 92.9126 160.473 92.7915 160.875 92.6509C160.879 92.5063 160.881 92.4146 160.881 92.3755C160.881 91.9458 160.782 91.6431 160.583 91.4673C160.313 91.229 159.913 91.1099 159.381 91.1099C158.885 91.1099 158.518 91.1978 158.28 91.3735C158.045 91.5454 157.872 91.8521 157.758 92.2935L156.727 92.1528C156.821 91.7114 156.975 91.356 157.19 91.0864C157.405 90.813 157.715 90.604 158.122 90.4595C158.528 90.311 158.999 90.2368 159.534 90.2368C160.065 90.2368 160.497 90.2993 160.829 90.4243C161.161 90.5493 161.405 90.7075 161.561 90.8989C161.717 91.0864 161.827 91.3247 161.889 91.6138C161.924 91.7935 161.942 92.1177 161.942 92.5864V93.9927C161.942 94.9731 161.963 95.5942 162.006 95.856C162.053 96.1138 162.143 96.3618 162.276 96.6001H161.174C161.065 96.3813 160.995 96.1255 160.963 95.8325ZM160.875 93.4771C160.493 93.6333 159.918 93.7661 159.153 93.8755C158.719 93.938 158.413 94.0083 158.233 94.0864C158.053 94.1646 157.915 94.2798 157.817 94.4321C157.719 94.5806 157.67 94.7466 157.67 94.9302C157.67 95.2114 157.776 95.4458 157.987 95.6333C158.202 95.8208 158.514 95.9146 158.924 95.9146C159.331 95.9146 159.692 95.8267 160.008 95.6509C160.325 95.4712 160.557 95.2271 160.706 94.9185C160.819 94.6802 160.875 94.3286 160.875 93.8638V93.4771ZM165.885 95.6567L166.038 96.5884C165.741 96.6509 165.475 96.6821 165.241 96.6821C164.858 96.6821 164.561 96.6216 164.35 96.5005C164.139 96.3794 163.991 96.2212 163.905 96.0259C163.819 95.8267 163.776 95.4106 163.776 94.7778V91.1978H163.002V90.3774H163.776V88.8364L164.825 88.2036V90.3774H165.885V91.1978H164.825V94.8364C164.825 95.1372 164.842 95.3306 164.877 95.4165C164.917 95.5024 164.977 95.5708 165.059 95.6216C165.145 95.6724 165.266 95.6978 165.422 95.6978C165.54 95.6978 165.694 95.6841 165.885 95.6567ZM171.182 94.5962L172.272 94.731C172.1 95.3677 171.782 95.8618 171.317 96.2134C170.852 96.5649 170.258 96.7407 169.536 96.7407C168.625 96.7407 167.903 96.4614 167.368 95.9028C166.836 95.3403 166.571 94.5532 166.571 93.5415C166.571 92.4946 166.84 91.6821 167.379 91.104C167.918 90.5259 168.618 90.2368 169.477 90.2368C170.309 90.2368 170.989 90.52 171.516 91.0864C172.043 91.6528 172.307 92.4497 172.307 93.4771C172.307 93.5396 172.305 93.6333 172.301 93.7583H167.661C167.7 94.4419 167.893 94.9653 168.241 95.3286C168.588 95.6919 169.022 95.8735 169.542 95.8735C169.928 95.8735 170.258 95.772 170.532 95.5688C170.805 95.3657 171.022 95.0415 171.182 94.5962ZM167.719 92.8911H171.194C171.147 92.3677 171.014 91.9751 170.795 91.7134C170.459 91.3071 170.024 91.104 169.489 91.104C169.004 91.104 168.596 91.2661 168.264 91.5903C167.936 91.9146 167.754 92.3481 167.719 92.8911ZM11.3794 113.6V107.377H12.3286V108.321C12.5708 107.879 12.7935 107.588 12.9966 107.448C13.2036 107.307 13.4302 107.237 13.6763 107.237C14.0317 107.237 14.3931 107.35 14.7603 107.577L14.397 108.555C14.1392 108.403 13.8813 108.327 13.6235 108.327C13.3931 108.327 13.186 108.397 13.0024 108.538C12.8188 108.674 12.688 108.866 12.6099 109.112C12.4927 109.487 12.4341 109.897 12.4341 110.342V113.6H11.3794ZM19.647 111.596L20.7368 111.731C20.5649 112.368 20.2466 112.862 19.7817 113.213C19.3169 113.565 18.7231 113.741 18.0005 113.741C17.0903 113.741 16.3677 113.461 15.8325 112.903C15.3013 112.34 15.0356 111.553 15.0356 110.542C15.0356 109.495 15.3052 108.682 15.8442 108.104C16.3833 107.526 17.0825 107.237 17.9419 107.237C18.7739 107.237 19.4536 107.52 19.981 108.086C20.5083 108.653 20.772 109.45 20.772 110.477C20.772 110.54 20.77 110.633 20.7661 110.758H16.1255C16.1646 111.442 16.3579 111.965 16.7056 112.329C17.0532 112.692 17.4868 112.874 18.0063 112.874C18.3931 112.874 18.7231 112.772 18.9966 112.569C19.27 112.366 19.4868 112.042 19.647 111.596ZM16.1841 109.891H19.6587C19.6118 109.368 19.479 108.975 19.2603 108.713C18.9243 108.307 18.4888 108.104 17.9536 108.104C17.4692 108.104 17.061 108.266 16.729 108.59C16.4009 108.915 16.2192 109.348 16.1841 109.891ZM22.0669 115.985V107.377H23.0278V108.186C23.2544 107.87 23.5103 107.633 23.7954 107.477C24.0806 107.317 24.4263 107.237 24.8325 107.237C25.3638 107.237 25.8325 107.374 26.2388 107.647C26.645 107.92 26.9517 108.307 27.1587 108.807C27.3657 109.303 27.4692 109.848 27.4692 110.442C27.4692 111.079 27.354 111.653 27.1235 112.165C26.897 112.672 26.5649 113.063 26.1274 113.336C25.6938 113.606 25.2368 113.741 24.7563 113.741C24.4048 113.741 24.0884 113.667 23.8071 113.518C23.5298 113.37 23.3013 113.182 23.1216 112.956V115.985H22.0669ZM23.022 110.524C23.022 111.325 23.1841 111.917 23.5083 112.299C23.8325 112.682 24.2251 112.874 24.686 112.874C25.1548 112.874 25.5552 112.676 25.8872 112.282C26.2231 111.883 26.3911 111.268 26.3911 110.436C26.3911 109.643 26.2271 109.049 25.8989 108.655C25.5747 108.26 25.186 108.063 24.7329 108.063C24.2837 108.063 23.8853 108.274 23.5376 108.696C23.1938 109.114 23.022 109.723 23.022 110.524ZM28.7231 113.6V105.01H29.7778V113.6H28.7231ZM35.479 112.833C35.0884 113.165 34.7114 113.399 34.3481 113.536C33.9888 113.672 33.6021 113.741 33.188 113.741C32.5044 113.741 31.979 113.575 31.6118 113.243C31.2446 112.907 31.061 112.479 31.061 111.959C31.061 111.655 31.1294 111.377 31.2661 111.127C31.4067 110.874 31.5884 110.67 31.811 110.518C32.0376 110.366 32.2915 110.25 32.5728 110.172C32.7798 110.118 33.0923 110.065 33.5103 110.014C34.3618 109.913 34.9888 109.792 35.3911 109.651C35.395 109.506 35.397 109.415 35.397 109.375C35.397 108.946 35.2974 108.643 35.0981 108.467C34.8286 108.229 34.4282 108.11 33.897 108.11C33.4009 108.11 33.0337 108.198 32.7954 108.374C32.561 108.545 32.3872 108.852 32.2739 109.293L31.2427 109.153C31.3364 108.711 31.4907 108.356 31.7056 108.086C31.9204 107.813 32.231 107.604 32.6372 107.459C33.0435 107.311 33.5142 107.237 34.0493 107.237C34.5806 107.237 35.0122 107.299 35.3442 107.424C35.6763 107.549 35.9204 107.708 36.0767 107.899C36.2329 108.086 36.3423 108.325 36.4048 108.614C36.4399 108.793 36.4575 109.118 36.4575 109.586V110.993C36.4575 111.973 36.479 112.594 36.522 112.856C36.5688 113.114 36.6587 113.362 36.7915 113.6H35.6899C35.5806 113.381 35.5103 113.125 35.479 112.833ZM35.3911 110.477C35.0083 110.633 34.4341 110.766 33.6685 110.875C33.2349 110.938 32.9282 111.008 32.7485 111.086C32.5688 111.165 32.4302 111.28 32.3325 111.432C32.2349 111.581 32.186 111.747 32.186 111.93C32.186 112.211 32.2915 112.446 32.5024 112.633C32.7173 112.821 33.0298 112.915 33.4399 112.915C33.8462 112.915 34.2075 112.827 34.5239 112.651C34.8403 112.471 35.0728 112.227 35.2212 111.918C35.3345 111.68 35.3911 111.329 35.3911 110.864V110.477ZM42.1587 111.321L43.1958 111.456C43.0825 112.17 42.7915 112.731 42.3228 113.137C41.8579 113.54 41.2856 113.741 40.606 113.741C39.7544 113.741 39.0688 113.463 38.5493 112.909C38.0337 112.35 37.7759 111.551 37.7759 110.512C37.7759 109.84 37.8872 109.252 38.1099 108.749C38.3325 108.245 38.6704 107.868 39.1235 107.618C39.5806 107.364 40.0767 107.237 40.6118 107.237C41.2876 107.237 41.8403 107.409 42.27 107.752C42.6997 108.092 42.9751 108.577 43.0962 109.206L42.0708 109.364C41.9731 108.946 41.7993 108.631 41.5493 108.42C41.3032 108.209 41.0044 108.104 40.6528 108.104C40.1216 108.104 39.6899 108.295 39.3579 108.678C39.0259 109.057 38.8599 109.659 38.8599 110.483C38.8599 111.319 39.02 111.926 39.3403 112.305C39.6606 112.684 40.0786 112.874 40.5942 112.874C41.0083 112.874 41.354 112.747 41.6313 112.493C41.9087 112.239 42.0845 111.848 42.1587 111.321ZM48.3579 111.596L49.4478 111.731C49.2759 112.368 48.9575 112.862 48.4927 113.213C48.0278 113.565 47.4341 113.741 46.7114 113.741C45.8013 113.741 45.0786 113.461 44.5435 112.903C44.0122 112.34 43.7466 111.553 43.7466 110.542C43.7466 109.495 44.0161 108.682 44.5552 108.104C45.0942 107.526 45.7935 107.237 46.6528 107.237C47.4849 107.237 48.1646 107.52 48.6919 108.086C49.2192 108.653 49.4829 109.45 49.4829 110.477C49.4829 110.54 49.481 110.633 49.4771 110.758H44.8364C44.8755 111.442 45.0688 111.965 45.4165 112.329C45.7642 112.692 46.1978 112.874 46.7173 112.874C47.104 112.874 47.4341 112.772 47.7075 112.569C47.981 112.366 48.1978 112.042 48.3579 111.596ZM44.895 109.891H48.3696C48.3228 109.368 48.1899 108.975 47.9712 108.713C47.6353 108.307 47.1997 108.104 46.6646 108.104C46.1802 108.104 45.772 108.266 45.4399 108.59C45.1118 108.915 44.9302 109.348 44.895 109.891ZM50.7778 113.6V107.377H51.7212V108.25C51.9165 107.946 52.1763 107.702 52.5005 107.518C52.8247 107.331 53.1938 107.237 53.6079 107.237C54.0688 107.237 54.4458 107.333 54.7388 107.524C55.0356 107.715 55.2446 107.983 55.3657 108.327C55.8579 107.6 56.4985 107.237 57.2876 107.237C57.9048 107.237 58.3794 107.409 58.7114 107.752C59.0435 108.092 59.2095 108.618 59.2095 109.329V113.6H58.1606V109.68C58.1606 109.258 58.1255 108.956 58.0552 108.772C57.9888 108.584 57.8657 108.434 57.686 108.321C57.5063 108.208 57.2954 108.151 57.0532 108.151C56.6157 108.151 56.2524 108.297 55.9634 108.59C55.6743 108.879 55.5298 109.344 55.5298 109.985V113.6H54.4751V109.557C54.4751 109.088 54.3892 108.737 54.2173 108.502C54.0454 108.268 53.7642 108.151 53.3735 108.151C53.0767 108.151 52.8013 108.229 52.5474 108.385C52.2974 108.542 52.1157 108.77 52.0024 109.071C51.8892 109.372 51.8325 109.805 51.8325 110.372V113.6H50.7778ZM65.0337 111.596L66.1235 111.731C65.9517 112.368 65.6333 112.862 65.1685 113.213C64.7036 113.565 64.1099 113.741 63.3872 113.741C62.4771 113.741 61.7544 113.461 61.2192 112.903C60.688 112.34 60.4224 111.553 60.4224 110.542C60.4224 109.495 60.6919 108.682 61.231 108.104C61.77 107.526 62.4692 107.237 63.3286 107.237C64.1606 107.237 64.8403 107.52 65.3677 108.086C65.895 108.653 66.1587 109.45 66.1587 110.477C66.1587 110.54 66.1567 110.633 66.1528 110.758H61.5122C61.5513 111.442 61.7446 111.965 62.0923 112.329C62.4399 112.692 62.8735 112.874 63.3931 112.874C63.7798 112.874 64.1099 112.772 64.3833 112.569C64.6567 112.366 64.8735 112.042 65.0337 111.596ZM61.5708 109.891H65.0454C64.9985 109.368 64.8657 108.975 64.647 108.713C64.311 108.307 63.8755 108.104 63.3403 108.104C62.856 108.104 62.4478 108.266 62.1157 108.59C61.7876 108.915 61.606 109.348 61.5708 109.891ZM67.4536 113.6V107.377H68.4028V108.262C68.8599 107.579 69.52 107.237 70.3833 107.237C70.7583 107.237 71.1021 107.305 71.4146 107.442C71.731 107.575 71.9673 107.75 72.1235 107.969C72.2798 108.188 72.3892 108.448 72.4517 108.749C72.4907 108.944 72.5103 109.286 72.5103 109.774V113.6H71.4556V109.815C71.4556 109.385 71.4146 109.065 71.3325 108.854C71.2505 108.639 71.104 108.469 70.8931 108.344C70.686 108.215 70.4419 108.151 70.1606 108.151C69.7114 108.151 69.3228 108.293 68.9946 108.579C68.6704 108.864 68.5083 109.405 68.5083 110.202V113.6H67.4536ZM76.436 112.657L76.5884 113.588C76.2915 113.651 76.0259 113.682 75.7915 113.682C75.4087 113.682 75.1118 113.622 74.9009 113.5C74.6899 113.379 74.5415 113.221 74.4556 113.026C74.3696 112.827 74.3267 112.411 74.3267 111.778V108.198H73.5532V107.377H74.3267V105.836L75.3755 105.204V107.377H76.436V108.198H75.3755V111.836C75.3755 112.137 75.3931 112.331 75.4282 112.417C75.4673 112.502 75.5278 112.571 75.6099 112.622C75.6958 112.672 75.8169 112.698 75.9731 112.698C76.0903 112.698 76.2446 112.684 76.436 112.657ZM77.772 113.6V112.399H78.9731V113.6H77.772ZM84.481 113.6V105.01H85.6177V113.6H84.481ZM94.8931 112.833C94.5024 113.165 94.1255 113.399 93.7622 113.536C93.4028 113.672 93.0161 113.741 92.6021 113.741C91.9185 113.741 91.3931 113.575 91.0259 113.243C90.6587 112.907 90.4751 112.479 90.4751 111.959C90.4751 111.655 90.5435 111.377 90.6802 111.127C90.8208 110.874 91.0024 110.67 91.2251 110.518C91.4517 110.366 91.7056 110.25 91.9868 110.172C92.1938 110.118 92.5063 110.065 92.9243 110.014C93.7759 109.913 94.4028 109.792 94.8052 109.651C94.8091 109.506 94.811 109.415 94.811 109.375C94.811 108.946 94.7114 108.643 94.5122 108.467C94.2427 108.229 93.8423 108.11 93.311 108.11C92.8149 108.11 92.4478 108.198 92.2095 108.374C91.9751 108.545 91.8013 108.852 91.688 109.293L90.6567 109.153C90.7505 108.711 90.9048 108.356 91.1196 108.086C91.3345 107.813 91.645 107.604 92.0513 107.459C92.4575 107.311 92.9282 107.237 93.4634 107.237C93.9946 107.237 94.4263 107.299 94.7583 107.424C95.0903 107.549 95.3345 107.708 95.4907 107.899C95.647 108.086 95.7563 108.325 95.8188 108.614C95.854 108.793 95.8716 109.118 95.8716 109.586V110.993C95.8716 111.973 95.8931 112.594 95.936 112.856C95.9829 113.114 96.0728 113.362 96.2056 113.6H95.104C94.9946 113.381 94.9243 113.125 94.8931 112.833ZM94.8052 110.477C94.4224 110.633 93.8481 110.766 93.0825 110.875C92.6489 110.938 92.3423 111.008 92.1626 111.086C91.9829 111.165 91.8442 111.28 91.7466 111.432C91.6489 111.581 91.6001 111.747 91.6001 111.93C91.6001 112.211 91.7056 112.446 91.9165 112.633C92.1313 112.821 92.4438 112.915 92.854 112.915C93.2603 112.915 93.6216 112.827 93.938 112.651C94.2544 112.471 94.4868 112.227 94.6353 111.918C94.7485 111.68 94.8052 111.329 94.8052 110.864V110.477ZM98.4849 113.6H97.5063V105.01H98.561V108.075C99.0063 107.516 99.5747 107.237 100.266 107.237C100.649 107.237 101.01 107.315 101.35 107.471C101.694 107.624 101.975 107.84 102.194 108.122C102.417 108.399 102.59 108.735 102.715 109.129C102.84 109.524 102.903 109.946 102.903 110.395C102.903 111.461 102.639 112.286 102.112 112.868C101.584 113.45 100.952 113.741 100.213 113.741C99.479 113.741 98.9028 113.434 98.4849 112.821V113.6ZM98.4731 110.442C98.4731 111.188 98.5747 111.727 98.7778 112.059C99.1099 112.602 99.5591 112.874 100.125 112.874C100.586 112.874 100.985 112.674 101.321 112.276C101.657 111.874 101.825 111.276 101.825 110.483C101.825 109.67 101.663 109.071 101.338 108.684C101.018 108.297 100.629 108.104 100.172 108.104C99.7114 108.104 99.313 108.305 98.9771 108.708C98.6411 109.106 98.4731 109.684 98.4731 110.442ZM103.77 111.743L104.813 111.579C104.872 111.997 105.034 112.317 105.299 112.54C105.569 112.762 105.944 112.874 106.424 112.874C106.909 112.874 107.268 112.776 107.502 112.581C107.737 112.381 107.854 112.149 107.854 111.883C107.854 111.645 107.75 111.458 107.543 111.321C107.399 111.227 107.04 111.108 106.465 110.963C105.692 110.768 105.155 110.6 104.854 110.459C104.557 110.315 104.331 110.118 104.174 109.868C104.022 109.614 103.946 109.334 103.946 109.03C103.946 108.752 104.008 108.497 104.133 108.262C104.262 108.024 104.436 107.827 104.655 107.67C104.819 107.549 105.042 107.448 105.323 107.366C105.608 107.28 105.913 107.237 106.237 107.237C106.725 107.237 107.153 107.307 107.52 107.448C107.891 107.588 108.165 107.78 108.34 108.022C108.516 108.26 108.637 108.581 108.704 108.983L107.672 109.124C107.625 108.803 107.489 108.553 107.262 108.374C107.04 108.194 106.723 108.104 106.313 108.104C105.829 108.104 105.483 108.184 105.276 108.344C105.069 108.504 104.965 108.692 104.965 108.907C104.965 109.043 105.008 109.167 105.094 109.276C105.18 109.389 105.315 109.483 105.499 109.557C105.604 109.596 105.915 109.686 106.43 109.827C107.176 110.026 107.696 110.19 107.989 110.319C108.286 110.444 108.518 110.627 108.686 110.87C108.854 111.112 108.938 111.413 108.938 111.772C108.938 112.124 108.834 112.456 108.627 112.768C108.424 113.077 108.129 113.317 107.743 113.489C107.356 113.657 106.918 113.741 106.43 113.741C105.622 113.741 105.004 113.573 104.579 113.237C104.157 112.901 103.887 112.403 103.77 111.743ZM109.799 110.489C109.799 109.336 110.12 108.483 110.76 107.928C111.295 107.467 111.948 107.237 112.717 107.237C113.573 107.237 114.272 107.518 114.815 108.081C115.358 108.639 115.629 109.413 115.629 110.401C115.629 111.202 115.508 111.833 115.266 112.293C115.028 112.75 114.678 113.106 114.217 113.36C113.76 113.614 113.26 113.741 112.717 113.741C111.846 113.741 111.141 113.461 110.602 112.903C110.067 112.344 109.799 111.54 109.799 110.489ZM110.883 110.489C110.883 111.286 111.057 111.883 111.405 112.282C111.752 112.676 112.19 112.874 112.717 112.874C113.241 112.874 113.676 112.674 114.024 112.276C114.372 111.877 114.545 111.27 114.545 110.454C114.545 109.684 114.37 109.102 114.018 108.708C113.67 108.309 113.237 108.11 112.717 108.11C112.19 108.11 111.752 108.307 111.405 108.702C111.057 109.096 110.883 109.692 110.883 110.489ZM116.848 113.6V105.01H117.903V113.6H116.848ZM123.622 113.6V112.686C123.137 113.389 122.479 113.741 121.647 113.741C121.28 113.741 120.936 113.67 120.616 113.53C120.299 113.389 120.063 113.213 119.907 113.002C119.754 112.788 119.647 112.526 119.584 112.217C119.542 112.01 119.52 111.682 119.52 111.233V107.377H120.575V110.829C120.575 111.379 120.596 111.75 120.639 111.942C120.706 112.219 120.846 112.438 121.061 112.598C121.276 112.754 121.542 112.833 121.858 112.833C122.174 112.833 122.471 112.752 122.749 112.592C123.026 112.428 123.221 112.208 123.334 111.93C123.452 111.649 123.51 111.243 123.51 110.711V107.377H124.565V113.6H123.622ZM128.526 112.657L128.678 113.588C128.381 113.651 128.116 113.682 127.881 113.682C127.499 113.682 127.202 113.622 126.991 113.5C126.78 113.379 126.631 113.221 126.545 113.026C126.459 112.827 126.417 112.411 126.417 111.778V108.198H125.643V107.377H126.417V105.836L127.465 105.204V107.377H128.526V108.198H127.465V111.836C127.465 112.137 127.483 112.331 127.518 112.417C127.557 112.502 127.618 112.571 127.7 112.622C127.786 112.672 127.907 112.698 128.063 112.698C128.18 112.698 128.334 112.684 128.526 112.657ZM133.823 111.596L134.913 111.731C134.741 112.368 134.422 112.862 133.958 113.213C133.493 113.565 132.899 113.741 132.176 113.741C131.266 113.741 130.543 113.461 130.008 112.903C129.477 112.34 129.211 111.553 129.211 110.542C129.211 109.495 129.481 108.682 130.02 108.104C130.559 107.526 131.258 107.237 132.118 107.237C132.95 107.237 133.629 107.52 134.157 108.086C134.684 108.653 134.948 109.45 134.948 110.477C134.948 110.54 134.946 110.633 134.942 110.758H130.301C130.34 111.442 130.534 111.965 130.881 112.329C131.229 112.692 131.663 112.874 132.182 112.874C132.569 112.874 132.899 112.772 133.172 112.569C133.446 112.366 133.663 112.042 133.823 111.596ZM130.36 109.891H133.834C133.788 109.368 133.655 108.975 133.436 108.713C133.1 108.307 132.665 108.104 132.129 108.104C131.645 108.104 131.237 108.266 130.905 108.59C130.577 108.915 130.395 109.348 130.36 109.891ZM136.219 113.6V105.01H137.274V113.6H136.219ZM138.868 115.997L138.75 115.006C138.981 115.069 139.182 115.1 139.354 115.1C139.588 115.1 139.776 115.061 139.917 114.983C140.057 114.905 140.172 114.795 140.262 114.655C140.329 114.549 140.436 114.288 140.584 113.87C140.604 113.811 140.635 113.725 140.678 113.612L138.317 107.377H139.454L140.749 110.981C140.917 111.438 141.067 111.918 141.2 112.422C141.321 111.938 141.465 111.465 141.633 111.004L142.963 107.377H144.018L141.651 113.706C141.397 114.389 141.2 114.86 141.059 115.118C140.872 115.465 140.657 115.719 140.415 115.879C140.172 116.043 139.883 116.125 139.547 116.125C139.344 116.125 139.118 116.083 138.868 115.997ZM148.243 113.6V107.377H149.192V108.321C149.434 107.879 149.657 107.588 149.86 107.448C150.067 107.307 150.293 107.237 150.54 107.237C150.895 107.237 151.256 107.35 151.624 107.577L151.26 108.555C151.002 108.403 150.745 108.327 150.487 108.327C150.256 108.327 150.049 108.397 149.866 108.538C149.682 108.674 149.551 108.866 149.473 109.112C149.356 109.487 149.297 109.897 149.297 110.342V113.6H148.243ZM156.51 111.596L157.6 111.731C157.428 112.368 157.11 112.862 156.645 113.213C156.18 113.565 155.586 113.741 154.864 113.741C153.954 113.741 153.231 113.461 152.696 112.903C152.165 112.34 151.899 111.553 151.899 110.542C151.899 109.495 152.168 108.682 152.708 108.104C153.247 107.526 153.946 107.237 154.805 107.237C155.637 107.237 156.317 107.52 156.844 108.086C157.372 108.653 157.635 109.45 157.635 110.477C157.635 110.54 157.633 110.633 157.629 110.758H152.989C153.028 111.442 153.221 111.965 153.569 112.329C153.917 112.692 154.35 112.874 154.87 112.874C155.256 112.874 155.586 112.772 155.86 112.569C156.133 112.366 156.35 112.042 156.51 111.596ZM153.047 109.891H156.522C156.475 109.368 156.342 108.975 156.124 108.713C155.788 108.307 155.352 108.104 154.817 108.104C154.333 108.104 153.924 108.266 153.592 108.59C153.264 108.915 153.083 109.348 153.047 109.891ZM162.991 111.321L164.028 111.456C163.915 112.17 163.624 112.731 163.155 113.137C162.69 113.54 162.118 113.741 161.438 113.741C160.586 113.741 159.901 113.463 159.381 112.909C158.866 112.35 158.608 111.551 158.608 110.512C158.608 109.84 158.719 109.252 158.942 108.749C159.165 108.245 159.502 107.868 159.956 107.618C160.413 107.364 160.909 107.237 161.444 107.237C162.12 107.237 162.672 107.409 163.102 107.752C163.532 108.092 163.807 108.577 163.928 109.206L162.903 109.364C162.805 108.946 162.631 108.631 162.381 108.42C162.135 108.209 161.836 108.104 161.485 108.104C160.954 108.104 160.522 108.295 160.19 108.678C159.858 109.057 159.692 109.659 159.692 110.483C159.692 111.319 159.852 111.926 160.172 112.305C160.493 112.684 160.911 112.874 161.426 112.874C161.84 112.874 162.186 112.747 162.463 112.493C162.741 112.239 162.917 111.848 162.991 111.321ZM164.538 110.489C164.538 109.336 164.858 108.483 165.499 107.928C166.034 107.467 166.686 107.237 167.456 107.237C168.311 107.237 169.01 107.518 169.553 108.081C170.096 108.639 170.368 109.413 170.368 110.401C170.368 111.202 170.247 111.833 170.004 112.293C169.766 112.75 169.417 113.106 168.956 113.36C168.499 113.614 167.999 113.741 167.456 113.741C166.584 113.741 165.879 113.461 165.34 112.903C164.805 112.344 164.538 111.54 164.538 110.489ZM165.622 110.489C165.622 111.286 165.795 111.883 166.143 112.282C166.491 112.676 166.928 112.874 167.456 112.874C167.979 112.874 168.415 112.674 168.762 112.276C169.11 111.877 169.284 111.27 169.284 110.454C169.284 109.684 169.108 109.102 168.756 108.708C168.409 108.309 167.975 108.11 167.456 108.11C166.928 108.11 166.491 108.307 166.143 108.702C165.795 109.096 165.622 109.692 165.622 110.489ZM171.61 113.6V107.377H172.553V108.25C172.749 107.946 173.008 107.702 173.333 107.518C173.657 107.331 174.026 107.237 174.44 107.237C174.901 107.237 175.278 107.333 175.571 107.524C175.868 107.715 176.077 107.983 176.198 108.327C176.69 107.6 177.331 107.237 178.12 107.237C178.737 107.237 179.211 107.409 179.543 107.752C179.875 108.092 180.042 108.618 180.042 109.329V113.6H178.993V109.68C178.993 109.258 178.958 108.956 178.887 108.772C178.821 108.584 178.698 108.434 178.518 108.321C178.338 108.208 178.127 108.151 177.885 108.151C177.448 108.151 177.084 108.297 176.795 108.59C176.506 108.879 176.362 109.344 176.362 109.985V113.6H175.307V109.557C175.307 109.088 175.221 108.737 175.049 108.502C174.877 108.268 174.596 108.151 174.206 108.151C173.909 108.151 173.633 108.229 173.379 108.385C173.129 108.542 172.948 108.77 172.834 109.071C172.721 109.372 172.665 109.805 172.665 110.372V113.6H171.61ZM181.606 113.6V107.377H182.549V108.25C182.745 107.946 183.004 107.702 183.329 107.518C183.653 107.331 184.022 107.237 184.436 107.237C184.897 107.237 185.274 107.333 185.567 107.524C185.864 107.715 186.073 107.983 186.194 108.327C186.686 107.6 187.327 107.237 188.116 107.237C188.733 107.237 189.208 107.409 189.54 107.752C189.872 108.092 190.038 108.618 190.038 109.329V113.6H188.989V109.68C188.989 109.258 188.954 108.956 188.883 108.772C188.817 108.584 188.694 108.434 188.514 108.321C188.334 108.208 188.124 108.151 187.881 108.151C187.444 108.151 187.081 108.297 186.792 108.59C186.502 108.879 186.358 109.344 186.358 109.985V113.6H185.303V109.557C185.303 109.088 185.217 108.737 185.045 108.502C184.874 108.268 184.592 108.151 184.202 108.151C183.905 108.151 183.629 108.229 183.375 108.385C183.125 108.542 182.944 108.77 182.831 109.071C182.717 109.372 182.661 109.805 182.661 110.372V113.6H181.606ZM195.862 111.596L196.952 111.731C196.78 112.368 196.461 112.862 195.997 113.213C195.532 113.565 194.938 113.741 194.215 113.741C193.305 113.741 192.583 113.461 192.047 112.903C191.516 112.34 191.25 111.553 191.25 110.542C191.25 109.495 191.52 108.682 192.059 108.104C192.598 107.526 193.297 107.237 194.157 107.237C194.989 107.237 195.668 107.52 196.196 108.086C196.723 108.653 196.987 109.45 196.987 110.477C196.987 110.54 196.985 110.633 196.981 110.758H192.34C192.379 111.442 192.573 111.965 192.92 112.329C193.268 112.692 193.702 112.874 194.221 112.874C194.608 112.874 194.938 112.772 195.211 112.569C195.485 112.366 195.702 112.042 195.862 111.596ZM192.399 109.891H195.874C195.827 109.368 195.694 108.975 195.475 108.713C195.139 108.307 194.704 108.104 194.168 108.104C193.684 108.104 193.276 108.266 192.944 108.59C192.616 108.915 192.434 109.348 192.399 109.891ZM198.282 113.6V107.377H199.231V108.262C199.688 107.579 200.348 107.237 201.211 107.237C201.586 107.237 201.93 107.305 202.243 107.442C202.559 107.575 202.795 107.75 202.952 107.969C203.108 108.188 203.217 108.448 203.28 108.749C203.319 108.944 203.338 109.286 203.338 109.774V113.6H202.284V109.815C202.284 109.385 202.243 109.065 202.161 108.854C202.079 108.639 201.932 108.469 201.721 108.344C201.514 108.215 201.27 108.151 200.989 108.151C200.54 108.151 200.151 108.293 199.823 108.579C199.499 108.864 199.336 109.405 199.336 110.202V113.6H198.282ZM208.999 113.6V112.815C208.604 113.432 208.024 113.741 207.258 113.741C206.762 113.741 206.305 113.604 205.887 113.331C205.473 113.057 205.151 112.676 204.92 112.188C204.694 111.696 204.581 111.131 204.581 110.495C204.581 109.874 204.684 109.311 204.891 108.807C205.098 108.299 205.409 107.911 205.823 107.641C206.237 107.372 206.7 107.237 207.211 107.237C207.586 107.237 207.92 107.317 208.213 107.477C208.506 107.633 208.745 107.838 208.928 108.092V105.01H209.977V113.6H208.999ZM205.665 110.495C205.665 111.292 205.833 111.887 206.168 112.282C206.504 112.676 206.901 112.874 207.358 112.874C207.819 112.874 208.209 112.686 208.53 112.311C208.854 111.932 209.016 111.356 209.016 110.583C209.016 109.731 208.852 109.106 208.524 108.708C208.196 108.309 207.792 108.11 207.311 108.11C206.842 108.11 206.45 108.301 206.133 108.684C205.821 109.067 205.665 109.67 205.665 110.495ZM212.204 111.467L211.881 106.915V105.01H213.188V106.915L212.883 111.467H212.204ZM211.928 113.6V112.399H213.141V113.6H211.928Z" fill="black"/>
<line x1="10.6001" y1="125.5" x2="231.4" y2="125.5" stroke="#808080" stroke-width="0.6"/>
<path d="M15.4481 138.359H12.5114V139.913H15.8583V141H11.2769V134.954H15.7106V136.025H12.5114V137.309H15.4481V138.359ZM16.7729 134.954H17.9419V141H16.7729V134.954ZM20.288 136.529V141H19.1026V136.529H20.288ZM20.288 134.917V135.996H19.1026V134.917H20.288ZM24.8735 141H21.014V140.089L23.3067 137.481H21.1698V136.529H24.7956V137.501L22.5274 140.04H24.8735V141ZM25.7923 137.013C26.1013 136.62 26.6317 136.423 27.3837 136.423C27.8731 136.423 28.3079 136.52 28.688 136.714C29.0681 136.908 29.2581 137.274 29.2581 137.813V139.864C29.2581 140.006 29.2608 140.178 29.2663 140.381C29.2745 140.534 29.2978 140.638 29.336 140.692C29.3743 140.747 29.4317 140.792 29.5083 140.828V141H28.2368C28.2013 140.91 28.1767 140.825 28.163 140.746C28.1493 140.666 28.1384 140.576 28.1302 140.475C27.9688 140.65 27.7829 140.799 27.5724 140.922C27.3208 141.067 27.0364 141.139 26.7192 141.139C26.3146 141.139 25.9796 141.025 25.7144 140.795C25.4519 140.562 25.3206 140.234 25.3206 139.811C25.3206 139.261 25.5325 138.863 25.9563 138.617C26.1888 138.483 26.5306 138.387 26.9817 138.33L27.3796 138.281C27.5956 138.253 27.7501 138.219 27.8431 138.178C28.0099 138.107 28.0933 137.996 28.0933 137.846C28.0933 137.663 28.029 137.537 27.9005 137.469C27.7747 137.397 27.5888 137.362 27.3427 137.362C27.0665 137.362 26.871 137.43 26.7562 137.567C26.6741 137.668 26.6194 137.805 26.5921 137.977H25.4642C25.4888 137.586 25.5981 137.265 25.7923 137.013ZM26.6618 140.155C26.7712 140.245 26.9052 140.29 27.0638 140.29C27.3153 140.29 27.5464 140.217 27.7569 140.069C27.9702 139.921 28.081 139.652 28.0892 139.261V138.826C28.0153 138.873 27.9401 138.911 27.8636 138.941C27.7897 138.968 27.6872 138.994 27.556 139.019L27.2935 139.068C27.0474 139.112 26.871 139.165 26.7644 139.228C26.5839 139.335 26.4937 139.5 26.4937 139.724C26.4937 139.924 26.5497 140.068 26.6618 140.155ZM32.728 141.119C32.3589 141.119 32.0622 141.045 31.838 140.897C31.704 140.81 31.5591 140.657 31.4032 140.438V141H30.2589V134.962H31.4237V137.112C31.5714 136.904 31.7341 136.745 31.9118 136.636C32.1224 136.499 32.3903 136.431 32.7157 136.431C33.3036 136.431 33.763 136.643 34.0938 137.067C34.4274 137.49 34.5942 138.037 34.5942 138.707C34.5942 139.402 34.4302 139.977 34.1021 140.434C33.7739 140.891 33.3159 141.119 32.728 141.119ZM33.3679 138.83C33.3679 138.513 33.3269 138.251 33.2448 138.043C33.089 137.649 32.8019 137.452 32.3835 137.452C31.9597 137.452 31.6685 137.645 31.5099 138.03C31.4278 138.236 31.3868 138.501 31.3868 138.826C31.3868 139.209 31.4716 139.526 31.6411 139.778C31.8106 140.029 32.069 140.155 32.4163 140.155C32.7171 140.155 32.9509 140.033 33.1177 139.79C33.2845 139.547 33.3679 139.227 33.3679 138.83ZM39.2618 139.687C39.2317 139.953 39.0937 140.222 38.8476 140.496C38.4647 140.93 37.9288 141.148 37.2397 141.148C36.671 141.148 36.1692 140.964 35.7345 140.598C35.2997 140.232 35.0823 139.636 35.0823 138.81C35.0823 138.036 35.2778 137.443 35.6688 137.03C36.0626 136.617 36.5726 136.41 37.1987 136.41C37.5706 136.41 37.9056 136.48 38.2036 136.62C38.5017 136.759 38.7478 136.979 38.9419 137.28C39.1169 137.545 39.2304 137.853 39.2823 138.203C39.3124 138.408 39.3247 138.703 39.3192 139.089H36.2595C36.2759 139.537 36.4167 139.852 36.6819 140.032C36.8433 140.144 37.0374 140.2 37.2644 140.2C37.505 140.2 37.7005 140.132 37.8509 139.995C37.9329 139.921 38.0054 139.819 38.0683 139.687H39.2618ZM38.1052 138.318C38.086 138.009 37.9917 137.775 37.8222 137.616C37.6554 137.455 37.4476 137.374 37.1987 137.374C36.928 137.374 36.7175 137.459 36.5671 137.629C36.4194 137.798 36.3265 138.028 36.2882 138.318H38.1052ZM42.1575 140.167V141.041L41.6038 141.062C41.0515 141.081 40.6741 140.985 40.4718 140.774C40.3405 140.64 40.2749 140.434 40.2749 140.155V137.403H39.6515V136.57H40.2749V135.323H41.4315V136.57H42.1575V137.403H41.4315V139.765C41.4315 139.949 41.4548 140.063 41.5013 140.11C41.5478 140.154 41.6899 140.176 41.9278 140.176C41.9634 140.176 42.0003 140.176 42.0386 140.176C42.0796 140.173 42.1192 140.17 42.1575 140.167ZM46.9481 138.375V141H45.7546V138.281C45.7546 138.04 45.7136 137.846 45.6315 137.698C45.5249 137.49 45.3226 137.387 45.0245 137.387C44.7155 137.387 44.4804 137.49 44.319 137.698C44.1605 137.903 44.0812 138.197 44.0812 138.58V141H42.9163V134.975H44.0812V137.112C44.2507 136.852 44.4462 136.671 44.6677 136.57C44.8919 136.466 45.1271 136.414 45.3731 136.414C45.6493 136.414 45.8995 136.462 46.1237 136.558C46.3507 136.654 46.5366 136.8 46.6815 136.997C46.8046 137.164 46.8798 137.336 46.9071 137.514C46.9345 137.689 46.9481 137.976 46.9481 138.375ZM56.3571 134.954H57.6409L55.9388 141H54.7329L54.0028 137.464L53.7896 136.296L53.5763 137.464L52.8462 141H51.6731L49.9587 134.954H51.2999L52.0997 138.416L52.272 139.38L52.4483 138.437L53.1292 134.954H54.4622L55.18 138.416L55.3646 139.38L55.5491 138.453L56.3571 134.954ZM57.8337 139.778H59.0765V141H57.8337V139.778ZM11.2194 145.975H12.3884L14.1192 151.069L15.8378 145.975H16.9944V152H16.2192V148.444C16.2192 148.321 16.222 148.117 16.2274 147.833C16.2329 147.548 16.2356 147.244 16.2356 146.918L14.5171 152H13.7091L11.9782 146.918V147.103C11.9782 147.25 11.981 147.476 11.9864 147.779C11.9946 148.08 11.9987 148.302 11.9987 148.444V152H11.2194V145.975ZM19.8819 151.524C20.3714 151.524 20.7063 151.34 20.8868 150.971C21.07 150.599 21.1616 150.186 21.1616 149.732C21.1616 149.322 21.096 148.988 20.9647 148.731C20.7569 148.326 20.3987 148.124 19.8901 148.124C19.439 148.124 19.1108 148.296 18.9058 148.641C18.7007 148.985 18.5981 149.401 18.5981 149.888C18.5981 150.355 18.7007 150.745 18.9058 151.057C19.1108 151.368 19.4362 151.524 19.8819 151.524ZM19.9106 147.48C20.4767 147.48 20.9552 147.669 21.3462 148.046C21.7372 148.423 21.9327 148.979 21.9327 149.711C21.9327 150.42 21.7605 151.005 21.4159 151.467C21.0714 151.929 20.5368 152.16 19.8122 152.16C19.2079 152.16 18.728 151.956 18.3726 151.549C18.0171 151.139 17.8394 150.589 17.8394 149.9C17.8394 149.162 18.0267 148.574 18.4013 148.136C18.7759 147.699 19.279 147.48 19.9106 147.48ZM22.8351 147.607H23.5364V148.366C23.5938 148.218 23.7347 148.039 23.9589 147.829C24.1831 147.615 24.4415 147.509 24.7341 147.509C24.7478 147.509 24.771 147.51 24.8038 147.513C24.8366 147.516 24.8927 147.521 24.972 147.529V148.309C24.9282 148.3 24.8872 148.295 24.8489 148.292C24.8134 148.289 24.7737 148.288 24.73 148.288C24.3581 148.288 24.0724 148.408 23.8728 148.649C23.6731 148.887 23.5733 149.162 23.5733 149.473V152H22.8351V147.607ZM27.4411 147.509C27.7528 147.509 28.055 147.583 28.3476 147.73C28.6401 147.875 28.863 148.064 29.0161 148.296C29.1638 148.518 29.2622 148.776 29.3114 149.071C29.3552 149.274 29.3771 149.596 29.3771 150.039H26.1573C26.171 150.485 26.2763 150.843 26.4731 151.114C26.67 151.382 26.9749 151.516 27.3878 151.516C27.7733 151.516 28.081 151.389 28.3106 151.135C28.4419 150.987 28.5349 150.816 28.5896 150.622H29.3155C29.2964 150.783 29.2321 150.964 29.1228 151.163C29.0161 151.36 28.8958 151.521 28.7618 151.647C28.5376 151.866 28.2601 152.014 27.9292 152.09C27.7515 152.134 27.5505 152.156 27.3263 152.156C26.7794 152.156 26.3159 151.958 25.9358 151.561C25.5558 151.162 25.3657 150.604 25.3657 149.888C25.3657 149.182 25.5571 148.609 25.9399 148.169C26.3228 147.729 26.8231 147.509 27.4411 147.509ZM28.6183 149.453C28.5882 149.133 28.5185 148.877 28.4091 148.686C28.2067 148.33 27.869 148.153 27.396 148.153C27.0569 148.153 26.7726 148.276 26.5429 148.522C26.3132 148.765 26.1915 149.076 26.1778 149.453H28.6183ZM33.1915 150.831C33.1915 151.044 33.2694 151.212 33.4253 151.336C33.5812 151.459 33.7657 151.52 33.979 151.52C34.2388 151.52 34.4903 151.46 34.7337 151.34C35.1438 151.14 35.3489 150.813 35.3489 150.359V149.765C35.2587 149.822 35.1425 149.87 35.0003 149.908C34.8581 149.946 34.7187 149.974 34.5819 149.99L34.1349 150.048C33.8669 150.083 33.6659 150.139 33.5319 150.216C33.305 150.344 33.1915 150.549 33.1915 150.831ZM34.9798 149.338C35.1493 149.316 35.2628 149.245 35.3202 149.125C35.353 149.059 35.3694 148.965 35.3694 148.842C35.3694 148.59 35.2792 148.408 35.0987 148.296C34.921 148.181 34.6653 148.124 34.3317 148.124C33.9462 148.124 33.6728 148.228 33.5114 148.436C33.4212 148.551 33.3624 148.721 33.3351 148.948H32.646C32.6597 148.407 32.8347 148.031 33.171 147.821C33.5101 147.607 33.9024 147.501 34.3481 147.501C34.8649 147.501 35.2847 147.599 35.6073 147.796C35.9272 147.993 36.0872 148.299 36.0872 148.715V151.245C36.0872 151.322 36.1022 151.383 36.1323 151.43C36.1651 151.476 36.2321 151.5 36.3333 151.5C36.3661 151.5 36.403 151.498 36.444 151.496C36.4851 151.49 36.5288 151.483 36.5753 151.475V152.021C36.4605 152.053 36.373 152.074 36.3128 152.082C36.2526 152.09 36.1706 152.094 36.0667 152.094C35.8124 152.094 35.6278 152.004 35.513 151.824C35.4528 151.728 35.4105 151.593 35.3858 151.418C35.2355 151.614 35.0194 151.785 34.7378 151.93C34.4562 152.075 34.1458 152.148 33.8067 152.148C33.3993 152.148 33.0657 152.025 32.806 151.779C32.5489 151.53 32.4204 151.219 32.4204 150.847C32.4204 150.44 32.5476 150.124 32.8019 149.9C33.0562 149.676 33.3897 149.538 33.8026 149.486L34.9798 149.338ZM38.0396 147.607V150.523C38.0396 150.748 38.0751 150.931 38.1462 151.073C38.2774 151.336 38.5222 151.467 38.8804 151.467C39.3944 151.467 39.7444 151.237 39.9304 150.778C40.0315 150.532 40.0821 150.194 40.0821 149.765V147.607H40.8204V152H40.1231L40.1313 151.352C40.0356 151.519 39.9167 151.66 39.7745 151.774C39.4929 152.004 39.1511 152.119 38.7491 152.119C38.123 152.119 37.6964 151.91 37.4694 151.491C37.3464 151.267 37.2849 150.968 37.2849 150.593V147.607H38.0396ZM42.1247 146.381H42.8712V147.607H43.5726V148.21H42.8712V151.077C42.8712 151.23 42.9231 151.333 43.0271 151.385C43.0845 151.415 43.1802 151.43 43.3142 151.43C43.3497 151.43 43.388 151.43 43.429 151.43C43.47 151.427 43.5179 151.423 43.5726 151.418V152C43.4878 152.025 43.3989 152.042 43.306 152.053C43.2157 152.064 43.1173 152.07 43.0106 152.07C42.6661 152.07 42.4323 151.982 42.3093 151.807C42.1862 151.629 42.1247 151.4 42.1247 151.118V148.21H41.53V147.607H42.1247V146.381ZM44.3149 145.954H45.0532V148.202C45.2282 147.98 45.3855 147.825 45.5249 147.734C45.7628 147.579 46.0595 147.501 46.4149 147.501C47.0521 147.501 47.4841 147.723 47.711 148.169C47.8341 148.412 47.8956 148.75 47.8956 149.182V152H47.1368V149.231C47.1368 148.909 47.0958 148.672 47.0138 148.522C46.8798 148.281 46.6282 148.161 46.2591 148.161C45.9528 148.161 45.6753 148.266 45.4265 148.477C45.1776 148.687 45.0532 149.085 45.0532 149.67V152H44.3149V145.954ZM50.82 147.509C51.1317 147.509 51.4339 147.583 51.7265 147.73C52.019 147.875 52.2419 148.064 52.395 148.296C52.5427 148.518 52.6411 148.776 52.6903 149.071C52.7341 149.274 52.756 149.596 52.756 150.039H49.5362C49.5499 150.485 49.6552 150.843 49.8521 151.114C50.0489 151.382 50.3538 151.516 50.7667 151.516C51.1523 151.516 51.4599 151.389 51.6896 151.135C51.8208 150.987 51.9138 150.816 51.9685 150.622H52.6944C52.6753 150.783 52.611 150.964 52.5017 151.163C52.395 151.36 52.2747 151.521 52.1407 151.647C51.9165 151.866 51.639 152.014 51.3081 152.09C51.1304 152.134 50.9294 152.156 50.7052 152.156C50.1583 152.156 49.6948 151.958 49.3148 151.561C48.9347 151.162 48.7446 150.604 48.7446 149.888C48.7446 149.182 48.936 148.609 49.3189 148.169C49.7017 147.729 50.2021 147.509 50.82 147.509ZM51.9972 149.453C51.9671 149.133 51.8974 148.877 51.788 148.686C51.5857 148.33 51.248 148.153 50.7749 148.153C50.4358 148.153 50.1515 148.276 49.9218 148.522C49.6921 148.765 49.5704 149.076 49.5567 149.453H51.9972ZM53.6665 147.607H54.3679V148.231C54.5757 147.974 54.7958 147.789 55.0282 147.677C55.2607 147.565 55.519 147.509 55.8034 147.509C56.4269 147.509 56.848 147.726 57.0667 148.161C57.187 148.399 57.2472 148.739 57.2472 149.182V152H56.4966V149.231C56.4966 148.963 56.4569 148.747 56.3776 148.583C56.2464 148.31 56.0085 148.173 55.664 148.173C55.489 148.173 55.3454 148.191 55.2333 148.227C55.031 148.287 54.8532 148.407 54.7001 148.587C54.5771 148.732 54.4964 148.883 54.4581 149.039C54.4226 149.192 54.4048 149.412 54.4048 149.699V152H53.6665V147.607ZM58.4899 146.381H59.2364V147.607H59.9378V148.21H59.2364V151.077C59.2364 151.23 59.2884 151.333 59.3923 151.385C59.4497 151.415 59.5454 151.43 59.6794 151.43C59.7149 151.43 59.7532 151.43 59.7942 151.43C59.8353 151.427 59.8831 151.423 59.9378 151.418V152C59.853 152.025 59.7642 152.042 59.6712 152.053C59.581 152.064 59.4825 152.07 59.3759 152.07C59.0314 152.07 58.7976 151.982 58.6745 151.807C58.5515 151.629 58.4899 151.4 58.4899 151.118V148.21H57.8952V147.607H58.4899V146.381ZM60.6802 147.628H61.4308V152H60.6802V147.628ZM60.6802 145.975H61.4308V146.812H60.6802V145.975ZM64.2444 147.48C64.7394 147.48 65.1413 147.6 65.4503 147.841C65.762 148.082 65.9493 148.496 66.0122 149.084H65.2944C65.2507 148.813 65.1509 148.589 64.995 148.411C64.8392 148.231 64.589 148.14 64.2444 148.14C63.7741 148.14 63.4378 148.37 63.2355 148.829C63.1042 149.128 63.0386 149.495 63.0386 149.933C63.0386 150.373 63.1315 150.744 63.3175 151.044C63.5034 151.345 63.796 151.496 64.1952 151.496C64.5015 151.496 64.7435 151.403 64.9212 151.217C65.1017 151.028 65.2261 150.771 65.2944 150.446H66.0122C65.9302 151.028 65.7251 151.454 65.397 151.725C65.0689 151.993 64.6491 152.127 64.1378 152.127C63.5636 152.127 63.1056 151.918 62.7638 151.5C62.422 151.079 62.2511 150.554 62.2511 149.925C62.2511 149.154 62.4384 148.553 62.813 148.124C63.1876 147.695 63.6648 147.48 64.2444 147.48ZM69.1089 147.607H69.8103V148.366C69.8677 148.218 70.0085 148.039 70.2327 147.829C70.4569 147.615 70.7153 147.509 71.0079 147.509C71.0216 147.509 71.0448 147.51 71.0776 147.513C71.1105 147.516 71.1665 147.521 71.2458 147.529V148.309C71.2021 148.3 71.161 148.295 71.1228 148.292C71.0872 148.289 71.0476 148.288 71.0038 148.288C70.6319 148.288 70.3462 148.408 70.1466 148.649C69.947 148.887 69.8472 149.162 69.8472 149.473V152H69.1089V147.607ZM73.7149 147.509C74.0267 147.509 74.3288 147.583 74.6214 147.73C74.914 147.875 75.1368 148.064 75.2899 148.296C75.4376 148.518 75.536 148.776 75.5853 149.071C75.629 149.274 75.6509 149.596 75.6509 150.039H72.4312C72.4448 150.485 72.5501 150.843 72.747 151.114C72.9439 151.382 73.2487 151.516 73.6616 151.516C74.0472 151.516 74.3548 151.389 74.5845 151.135C74.7157 150.987 74.8087 150.816 74.8634 150.622H75.5894C75.5702 150.783 75.506 150.964 75.3966 151.163C75.2899 151.36 75.1696 151.521 75.0356 151.647C74.8114 151.866 74.5339 152.014 74.203 152.09C74.0253 152.134 73.8243 152.156 73.6001 152.156C73.0532 152.156 72.5897 151.958 72.2097 151.561C71.8296 151.162 71.6396 150.604 71.6396 149.888C71.6396 149.182 71.831 148.609 72.2138 148.169C72.5966 147.729 73.097 147.509 73.7149 147.509ZM74.8921 149.453C74.862 149.133 74.7923 148.877 74.6829 148.686C74.4806 148.33 74.1429 148.153 73.6698 148.153C73.3308 148.153 73.0464 148.276 72.8167 148.522C72.587 148.765 72.4653 149.076 72.4517 149.453H74.8921ZM76.9224 147.607L78.0954 151.184L79.3218 147.607H80.1298L78.4728 152H77.6853L76.0651 147.607H76.9224ZM80.7614 147.628H81.512V152H80.7614V147.628ZM80.7614 145.975H81.512V146.812H80.7614V145.975ZM84.461 147.509C84.7728 147.509 85.0749 147.583 85.3675 147.73C85.6601 147.875 85.8829 148.064 86.036 148.296C86.1837 148.518 86.2821 148.776 86.3314 149.071C86.3751 149.274 86.397 149.596 86.397 150.039H83.1773C83.1909 150.485 83.2962 150.843 83.4931 151.114C83.6899 151.382 83.9948 151.516 84.4077 151.516C84.7933 151.516 85.1009 151.389 85.3306 151.135C85.4618 150.987 85.5548 150.816 85.6095 150.622H86.3355C86.3163 150.783 86.2521 150.964 86.1427 151.163C86.036 151.36 85.9157 151.521 85.7817 151.647C85.5575 151.866 85.28 152.014 84.9491 152.09C84.7714 152.134 84.5704 152.156 84.3462 152.156C83.7993 152.156 83.3358 151.958 82.9558 151.561C82.5757 151.162 82.3857 150.604 82.3857 149.888C82.3857 149.182 82.5771 148.609 82.9599 148.169C83.3427 147.729 83.8431 147.509 84.461 147.509ZM85.6382 149.453C85.6081 149.133 85.5384 148.877 85.429 148.686C85.2267 148.33 84.889 148.153 84.4159 148.153C84.0769 148.153 83.7925 148.276 83.5628 148.522C83.3331 148.765 83.2114 149.076 83.1978 149.453H85.6382ZM87.648 147.607L88.4929 151.069L89.3501 147.607H90.1786L91.0399 151.048L91.9382 147.607H92.6765L91.4009 152H90.6339L89.7398 148.6L88.8743 152H88.1073L86.8399 147.607H87.648ZM93.8167 150.622C93.8386 150.868 93.9001 151.057 94.0013 151.188C94.1872 151.426 94.5099 151.545 94.9692 151.545C95.2427 151.545 95.4833 151.486 95.6911 151.368C95.8989 151.248 96.0028 151.063 96.0028 150.815C96.0028 150.626 95.9194 150.482 95.7526 150.384C95.646 150.324 95.4355 150.254 95.121 150.175L94.5345 150.027C94.1599 149.934 93.8837 149.83 93.706 149.715C93.3888 149.516 93.2302 149.24 93.2302 148.887C93.2302 148.471 93.3792 148.135 93.6773 147.878C93.978 147.621 94.3814 147.492 94.8872 147.492C95.5489 147.492 96.0261 147.687 96.3187 148.075C96.5019 148.321 96.5907 148.586 96.5853 148.871H95.888C95.8743 148.704 95.8155 148.552 95.7116 148.415C95.5421 148.221 95.2482 148.124 94.8298 148.124C94.5509 148.124 94.339 148.177 94.1941 148.284C94.0519 148.391 93.9808 148.531 93.9808 148.706C93.9808 148.898 94.0751 149.051 94.2638 149.166C94.3732 149.234 94.5345 149.294 94.7478 149.346L95.2358 149.465C95.7663 149.594 96.1218 149.718 96.3023 149.838C96.5894 150.027 96.7329 150.324 96.7329 150.729C96.7329 151.12 96.5839 151.457 96.2858 151.742C95.9905 152.026 95.5394 152.168 94.9323 152.168C94.2788 152.168 93.8153 152.021 93.5419 151.725C93.2712 151.427 93.1263 151.059 93.1071 150.622H93.8167ZM101.659 151.524C102.148 151.524 102.483 151.34 102.664 150.971C102.847 150.599 102.939 150.186 102.939 149.732C102.939 149.322 102.873 148.988 102.742 148.731C102.534 148.326 102.176 148.124 101.667 148.124C101.216 148.124 100.888 148.296 100.683 148.641C100.478 148.985 100.375 149.401 100.375 149.888C100.375 150.355 100.478 150.745 100.683 151.057C100.888 151.368 101.213 151.524 101.659 151.524ZM101.688 147.48C102.254 147.48 102.732 147.669 103.123 148.046C103.514 148.423 103.71 148.979 103.71 149.711C103.71 150.42 103.537 151.005 103.193 151.467C102.848 151.929 102.314 152.16 101.589 152.16C100.985 152.16 100.505 151.956 100.15 151.549C99.794 151.139 99.6163 150.589 99.6163 149.9C99.6163 149.162 99.8036 148.574 100.178 148.136C100.553 147.699 101.056 147.48 101.688 147.48ZM104.592 147.607H105.293V148.231C105.501 147.974 105.721 147.789 105.953 147.677C106.186 147.565 106.444 147.509 106.728 147.509C107.352 147.509 107.773 147.726 107.992 148.161C108.112 148.399 108.172 148.739 108.172 149.182V152H107.422V149.231C107.422 148.963 107.382 148.747 107.303 148.583C107.171 148.31 106.934 148.173 106.589 148.173C106.414 148.173 106.27 148.191 106.158 148.227C105.956 148.287 105.778 148.407 105.625 148.587C105.502 148.732 105.421 148.883 105.383 149.039C105.348 149.192 105.33 149.412 105.33 149.699V152H104.592V147.607Z" fill="#4D4D4D"/>
<path d="M116.088 145.975V146.693H114.058V152H113.229V146.693H111.199V145.975H116.088ZM116.449 147.607H117.15V148.366C117.208 148.218 117.349 148.039 117.573 147.829C117.797 147.615 118.056 147.509 118.348 147.509C118.362 147.509 118.385 147.51 118.418 147.513C118.451 147.516 118.507 147.521 118.586 147.529V148.309C118.542 148.3 118.501 148.295 118.463 148.292C118.427 148.289 118.388 148.288 118.344 148.288C117.972 148.288 117.686 148.408 117.487 148.649C117.287 148.887 117.187 149.162 117.187 149.473V152H116.449V147.607ZM119.964 147.607V150.523C119.964 150.748 120 150.931 120.071 151.073C120.202 151.336 120.447 151.467 120.805 151.467C121.319 151.467 121.669 151.237 121.855 150.778C121.956 150.532 122.007 150.194 122.007 149.765V147.607H122.745V152H122.048L122.056 151.352C121.96 151.519 121.841 151.66 121.699 151.774C121.417 152.004 121.076 152.119 120.674 152.119C120.048 152.119 119.621 151.91 119.394 151.491C119.271 151.267 119.209 150.968 119.209 150.593V147.607H119.964ZM124.341 150.622C124.362 150.868 124.424 151.057 124.525 151.188C124.711 151.426 125.034 151.545 125.493 151.545C125.767 151.545 126.007 151.486 126.215 151.368C126.423 151.248 126.527 151.063 126.527 150.815C126.527 150.626 126.443 150.482 126.276 150.384C126.17 150.324 125.959 150.254 125.645 150.175L125.058 150.027C124.684 149.934 124.408 149.83 124.23 149.715C123.913 149.516 123.754 149.24 123.754 148.887C123.754 148.471 123.903 148.135 124.201 147.878C124.502 147.621 124.905 147.492 125.411 147.492C126.073 147.492 126.55 147.687 126.842 148.075C127.026 148.321 127.115 148.586 127.109 148.871H126.412C126.398 148.704 126.339 148.552 126.235 148.415C126.066 148.221 125.772 148.124 125.354 148.124C125.075 148.124 124.863 148.177 124.718 148.284C124.576 148.391 124.505 148.531 124.505 148.706C124.505 148.898 124.599 149.051 124.788 149.166C124.897 149.234 125.058 149.294 125.272 149.346L125.76 149.465C126.29 149.594 126.646 149.718 126.826 149.838C127.113 150.027 127.257 150.324 127.257 150.729C127.257 151.12 127.108 151.457 126.81 151.742C126.514 152.026 126.063 152.168 125.456 152.168C124.803 152.168 124.339 152.021 124.066 151.725C123.795 151.427 123.65 151.059 123.631 150.622H124.341ZM128.249 146.381H128.996V147.607H129.697V148.21H128.996V151.077C128.996 151.23 129.048 151.333 129.152 151.385C129.209 151.415 129.305 151.43 129.439 151.43C129.474 151.43 129.513 151.43 129.554 151.43C129.595 151.427 129.642 151.423 129.697 151.418V152C129.612 152.025 129.524 152.042 129.431 152.053C129.34 152.064 129.242 152.07 129.135 152.07C128.791 152.07 128.557 151.982 128.434 151.807C128.311 151.629 128.249 151.4 128.249 151.118V148.21H127.655V147.607H128.249V146.381ZM132.269 147.509C132.581 147.509 132.883 147.583 133.175 147.73C133.468 147.875 133.691 148.064 133.844 148.296C133.992 148.518 134.09 148.776 134.139 149.071C134.183 149.274 134.205 149.596 134.205 150.039H130.985C130.999 150.485 131.104 150.843 131.301 151.114C131.498 151.382 131.803 151.516 132.216 151.516C132.601 151.516 132.909 151.389 133.138 151.135C133.27 150.987 133.363 150.816 133.417 150.622H134.143C134.124 150.783 134.06 150.964 133.95 151.163C133.844 151.36 133.724 151.521 133.59 151.647C133.365 151.866 133.088 152.014 132.757 152.09C132.579 152.134 132.378 152.156 132.154 152.156C131.607 152.156 131.144 151.958 130.764 151.561C130.384 151.162 130.193 150.604 130.193 149.888C130.193 149.182 130.385 148.609 130.768 148.169C131.15 147.729 131.651 147.509 132.269 147.509ZM133.446 149.453C133.416 149.133 133.346 148.877 133.237 148.686C133.034 148.33 132.697 148.153 132.224 148.153C131.885 148.153 131.6 148.276 131.371 148.522C131.141 148.765 131.019 149.076 131.006 149.453H133.446ZM135.583 149.855C135.583 150.325 135.683 150.719 135.882 151.036C136.082 151.353 136.402 151.512 136.842 151.512C137.184 151.512 137.464 151.366 137.683 151.073C137.904 150.778 138.015 150.355 138.015 149.806C138.015 149.251 137.902 148.84 137.675 148.575C137.448 148.307 137.167 148.173 136.834 148.173C136.462 148.173 136.16 148.315 135.927 148.6C135.698 148.884 135.583 149.303 135.583 149.855ZM136.694 147.529C137.031 147.529 137.312 147.6 137.539 147.743C137.671 147.825 137.82 147.968 137.986 148.173V145.954H138.696V152H138.032V151.389C137.859 151.66 137.656 151.855 137.42 151.975C137.185 152.096 136.916 152.156 136.612 152.156C136.123 152.156 135.699 151.951 135.341 151.541C134.983 151.128 134.804 150.579 134.804 149.896C134.804 149.256 134.966 148.702 135.292 148.235C135.62 147.764 136.087 147.529 136.694 147.529ZM142.761 150.056C142.78 150.398 142.86 150.675 143.003 150.888C143.273 151.288 143.751 151.487 144.434 151.487C144.74 151.487 145.019 151.444 145.271 151.356C145.758 151.187 146.001 150.883 146.001 150.446C146.001 150.117 145.898 149.884 145.693 149.744C145.485 149.607 145.16 149.488 144.717 149.387L143.901 149.203C143.368 149.082 142.99 148.95 142.769 148.805C142.386 148.553 142.195 148.177 142.195 147.677C142.195 147.136 142.382 146.691 142.757 146.344C143.131 145.997 143.662 145.823 144.348 145.823C144.98 145.823 145.516 145.976 145.956 146.282C146.399 146.586 146.62 147.073 146.62 147.743H145.853C145.812 147.42 145.725 147.172 145.591 147C145.342 146.686 144.919 146.529 144.323 146.529C143.842 146.529 143.496 146.63 143.286 146.832C143.075 147.034 142.97 147.27 142.97 147.537C142.97 147.833 143.093 148.049 143.339 148.186C143.5 148.273 143.865 148.382 144.434 148.514L145.279 148.706C145.686 148.799 146.001 148.927 146.222 149.088C146.605 149.37 146.797 149.778 146.797 150.314C146.797 150.981 146.553 151.459 146.067 151.746C145.583 152.033 145.019 152.176 144.377 152.176C143.627 152.176 143.041 151.985 142.617 151.602C142.193 151.222 141.985 150.707 141.994 150.056H142.761ZM147.732 145.954H148.47V148.202C148.645 147.98 148.802 147.825 148.942 147.734C149.18 147.579 149.476 147.501 149.832 147.501C150.469 147.501 150.901 147.723 151.128 148.169C151.251 148.412 151.312 148.75 151.312 149.182V152H150.554V149.231C150.554 148.909 150.513 148.672 150.431 148.522C150.297 148.281 150.045 148.161 149.676 148.161C149.37 148.161 149.092 148.266 148.843 148.477C148.594 148.687 148.47 149.085 148.47 149.67V152H147.732V145.954ZM154.151 151.524C154.64 151.524 154.975 151.34 155.156 150.971C155.339 150.599 155.43 150.186 155.43 149.732C155.43 149.322 155.365 148.988 155.234 148.731C155.026 148.326 154.667 148.124 154.159 148.124C153.708 148.124 153.38 148.296 153.175 148.641C152.969 148.985 152.867 149.401 152.867 149.888C152.867 150.355 152.969 150.745 153.175 151.057C153.38 151.368 153.705 151.524 154.151 151.524ZM154.179 147.48C154.745 147.48 155.224 147.669 155.615 148.046C156.006 148.423 156.201 148.979 156.201 149.711C156.201 150.42 156.029 151.005 155.685 151.467C155.34 151.929 154.806 152.16 154.081 152.16C153.477 152.16 152.997 151.956 152.641 151.549C152.286 151.139 152.108 150.589 152.108 149.9C152.108 149.162 152.295 148.574 152.67 148.136C153.045 147.699 153.548 147.48 154.179 147.48ZM158.937 151.504C159.282 151.504 159.567 151.36 159.794 151.073C160.024 150.783 160.139 150.351 160.139 149.777C160.139 149.427 160.088 149.126 159.987 148.875C159.796 148.391 159.446 148.149 158.937 148.149C158.426 148.149 158.076 148.404 157.887 148.916C157.786 149.189 157.735 149.536 157.735 149.957C157.735 150.296 157.786 150.585 157.887 150.823C158.079 151.277 158.429 151.504 158.937 151.504ZM157.026 147.628H157.744V148.21C157.891 148.011 158.053 147.856 158.228 147.747C158.476 147.583 158.769 147.501 159.105 147.501C159.603 147.501 160.025 147.692 160.373 148.075C160.72 148.455 160.894 148.999 160.894 149.707C160.894 150.664 160.643 151.348 160.143 151.758C159.826 152.018 159.457 152.148 159.036 152.148C158.705 152.148 158.427 152.075 158.203 151.93C158.072 151.848 157.925 151.707 157.764 151.508V153.751H157.026V147.628ZM162.198 150.622C162.22 150.868 162.281 151.057 162.383 151.188C162.568 151.426 162.891 151.545 163.35 151.545C163.624 151.545 163.865 151.486 164.072 151.368C164.28 151.248 164.384 151.063 164.384 150.815C164.384 150.626 164.301 150.482 164.134 150.384C164.027 150.324 163.817 150.254 163.502 150.175L162.916 150.027C162.541 149.934 162.265 149.83 162.087 149.715C161.77 149.516 161.611 149.24 161.611 148.887C161.611 148.471 161.76 148.135 162.059 147.878C162.359 147.621 162.763 147.492 163.268 147.492C163.93 147.492 164.407 147.687 164.7 148.075C164.883 148.321 164.972 148.586 164.967 148.871H164.269C164.256 148.704 164.197 148.552 164.093 148.415C163.923 148.221 163.629 148.124 163.211 148.124C162.932 148.124 162.72 148.177 162.575 148.284C162.433 148.391 162.362 148.531 162.362 148.706C162.362 148.898 162.456 149.051 162.645 149.166C162.754 149.234 162.916 149.294 163.129 149.346L163.617 149.465C164.148 149.594 164.503 149.718 164.684 149.838C164.971 150.027 165.114 150.324 165.114 150.729C165.114 151.12 164.965 151.457 164.667 151.742C164.372 152.026 163.921 152.168 163.314 152.168C162.66 152.168 162.197 152.021 161.923 151.725C161.652 151.427 161.508 151.059 161.488 150.622H162.198Z" fill="#005AA0"/>
<path fill-rule="evenodd" clip-rule="evenodd" d="M213.688 144.135C213.688 147.877 216.722 150.911 220.465 150.911C224.207 150.911 227.242 147.877 227.242 144.135C227.242 140.392 224.207 137.358 220.465 137.358C216.722 137.358 213.688 140.392 213.688 144.135ZM209.8 144.169C209.8 138.229 214.615 133.415 220.554 133.415C226.494 133.415 231.309 138.229 231.309 144.169C231.309 150.108 226.494 154.923 220.554 154.923C214.615 154.923 209.8 150.108 209.8 144.169ZM221.915 140.155C222.429 140.155 222.708 140.541 222.708 141.033C222.708 142.726 220.715 143.904 219.28 144.333C219.58 143.154 220.373 140.155 221.915 140.155ZM219.537 149.025C221.379 149.025 222.751 147.696 223.736 146.24L223.2 145.832C222.494 146.689 221.53 147.846 220.33 147.846C219.408 147.846 218.959 147.074 218.959 146.24C218.959 145.832 219.023 145.425 219.087 145.018L219.087 145.018C219.182 144.994 219.282 144.969 219.386 144.944C221.328 144.46 224.743 143.61 224.743 141.312C224.743 139.962 223.244 139.512 222.129 139.512C218.808 139.512 216.452 142.64 216.452 145.832C216.452 147.803 217.587 149.025 219.537 149.025Z" fill="black"/>
<rect x="0.7" y="0.7" width="240.6" height="164.2" rx="5.1" stroke="black" stroke-opacity="0.1" stroke-width="0.6"/>
</svg>
