<svg width="287" height="24" viewBox="0 0 287 24" fill="none" xmlns="http://www.w3.org/2000/svg">
<path fill-rule="evenodd" clip-rule="evenodd" d="M8.44861 4.7998L6.64262 10.2981L0.799805 10.3005L5.5272 13.6991L3.72361 19.1998L8.44861 15.8011L13.1772 19.1998L11.3724 13.6991L16.0998 10.3005L10.257 10.2981L8.44861 4.7998Z" fill="#DB6B22"/>
<path fill-rule="evenodd" clip-rule="evenodd" d="M25.9984 4.7998L24.1924 10.2981L18.3496 10.3005L23.077 13.6991L21.2734 19.1998L25.9984 15.8011L30.727 19.1998L28.9222 13.6991L33.6496 10.3005L27.8068 10.2981L25.9984 4.7998Z" fill="#DB6B22"/>
<path fill-rule="evenodd" clip-rule="evenodd" d="M43.5487 4.7998L41.7427 10.2981L35.8999 10.3005L40.6273 13.6991L38.8237 19.1998L43.5487 15.8011L48.2773 19.1998L46.4725 13.6991L51.1999 10.3005L45.3571 10.2981L43.5487 4.7998Z" fill="#DB6B22"/>
<path fill-rule="evenodd" clip-rule="evenodd" d="M61.0985 4.7998L59.2925 10.2981L53.4497 10.3005L58.1771 13.6991L56.3735 19.1998L61.0985 15.8011L65.8271 19.1998L64.0223 13.6991L68.7497 10.3005L62.9069 10.2981L61.0985 4.7998Z" fill="#DB6B22"/>
<path fill-rule="evenodd" clip-rule="evenodd" d="M78.6488 4.7998L76.8428 10.2981L71 10.3005L75.7274 13.6991L73.9238 19.1998L78.6488 15.8011L83.3774 19.1998L81.5726 13.6991L86.3 10.3005L80.4572 10.2981L78.6488 4.7998Z" fill="#DB6B22"/>
<path d="M101.757 12.5742V13.7938H100.86V15.5H99.3343V13.7938H96.1952V12.432L99.1101 7.61953H100.86V12.5742H101.757ZM97.3491 12.5742H99.3343V9.15078L97.3491 12.5742ZM102.834 13.8703H104.491V15.5H102.834V13.8703ZM110.184 10.1188C109.769 10.7094 109.42 11.3182 109.14 11.9453C108.917 12.4375 108.717 13.0391 108.538 13.75C108.36 14.4609 108.27 15.0443 108.27 15.5H106.651C106.699 14.0781 107.166 12.5997 108.051 11.0648C108.624 10.1133 109.103 9.44974 109.49 9.07422H105.536L105.558 7.67422H111.158V8.89375C110.924 9.12344 110.6 9.53177 110.184 10.1188ZM114.472 11.5625C114.282 11.5625 114.118 11.5862 113.98 11.6336C113.735 11.7211 113.551 11.8833 113.427 12.1203L112.027 12.0547L112.585 7.67422H116.955V8.99766H113.712L113.427 10.7313C113.668 10.5745 113.856 10.4706 113.991 10.4195C114.217 10.3357 114.492 10.2938 114.816 10.2938C115.473 10.2938 116.045 10.5143 116.533 10.9555C117.022 11.3966 117.266 12.0383 117.266 12.8805C117.266 13.6133 117.031 14.2677 116.561 14.8438C116.091 15.4198 115.387 15.7078 114.45 15.7078C113.695 15.7078 113.075 15.5055 112.591 15.1008C112.106 14.6961 111.836 14.1219 111.781 13.3781H113.334C113.396 13.7172 113.515 13.9797 113.69 14.1656C113.865 14.3479 114.12 14.4391 114.455 14.4391C114.842 14.4391 115.135 14.3042 115.336 14.0344C115.54 13.7609 115.642 13.4182 115.642 13.0063C115.642 12.6016 115.547 12.2607 115.358 11.9836C115.168 11.7029 114.873 11.5625 114.472 11.5625Z" fill="black"/>
<path d="M128.457 7.46641H134.314V8.45078H129.518V10.8898H133.953V11.8195H129.518V14.543H134.396V15.5H128.457V7.46641ZM135.134 9.64297H136.409L137.754 11.7047L139.116 9.64297L140.313 9.67031L138.339 12.4977L140.401 15.5H139.143L137.688 13.3016L136.277 15.5H135.03L137.092 12.4977L135.134 9.64297ZM143.551 9.47344C144.211 9.47344 144.747 9.63385 145.159 9.95469C145.574 10.2755 145.824 10.8279 145.908 11.6117H144.951C144.892 11.2508 144.759 10.9518 144.552 10.7148C144.344 10.4742 144.01 10.3539 143.551 10.3539C142.924 10.3539 142.475 10.6602 142.205 11.2727C142.03 11.6701 141.943 12.1604 141.943 12.7438C141.943 13.3307 142.067 13.8247 142.315 14.2258C142.563 14.6268 142.953 14.8273 143.485 14.8273C143.893 14.8273 144.216 14.7034 144.453 14.4555C144.694 14.2039 144.86 13.8612 144.951 13.4273H145.908C145.798 14.2039 145.525 14.7727 145.087 15.1336C144.65 15.4909 144.09 15.6695 143.409 15.6695C142.643 15.6695 142.032 15.3906 141.577 14.8328C141.121 14.2714 140.893 13.5714 140.893 12.7328C140.893 11.7047 141.143 10.9044 141.642 10.332C142.142 9.75964 142.778 9.47344 143.551 9.47344ZM149.331 9.51172C149.747 9.51172 150.15 9.61016 150.54 9.80703C150.93 10.0003 151.227 10.2518 151.431 10.5617C151.628 10.857 151.759 11.2016 151.825 11.5953C151.883 11.8651 151.913 12.2953 151.913 12.8859H147.62C147.638 13.4802 147.778 13.9578 148.041 14.3188C148.303 14.676 148.71 14.8547 149.26 14.8547C149.774 14.8547 150.184 14.6852 150.491 14.3461C150.666 14.1492 150.79 13.9214 150.863 13.6625H151.83C151.805 13.8776 151.719 14.1182 151.573 14.3844C151.431 14.6469 151.271 14.862 151.092 15.0297C150.793 15.3214 150.423 15.5182 149.982 15.6203C149.745 15.6786 149.477 15.7078 149.178 15.7078C148.449 15.7078 147.831 15.4435 147.324 14.9148C146.817 14.3826 146.564 13.6388 146.564 12.6836C146.564 11.743 146.819 10.9792 147.33 10.3922C147.84 9.80521 148.507 9.51172 149.331 9.51172ZM150.901 12.1039C150.861 11.6773 150.768 11.3365 150.622 11.0813C150.352 10.6073 149.902 10.3703 149.271 10.3703C148.819 10.3703 148.44 10.5344 148.134 10.8625C147.827 11.187 147.665 11.6008 147.647 12.1039H150.901ZM153.154 7.46641H154.138V15.5H153.154V7.46641ZM155.648 7.46641H156.632V15.5H155.648V7.46641ZM160.553 9.51172C160.969 9.51172 161.372 9.61016 161.762 9.80703C162.152 10.0003 162.449 10.2518 162.653 10.5617C162.85 10.857 162.981 11.2016 163.047 11.5953C163.105 11.8651 163.134 12.2953 163.134 12.8859H158.841C158.86 13.4802 159 13.9578 159.262 14.3188C159.525 14.676 159.932 14.8547 160.482 14.8547C160.996 14.8547 161.406 14.6852 161.712 14.3461C161.887 14.1492 162.011 13.9214 162.084 13.6625H163.052C163.027 13.8776 162.941 14.1182 162.795 14.3844C162.653 14.6469 162.493 14.862 162.314 15.0297C162.015 15.3214 161.645 15.5182 161.204 15.6203C160.967 15.6786 160.699 15.7078 160.4 15.7078C159.671 15.7078 159.053 15.4435 158.546 14.9148C158.039 14.3826 157.786 13.6388 157.786 12.6836C157.786 11.743 158.041 10.9792 158.552 10.3922C159.062 9.80521 159.729 9.51172 160.553 9.51172ZM162.123 12.1039C162.083 11.6773 161.99 11.3365 161.844 11.0813C161.574 10.6073 161.124 10.3703 160.493 10.3703C160.041 10.3703 159.662 10.5344 159.355 10.8625C159.049 11.187 158.887 11.6008 158.869 12.1039H162.123ZM164.348 9.64297H165.284V10.4742C165.561 10.1315 165.854 9.88542 166.164 9.73594C166.474 9.58646 166.818 9.51172 167.198 9.51172C168.029 9.51172 168.59 9.80156 168.882 10.3813C169.042 10.6984 169.123 11.1523 169.123 11.743V15.5H168.122V11.8086C168.122 11.4513 168.069 11.1633 167.963 10.9445C167.788 10.5799 167.471 10.3977 167.012 10.3977C166.778 10.3977 166.587 10.4214 166.438 10.4688C166.168 10.549 165.931 10.7094 165.727 10.95C165.563 11.1432 165.455 11.3438 165.404 11.5516C165.357 11.7557 165.333 12.0492 165.333 12.432V15.5H164.348V9.64297ZM170.78 8.00781H171.775V9.64297H172.71V10.4469H171.775V14.2695C171.775 14.4737 171.844 14.6104 171.983 14.6797C172.059 14.7198 172.187 14.7398 172.366 14.7398C172.413 14.7398 172.464 14.7398 172.519 14.7398C172.573 14.7362 172.637 14.7307 172.71 14.7234V15.5C172.597 15.5328 172.479 15.5565 172.355 15.5711C172.234 15.5857 172.103 15.593 171.961 15.593C171.502 15.593 171.19 15.4763 171.026 15.243C170.862 15.006 170.78 14.6997 170.78 14.3242V10.4469H169.987V9.64297H170.78V8.00781Z" fill="black"/>
<path d="M184.171 9.95469V9.2C184.882 9.13073 185.378 9.01589 185.659 8.85547C185.94 8.69141 186.149 8.30677 186.288 7.70156H187.064V15.5H186.014V9.95469H184.171ZM190.264 16.643C190.515 16.5992 190.692 16.4224 190.794 16.1125C190.849 15.9484 190.876 15.7898 190.876 15.6367C190.876 15.6112 190.874 15.5875 190.871 15.5656C190.871 15.5474 190.867 15.5255 190.86 15.5H190.264V14.3078H191.434V15.4125C191.434 15.8464 191.346 16.2273 191.171 16.5555C190.996 16.8836 190.694 17.0859 190.264 17.1625V16.643ZM195.481 7.66875C196.494 7.66875 197.227 8.0862 197.679 8.92109C198.029 9.56641 198.204 10.4505 198.204 11.5734C198.204 12.638 198.046 13.5185 197.729 14.2148C197.269 15.2138 196.518 15.7133 195.475 15.7133C194.535 15.7133 193.835 15.3049 193.375 14.4883C192.993 13.8065 192.801 12.8914 192.801 11.743C192.801 10.8534 192.916 10.0896 193.146 9.45156C193.576 8.26302 194.354 7.66875 195.481 7.66875ZM195.47 14.8164C195.98 14.8164 196.387 14.5904 196.689 14.1383C196.992 13.6862 197.143 12.844 197.143 11.6117C197.143 10.7221 197.034 9.99115 196.815 9.41875C196.596 8.84271 196.172 8.55469 195.541 8.55469C194.961 8.55469 194.537 8.82813 194.267 9.375C194.001 9.91823 193.868 10.7203 193.868 11.7813C193.868 12.5797 193.953 13.2214 194.125 13.7063C194.387 14.4464 194.836 14.8164 195.47 14.8164ZM201.715 7.66875C202.729 7.66875 203.462 8.0862 203.914 8.92109C204.264 9.56641 204.439 10.4505 204.439 11.5734C204.439 12.638 204.28 13.5185 203.963 14.2148C203.504 15.2138 202.752 15.7133 201.71 15.7133C200.769 15.7133 200.069 15.3049 199.61 14.4883C199.227 13.8065 199.036 12.8914 199.036 11.743C199.036 10.8534 199.15 10.0896 199.38 9.45156C199.81 8.26302 200.589 7.66875 201.715 7.66875ZM201.704 14.8164C202.215 14.8164 202.621 14.5904 202.924 14.1383C203.226 13.6862 203.378 12.844 203.378 11.6117C203.378 10.7221 203.268 9.99115 203.05 9.41875C202.831 8.84271 202.406 8.55469 201.775 8.55469C201.196 8.55469 200.771 8.82813 200.501 9.375C200.235 9.91823 200.102 10.7203 200.102 11.7813C200.102 12.5797 200.188 13.2214 200.359 13.7063C200.621 14.4464 201.07 14.8164 201.704 14.8164ZM206.304 13.5039C206.369 14.0654 206.63 14.4536 207.086 14.6688C207.319 14.7781 207.589 14.8328 207.895 14.8328C208.478 14.8328 208.91 14.6469 209.191 14.275C209.472 13.9031 209.612 13.4911 209.612 13.0391C209.612 12.4922 209.444 12.0693 209.109 11.7703C208.777 11.4714 208.378 11.3219 207.911 11.3219C207.572 11.3219 207.281 11.3875 207.036 11.5188C206.796 11.65 206.59 11.8323 206.418 12.0656L205.565 12.0164L206.161 7.8H210.23V8.75156H206.9L206.566 10.9281C206.748 10.7896 206.921 10.6857 207.086 10.6164C207.377 10.4961 207.714 10.4359 208.097 10.4359C208.815 10.4359 209.424 10.6674 209.924 11.1305C210.423 11.5935 210.673 12.1805 210.673 12.8914C210.673 13.6315 210.443 14.2841 209.984 14.8492C209.528 15.4143 208.799 15.6969 207.796 15.6969C207.158 15.6969 206.593 15.5182 206.101 15.1609C205.613 14.8 205.339 14.2477 205.281 13.5039H206.304ZM215.021 9.64297H215.956V10.6547C216.032 10.4578 216.22 10.219 216.519 9.93828C216.818 9.65391 217.163 9.51172 217.553 9.51172C217.571 9.51172 217.602 9.51354 217.646 9.51719C217.689 9.52083 217.764 9.52813 217.87 9.53906V10.5781C217.812 10.5672 217.757 10.5599 217.706 10.5563C217.658 10.5526 217.606 10.5508 217.547 10.5508C217.051 10.5508 216.67 10.7112 216.404 11.032C216.138 11.3492 216.005 11.7156 216.005 12.1313V15.5H215.021V9.64297ZM221.162 9.51172C221.578 9.51172 221.981 9.61016 222.371 9.80703C222.761 10.0003 223.058 10.2518 223.262 10.5617C223.459 10.857 223.59 11.2016 223.656 11.5953C223.714 11.8651 223.743 12.2953 223.743 12.8859H219.45C219.469 13.4802 219.609 13.9578 219.871 14.3188C220.134 14.676 220.54 14.8547 221.091 14.8547C221.605 14.8547 222.015 14.6852 222.321 14.3461C222.496 14.1492 222.62 13.9214 222.693 13.6625H223.661C223.636 13.8776 223.55 14.1182 223.404 14.3844C223.262 14.6469 223.102 14.862 222.923 15.0297C222.624 15.3214 222.254 15.5182 221.813 15.6203C221.576 15.6786 221.308 15.7078 221.009 15.7078C220.28 15.7078 219.662 15.4435 219.155 14.9148C218.648 14.3826 218.395 13.6388 218.395 12.6836C218.395 11.743 218.65 10.9792 219.161 10.3922C219.671 9.80521 220.338 9.51172 221.162 9.51172ZM222.732 12.1039C222.692 11.6773 222.599 11.3365 222.453 11.0813C222.183 10.6073 221.733 10.3703 221.102 10.3703C220.65 10.3703 220.271 10.5344 219.964 10.8625C219.658 11.187 219.496 11.6008 219.478 12.1039H222.732ZM225.439 9.64297L227.003 14.4117L228.638 9.64297H229.715L227.506 15.5H226.456L224.296 9.64297H225.439ZM230.557 9.67031H231.558V15.5H230.557V9.67031ZM230.557 7.46641H231.558V8.58203H230.557V7.46641ZM235.49 9.51172C235.906 9.51172 236.309 9.61016 236.699 9.80703C237.089 10.0003 237.386 10.2518 237.59 10.5617C237.787 10.857 237.918 11.2016 237.984 11.5953C238.042 11.8651 238.071 12.2953 238.071 12.8859H233.779C233.797 13.4802 233.937 13.9578 234.2 14.3188C234.462 14.676 234.869 14.8547 235.419 14.8547C235.933 14.8547 236.343 14.6852 236.65 14.3461C236.825 14.1492 236.949 13.9214 237.021 13.6625H237.989C237.964 13.8776 237.878 14.1182 237.732 14.3844C237.59 14.6469 237.43 14.862 237.251 15.0297C236.952 15.3214 236.582 15.5182 236.141 15.6203C235.904 15.6786 235.636 15.7078 235.337 15.7078C234.608 15.7078 233.99 15.4435 233.483 14.9148C232.976 14.3826 232.723 13.6388 232.723 12.6836C232.723 11.743 232.978 10.9792 233.489 10.3922C233.999 9.80521 234.666 9.51172 235.49 9.51172ZM237.06 12.1039C237.02 11.6773 236.927 11.3365 236.781 11.0813C236.511 10.6073 236.061 10.3703 235.43 10.3703C234.978 10.3703 234.599 10.5344 234.293 10.8625C233.986 11.187 233.824 11.6008 233.806 12.1039H237.06ZM239.739 9.64297L240.866 14.2586L242.009 9.64297H243.114L244.262 14.2313L245.46 9.64297H246.444L244.743 15.5H243.721L242.529 10.9664L241.375 15.5H240.352L238.662 9.64297H239.739ZM247.964 13.6625C247.994 13.9906 248.076 14.2422 248.211 14.4172C248.458 14.7344 248.889 14.893 249.501 14.893C249.866 14.893 250.187 14.8146 250.464 14.6578C250.741 14.4974 250.879 14.2513 250.879 13.9195C250.879 13.668 250.768 13.4766 250.546 13.3453C250.404 13.2651 250.123 13.1721 249.704 13.0664L248.921 12.8695C248.422 12.7456 248.054 12.607 247.817 12.4539C247.394 12.1878 247.182 11.8195 247.182 11.3492C247.182 10.7951 247.381 10.3466 247.779 10.0039C248.18 9.6612 248.717 9.48984 249.392 9.48984C250.274 9.48984 250.91 9.7487 251.3 10.2664C251.545 10.5945 251.663 10.9482 251.656 11.3273H250.726C250.708 11.1049 250.63 10.9026 250.491 10.7203C250.265 10.4615 249.873 10.332 249.315 10.332C248.943 10.332 248.661 10.4031 248.468 10.5453C248.278 10.6875 248.183 10.8753 248.183 11.1086C248.183 11.3638 248.309 11.568 248.561 11.7211C248.706 11.8122 248.921 11.8924 249.206 11.9617L249.857 12.1203C250.564 12.2917 251.038 12.4576 251.279 12.618C251.661 12.8695 251.853 13.2651 251.853 13.8047C251.853 14.326 251.654 14.7763 251.257 15.1555C250.863 15.5346 250.261 15.7242 249.452 15.7242C248.581 15.7242 247.963 15.5273 247.598 15.1336C247.237 14.7362 247.044 14.2458 247.018 13.6625H247.964Z" fill="#4D4D4D"/>
<path fill-rule="evenodd" clip-rule="evenodd" d="M267.02 11.927C267.02 16.0858 270.391 19.4561 274.55 19.4561C278.708 19.4561 282.08 16.0858 282.08 11.927C282.08 7.76825 278.708 4.39727 274.55 4.39727C270.391 4.39727 267.02 7.76825 267.02 11.927ZM262.7 11.9651C262.7 5.36546 268.05 0.0161133 274.649 0.0161133C281.248 0.0161133 286.598 5.36546 286.598 11.9651C286.598 18.5648 281.248 23.9148 274.649 23.9148C268.05 23.9148 262.7 18.5648 262.7 11.9651ZM276.161 7.50498C276.732 7.50498 277.042 7.93367 277.042 8.48123C277.042 10.3623 274.828 11.6711 273.233 12.1472C273.566 10.8378 274.447 7.50498 276.161 7.50498ZM273.519 17.3608C275.566 17.3608 277.09 15.8844 278.185 14.2663L277.589 13.8136C276.804 14.7658 275.733 16.0513 274.399 16.0513C273.375 16.0513 272.876 15.1939 272.876 14.2663C272.876 13.8136 272.947 13.3615 273.019 12.9094C273.124 12.8828 273.235 12.8551 273.351 12.8263C275.508 12.2891 279.303 11.3442 279.303 8.79133C279.303 7.29154 277.637 6.79141 276.399 6.79141C272.709 6.79141 270.091 10.2671 270.091 13.8136C270.091 16.0039 271.352 17.3608 273.519 17.3608Z" fill="black"/>
</svg>
