<svg width="183" height="82" viewBox="0 0 183 82" fill="none" xmlns="http://www.w3.org/2000/svg">
<g filter="url(#filter0_dd_2912_7936)">
<rect x="85.248" y="2.11047" width="93" height="74" rx="3.49611" fill="white" shape-rendering="crispEdges"/>
<rect x="85.0295" y="1.89197" width="93.437" height="74.437" rx="3.71462" stroke="black" stroke-opacity="0.1" stroke-width="0.437014" shape-rendering="crispEdges"/>
<path fill-rule="evenodd" clip-rule="evenodd" d="M95.49 9.10266L94.7227 11.4387L92.2402 11.4398L94.2488 12.8838L93.4825 15.2209L95.49 13.7768L97.4991 15.2209L96.7323 12.8838L98.7408 11.4398L96.2583 11.4387L95.49 9.10266Z" fill="#FFDC0F"/>
<path fill-rule="evenodd" clip-rule="evenodd" d="M102.947 9.10266L102.179 11.4387L99.6968 11.4398L101.705 12.8838L100.939 15.2209L102.947 13.7768L104.956 15.2209L104.189 12.8838L106.197 11.4398L103.715 11.4387L102.947 9.10266Z" fill="#FFDC0F"/>
<path fill-rule="evenodd" clip-rule="evenodd" d="M110.403 9.10266L109.636 11.4387L107.153 11.4398L109.162 12.8838L108.396 15.2209L110.403 13.7768L112.412 15.2209L111.645 12.8838L113.654 11.4398L111.171 11.4387L110.403 9.10266Z" fill="#FFDC0F"/>
<path fill-rule="evenodd" clip-rule="evenodd" d="M117.86 9.10266L117.092 11.4387L114.61 11.4398L116.618 12.8838L115.852 15.2209L117.86 13.7768L119.869 15.2209L119.102 12.8838L121.11 11.4398L118.628 11.4387L117.86 9.10266Z" fill="#FFDC0F"/>
<path fill-rule="evenodd" clip-rule="evenodd" d="M125.316 9.10266L124.549 11.4387L122.066 11.4398L124.075 12.8838L123.309 15.2209L125.316 13.7768L127.325 15.2209L126.558 12.8838L128.567 11.4398L126.085 11.4387L125.316 9.10266Z" fill="#FFDC0F"/>
<path d="M92.2402 23.5881C92.2402 22.6639 92.9895 21.9147 93.9137 21.9147H157.52C158.445 21.9147 159.194 22.6639 159.194 23.5881V25.2616C159.194 26.1858 158.445 26.9351 157.52 26.9351H93.9137C92.9895 26.9351 92.2402 26.1858 92.2402 25.2616V23.5881Z" fill="#D0D5DD"/>
<path d="M92.2402 31.9554C92.2402 31.0312 92.9895 30.282 93.9137 30.282H169.582C170.507 30.282 171.256 31.0312 171.256 31.9554V33.6289C171.256 34.5531 170.507 35.3024 169.582 35.3024H93.9137C92.9895 35.3024 92.2402 34.5531 92.2402 33.6289V31.9554Z" fill="#D0D5DD"/>
<path d="M92.2402 40.3228C92.2402 39.3985 92.9895 38.6493 93.9137 38.6493H169.582C170.507 38.6493 171.256 39.3985 171.256 40.3228V41.9962C171.256 42.9204 170.507 43.6697 169.582 43.6697H93.9137C92.9895 43.6697 92.2402 42.9204 92.2402 41.9962V40.3228Z" fill="#D0D5DD"/>
<path d="M92.2402 48.6901C92.2402 47.7658 92.9895 47.0166 93.9137 47.0166H169.582C170.507 47.0166 171.256 47.7658 171.256 48.6901V50.3635C171.256 51.2878 170.507 52.037 169.582 52.037H93.9137C92.9895 52.037 92.2402 51.2878 92.2402 50.3635V48.6901Z" fill="#D0D5DD"/>
<path d="M92.2402 57.0574C92.2402 56.1331 92.9895 55.3839 93.9137 55.3839H169.582C170.507 55.3839 171.256 56.1331 171.256 57.0574V58.7308C171.256 59.6551 170.507 60.4043 169.582 60.4043H93.9137C92.9895 60.4043 92.2402 59.6551 92.2402 58.7308V57.0574Z" fill="#D0D5DD"/>
<path d="M92.2402 65.574C92.2402 64.6497 92.9895 63.9005 93.9137 63.9005H157.52C158.445 63.9005 159.194 64.6497 159.194 65.574V67.2474C159.194 68.1717 158.445 68.9209 157.52 68.9209H93.9137C92.9895 68.9209 92.2402 68.1717 92.2402 67.2474V65.574Z" fill="#005AA0"/>
</g>
<g filter="url(#filter1_dd_2912_7936)">
<rect x="2.18506" y="2.46448" width="79.3137" height="74.2923" rx="3.49611" fill="white" shape-rendering="crispEdges"/>
<rect x="1.96655" y="2.24597" width="79.7507" height="74.7294" rx="3.71462" stroke="black" stroke-opacity="0.1" stroke-width="0.437014" shape-rendering="crispEdges"/>
<path fill-rule="evenodd" clip-rule="evenodd" d="M17.8072 9.45667L16.5466 13.2945L12.4683 13.2962L15.768 15.6685L14.5091 19.508L17.8072 17.1357L21.1078 19.508L19.848 15.6685L23.1478 13.2962L19.0695 13.2945L17.8072 9.45667Z" fill="#FFDC0F"/>
<path fill-rule="evenodd" clip-rule="evenodd" d="M30.0572 9.45667L28.7966 13.2945L24.7183 13.2962L28.018 15.6685L26.7591 19.508L30.0572 17.1357L33.3578 19.508L32.098 15.6685L35.3978 13.2962L31.3195 13.2945L30.0572 9.45667Z" fill="#FFDC0F"/>
<path fill-rule="evenodd" clip-rule="evenodd" d="M42.3072 9.45667L41.0466 13.2945L36.9683 13.2962L40.268 15.6685L39.0091 19.508L42.3072 17.1357L45.6078 19.508L44.348 15.6685L47.6478 13.2962L43.5695 13.2945L42.3072 9.45667Z" fill="#FFDC0F"/>
<path fill-rule="evenodd" clip-rule="evenodd" d="M54.5572 9.45667L53.2966 13.2945L49.2183 13.2962L52.518 15.6685L51.2591 19.508L54.5572 17.1357L57.8578 19.508L56.598 15.6685L59.8978 13.2962L55.8195 13.2945L54.5572 9.45667Z" fill="#FFDC0F"/>
<path fill-rule="evenodd" clip-rule="evenodd" d="M66.8072 9.45667L65.5466 13.2945L61.4683 13.2962L64.768 15.6685L63.5091 19.508L66.8072 17.1357L70.1078 19.508L68.848 15.6685L72.1478 13.2962L68.0695 13.2945L66.8072 9.45667Z" fill="#FFDC0F"/>
<path d="M37.1009 29.6973V30.5538H36.471V31.7522H35.3993V30.5538H33.1946V29.5974L35.2419 26.2174H36.471V29.6973H37.1009ZM34.0051 29.6973H35.3993V27.2929L34.0051 29.6973ZM37.8575 30.6076H39.0213V31.7522H37.8575V30.6076ZM43.0198 27.9727C42.7279 28.3875 42.4833 28.8152 42.2861 29.2556C42.1299 29.6013 41.9891 30.0238 41.8636 30.5231C41.7382 31.0224 41.6754 31.4321 41.6754 31.7522H40.5385C40.5718 30.7536 40.8996 29.7152 41.5218 28.6372C41.9238 27.9689 42.2605 27.5028 42.532 27.2391H39.755L39.7703 26.2558H43.7035V27.1123C43.5396 27.2737 43.3117 27.5604 43.0198 27.9727ZM46.0311 28.9867C45.8979 28.9867 45.7827 29.0034 45.6854 29.0367C45.5138 29.0981 45.3845 29.2121 45.2974 29.3785L44.3142 29.3324L44.7059 26.2558H47.7748V27.1853H45.4972L45.2974 28.4029C45.4664 28.2928 45.5983 28.2198 45.6931 28.184C45.8518 28.1251 46.0451 28.0956 46.273 28.0956C46.734 28.0956 47.136 28.2505 47.4791 28.5604C47.8222 28.8702 47.9938 29.3209 47.9938 29.9124C47.9938 30.4271 47.8286 30.8867 47.4983 31.2913C47.168 31.6959 46.6738 31.8982 46.0157 31.8982C45.4856 31.8982 45.0503 31.756 44.7098 31.4718C44.3692 31.1876 44.1797 30.7843 44.1413 30.2619H45.2321C45.2757 30.5001 45.3589 30.6844 45.4818 30.815C45.6047 30.943 45.784 31.0071 46.0195 31.0071C46.291 31.0071 46.4971 30.9123 46.6379 30.7228C46.7813 30.5308 46.853 30.2901 46.853 30.0007C46.853 29.7165 46.7864 29.4771 46.6533 29.2825C46.5201 29.0853 46.3127 28.9867 46.0311 28.9867Z" fill="black"/>
<path d="M27.5654 39.5458C27.5833 39.8659 27.6588 40.1258 27.792 40.3256C28.0455 40.6994 28.4923 40.8863 29.1325 40.8863C29.4193 40.8863 29.6805 40.8454 29.916 40.7634C30.3718 40.6047 30.5997 40.3204 30.5997 39.9107C30.5997 39.6035 30.5037 39.3845 30.3117 39.2539C30.117 39.1259 29.8123 39.0145 29.3975 38.9198L28.6332 38.7469C28.1338 38.6343 27.7805 38.5101 27.5731 38.3744C27.2146 38.1388 27.0353 37.7867 27.0353 37.3181C27.0353 36.8111 27.2107 36.395 27.5615 36.0698C27.9123 35.7446 28.4091 35.582 29.0518 35.582C29.6433 35.582 30.1452 35.7254 30.5575 36.0122C30.9723 36.2964 31.1797 36.7522 31.1797 37.3796H30.4615C30.423 37.0774 30.3411 36.8457 30.2156 36.6843C29.9826 36.3899 29.587 36.2426 29.0288 36.2426C28.5781 36.2426 28.2542 36.3374 28.057 36.5269C27.8599 36.7164 27.7613 36.9366 27.7613 37.1875C27.7613 37.4641 27.8765 37.6663 28.107 37.7944C28.258 37.8763 28.5999 37.9787 29.1325 38.1017L29.9237 38.2822C30.3053 38.3692 30.5997 38.4883 30.8071 38.6394C31.1656 38.9031 31.3449 39.2859 31.3449 39.7878C31.3449 40.4126 31.117 40.8595 30.6612 41.1283C30.208 41.3972 29.6805 41.5316 29.0787 41.5316C28.3771 41.5316 27.8278 41.3524 27.4309 40.9939C27.0341 40.638 26.8394 40.1553 26.8471 39.5458H27.5654ZM33.9337 37.1606C34.2256 37.1606 34.5085 37.2298 34.7825 37.368C35.0565 37.5037 35.2652 37.6804 35.4086 37.8981C35.5469 38.1055 35.639 38.3475 35.6851 38.624C35.7261 38.8135 35.7466 39.1157 35.7466 39.5305H32.7314C32.7443 39.9479 32.8428 40.2833 33.0272 40.5368C33.2116 40.7878 33.4971 40.9132 33.8837 40.9132C34.2448 40.9132 34.5329 40.7942 34.7479 40.556C34.8709 40.4177 34.9579 40.2577 35.0091 40.0759H35.689C35.671 40.227 35.6109 40.396 35.5084 40.5829C35.4086 40.7673 35.2959 40.9183 35.1704 41.0361C34.9605 41.241 34.7006 41.3793 34.3907 41.451C34.2243 41.4919 34.0361 41.5124 33.8261 41.5124C33.314 41.5124 32.88 41.3268 32.524 40.9555C32.1681 40.5816 31.9901 40.0593 31.9901 39.3884C31.9901 38.7277 32.1694 38.1913 32.5279 37.779C32.8864 37.3668 33.355 37.1606 33.9337 37.1606ZM35.036 38.9812C35.0078 38.6816 34.9426 38.4422 34.8401 38.263C34.6506 37.9301 34.3344 37.7637 33.8914 37.7637C33.5739 37.7637 33.3076 37.8789 33.0925 38.1093C32.8774 38.3372 32.7635 38.6279 32.7507 38.9812H35.036ZM36.5993 35.7049H37.2906V37.8097C37.4545 37.6023 37.6018 37.4564 37.7324 37.3719C37.9551 37.2259 38.233 37.1529 38.5658 37.1529C39.1625 37.1529 39.567 37.3616 39.7796 37.779C39.8948 38.0069 39.9524 38.3231 39.9524 38.7277V41.3665H39.2418V38.7738C39.2418 38.4717 39.2034 38.2502 39.1266 38.1093C39.0011 37.884 38.7656 37.7713 38.4199 37.7713C38.1331 37.7713 37.8732 37.8699 37.6402 38.0671C37.4072 38.2643 37.2906 38.6368 37.2906 39.1848V41.3665H36.5993V35.7049ZM40.9972 37.2528H41.654V37.9634C41.7077 37.8251 41.8396 37.6574 42.0496 37.4602C42.2595 37.2605 42.5015 37.1606 42.7755 37.1606C42.7883 37.1606 42.8101 37.1619 42.8408 37.1645C42.8715 37.167 42.924 37.1721 42.9983 37.1798V37.9096C42.9573 37.9019 42.9189 37.8968 42.8831 37.8942C42.8498 37.8917 42.8126 37.8904 42.7717 37.8904C42.4234 37.8904 42.1558 38.0031 41.9689 38.2284C41.782 38.4512 41.6885 38.7085 41.6885 39.0004V41.3665H40.9972V37.2528ZM47.2387 37.1798C47.5613 37.1798 47.843 37.2592 48.0837 37.418C48.2143 37.5076 48.3474 37.6382 48.4831 37.8097V37.2912H49.1207V41.0323C49.1207 41.5547 49.0439 41.9669 48.8903 42.2691C48.6035 42.8273 48.0619 43.1064 47.2656 43.1064C46.8226 43.1064 46.45 43.0065 46.1479 42.8068C45.8457 42.6096 45.6767 42.2998 45.6409 41.8773H46.3437C46.377 42.0617 46.4436 42.2038 46.5435 42.3036C46.6997 42.4573 46.9455 42.5341 47.2809 42.5341C47.811 42.5341 48.1579 42.3472 48.3218 41.9733C48.4191 41.7531 48.4639 41.3601 48.4563 40.7942C48.318 41.0041 48.1515 41.1603 47.9569 41.2627C47.7623 41.3652 47.505 41.4164 47.1849 41.4164C46.7394 41.4164 46.3489 41.2589 46.0134 40.944C45.6805 40.6264 45.5141 40.1028 45.5141 39.373C45.5141 38.6842 45.6818 38.1465 46.0173 37.7598C46.3553 37.3732 46.7624 37.1798 47.2387 37.1798ZM48.4831 39.2923C48.4831 38.7828 48.3782 38.4051 48.1682 38.1593C47.9582 37.9134 47.6906 37.7905 47.3654 37.7905C46.8789 37.7905 46.546 38.0184 46.3668 38.4742C46.272 38.7175 46.2247 39.0363 46.2247 39.4306C46.2247 39.8941 46.3181 40.2475 46.5051 40.4907C46.6946 40.7314 46.9481 40.8518 47.2656 40.8518C47.7623 40.8518 48.1119 40.6277 48.3141 40.1796C48.4268 39.9261 48.4831 39.6303 48.4831 39.2923ZM50.8569 37.2528V39.9837C50.8569 40.1937 50.8901 40.3652 50.9567 40.4984C51.0796 40.7442 51.3088 40.8671 51.6442 40.8671C52.1256 40.8671 52.4534 40.652 52.6275 40.2219C52.7223 39.9914 52.7696 39.6752 52.7696 39.2731V37.2528H53.461V41.3665H52.808L52.8157 40.7596C52.7261 40.9158 52.6147 41.0477 52.4816 41.1552C52.2178 41.3703 51.8977 41.4778 51.5213 41.4778C50.935 41.4778 50.5355 41.282 50.323 40.8902C50.2077 40.6802 50.1501 40.3998 50.1501 40.049V37.2528H50.8569ZM54.6824 36.1044H55.3815V37.2528H56.0383V37.8174H55.3815V40.5022C55.3815 40.6456 55.4301 40.7417 55.5274 40.7903C55.5812 40.8185 55.6708 40.8326 55.7963 40.8326C55.8296 40.8326 55.8654 40.8326 55.9038 40.8326C55.9423 40.83 55.9871 40.8262 56.0383 40.821V41.3665C55.9589 41.3895 55.8757 41.4061 55.7886 41.4164C55.7041 41.4266 55.6119 41.4318 55.5121 41.4318C55.1894 41.4318 54.9705 41.3498 54.8553 41.1859C54.74 41.0195 54.6824 40.8044 54.6824 40.5407V37.8174H54.1255V37.2528H54.6824V36.1044Z" fill="black"/>
<path fill-rule="evenodd" clip-rule="evenodd" d="M36.5919 57.6195C36.5919 60.6486 39.0471 63.1034 42.0762 63.1034C45.1048 63.1034 47.5605 60.6486 47.5605 57.6195C47.5605 54.5905 45.1048 52.1352 42.0762 52.1352C39.0471 52.1352 36.5919 54.5905 36.5919 57.6195ZM33.4448 57.6474C33.4448 52.8404 37.3415 48.9442 42.1484 48.9442C46.9549 48.9442 50.8516 52.8404 50.8516 57.6474C50.8516 62.4543 46.9549 66.351 42.1484 66.351C37.3415 66.351 33.4448 62.4543 33.4448 57.6474ZM43.2493 54.3989C43.6656 54.3989 43.8913 54.7112 43.8913 55.11C43.8913 56.4801 42.2785 57.4334 41.1171 57.7802C41.3598 56.8264 42.0013 54.3989 43.2493 54.3989ZM41.3252 61.5772C42.816 61.5772 43.9258 60.5019 44.7235 59.3234L44.2897 58.9937C43.7177 59.6872 42.9375 60.6235 41.9663 60.6235C41.2207 60.6235 40.8569 59.999 40.8569 59.3234C40.8569 58.9937 40.9089 58.6644 40.9609 58.3351L40.9609 58.3351C41.0377 58.3157 41.1186 58.2956 41.2029 58.2746C42.7741 57.8833 45.5382 57.195 45.5382 55.3357C45.5382 54.2433 44.3247 53.879 43.4229 53.879C40.7353 53.879 38.8282 56.4105 38.8282 58.9937C38.8282 60.5889 39.747 61.5772 41.3252 61.5772Z" fill="black"/>
</g>
<defs>
<filter id="filter0_dd_2912_7936" x="81.4641" y="-1.19209e-07" width="100.568" height="81.5679" filterUnits="userSpaceOnUse" color-interpolation-filters="sRGB">
<feFlood flood-opacity="0" result="BackgroundImageFix"/>
<feColorMatrix in="SourceAlpha" type="matrix" values="0 0 0 0 0 0 0 0 0 0 0 0 0 0 0 0 0 0 127 0" result="hardAlpha"/>
<feOffset dy="1.67346"/>
<feGaussianBlur stdDeviation="1.67346"/>
<feComposite in2="hardAlpha" operator="out"/>
<feColorMatrix type="matrix" values="0 0 0 0 0 0 0 0 0 0.215686 0 0 0 0 0.380392 0 0 0 0.1 0"/>
<feBlend mode="normal" in2="BackgroundImageFix" result="effect1_dropShadow_2912_7936"/>
<feColorMatrix in="SourceAlpha" type="matrix" values="0 0 0 0 0 0 0 0 0 0 0 0 0 0 0 0 0 0 127 0" result="hardAlpha"/>
<feMorphology radius="0.836731" operator="erode" in="SourceAlpha" result="effect2_dropShadow_2912_7936"/>
<feOffset dy="0.836731"/>
<feGaussianBlur stdDeviation="0.836731"/>
<feComposite in2="hardAlpha" operator="out"/>
<feColorMatrix type="matrix" values="0 0 0 0 0 0 0 0 0 0.215686 0 0 0 0 0.380392 0 0 0 0.1 0"/>
<feBlend mode="normal" in2="effect1_dropShadow_2912_7936" result="effect2_dropShadow_2912_7936"/>
<feBlend mode="normal" in="SourceGraphic" in2="effect2_dropShadow_2912_7936" result="shape"/>
</filter>
<filter id="filter1_dd_2912_7936" x="-8.22544e-06" y="1.15344" width="83.6836" height="78.6625" filterUnits="userSpaceOnUse" color-interpolation-filters="sRGB">
<feFlood flood-opacity="0" result="BackgroundImageFix"/>
<feColorMatrix in="SourceAlpha" type="matrix" values="0 0 0 0 0 0 0 0 0 0 0 0 0 0 0 0 0 0 127 0" result="hardAlpha"/>
<feOffset dy="0.874028"/>
<feGaussianBlur stdDeviation="0.874028"/>
<feComposite in2="hardAlpha" operator="out"/>
<feColorMatrix type="matrix" values="0 0 0 0 0 0 0 0 0 0.215686 0 0 0 0 0.380392 0 0 0 0.1 0"/>
<feBlend mode="normal" in2="BackgroundImageFix" result="effect1_dropShadow_2912_7936"/>
<feColorMatrix in="SourceAlpha" type="matrix" values="0 0 0 0 0 0 0 0 0 0 0 0 0 0 0 0 0 0 127 0" result="hardAlpha"/>
<feMorphology radius="0.437014" operator="erode" in="SourceAlpha" result="effect2_dropShadow_2912_7936"/>
<feOffset dy="0.437014"/>
<feGaussianBlur stdDeviation="0.437014"/>
<feComposite in2="hardAlpha" operator="out"/>
<feColorMatrix type="matrix" values="0 0 0 0 0 0 0 0 0 0.215686 0 0 0 0 0.380392 0 0 0 0.1 0"/>
<feBlend mode="normal" in2="effect1_dropShadow_2912_7936" result="effect2_dropShadow_2912_7936"/>
<feBlend mode="normal" in="SourceGraphic" in2="effect2_dropShadow_2912_7936" result="shape"/>
</filter>
</defs>
</svg>
